 <svg  version="1.0" xmlns="http://www.w3.org/2000/svg"  width="900.000000pt" height="900.000000pt" viewBox="0 0 900.000000 900.000000"  preserveAspectRatio="xMidYMid meet">  <g transform="translate(0.000000,900.000000) scale(0.100000,-0.100000)" fill="#4bd714" stroke="none"> <path d="M4390 7712 c-51 -25 -97 -69 -120 -117 -25 -52 -27 -152 -4 -198 21 -42 94 -117 114 -117 8 0 23 -7 33 -14 17 -13 18 -44 20 -465 1 -295 -1 -451 -8 -451 -10 -1 -433 -1 -447 0 -4 0 -5 41 -1 90 l6 91 -121 122 -122 121 0 158 c0 155 0 159 23 167 12 5 33 21 47 36 20 21 25 37 25 80 0 47 -4 57 -33 84 -65 63 -128 64 -187 4 -31 -32 -35 -42 -35 -89 0 -56 19 -87 68 -113 22 -12 23 -15 22 -174 0 -89 -1 -168 0 -176 0 -7 51 -65 114 -127 l113 -114 7 -76 c4 -42 5 -78 3 -80 -6 -6 -719 -6 -724 0 -3 3 -4 114 -4 248 l1 243 39 35 c21 19 47 49 57 67 17 31 17 33 -1 73 -29 64 -66 90 -129 90 -47 0 -55 -4 -89 -38 -33 -34 -37 -44 -37 -88 0 -51 15 -75 72 -117 15 -11 17 -41 20 -265 2 -163 -1 -252 -7 -253 -5 0 -112 0 -237 1 -252 1 -269 -3 -333 -70 l-30 -31 -1 -247 -1 -247 -49 1 c-27 0 -113 3 -192 6 l-143 6 -147 146 -147 146 1 287 c1 310 -1 295 56 307 33 7 103 72 128 119 25 47 28 178 5 197 -8 7 -15 18 -15 25 0 7 -19 31 -41 54 -41 40 -112 71 -166 71 -87 0 -183 -62 -222 -143 -54 -112 -3 -255 112 -313 l49 -26 -6 -66 c-3 -37 -7 -178 -8 -313 l-2 -247 179 -175 179 -175 209 -5 c115 -3 211 -8 214 -11 8 -7 7 -406 -1 -413 -3 -3 -119 -5 -258 -4 l-253 1 -35 39 c-19 21 -45 44 -57 50 -48 24 -113 5 -152 -45 -30 -38 -29 -122 2 -155 73 -80 138 -78 208 4 l24 28 263 2 263 1 1 -303 0 -303 -458 0 c-251 1 -460 5 -464 9 -4 4 -13 24 -21 43 -30 77 -118 130 -215 130 -58 0 -71 -4 -119 -35 -84 -56 -117 -114 -117 -205 0 -91 33 -149 117 -205 48 -31 61 -35 119 -35 97 0 185 53 215 130 8 19 17 39 21 43 4 4 213 8 464 9 l458 0 0 -283 -1 -284 -260 -3 -261 -2 -22 35 c-72 111 -238 67 -238 -64 0 -40 6 -54 33 -86 32 -37 37 -39 92 -39 56 -1 58 0 99 47 l42 47 258 -2 258 -3 1 -223 c2 -191 0 -222 -13 -223 -8 0 -94 0 -191 1 l-176 1 -144 -145 -144 -146 -154 0 -154 0 -41 45 c-40 42 -45 45 -96 45 -49 0 -56 -3 -92 -40 -32 -34 -38 -48 -38 -83 2 -139 175 -184 244 -64 l16 28 171 -2 171 -1 147 146 148 146 171 0 c131 0 172 -3 172 -12 1 -7 2 -131 3 -275 l2 -262 30 -31 c62 -66 88 -72 284 -69 l176 3 0 -42 c-1 -23 -2 -90 -3 -149 l-2 -108 -103 -105 c-56 -58 -121 -127 -145 -153 l-43 -48 -292 -1 -292 -1 -3 24 c-2 13 -8 28 -13 34 -5 5 -9 17 -9 26 0 21 -41 71 -81 100 -17 12 -55 27 -85 34 -101 23 -193 -13 -251 -99 -31 -45 -33 -54 -33 -133 0 -132 43 -191 176 -238 50 -18 53 -18 113 1 63 20 110 54 146 105 l21 31 320 -1 320 -2 68 73 c38 40 114 120 171 179 56 58 108 115 114 128 8 15 14 81 16 183 l3 161 177 -1 c98 -1 179 -3 182 -6 7 -6 3 -433 -3 -451 -4 -8 -16 -18 -28 -21 -35 -9 -58 -51 -58 -104 0 -60 25 -95 84 -122 40 -18 43 -18 83 -1 57 23 85 66 85 128 0 44 -4 51 -45 89 l-45 41 -2 223 -3 222 263 2 c144 1 270 2 280 2 15 1 17 -15 20 -179 l2 -179 -100 -101 -101 -101 2 -132 1 -132 -42 -38 c-37 -33 -43 -44 -47 -88 -5 -48 -3 -54 31 -91 58 -65 129 -67 190 -5 31 30 36 42 36 81 0 37 -6 54 -31 84 -17 20 -37 37 -45 37 -16 0 -15 -9 -14 144 l1 119 96 95 96 95 -6 193 c-3 107 -2 194 1 194 12 1 247 2 257 1 7 -1 9 -157 8 -452 -2 -421 -3 -452 -20 -465 -10 -7 -25 -14 -33 -14 -20 0 -93 -75 -114 -117 -21 -43 -22 -165 -1 -183 8 -7 15 -20 15 -30 0 -22 64 -80 113 -102 51 -23 143 -23 194 -1 49 23 113 81 113 103 0 10 7 23 15 30 21 18 20 140 -1 183 -21 42 -94 117 -114 117 -8 0 -23 7 -33 14 -17 13 -18 44 -20 465 -1 295 1 451 8 452 32 2 308 0 309 -3 1 -2 0 -63 -2 -136 l-4 -132 -29 -17 c-35 -21 -69 -74 -69 -108 0 -64 70 -125 142 -125 73 0 128 58 128 135 0 30 -8 44 -50 84 l-50 48 6 64 c3 35 1 89 -4 119 -6 30 -7 59 -3 63 6 6 303 11 416 7 6 0 9 -95 8 -267 l-2 -268 -39 -27 c-25 -18 -43 -40 -51 -66 -34 -101 60 -195 161 -161 57 19 88 63 88 126 0 48 -3 53 -45 89 l-45 39 -1 264 c0 144 2 265 5 268 2 3 89 5 193 5 l188 0 1 -126 1 -126 117 -117 116 -116 -2 -155 -3 -155 -30 -17 c-16 -9 -41 -37 -54 -62 l-25 -45 22 -45 c26 -56 74 -88 130 -88 33 0 46 7 81 41 36 36 41 47 41 86 0 48 -35 107 -71 118 -18 6 -19 18 -19 183 l0 176 -120 122 -121 122 3 102 3 103 232 -2 c257 -2 274 1 338 69 l30 31 1 220 c1 128 6 225 11 230 7 7 39 6 94 -1 46 -5 122 -10 169 -10 l85 -1 148 -145 147 -145 0 -87 c0 -48 -3 -177 -7 -287 l-6 -200 -66 -32 c-88 -42 -123 -96 -129 -199 -3 -57 0 -79 17 -111 80 -157 270 -192 390 -72 49 48 71 103 71 173 0 99 -46 167 -144 216 l-31 15 4 160 c2 88 7 228 11 310 l7 150 -188 187 -189 188 -197 2 -197 3 0 115 0 115 259 3 260 2 41 -47 c41 -47 43 -48 99 -48 53 0 59 3 91 37 30 33 34 44 34 93 0 50 -3 59 -35 90 -31 32 -40 35 -90 35 -58 0 -77 -11 -115 -67 -15 -22 -20 -22 -271 -24 -140 -2 -259 0 -265 3 -5 3 -9 48 -9 100 l0 93 128 1 128 0 117 117 117 116 153 2 152 2 29 -39 c37 -52 94 -73 143 -54 77 31 110 98 82 166 -24 59 -59 83 -119 83 -53 0 -78 -13 -109 -62 l-18 -27 -176 0 -176 0 -118 -120 -118 -121 -106 3 -106 3 0 284 0 283 458 0 c251 -1 460 -5 464 -9 4 -4 13 -24 21 -43 29 -75 121 -130 217 -130 56 0 70 4 116 34 84 57 121 124 119 216 -2 82 -38 142 -118 195 -48 31 -61 35 -120 35 -97 0 -184 -52 -214 -130 -8 -19 -17 -39 -21 -43 -4 -5 -214 -8 -466 -9 l-459 0 0 103 0 103 249 -2 249 -1 21 -30 c43 -61 113 -78 172 -42 32 20 64 74 64 111 0 64 -66 130 -130 130 -42 0 -96 -34 -116 -71 l-15 -29 -247 2 -247 3 1 113 c1 62 4 116 8 119 4 4 126 6 273 4 l266 -3 101 106 c85 88 107 106 132 106 62 0 113 56 114 124 0 60 -29 104 -88 130 -38 17 -40 17 -78 -3 -57 -30 -68 -42 -83 -87 -12 -36 -11 -44 10 -88 l22 -48 -78 -78 -78 -78 -256 -4 c-141 -2 -258 -3 -260 -1 -6 4 -4 384 3 390 3 3 98 5 211 4 l205 -2 182 179 182 180 -2 238 c-1 132 -5 274 -8 316 l-6 77 34 14 c89 37 148 125 148 220 0 73 -22 120 -82 178 -46 44 -60 51 -146 66 -77 13 -187 -52 -231 -137 -26 -51 -30 -180 -6 -200 8 -7 15 -18 15 -25 0 -20 86 -94 117 -100 58 -13 56 3 57 -310 l1 -288 -147 -146 c-93 -92 -158 -148 -175 -152 -16 -4 -102 -7 -193 -8 l-165 -1 0 309 0 310 -30 31 c-43 46 -82 64 -150 70 -46 4 -59 8 -57 20 2 8 4 59 5 112 l1 97 98 97 98 97 0 86 0 86 45 43 c40 39 45 48 45 88 0 82 -85 145 -166 122 -20 -5 -44 -17 -54 -26 -21 -20 -50 -75 -50 -94 0 -28 40 -90 72 -111 32 -22 33 -25 33 -92 l1 -70 -99 -100 -99 -100 5 -127 c2 -71 1 -128 -2 -128 -11 -1 -356 -1 -366 -1 -6 1 -9 111 -8 313 l2 312 48 24 c53 27 113 83 113 105 0 8 7 20 15 27 23 19 20 124 -5 175 -24 50 -83 108 -135 135 -47 24 -132 27 -161 5 -10 -8 -26 -15 -34 -15 -21 0 -91 -68 -112 -109 -13 -23 -18 -55 -18 -108 0 -68 3 -80 31 -122 34 -50 52 -65 111 -96 l38 -21 3 -312 c1 -203 -2 -312 -8 -312 -10 -1 -520 -1 -540 0 -6 0 -9 77 -6 217 l3 218 38 33 c53 45 68 92 45 142 -61 136 -255 100 -255 -48 0 -31 7 -47 33 -76 18 -20 39 -36 45 -36 15 0 14 12 13 -195 -1 -93 3 -187 8 -208 5 -21 5 -39 0 -42 -6 -4 -440 -9 -514 -5 -7 0 -9 156 -8 451 2 421 3 452 20 465 10 7 25 14 33 14 20 0 93 75 114 117 21 43 22 165 1 183 -8 7 -15 20 -15 30 0 22 -64 80 -113 103 -50 22 -149 21 -197 -1z m149 -95 c48 -20 81 -72 81 -127 0 -39 -6 -53 -34 -85 -32 -38 -36 -39 -96 -40 -60 0 -63 1 -96 39 -28 33 -34 47 -34 86 0 98 92 164 179 127z m1299 -309 c29 -29 32 -37 32 -94 0 -59 -2 -63 -40 -98 -52 -47 -111 -50 -160 -10 -75 64 -79 146 -8 211 47 43 125 39 176 -9z m-2093 -53 c30 -29 31 -45 4 -79 -23 -30 -45 -33 -77 -10 -30 21 -30 69 1 95 30 25 43 24 72 -6z m2701 -142 c21 -27 16 -57 -11 -83 -21 -20 -30 -22 -52 -14 -33 11 -50 56 -34 90 8 19 18 24 47 24 23 0 42 -6 50 -17z m-3252 -95 c22 -31 20 -51 -8 -77 -31 -29 -65 -23 -88 16 -15 27 -15 30 0 56 22 35 73 38 96 5z m-1319 -42 c39 -33 40 -36 40 -97 0 -51 -4 -68 -21 -85 -57 -57 -111 -69 -162 -37 -35 23 -50 40 -68 81 -20 45 -4 96 45 139 51 47 110 46 166 -1z m3264 -20 c29 -30 24 -63 -11 -89 l-28 -21 -27 21 c-35 25 -40 61 -13 91 27 28 51 28 79 -2z m2103 -82 c67 -35 98 -101 74 -158 -41 -98 -135 -126 -211 -62 -39 33 -40 36 -40 98 0 50 4 69 19 84 55 55 102 67 158 38z m-931 -2384 l0 -1681 -1821 0 -1821 1 1 1680 c0 924 0 1681 0 1683 0 1 819 1 1820 0 l1821 -2 0 -1681z m974 945 c31 -30 31 -43 0 -78 -30 -31 -55 -34 -77 -9 -30 33 -31 60 -4 87 31 31 50 32 81 0z m-5390 -205 c41 -45 -22 -108 -80 -82 -20 9 -25 19 -25 46 0 55 67 78 105 36z m5242 -402 c27 -25 29 -45 7 -76 -18 -26 -60 -29 -86 -5 -25 23 -23 68 4 87 30 21 47 20 75 -6z m-5713 -229 c30 -20 66 -81 66 -109 0 -28 -36 -89 -66 -109 -20 -14 -46 -21 -77 -21 -40 0 -53 5 -87 36 -38 34 -40 39 -40 94 0 55 2 60 40 94 34 31 47 36 87 36 31 0 57 -7 77 -21z m6296 -15 c38 -34 40 -39 40 -94 0 -55 -2 -60 -40 -94 -34 -31 -47 -36 -87 -36 -31 0 -57 7 -77 21 -30 20 -66 81 -66 109 0 28 36 88 65 109 20 14 45 21 77 21 41 0 54 -5 88 -36z m-282 -473 c26 -22 30 -72 7 -91 -36 -30 -105 -1 -105 44 0 21 44 66 64 66 6 -1 21 -9 34 -19z m-5546 -238 c39 -35 9 -103 -46 -103 -28 0 -56 29 -56 58 0 54 62 81 102 45z m5282 -269 c35 -35 6 -104 -43 -104 -20 0 -61 40 -61 60 0 50 69 80 104 44z m-5733 -546 c25 -31 24 -42 -6 -73 -32 -31 -49 -32 -80 0 -29 28 -31 42 -9 73 21 30 69 30 95 0z m3503 -791 c19 -26 19 -29 4 -55 -20 -33 -62 -41 -89 -16 -25 22 -24 59 2 85 26 26 57 21 83 -14z m2254 -77 c58 -31 72 -45 83 -85 15 -53 3 -108 -31 -140 -24 -23 -37 -27 -89 -28 -51 0 -65 4 -87 24 -43 40 -58 87 -43 134 15 47 32 65 85 94 48 25 38 25 82 1z m-5269 -61 c57 -34 70 -58 71 -121 0 -54 -2 -58 -42 -92 -32 -28 -50 -36 -80 -36 -112 0 -178 121 -112 207 26 34 73 61 109 62 11 1 35 -8 54 -20z m1609 -28 c15 -14 22 -30 22 -55 0 -31 -5 -38 -27 -47 -34 -13 -72 4 -84 38 -6 17 -2 30 17 53 30 35 41 36 72 11z m1891 -102 c21 -28 22 -34 10 -56 -17 -32 -51 -45 -84 -33 -52 20 -27 120 30 120 12 0 31 -13 44 -31z m690 -255 c19 -24 19 -28 6 -54 -18 -35 -46 -45 -77 -29 -43 23 -50 57 -18 89 28 28 64 25 89 -6z m-2144 -29 c31 -31 32 -55 1 -84 -29 -28 -52 -25 -78 10 -31 41 -7 94 45 98 4 1 19 -10 32 -24z m613 -141 c87 -100 -13 -255 -138 -214 -84 28 -118 137 -64 207 34 44 58 54 119 48 42 -4 55 -10 83 -41z"/> <path d="M4080 5330 l-245 -5 -8 -50 c-4 -27 -12 -54 -18 -59 -5 -6 -9 -22 -9 -37 0 -15 -4 -30 -9 -34 -5 -3 -12 -20 -16 -38 -12 -59 -37 -142 -51 -169 -8 -14 -14 -33 -14 -42 0 -20 -37 -144 -51 -168 -5 -10 -9 -28 -9 -41 0 -12 -6 -31 -14 -42 -7 -11 -16 -33 -19 -50 -9 -54 -38 -150 -48 -160 -5 -5 -9 -18 -9 -29 0 -11 -6 -38 -14 -61 -8 -22 -22 -67 -31 -100 -9 -33 -23 -76 -30 -95 -7 -19 -20 -62 -29 -95 -9 -33 -21 -73 -27 -90 -6 -16 -13 -41 -16 -55 -2 -14 -10 -38 -17 -55 -8 -16 -24 -61 -36 -100 -13 -38 -27 -75 -32 -82 -18 -23 27 -28 215 -25 135 2 189 7 191 15 2 7 11 48 21 92 9 44 22 91 27 105 11 25 16 44 40 155 l14 60 252 3 252 2 0 -30 c0 -17 4 -38 10 -48 10 -18 38 -116 47 -167 3 -16 12 -39 18 -50 7 -11 16 -40 19 -65 4 -25 10 -50 14 -57 8 -12 406 -22 418 -10 4 3 -5 35 -18 69 -35 87 -49 129 -55 158 -3 14 -11 39 -19 57 -8 17 -14 37 -14 45 0 15 -26 97 -45 143 -11 28 -21 63 -46 160 -6 22 -14 44 -20 50 -5 5 -9 19 -9 32 0 12 -6 37 -14 55 -21 52 -46 134 -46 153 0 9 -6 29 -14 43 -8 15 -24 63 -36 107 -12 44 -26 84 -31 89 -5 6 -9 20 -9 33 0 12 -6 37 -14 55 -8 18 -22 62 -31 98 -9 36 -23 81 -30 100 -13 36 -35 111 -55 186 -5 23 -16 44 -23 45 -6 2 -122 2 -257 -1z m122 -130 c46 -13 70 -46 98 -135 12 -39 39 -124 60 -190 21 -66 61 -196 89 -290 28 -93 66 -217 85 -275 84 -258 136 -440 136 -478 0 -40 -2 -42 -40 -52 -71 -19 -87 -1 -140 167 -17 55 -40 110 -51 122 -10 11 -19 24 -19 30 0 15 -92 86 -130 101 -19 7 -39 17 -44 21 -5 4 18 37 51 74 82 89 85 110 37 275 -20 69 -43 150 -51 180 -21 80 -62 199 -83 240 -10 20 -39 55 -65 79 -35 32 -51 41 -68 36 -31 -9 -94 -81 -119 -135 -19 -42 -30 -78 -73 -250 -9 -36 -20 -73 -26 -83 -5 -10 -7 -22 -3 -28 3 -5 2 -15 -3 -22 -13 -17 -31 -83 -39 -143 -8 -63 5 -90 75 -159 28 -27 51 -53 51 -58 0 -4 -24 -19 -52 -32 -30 -13 -76 -46 -106 -76 -44 -45 -56 -65 -73 -124 -47 -164 -59 -192 -85 -204 -33 -15 -66 -14 -88 2 -17 12 -17 17 -1 77 8 36 24 92 35 125 11 33 33 105 50 160 47 155 100 325 117 375 9 25 18 59 21 75 2 17 8 35 12 40 4 6 11 26 14 45 4 19 13 51 21 70 7 19 25 76 40 125 76 259 92 296 139 315 30 12 184 12 228 0z m-98 -166 c3 -9 6 -35 6 -59 0 -24 5 -47 10 -50 6 -3 10 -18 10 -33 0 -37 29 -161 46 -195 8 -16 14 -36 14 -45 0 -9 6 -34 14 -57 8 -22 25 -74 37 -115 12 -41 26 -78 31 -81 6 -4 8 -14 6 -24 -3 -16 -19 -18 -188 -17 -102 1 -188 1 -192 2 -13 0 -8 34 7 54 8 11 15 29 15 40 0 12 7 30 15 40 8 11 15 33 15 48 0 16 4 36 10 46 9 16 27 84 50 187 5 22 13 60 19 85 6 25 10 69 11 99 0 36 6 61 17 73 20 22 39 23 47 2z"/> <path d="M5096 5331 c-9 -14 -8 -1674 1 -1680 5 -3 91 -5 193 -3 l185 3 0 839 0 840 -172 0 c-94 0 -178 3 -186 6 -8 3 -18 1 -21 -5z m228 -147 c14 -14 16 -90 16 -691 0 -615 -1 -678 -17 -695 -21 -24 -58 -23 -83 2 -20 20 -20 33 -20 690 0 657 0 670 20 690 24 24 63 26 84 4z"/> </g> </svg> 