 <svg  version="1.0" xmlns="http://www.w3.org/2000/svg"  width="900.000000pt" height="621.000000pt" viewBox="0 0 900.000000 621.000000"  preserveAspectRatio="xMidYMid meet">  <g transform="translate(0.000000,621.000000) scale(0.100000,-0.100000)" fill="#63c4f9" stroke="none"> <path d="M3605 6093 c-11 -3 -28 -12 -37 -20 -12 -11 -26 -13 -50 -7 -18 4 -76 9 -128 10 -52 2 -122 6 -156 9 -48 5 -63 3 -73 -9 -8 -9 -19 -16 -26 -16 -18 0 -44 -55 -38 -79 3 -11 -4 -40 -16 -64 -12 -24 -21 -53 -21 -65 0 -34 22 -72 45 -78 15 -4 26 -18 34 -43 15 -52 15 -944 0 -1005 -9 -36 -8 -49 5 -74 9 -17 13 -38 10 -46 -4 -12 0 -16 15 -16 12 0 24 7 27 15 10 24 38 17 76 -17 41 -39 135 -98 154 -98 7 0 16 -4 19 -10 3 -5 10 -10 16 -10 14 0 11 56 -6 97 -10 24 -15 68 -15 137 1 123 1 134 1 269 -1 100 -2 107 -21 107 -19 0 -20 -6 -19 -115 0 -63 -2 -119 -5 -124 -3 -5 0 -29 8 -54 12 -41 12 -48 -5 -77 -11 -17 -19 -37 -19 -45 0 -26 -46 -29 -80 -5 -27 19 -35 21 -57 11 -14 -7 -28 -9 -32 -6 -3 4 -6 247 -6 542 l-1 535 -24 19 c-14 10 -31 19 -37 19 -9 0 -13 17 -13 50 0 39 4 52 20 60 23 12 27 40 6 40 -34 0 -35 71 -1 105 32 31 80 34 103 5 10 -11 28 -20 42 -21 84 -1 317 15 328 24 13 10 17 58 5 56 -5 -1 -17 -4 -28 -6z"/> <path d="M3741 6023 c-6 -31 -11 -62 -11 -70 0 -28 40 -11 71 30 19 23 38 45 43 49 6 4 2 10 -9 13 -11 4 -32 13 -47 21 -14 8 -28 14 -31 14 -2 0 -9 -26 -16 -57z"/> <path d="M875 6020 c-38 -4 -94 -13 -124 -19 -29 -6 -69 -11 -87 -11 -19 0 -34 -5 -34 -11 0 -15 266 -7 310 10 19 8 42 16 50 18 13 4 13 5 0 13 -8 6 -22 9 -30 8 -8 0 -46 -4 -85 -8z"/> <path d="M1050 5968 c0 -13 -8 -18 -29 -18 -17 0 -33 -4 -36 -10 -3 -5 -17 -10 -30 -10 -73 0 -6 -45 83 -56 26 -3 64 -12 85 -20 20 -8 50 -14 65 -14 15 0 36 -7 46 -15 11 -8 37 -15 57 -15 21 0 41 -4 44 -10 3 -5 28 -10 54 -10 l48 0 1 -151 c1 -83 6 -158 12 -167 6 -12 9 12 10 80 0 53 4 108 10 122 6 18 4 39 -8 77 -16 49 -20 54 -55 61 -21 4 -48 15 -60 23 -12 8 -28 15 -36 15 -19 0 -185 81 -189 92 -2 4 -13 8 -24 8 -12 0 -27 8 -34 18 -13 16 -13 16 -14 0z m43 -59 c-22 -8 -63 -2 -63 10 0 4 5 12 11 18 9 9 20 8 43 -4 29 -15 30 -16 9 -24z"/> <path d="M3578 5948 c-32 -15 -58 -32 -58 -37 0 -5 -3 -16 -6 -25 -5 -12 0 -16 18 -16 13 0 34 -7 46 -16 26 -18 42 -11 42 17 0 11 7 22 15 25 15 6 22 70 8 76 -5 2 -34 -9 -65 -24z"/> <path d="M3412 5948 c5 -15 48 -18 48 -3 0 6 -11 11 -26 13 -18 3 -25 0 -22 -10z"/> <path d="M6700 5889 c9 -32 24 -48 45 -49 6 -1 46 -3 90 -5 44 -2 108 -7 141 -11 62 -6 105 8 127 43 12 19 34 16 67 -9 26 -19 30 -28 30 -68 0 -33 -6 -52 -19 -64 -19 -17 -18 -18 17 -50 l36 -33 -19 -29 c-21 -34 -75 -83 -91 -84 -6 0 -17 7 -24 15 -14 17 -50 20 -50 5 0 -5 -6 -10 -13 -10 -21 0 -60 -37 -52 -49 3 -6 15 -11 25 -11 11 0 31 -5 45 -12 22 -10 28 -9 41 10 18 26 41 28 47 5 5 -17 7 -177 10 -749 2 -261 0 -269 -61 -258 -28 6 -38 3 -51 -14 -10 -14 -29 -22 -54 -24 -40 -2 -57 11 -57 45 0 14 5 17 20 12 11 -4 20 -2 20 4 0 6 -5 11 -10 11 -20 0 -31 51 -18 86 9 26 9 42 -1 74 -9 32 -9 45 -1 56 9 10 9 26 0 64 -7 28 -10 56 -7 64 7 18 -8 40 -22 32 -7 -5 -11 -76 -11 -224 -1 -187 -8 -305 -21 -361 -7 -27 31 -23 76 8 26 17 49 31 52 31 3 0 24 15 47 33 42 35 86 61 91 55 1 -2 8 -13 14 -26 16 -30 31 -19 31 22 0 38 26 69 35 43 8 -18 145 -108 244 -159 41 -21 79 -44 83 -51 4 -7 7 -68 7 -137 0 -115 2 -126 20 -139 20 -13 20 -14 -15 -37 -19 -13 -41 -24 -49 -24 -8 0 -17 -5 -20 -11 -4 -5 -17 -15 -28 -20 -12 -5 -62 -32 -112 -59 -49 -28 -109 -59 -132 -71 -24 -12 -43 -25 -43 -30 0 -8 -37 -31 -82 -50 -16 -6 -28 -15 -28 -20 0 -5 -6 -9 -13 -9 -8 0 -32 -12 -53 -28 -34 -23 -62 -39 -155 -87 -23 -12 -24 -24 -5 -50 7 -11 16 -40 20 -65 6 -40 4 -48 -21 -71 -16 -14 -38 -29 -51 -33 -13 -4 -21 -13 -19 -19 6 -19 33 -19 51 -1 14 14 21 14 46 4 16 -7 37 -9 46 -6 16 6 15 8 -2 20 -18 14 -18 15 10 41 l29 27 -23 18 -23 17 24 32 c12 17 29 31 36 31 7 0 13 5 13 10 0 6 -6 10 -14 10 -8 0 -18 -4 -21 -10 -3 -5 -15 -10 -26 -10 -24 0 -26 35 -1 44 28 11 76 40 131 79 28 20 62 37 74 37 13 0 32 9 42 20 9 10 34 24 54 31 20 6 45 17 57 24 11 8 38 20 58 29 36 15 37 15 31 -4 -5 -15 -2 -20 13 -20 11 0 22 7 26 15 3 8 15 15 26 15 11 0 20 7 20 16 0 11 -6 14 -20 9 -12 -4 -20 -2 -20 5 0 9 16 10 56 5 40 -5 54 -3 50 4 -4 6 -14 11 -22 11 -26 0 -15 18 24 37 22 12 38 28 40 41 2 12 12 22 25 24 16 2 23 11 25 33 2 17 8 35 14 42 13 16 20 260 8 268 -6 4 -10 17 -10 31 0 13 -4 24 -8 24 -4 0 -31 22 -59 49 -91 87 -205 145 -288 147 -59 1 -60 1 -67 35 -9 39 -10 916 -1 971 4 25 18 49 44 75 29 28 39 46 39 70 0 17 -4 34 -9 37 -5 3 -12 27 -15 53 -8 58 -45 143 -62 143 -7 0 -25 8 -42 17 -19 11 -35 14 -48 8 -49 -21 -307 -29 -344 -10 -14 7 -35 16 -47 19 -21 7 -21 5 -13 -25z"/> <path d="M3891 5888 c-12 -31 1 -53 64 -113 29 -27 123 -117 210 -200 86 -82 162 -152 168 -154 6 -2 50 -27 97 -56 47 -28 106 -62 133 -75 26 -13 47 -27 47 -31 0 -4 12 -12 28 -18 15 -6 34 -15 42 -21 35 -23 155 -92 174 -101 12 -5 44 -23 71 -40 28 -16 61 -35 75 -42 39 -19 69 -59 70 -93 0 -25 -6 -33 -35 -47 -20 -9 -48 -17 -64 -17 -22 0 -31 -7 -41 -30 -7 -17 -20 -30 -29 -30 -10 0 -26 -6 -36 -14 -17 -12 -18 -31 -16 -317 1 -171 6 -308 12 -313 27 -28 31 17 30 277 -2 218 1 271 13 302 11 25 21 35 33 33 20 -3 79 38 135 94 33 34 36 42 31 74 -9 53 -50 122 -85 140 -16 8 -37 23 -48 34 -10 10 -31 21 -48 25 -16 3 -38 15 -48 26 -9 10 -21 19 -26 19 -5 0 -26 11 -48 25 -22 14 -48 25 -58 25 -17 0 -38 13 -124 79 -14 12 -33 21 -41 21 -8 0 -25 8 -38 18 -13 10 -39 24 -57 32 -19 7 -40 24 -49 37 -8 12 -22 23 -30 23 -8 0 -35 16 -60 35 -25 19 -50 35 -54 35 -5 0 -9 7 -9 15 0 9 -12 20 -26 25 -20 8 -24 14 -19 32 6 17 4 20 -9 15 -17 -7 -33 6 -152 121 -30 28 -58 52 -63 52 -9 0 -31 45 -31 65 0 8 -7 15 -15 15 -8 0 -20 9 -27 20 -17 26 -37 25 -47 -2z"/> <path d="M510 5880 c0 -23 13 -26 29 -6 9 11 8 15 -5 20 -23 9 -24 8 -24 -14z"/> <path d="M635 5891 l-70 -6 37 -17 c20 -9 46 -14 57 -11 12 3 21 1 21 -3 -1 -17 -45 -41 -99 -55 -39 -10 -55 -19 -62 -36 -11 -29 -35 -29 -50 0 -12 22 -13 22 -21 -8 -4 -18 -4 -31 2 -33 22 -8 8 -22 -15 -16 -18 4 -25 2 -25 -8 0 -7 -9 -21 -20 -31 -37 -31 4 -52 45 -23 11 7 49 29 85 48 36 20 92 50 125 68 33 18 74 40 90 48 17 9 32 18 35 21 3 4 28 17 57 30 29 13 50 28 47 33 -6 9 -124 8 -239 -1z"/> <path d="M3728 5863 c-15 -4 -13 -10 12 -45 17 -23 30 -47 30 -55 0 -18 37 -16 44 3 11 30 6 46 -25 75 -17 16 -34 28 -38 28 -3 -1 -14 -3 -23 -6z"/> <path d="M6480 5864 c0 -3 14 -19 30 -36 17 -16 30 -37 30 -47 0 -18 48 -51 74 -51 18 0 21 15 6 25 -5 3 -10 19 -10 34 0 36 -23 55 -68 57 -20 0 -38 6 -40 12 -4 12 -22 17 -22 6z"/> <path d="M3507 5845 c-9 -22 3 -115 14 -115 11 0 11 87 0 114 -7 18 -8 19 -14 1z"/> <path d="M3250 5832 c0 -16 84 -92 101 -92 10 0 22 -7 27 -16 12 -21 66 -15 70 7 2 12 -21 31 -73 63 -69 42 -125 59 -125 38z"/> <path d="M3676 5832 c-2 -4 -10 -38 -16 -74 -9 -49 -9 -72 -1 -87 27 -50 47 -4 32 74 -6 31 -6 54 0 60 5 5 9 15 9 22 0 14 -16 18 -24 5z"/> <path d="M6690 5741 c0 -22 6 -44 15 -51 9 -7 13 -21 10 -31 -8 -23 10 -24 45 -4 45 26 51 20 48 -46 -2 -43 1 -63 10 -66 14 -5 16 38 6 136 -6 53 -9 61 -28 61 -12 0 -34 9 -51 20 -44 29 -55 26 -55 -19z"/> <path d="M6892 5768 c-15 -15 -16 -38 -2 -38 6 0 22 7 36 17 19 12 22 18 12 24 -18 12 -32 11 -46 -3z"/> <path d="M3249 5751 c-19 -16 -22 -22 -11 -32 6 -7 12 -21 12 -31 0 -29 24 -31 71 -8 39 20 41 23 23 33 -10 6 -29 21 -41 34 -27 28 -25 28 -54 4z"/> <path d="M870 5725 c0 -19 4 -35 9 -35 11 0 24 48 16 60 -13 21 -25 8 -25 -25z"/> <path d="M6404 5733 c-12 -57 -28 -85 -75 -131 -109 -107 -165 -159 -174 -163 -6 -2 -24 -21 -40 -42 -17 -23 -40 -40 -57 -44 -19 -4 -28 -12 -28 -24 0 -11 -4 -19 -10 -19 -5 0 -25 -13 -43 -30 -19 -16 -41 -30 -49 -30 -8 0 -25 -12 -39 -26 -13 -14 -50 -40 -83 -58 -32 -17 -88 -48 -125 -68 -36 -21 -86 -47 -111 -59 -25 -12 -58 -32 -73 -45 -16 -13 -36 -24 -44 -24 -37 0 -193 -125 -193 -154 0 -8 -7 -19 -15 -26 -8 -7 -15 -21 -15 -31 0 -9 7 -24 15 -33 8 -8 15 -18 15 -23 1 -23 107 -113 132 -113 27 0 35 19 24 56 -9 30 -14 34 -34 29 -23 -6 -69 15 -105 47 -40 35 23 105 139 157 11 5 50 27 86 49 35 22 74 43 86 46 12 4 22 11 22 16 0 4 8 10 18 14 9 3 35 16 57 29 22 13 56 32 75 43 19 11 54 32 78 47 24 16 51 31 60 35 89 37 151 90 508 438 l52 51 -16 57 c-17 62 -28 70 -38 29z"/> <path d="M3857 5730 c-4 -15 6 -30 36 -56 23 -20 51 -40 62 -45 11 -5 39 -20 62 -33 44 -25 66 -21 35 5 -9 8 -52 45 -94 82 -42 37 -81 67 -86 67 -5 0 -12 -9 -15 -20z"/> <path d="M6552 5648 c-26 -29 -34 -101 -12 -105 9 -2 25 15 40 44 17 33 31 48 45 48 18 0 20 -8 25 -102 3 -62 10 -107 18 -115 9 -10 12 9 12 91 0 109 -9 141 -40 141 -10 0 -22 5 -25 10 -11 17 -41 11 -63 -12z"/> <path d="M836 5634 c-4 -14 -4 -35 0 -46 4 -12 0 -24 -11 -32 -12 -8 -15 -23 -13 -51 4 -42 6 -40 33 40 26 77 30 115 12 115 -8 0 -18 -12 -21 -26z"/> <path d="M7065 5644 c-10 -8 -27 -14 -37 -14 -10 0 -18 -4 -18 -8 0 -5 -21 -19 -47 -32 -50 -24 -73 -45 -73 -67 0 -15 56 -18 65 -3 3 6 14 10 25 10 10 0 20 7 24 15 3 8 11 15 18 15 25 1 87 83 70 94 -4 2 -16 -2 -27 -10z"/> <path d="M333 5601 c-10 -15 -9 -20 2 -25 13 -4 35 20 35 38 0 14 -26 4 -37 -13z"/> <path d="M3235 5568 c-14 -90 5 -268 35 -328 8 -18 50 -26 50 -11 0 16 26 13 40 -4 10 -13 9 -15 -9 -15 -11 0 -21 -4 -21 -10 0 -5 8 -10 18 -10 9 0 23 -9 30 -20 7 -11 17 -20 23 -20 6 0 17 -7 25 -15 20 -19 65 -19 90 0 32 25 51 18 68 -26 9 -22 21 -37 26 -34 13 8 13 41 0 66 -15 26 14 69 46 69 17 0 25 7 30 25 3 14 14 41 25 61 l18 36 7 -28 c16 -65 61 -128 65 -91 9 72 -28 177 -62 177 -21 0 -25 10 -10 26 6 5 7 28 4 52 -5 38 -8 42 -34 42 -16 0 -29 -4 -29 -10 0 -5 -11 -10 -24 -10 -13 0 -29 -7 -36 -15 -7 -8 -18 -15 -25 -15 -7 0 -18 -7 -25 -15 -7 -8 -19 -15 -27 -15 -16 0 -52 38 -53 55 0 12 -65 65 -79 65 -5 0 -22 6 -38 14 -37 19 -73 33 -100 41 -19 5 -22 1 -28 -37z m75 -8 c6 -11 17 -20 24 -20 8 0 16 -7 20 -15 3 -8 11 -15 18 -15 21 0 74 -54 95 -96 16 -32 19 -51 14 -106 -7 -71 -15 -88 -35 -73 -7 6 -41 29 -77 52 -108 71 -105 65 -112 180 -3 55 -3 103 0 107 13 13 43 5 53 -14z m402 -115 c-2 -16 -8 -34 -13 -39 -5 -6 -9 -21 -9 -35 0 -24 -35 -71 -52 -71 -11 0 -72 -42 -76 -52 -2 -5 -15 -8 -29 -8 -22 0 -24 3 -19 23 4 12 10 42 13 67 4 32 13 51 32 67 14 12 30 22 34 23 11 0 71 43 76 53 1 4 13 7 25 5 17 -2 20 -9 18 -33z m-242 -260 c0 -21 -27 -30 -45 -15 -23 19 -18 30 15 30 20 0 30 -5 30 -15z"/> <path d="M3684 5588 c3 -7 9 -21 12 -30 3 -10 16 -20 28 -24 11 -3 32 -16 46 -29 14 -13 36 -26 50 -30 14 -4 41 -19 60 -34 41 -31 70 -49 88 -56 32 -13 39 -16 67 -35 32 -20 54 -33 125 -71 25 -14 63 -37 85 -52 22 -15 45 -27 52 -27 7 0 13 -4 13 -9 0 -5 10 -13 23 -17 12 -3 40 -18 62 -33 22 -14 58 -35 80 -46 22 -11 42 -23 45 -27 3 -4 17 -12 30 -17 26 -11 33 -16 108 -63 24 -16 47 -28 53 -28 5 0 9 -5 9 -10 0 -6 11 -15 24 -21 19 -9 29 -7 50 6 33 22 33 33 -1 41 -25 7 -63 26 -118 62 -11 6 -27 15 -35 19 -8 3 -74 41 -146 85 -73 43 -137 78 -143 78 -6 0 -11 5 -11 10 0 6 -5 10 -10 10 -6 0 -65 33 -133 73 -67 39 -133 78 -147 85 -14 7 -50 28 -80 47 -30 19 -75 44 -99 55 -25 12 -50 27 -57 34 -33 29 -44 36 -79 50 -45 19 -59 20 -51 4z"/> <path d="M6429 5521 c-64 -43 -148 -131 -125 -131 10 0 38 14 63 30 24 17 47 30 51 30 17 0 81 72 75 86 -7 20 -13 18 -64 -15z"/> <path d="M465 5520 c-9 -15 14 -50 34 -50 9 0 28 -11 40 -24 12 -13 36 -27 54 -30 17 -3 38 -12 46 -20 26 -22 61 -30 61 -13 0 11 -208 147 -225 147 -2 0 -7 -4 -10 -10z"/> <path d="M1235 5449 c-16 -4 -57 -15 -91 -23 -33 -9 -81 -16 -107 -16 -25 0 -58 -5 -73 -11 -16 -5 -63 -11 -106 -13 -43 -1 -81 -6 -84 -9 -4 -4 -6 -73 -4 -154 2 -82 4 -180 4 -219 1 -40 7 -78 13 -86 7 -7 15 -38 19 -68 3 -30 12 -62 19 -70 7 -8 12 -34 12 -57 -1 -31 3 -46 17 -56 14 -10 17 -22 13 -43 -3 -16 0 -38 5 -48 10 -18 12 -18 23 -3 9 13 9 25 1 52 -6 19 -14 35 -18 35 -5 0 -8 9 -8 21 0 30 -40 200 -53 228 -8 16 -12 91 -12 218 0 209 3 219 53 206 12 -3 29 0 37 7 7 6 36 13 62 14 26 1 57 7 68 13 11 5 56 13 100 16 44 3 87 8 96 12 13 5 17 -5 22 -62 4 -37 7 -96 7 -130 0 -77 20 -97 21 -21 2 89 7 181 14 224 7 47 -2 55 -50 43z"/> <path d="M7070 5410 c-6 -11 -21 -20 -35 -20 -13 0 -27 -4 -30 -10 -3 -5 -15 -10 -26 -10 -10 0 -28 -7 -38 -16 -44 -37 -98 -91 -114 -114 -15 -23 -17 -24 -27 -7 -6 9 -19 17 -29 17 -11 0 -21 7 -25 15 -3 8 -12 15 -20 15 -9 0 -32 9 -52 21 -30 16 -39 18 -45 7 -16 -25 -9 -38 19 -38 15 0 33 -5 39 -11 12 -12 46 -33 79 -48 21 -9 64 -118 64 -161 0 -24 -22 -26 -40 -5 -7 8 -19 15 -26 15 -8 0 -14 3 -14 8 0 4 -23 20 -50 37 -47 27 -50 32 -50 70 0 22 -4 46 -9 54 -12 19 -31 5 -31 -23 0 -15 -7 -26 -19 -29 -11 -2 -29 -25 -40 -50 -21 -45 -29 -131 -13 -141 4 -3 19 16 32 42 28 53 49 82 61 82 4 0 12 -19 16 -42 7 -34 15 -46 39 -58 16 -8 40 -25 52 -37 12 -13 33 -23 46 -23 13 0 35 -9 49 -20 30 -24 55 -26 63 -5 4 8 12 15 19 15 6 0 22 9 35 20 13 11 29 20 37 20 19 0 16 17 -4 25 -16 6 -16 8 6 26 13 10 31 19 40 19 14 -1 13 -3 -3 -15 -29 -22 -11 -30 27 -12 31 15 35 22 45 84 25 145 29 182 20 191 -5 5 -12 35 -15 66 -6 63 -16 77 -33 46z m13 -65 c-1 -11 -5 -58 -9 -105 -5 -63 -12 -90 -25 -102 -10 -10 -23 -18 -28 -18 -5 0 -40 -23 -76 -50 -37 -28 -71 -48 -76 -45 -5 4 -9 46 -9 94 0 67 4 92 15 101 8 7 15 18 15 24 0 17 50 58 100 82 8 4 21 16 28 26 19 26 68 21 65 -7z m-154 -354 c10 -6 5 -13 -19 -25 -18 -9 -34 -16 -35 -16 -7 0 -14 33 -9 41 7 11 45 11 63 0z"/> <path d="M1447 5396 c-4 -10 -5 -21 -2 -24 9 -9 17 6 13 25 -3 17 -4 17 -11 -1z"/> <path d="M6595 5379 c-22 -12 -54 -32 -72 -45 -17 -13 -35 -24 -38 -24 -4 0 -66 -35 -139 -79 -72 -43 -152 -90 -177 -103 -56 -31 -273 -157 -434 -253 -66 -39 -139 -79 -162 -89 -50 -22 -54 -40 -16 -58 15 -7 26 -16 25 -20 -1 -5 -2 -19 -2 -33 0 -14 -13 -38 -31 -56 -29 -30 -29 -32 -13 -50 9 -10 20 -19 25 -19 4 0 21 21 38 47 31 46 40 96 21 108 -16 10 -12 45 5 45 8 0 15 5 15 11 0 5 14 15 30 20 17 6 30 15 30 20 0 5 5 9 11 9 10 0 126 65 179 100 8 6 27 15 43 21 15 6 27 15 27 20 0 5 5 9 11 9 6 0 48 22 93 49 141 85 150 91 176 102 13 5 27 13 30 17 3 4 29 19 58 32 28 14 52 28 52 32 0 5 9 8 20 8 11 0 20 -7 20 -15 0 -8 -4 -15 -10 -15 -15 0 -12 -43 4 -65 12 -17 13 -17 20 9 4 15 4 43 0 62 -6 31 -3 38 27 65 18 16 43 29 55 29 12 0 36 14 52 30 17 17 36 30 44 30 17 1 51 47 43 60 -9 14 -15 13 -60 -11z"/> <path d="M3892 5358 c2 -12 10 -23 18 -23 22 0 19 39 -3 43 -15 3 -18 -1 -15 -20z"/> <path d="M3899 5223 c-5 -412 1 -1058 10 -1061 11 -4 17 112 10 198 -1 19 -1 42 0 50 1 13 8 459 10 695 0 39 -1 88 -4 110 -2 22 -4 43 -4 48 -1 4 -5 7 -11 7 -5 0 -10 -21 -11 -47z"/> <path d="M1380 5229 c0 -17 4 -28 10 -24 6 3 10 17 10 31 0 13 -4 24 -10 24 -5 0 -10 -14 -10 -31z"/> <path d="M1360 5168 c0 -19 2 -20 10 -8 13 19 13 30 0 30 -5 0 -10 -10 -10 -22z"/> <path d="M3724 5088 c-28 -32 -29 -71 -2 -83 18 -8 44 -45 62 -90 11 -25 26 23 20 64 -6 43 -42 131 -54 131 -4 0 -16 -10 -26 -22z"/> <path d="M1249 5077 c-7 -15 -16 -27 -21 -27 -4 0 -8 -8 -8 -17 0 -9 -7 -24 -16 -34 -8 -9 -14 -28 -12 -41 4 -22 5 -22 19 7 14 31 17 35 49 74 23 27 23 30 11 50 -8 12 -12 10 -22 -12z"/> <path d="M6416 5051 c-5 -8 -8 -213 -6 -470 3 -540 3 -485 -1 -543 -3 -46 4 -68 18 -54 9 9 13 902 4 1005 -4 50 -9 71 -15 62z"/> <path d="M3531 4981 c-16 -28 -13 -79 4 -88 8 -5 25 -28 37 -52 13 -24 28 -44 33 -45 6 0 11 20 13 46 2 35 -4 58 -25 99 -32 59 -47 69 -62 40z"/> <path d="M6632 4959 c2 -7 10 -15 17 -17 8 -3 12 1 9 9 -2 7 -10 15 -17 17 -8 3 -12 -1 -9 -9z"/> <path d="M1165 4927 c-4 -10 -5 -21 -1 -24 10 -10 18 4 13 24 -4 17 -4 17 -12 0z"/> <path d="M6730 4931 c0 -5 -3 -16 -6 -25 -4 -12 0 -16 15 -16 16 0 21 6 21 25 0 16 -6 25 -15 25 -8 0 -15 -4 -15 -9z"/> <path d="M3680 4906 c0 -8 -3 -21 -6 -30 -4 -10 -1 -16 9 -16 21 0 30 16 22 40 -7 23 -25 27 -25 6z"/> <path d="M4703 4903 c-19 -7 -15 -41 6 -52 10 -6 26 -26 35 -45 21 -45 34 -52 51 -30 11 16 11 21 -1 35 -8 8 -14 19 -14 23 0 4 -7 14 -15 22 -8 9 -15 24 -15 35 0 19 -19 24 -47 12z"/> <path d="M6576 4888 c-9 -12 -16 -28 -16 -34 0 -6 -6 -17 -14 -23 -16 -13 -21 -117 -6 -126 5 -3 20 17 32 45 13 27 30 52 39 55 28 9 18 105 -11 105 -5 0 -16 -10 -24 -22z"/> <path d="M6652 4827 c-9 -10 -10 -17 -2 -22 18 -11 12 -77 -10 -100 -19 -20 -19 -23 -5 -35 9 -8 19 -9 24 -4 11 12 19 112 12 148 -5 26 -8 27 -19 13z"/> <path d="M1107 4824 c-4 -4 -7 -14 -7 -23 0 -11 3 -12 11 -4 6 6 10 16 7 23 -2 6 -7 8 -11 4z"/> <path d="M3723 4818 c-27 -13 -30 -49 -7 -69 8 -7 27 -35 40 -62 14 -26 30 -47 37 -44 19 6 9 96 -16 145 -24 46 -22 45 -54 30z"/> <path d="M6765 4774 c-36 -56 -61 -174 -36 -174 13 0 41 29 41 42 0 5 9 21 20 35 13 17 20 41 20 68 0 52 -21 65 -45 29z"/> <path d="M1075 4767 c-4 -10 -5 -21 -1 -24 10 -10 18 4 13 24 -4 17 -4 17 -12 0z"/> <path d="M3526 4698 c-10 -40 -7 -78 9 -84 8 -3 24 -26 35 -50 29 -60 50 -58 49 4 0 31 -9 63 -27 97 -31 56 -56 69 -66 33z"/> <path d="M3027 4685 c-15 -14 -39 -25 -51 -25 -13 0 -30 -7 -37 -17 -8 -9 -36 -26 -64 -39 -50 -22 -96 -62 -147 -127 -23 -29 -28 -45 -29 -93 0 -83 -17 -126 -52 -135 -36 -10 -107 11 -155 45 -21 14 -57 32 -81 41 -24 8 -63 33 -87 55 -24 22 -53 40 -64 40 -11 0 -20 4 -20 10 0 5 -18 15 -41 21 -23 7 -43 18 -46 25 -3 7 -48 34 -101 59 -54 26 -101 52 -107 59 -11 14 -95 29 -95 17 0 -4 33 -29 73 -54 39 -26 77 -51 84 -57 7 -5 17 -10 22 -10 5 0 16 -6 23 -13 7 -7 34 -24 61 -37 26 -13 47 -27 47 -32 0 -4 5 -8 11 -8 6 0 44 -20 84 -44 39 -24 82 -47 93 -50 12 -4 22 -11 22 -16 0 -5 10 -12 22 -16 24 -7 164 -90 189 -111 22 -19 52 -16 72 7 19 22 39 18 77 -15 14 -12 33 -25 42 -28 19 -7 34 8 19 18 -6 3 -10 68 -10 147 -1 161 -1 161 83 204 96 48 111 57 179 101 59 39 68 49 65 72 -4 36 -44 39 -81 6z"/> <path d="M3668 4625 c5 -39 12 -47 31 -36 10 7 10 14 -3 40 -22 41 -33 39 -28 -4z"/> <path d="M6582 4618 c-28 -36 -52 -102 -52 -143 0 -60 19 -59 48 5 20 44 27 50 52 50 28 0 30 -3 30 -36 0 -20 -7 -51 -16 -70 -15 -31 -15 -36 -1 -47 8 -7 17 -19 20 -27 6 -15 11 69 8 138 0 20 -1 51 -1 69 0 18 -5 35 -10 38 -6 3 -10 -5 -10 -19 0 -14 -4 -26 -10 -26 -5 0 -10 11 -10 24 0 51 -24 73 -48 44z"/> <path d="M5446 4414 c2 -195 9 -246 30 -213 11 19 12 391 1 407 -5 6 -15 12 -21 12 -9 0 -12 -52 -10 -206z"/> <path d="M1775 4549 c-11 -28 -26 -55 -32 -61 -7 -6 -13 -16 -13 -24 0 -16 -27 -32 -95 -56 -59 -22 -72 -22 -107 -4 -39 21 -55 0 -22 -31 14 -12 27 -23 30 -23 3 0 17 -9 31 -20 l26 -20 36 22 c20 12 42 28 49 35 7 7 19 13 26 13 8 0 19 7 26 15 7 8 21 15 31 15 11 0 19 4 19 9 0 5 9 11 20 14 14 4 20 13 20 34 0 48 -12 133 -19 133 -4 0 -15 -23 -26 -51z"/> <path d="M982 4530 c-16 -26 -15 -30 3 -30 9 0 15 9 15 25 0 30 -2 31 -18 5z"/> <path d="M3717 4539 c-18 -10 -17 -56 1 -68 5 -3 22 -30 37 -58 15 -29 31 -53 36 -53 16 0 11 116 -5 130 -8 6 -16 21 -18 33 -3 25 -25 32 -51 16z"/> <path d="M3507 4513 c-14 -13 -7 -51 11 -58 16 -6 16 -7 -2 -21 -13 -9 -20 -27 -20 -56 -1 -36 2 -43 22 -47 13 -4 36 -24 51 -46 15 -22 31 -40 36 -40 6 0 11 18 13 41 3 44 -31 126 -68 159 -11 10 -20 25 -20 34 0 21 -15 43 -23 34z"/> <path d="M6766 4495 c-24 -37 -37 -74 -42 -122 -4 -37 -2 -43 15 -43 11 0 23 11 30 28 6 15 20 41 30 57 15 22 18 39 13 64 -9 43 -25 49 -46 16z"/> <path d="M3665 4498 c-4 -10 -4 -26 0 -35 8 -17 8 -17 12 0 3 9 3 25 0 35 -4 16 -4 16 -12 0z"/> <path d="M908 4443 c-40 -46 -45 -83 -11 -83 21 0 96 77 88 90 -10 16 -61 12 -77 -7z"/> <path d="M1034 4405 c-8 -21 4 -35 32 -35 28 0 31 17 7 36 -23 17 -32 17 -39 -1z"/> <path d="M3666 4345 c-4 -14 -3 -33 2 -41 14 -25 42 15 31 44 -11 29 -25 28 -33 -3z"/> <path d="M820 4350 c-8 -5 -24 -11 -35 -15 -18 -6 -16 -10 20 -40 53 -45 90 -54 116 -26 24 26 24 28 -3 34 -13 4 -27 16 -33 29 -11 25 -40 33 -65 18z"/> <path d="M6582 4335 c-12 -15 -22 -32 -22 -37 0 -5 -7 -16 -15 -25 -18 -17 -18 -119 0 -117 5 1 20 21 32 44 25 46 57 75 73 65 16 -10 12 -71 -7 -110 -15 -32 -15 -36 -1 -48 9 -6 18 -21 21 -32 3 -11 5 37 6 107 1 75 -3 129 -9 133 -5 3 -10 -3 -10 -14 0 -12 -4 -21 -10 -21 -5 0 -10 10 -10 23 0 13 -6 31 -13 41 -13 18 -15 17 -35 -9z"/> <path d="M1398 4298 c-3 -90 2 -121 27 -174 14 -28 25 -56 25 -62 0 -7 5 -12 11 -12 6 0 32 -18 59 -41 27 -23 53 -38 59 -34 9 5 71 -17 90 -32 2 -1 -10 -17 -28 -35 -35 -36 -39 -69 -17 -131 17 -49 98 -127 132 -127 29 0 77 24 108 54 32 31 29 156 -4 156 -7 0 -61 31 -158 92 -15 9 -60 33 -100 54 -40 21 -78 47 -84 58 -6 12 -29 45 -51 75 -35 47 -39 57 -33 93 7 40 -10 118 -26 118 -4 0 -9 -24 -10 -52z m362 -473 c54 -56 44 -114 -21 -115 -45 0 -92 86 -69 129 16 31 51 26 90 -14z"/> <path d="M1861 4300 c-12 -34 -9 -36 24 -14 14 9 21 22 18 30 -9 24 -30 16 -42 -16z"/> <path d="M3280 4320 c0 -5 -6 -10 -14 -10 -16 0 -31 -18 -22 -27 3 -3 19 6 36 21 21 17 26 26 16 26 -9 0 -16 -4 -16 -10z"/> <path d="M1056 4279 c-16 -16 -35 -29 -42 -29 -15 0 -73 -38 -100 -64 -13 -14 -15 -24 -8 -44 12 -33 44 -43 44 -13 0 23 68 83 90 79 8 -2 16 -15 18 -30 3 -23 -3 -30 -39 -47 -24 -12 -46 -21 -50 -21 -12 0 -79 -66 -79 -78 0 -13 26 -17 32 -4 4 10 105 72 117 72 4 0 20 9 35 21 24 19 26 26 26 99 0 43 -3 81 -8 84 -4 2 -20 -9 -36 -25z"/> <path d="M7137 4303 c-12 -11 -8 -23 8 -23 8 0 15 7 15 15 0 16 -12 20 -23 8z"/> <path d="M3482 4245 c3 -54 5 -60 26 -63 42 -6 38 35 -10 98 l-19 24 3 -59z"/> <path d="M6810 4291 c0 -14 28 -33 39 -27 16 10 1 36 -20 36 -10 0 -19 -4 -19 -9z"/> <path d="M717 4273 c-2 -4 -1 -17 3 -28 7 -19 8 -19 15 -2 8 18 -9 46 -18 30z"/> <path d="M3712 4246 c-11 -25 -6 -66 9 -66 4 0 20 -22 36 -49 15 -27 31 -47 35 -45 16 10 8 104 -13 144 -24 46 -50 52 -67 16z"/> <path d="M1773 4253 c-33 -6 -28 -23 7 -23 20 0 30 5 30 15 0 8 -3 14 -7 14 -5 -1 -18 -4 -30 -6z"/> <path d="M6750 4184 c-50 -105 -27 -197 24 -99 18 33 27 40 51 40 28 1 30 3 33 43 3 37 0 43 -22 54 -14 6 -26 15 -26 20 0 4 -7 8 -15 8 -8 0 -28 -28 -45 -66z"/> <path d="M3665 4208 c-14 -75 -10 -372 5 -363 6 3 10 21 10 40 0 20 6 35 15 39 20 7 19 36 -2 51 -17 13 -17 14 0 32 22 25 21 41 -2 94 -12 25 -16 49 -12 58 9 18 8 68 -2 77 -3 3 -9 -9 -12 -28z"/> <path d="M1681 4155 c1 -40 1 -40 10 -10 5 18 5 33 -1 39 -7 7 -10 -4 -9 -29z"/> <path d="M3504 4114 c-8 -53 3 -71 34 -55 38 20 32 101 -7 101 -16 0 -21 -9 -27 -46z"/> <path d="M1765 4110 c1 -22 5 -43 7 -46 8 -7 20 65 13 76 -13 22 -22 8 -20 -30z"/> <path d="M3436 4142 c-2 -4 -24 -18 -48 -30 -24 -13 -56 -32 -73 -42 -16 -11 -51 -31 -77 -45 -27 -14 -48 -30 -48 -35 0 -12 62 -13 76 -2 5 4 27 14 49 21 22 8 52 27 67 44 22 23 34 28 53 23 22 -6 25 -3 25 18 0 13 3 31 6 40 6 16 -20 24 -30 8z"/> <path d="M2803 4110 c-7 -11 -27 -27 -45 -36 -18 -9 -35 -20 -38 -24 -3 -4 -23 -18 -45 -30 -22 -12 -53 -30 -70 -41 -16 -10 -39 -23 -50 -28 -11 -5 -37 -21 -58 -35 -21 -14 -51 -33 -67 -41 -28 -15 -32 -14 -52 5 -44 41 -74 14 -65 -59 5 -43 3 -50 -14 -54 -23 -6 -25 -42 -3 -51 10 -4 26 3 42 19 32 32 42 32 42 -4 0 -16 6 -34 14 -40 19 -16 30 -61 17 -74 -13 -13 -52 -2 -81 23 -27 23 -60 26 -60 6 0 -15 16 -25 102 -68 l48 -23 0 -57 c0 -60 10 -77 30 -53 17 21 47 19 67 -5 18 -20 80 -46 89 -37 8 7 -16 50 -32 60 -8 4 -14 14 -14 21 0 17 33 46 52 46 21 0 48 -33 48 -58 0 -20 4 -22 40 -16 33 5 45 2 74 -20 19 -14 38 -26 43 -26 4 0 19 -9 32 -19 l25 -19 -38 -35 -37 -36 -64 40 c-69 44 -81 43 -118 -7 -36 -48 8 -181 78 -236 33 -25 98 -28 123 -4 10 9 23 16 29 16 6 0 18 11 27 25 15 23 15 28 1 55 -19 37 -19 37 10 56 22 14 26 14 47 0 36 -26 63 -19 130 32 35 27 70 51 78 55 8 4 29 16 45 26 17 11 37 20 46 20 9 1 24 10 34 21 16 18 16 20 1 26 -11 4 -16 18 -16 45 0 44 -6 47 -41 22 -35 -26 -61 -42 -86 -52 -11 -6 -24 -14 -27 -19 -3 -5 -22 -13 -41 -16 l-35 -7 6 -52 c5 -47 3 -54 -19 -76 -37 -34 -57 -22 -57 34 0 32 -4 45 -14 45 -8 0 -34 23 -58 51 -24 28 -81 76 -128 107 -47 30 -87 57 -89 59 -10 8 45 53 65 53 12 0 24 4 26 9 2 4 13 12 26 15 19 6 22 4 22 -18 0 -20 9 -30 42 -47 23 -12 54 -30 68 -41 19 -13 35 -17 53 -13 15 4 27 10 27 14 0 3 22 17 49 30 28 13 58 32 67 42 16 18 16 21 2 35 -13 14 -20 12 -61 -16 -25 -17 -59 -35 -76 -41 -28 -10 -35 -7 -73 24 -24 19 -54 38 -67 42 -23 7 -23 7 8 26 17 10 37 19 43 19 6 0 17 8 24 17 10 15 17 16 43 7 34 -13 46 -8 30 13 -9 11 -3 21 27 48 23 20 46 32 56 29 9 -3 39 3 67 12 72 23 117 2 50 -23 -37 -14 -30 -33 13 -33 21 0 31 6 35 20 6 21 47 28 58 11 6 -11 16 -17 149 -85 91 -48 116 -55 116 -33 -1 12 -75 65 -114 80 -11 4 -27 14 -36 21 -8 7 -31 19 -50 26 -19 7 -58 28 -87 47 -28 18 -54 33 -58 33 -4 0 -24 12 -44 28 -42 31 -39 29 -193 122 -64 39 -120 75 -123 80 -10 16 -29 12 -42 -10z m117 -111 c49 -30 57 -49 20 -49 -10 0 -22 -4 -25 -10 -3 -5 -15 -10 -26 -10 -11 0 -22 -7 -25 -15 -4 -8 -14 -15 -24 -15 -10 0 -23 -7 -30 -15 -7 -8 -20 -15 -30 -15 -10 0 -23 -7 -30 -15 -7 -8 -23 -15 -37 -15 -13 0 -26 -7 -29 -15 -4 -8 -12 -15 -19 -15 -7 0 -15 -7 -19 -15 -7 -19 -45 -20 -52 -1 -8 20 -80 50 -101 42 -16 -6 -14 -11 17 -36 19 -16 40 -30 46 -30 26 0 56 -67 71 -157 4 -29 2 -33 -16 -33 -12 0 -44 16 -71 35 -27 19 -53 35 -58 35 -4 0 -22 13 -40 29 -24 22 -32 38 -32 63 0 46 10 78 24 78 7 0 25 14 42 31 16 17 38 35 49 39 11 5 79 44 150 88 147 89 136 88 245 21z m74 -100 c5 -14 6 -42 2 -61 -5 -28 -14 -39 -51 -57 -24 -12 -47 -26 -50 -32 -4 -5 -22 -9 -41 -9 -19 0 -34 -4 -34 -10 0 -15 -38 -50 -55 -50 -9 0 -18 -7 -21 -15 -4 -8 -11 -15 -17 -15 -6 0 -19 -7 -29 -17 -24 -21 -30 -13 -37 45 -7 58 -3 92 11 92 6 0 33 14 61 31 34 21 57 29 73 25 13 -4 24 -2 24 3 0 12 51 61 63 61 5 0 21 9 35 20 32 26 54 22 66 -11z m-456 -372 c20 -16 14 -37 -15 -48 -31 -12 -38 -5 -48 39 -7 32 -6 33 22 26 15 -4 34 -11 41 -17z m211 -267 c53 -54 51 -130 -3 -130 -61 0 -109 98 -69 142 23 25 37 23 72 -12z m91 0 c0 -11 -4 -20 -10 -20 -5 0 -10 9 -10 20 0 11 5 20 10 20 6 0 10 -9 10 -20z"/> <path d="M3896 4115 c-3 -9 -6 -30 -6 -47 0 -28 2 -30 29 -25 15 3 33 1 40 -6 17 -17 14 -5 -12 43 -25 48 -41 59 -51 35z"/> <path d="M4770 4103 c-8 -3 -23 -12 -32 -21 -16 -14 -20 -13 -37 2 -13 12 -21 14 -26 6 -4 -6 -18 -15 -31 -20 -21 -8 -23 -12 -12 -35 15 -33 37 -32 64 2 l22 28 19 -33 c35 -64 35 -64 71 -51 44 15 57 2 54 -55 -2 -46 7 -59 45 -68 24 -6 23 4 -9 59 -12 19 -18 47 -17 70 3 48 -6 65 -34 61 -16 -2 -23 4 -30 30 -10 32 -17 36 -47 25z"/> <path d="M1851 4068 c1 -41 16 -94 18 -63 1 11 8 33 16 49 13 24 13 31 3 38 -26 16 -38 8 -37 -24z"/> <path d="M5463 4066 c-36 -23 -40 -37 -18 -56 34 -28 96 35 64 65 -11 10 -20 8 -46 -9z"/> <path d="M5030 4070 c-63 -5 -130 -31 -130 -50 0 -5 9 -14 20 -20 15 -8 20 -21 20 -56 0 -41 2 -45 29 -50 16 -3 38 -19 49 -34 12 -15 43 -36 69 -46 26 -10 62 -28 78 -40 17 -13 41 -28 55 -33 14 -6 39 -20 55 -31 17 -11 39 -24 50 -30 11 -6 29 -16 40 -23 11 -7 51 -30 90 -52 38 -22 79 -45 90 -52 11 -7 29 -17 40 -23 11 -6 34 -19 50 -29 17 -11 50 -31 75 -44 25 -14 61 -34 80 -46 19 -11 44 -25 55 -30 11 -5 37 -21 58 -35 21 -14 40 -26 43 -26 4 0 26 -13 51 -30 24 -16 50 -30 58 -30 8 0 17 -5 20 -11 4 -5 17 -15 28 -20 12 -5 36 -18 52 -29 17 -11 39 -24 50 -29 11 -5 36 -20 55 -32 19 -13 55 -34 80 -47 25 -13 59 -32 75 -42 17 -11 39 -24 50 -30 21 -10 32 -17 100 -60 22 -14 47 -29 55 -33 8 -4 42 -23 75 -42 127 -72 219 -115 228 -106 16 16 2 35 -39 56 -22 10 -46 25 -54 32 -40 35 -64 53 -72 53 -4 0 -8 5 -8 10 0 6 11 10 24 10 14 0 27 4 30 9 3 5 27 21 52 36 44 26 49 27 88 14 54 -17 143 -66 149 -83 3 -7 8 -33 12 -57 5 -38 3 -48 -20 -72 -15 -15 -45 -39 -68 -54 -23 -14 -56 -40 -73 -57 -98 -97 -141 -132 -199 -160 -16 -7 -39 -22 -50 -32 -25 -23 -141 -84 -161 -84 -8 0 -14 -4 -14 -10 0 -5 -10 -10 -22 -10 -17 0 -19 -3 -10 -12 19 -19 14 -66 -8 -88 -24 -24 -40 -26 -40 -5 0 25 -18 17 -31 -15 -11 -23 -18 -28 -35 -24 -12 3 -25 0 -29 -6 -4 -6 -18 -16 -32 -21 -14 -5 -27 -18 -30 -30 -3 -12 -11 -18 -19 -15 -15 6 -74 -24 -74 -37 0 -4 -11 -12 -25 -17 -15 -6 -25 -17 -25 -30 0 -24 -28 -39 -40 -20 -6 9 -15 9 -41 -3 -19 -8 -42 -18 -53 -21 -12 -4 -17 -13 -13 -26 5 -18 0 -20 -40 -20 -36 0 -44 -3 -39 -15 4 -11 -1 -15 -19 -15 -19 0 -25 -5 -25 -21 0 -17 -5 -20 -25 -16 -18 3 -29 -1 -36 -14 -5 -11 -17 -19 -25 -19 -9 0 -21 -13 -27 -30 -17 -44 -37 -38 -37 11 0 41 11 60 43 72 9 3 17 11 17 17 0 5 5 10 11 10 18 0 99 43 99 52 0 4 4 8 10 8 5 0 39 20 76 45 36 25 73 45 83 45 10 0 26 9 36 20 10 11 24 20 32 20 7 0 13 5 13 10 0 6 -9 10 -20 10 -11 0 -20 4 -20 9 0 14 72 74 115 96 22 11 44 26 48 33 4 6 16 12 27 12 27 0 50 11 50 24 0 6 28 27 62 46 81 46 105 61 156 93 24 16 51 31 60 34 9 4 45 26 79 50 35 24 67 43 72 43 4 0 18 9 31 20 13 11 28 20 35 20 15 0 70 58 63 66 -6 5 -44 -12 -133 -60 -16 -9 -36 -16 -43 -16 -7 0 -24 -11 -38 -24 -15 -13 -45 -33 -68 -45 -22 -12 -53 -30 -68 -39 -67 -43 -168 -102 -221 -131 -31 -17 -76 -42 -98 -57 -23 -14 -56 -28 -75 -31 -21 -4 -36 -13 -40 -25 -3 -10 -29 -30 -57 -44 -54 -25 -63 -31 -135 -76 -24 -16 -46 -28 -49 -28 -12 0 -229 -134 -241 -149 -7 -9 -22 -28 -34 -43 -27 -36 -62 -36 -85 0 -21 34 -64 71 -82 72 -11 0 -12 -14 -7 -69 l7 -69 -58 -33 c-32 -19 -64 -37 -73 -42 -8 -4 -28 -16 -45 -26 -30 -20 -107 -63 -157 -88 -15 -8 -30 -18 -33 -24 -4 -5 -17 -9 -30 -9 -13 0 -27 -5 -30 -11 -4 -5 -17 -15 -28 -20 -12 -5 -35 -18 -52 -29 -16 -11 -37 -23 -45 -27 -8 -4 -31 -18 -50 -31 -19 -13 -44 -28 -55 -33 -11 -5 -33 -18 -50 -29 -16 -11 -39 -24 -50 -30 -35 -19 -62 -35 -76 -47 -8 -6 -25 -14 -39 -18 -26 -8 -113 -65 -118 -77 -2 -5 -8 -8 -13 -8 -6 0 -22 -8 -37 -19 -15 -10 -58 -36 -97 -57 -38 -22 -90 -51 -115 -66 -25 -15 -52 -30 -60 -34 -37 -14 -58 -25 -105 -53 -27 -17 -60 -35 -72 -40 -11 -5 -24 -15 -28 -20 -3 -6 -12 -11 -19 -11 -12 0 -113 -63 -244 -151 -23 -16 -46 -29 -51 -29 -4 0 -27 -13 -49 -30 -23 -16 -45 -30 -48 -30 -13 0 -129 -74 -137 -87 -11 -18 -52 -16 -67 2 -7 8 -51 38 -99 66 -47 28 -93 55 -101 60 -8 5 -24 14 -35 19 -11 6 -33 19 -50 30 -16 11 -37 23 -45 27 -8 4 -55 31 -105 61 -49 30 -98 58 -110 63 -27 13 -60 32 -76 46 -15 11 -68 41 -179 101 -36 19 -72 41 -81 48 -8 8 -19 14 -23 14 -5 0 -28 14 -53 30 -24 17 -46 30 -50 30 -3 0 -25 14 -50 30 -24 17 -46 30 -49 30 -2 0 -23 13 -46 30 -22 16 -46 30 -52 30 -6 0 -25 12 -42 28 -37 33 -89 62 -114 62 -9 0 -23 7 -30 15 -7 8 -18 15 -24 15 -16 0 -56 42 -56 59 0 7 -4 10 -9 6 -13 -8 -89 23 -128 52 -18 13 -47 26 -65 30 -18 3 -39 11 -47 17 -20 16 -48 31 -134 73 -110 54 -107 62 68 153 11 6 34 19 50 30 17 11 37 23 45 27 17 7 207 118 230 133 8 6 24 15 35 20 11 6 34 19 50 30 17 11 37 23 45 27 8 3 33 18 55 32 22 14 54 33 70 42 17 9 50 28 75 42 25 15 54 31 65 37 11 6 34 19 50 30 17 11 37 23 45 27 8 3 33 18 55 32 22 14 60 36 85 49 74 41 94 52 125 72 17 11 39 24 50 30 11 5 47 26 80 45 33 19 69 39 80 44 11 5 37 21 58 35 21 14 40 26 42 26 3 0 35 18 71 41 37 22 77 45 88 50 12 5 35 18 51 29 17 11 39 24 50 30 11 5 29 16 40 22 37 24 100 62 130 79 17 9 50 28 75 42 25 15 54 31 65 37 11 6 34 19 50 30 17 11 37 23 45 27 8 4 69 39 135 78 66 39 127 75 135 78 8 4 29 16 45 27 17 11 39 24 50 30 11 6 34 19 50 30 17 11 37 23 45 27 8 3 81 46 161 95 81 48 150 88 155 88 4 0 15 6 23 14 9 7 43 28 76 46 33 18 67 39 76 46 8 8 20 14 26 14 6 0 25 8 41 17 25 14 33 15 46 4 8 -7 32 -22 53 -33 21 -11 53 -29 72 -39 52 -28 71 -50 71 -81 0 -20 5 -28 18 -28 29 0 34 11 17 37 -9 13 -13 27 -11 32 3 5 7 59 8 121 l2 112 -29 24 c-55 45 -161 104 -185 104 -13 0 -32 8 -42 17 -15 13 -21 14 -31 4 -9 -10 -6 -17 16 -35 23 -19 28 -30 25 -57 -3 -30 -7 -34 -39 -39 -19 -4 -80 -33 -135 -66 -54 -33 -106 -63 -114 -67 -8 -4 -28 -16 -45 -27 -16 -11 -39 -24 -50 -30 -11 -6 -33 -19 -50 -30 -16 -11 -41 -25 -55 -30 -13 -6 -27 -14 -30 -18 -3 -4 -21 -15 -40 -26 -63 -33 -104 -57 -135 -77 -16 -10 -39 -23 -50 -29 -11 -6 -33 -19 -50 -30 -16 -11 -41 -25 -55 -30 -13 -6 -27 -14 -30 -18 -3 -4 -16 -13 -30 -19 -32 -16 -94 -52 -145 -84 -22 -14 -47 -29 -55 -32 -8 -4 -28 -16 -45 -27 -16 -11 -42 -25 -57 -31 -16 -6 -28 -15 -28 -20 0 -5 -5 -9 -11 -9 -10 0 -123 -63 -179 -100 -8 -6 -24 -15 -35 -20 -11 -6 -33 -19 -50 -30 -16 -11 -37 -23 -45 -26 -8 -4 -48 -27 -87 -51 -40 -23 -75 -43 -77 -43 -3 0 -22 -12 -43 -26 -21 -14 -47 -30 -58 -35 -11 -5 -33 -18 -50 -29 -16 -11 -42 -25 -57 -31 -16 -6 -28 -15 -28 -20 0 -5 -4 -9 -10 -9 -5 0 -42 -19 -82 -43 -40 -24 -80 -46 -88 -50 -8 -4 -28 -16 -45 -27 -16 -11 -39 -24 -50 -30 -11 -6 -33 -19 -50 -30 -16 -11 -39 -24 -50 -29 -11 -5 -36 -20 -55 -32 -19 -13 -55 -34 -80 -47 -25 -13 -58 -32 -75 -42 -16 -11 -39 -24 -50 -30 -11 -6 -33 -19 -50 -30 -16 -11 -37 -23 -45 -27 -8 -3 -33 -18 -55 -32 -22 -14 -60 -36 -85 -49 -74 -41 -94 -52 -125 -72 -16 -11 -39 -24 -50 -30 -11 -6 -33 -19 -50 -30 -16 -11 -39 -24 -50 -30 -11 -6 -40 -22 -65 -36 -25 -15 -67 -37 -93 -51 -27 -14 -51 -31 -53 -38 -3 -7 4 -33 16 -58 27 -58 20 -72 -26 -52 l-35 14 6 -47 c3 -26 8 -63 11 -82 4 -31 2 -37 -23 -48 -15 -7 -39 -19 -52 -26 -19 -11 -30 -12 -45 -4 -24 13 -55 49 -56 64 0 6 -10 18 -23 27 -18 12 -20 18 -11 34 8 11 21 17 37 15 24 -2 25 -1 20 38 -5 37 -2 43 33 77 24 22 34 38 26 41 -7 2 -19 10 -26 18 -18 18 -50 18 -64 1 -6 -7 -12 -44 -14 -82 -3 -66 -4 -69 -31 -76 -16 -4 -43 -19 -62 -33 -19 -14 -37 -26 -42 -26 -4 0 -25 -16 -45 -34 l-38 -35 -1 -145 c0 -125 2 -148 17 -169 18 -24 134 -97 153 -97 6 0 11 -4 11 -9 0 -5 12 -14 28 -20 15 -6 34 -15 42 -21 24 -16 263 -156 280 -163 15 -7 29 -15 166 -98 45 -27 84 -49 87 -49 3 0 26 -13 50 -30 25 -16 47 -30 51 -30 3 0 47 -25 98 -56 50 -31 101 -60 113 -65 11 -5 34 -18 50 -29 17 -11 37 -23 45 -27 8 -4 47 -26 86 -50 39 -24 74 -43 77 -43 4 0 23 -12 44 -26 21 -14 47 -30 58 -35 11 -5 36 -19 55 -30 19 -12 73 -43 120 -71 47 -27 92 -54 100 -59 8 -5 24 -14 35 -19 11 -6 34 -19 50 -30 92 -59 166 -82 263 -81 83 1 147 17 202 50 19 11 44 25 55 30 11 5 83 47 160 93 77 46 147 87 155 91 8 4 29 16 45 27 17 11 39 24 50 29 19 8 187 107 225 131 8 6 24 15 35 20 11 6 34 19 50 30 17 11 39 24 50 29 11 5 72 40 135 78 63 38 122 72 130 76 8 4 29 16 45 27 17 11 39 24 51 29 11 5 51 28 88 50 36 23 68 41 71 41 2 0 23 12 47 28 24 15 52 33 63 40 11 7 32 17 48 23 15 6 27 15 27 20 0 5 5 9 11 9 6 0 61 30 123 67 61 37 134 79 161 93 28 14 69 38 93 53 23 15 59 37 80 48 20 11 51 29 67 40 17 10 39 23 50 29 11 6 34 19 50 30 17 11 37 23 45 27 8 4 59 33 113 65 55 32 103 58 109 58 6 0 54 26 107 58 53 32 103 61 111 65 8 4 29 16 45 27 17 11 39 24 51 29 19 8 137 77 174 101 8 6 22 13 30 17 8 4 33 18 55 32 63 40 79 50 101 60 11 5 50 27 85 48 35 22 71 43 79 47 17 8 39 21 97 59 24 15 47 27 52 27 5 0 16 6 23 13 7 6 31 22 53 34 22 11 56 30 75 42 19 11 42 24 50 28 8 4 48 26 88 50 40 24 81 43 91 43 23 0 31 18 32 73 2 80 11 97 64 127 100 57 126 70 140 70 20 0 19 19 0 26 -21 8 -19 27 5 42 19 11 20 19 14 75 -7 71 -37 112 -109 148 -22 11 -53 29 -70 39 -136 86 -134 85 -161 59 -16 -15 -24 -34 -24 -55 0 -24 -5 -34 -20 -39 -11 -3 -20 -11 -20 -16 0 -5 -11 -9 -25 -9 -14 0 -25 4 -25 9 0 5 -13 14 -30 21 -32 13 -34 19 -30 92 1 38 -2 48 -19 58 -18 9 -21 17 -15 45 7 41 -2 75 -22 75 -14 0 -116 52 -179 90 -16 11 -50 29 -75 42 -25 13 -47 26 -50 30 -3 4 -17 12 -30 18 -14 5 -38 19 -55 30 -16 11 -39 24 -50 30 -11 5 -27 14 -35 20 -56 37 -169 100 -179 100 -6 0 -11 4 -11 9 0 5 -12 14 -27 20 -16 6 -41 20 -58 31 -16 11 -39 24 -50 30 -11 6 -42 24 -70 40 -27 17 -61 35 -75 41 -36 14 -42 17 -75 39 -16 11 -37 23 -45 27 -8 4 -36 19 -61 35 -25 15 -54 28 -63 28 -9 0 -16 4 -16 8 0 5 -10 14 -22 21 -13 6 -36 20 -53 31 -16 11 -37 22 -45 26 -8 3 -26 11 -40 18 -31 16 -143 24 -230 16z m202 -81 c9 -5 25 -9 36 -9 10 0 27 -9 37 -20 10 -11 23 -20 29 -20 6 0 31 -10 56 -21 l45 -20 -43 -19 c-48 -22 -52 -32 -20 -54 27 -19 69 -21 86 -4 16 16 15 45 0 51 -7 3 -8 6 -2 6 5 1 32 -13 60 -31 l49 -31 -32 -9 c-37 -10 -37 -11 -23 -39 13 -23 62 -26 80 -4 15 18 36 19 47 2 9 -13 79 -49 133 -66 19 -6 46 -20 59 -30 l24 -19 -27 -25 c-37 -35 -26 -53 61 -97 37 -19 86 -45 108 -59 55 -35 68 -43 117 -70 24 -13 68 -37 98 -53 30 -17 62 -37 71 -45 9 -7 32 -16 52 -20 27 -4 39 -1 56 16 21 21 61 29 61 11 0 -5 23 -31 50 -58 28 -27 50 -58 50 -69 0 -11 11 -30 24 -42 13 -13 27 -39 31 -59 3 -21 9 -48 12 -60 6 -24 5 -23 -58 9 -35 18 -82 44 -104 58 -63 40 -77 48 -132 76 -29 14 -55 30 -58 36 -4 5 -13 9 -21 9 -12 0 -66 32 -84 50 -3 3 -25 15 -50 28 -25 12 -72 38 -105 57 -33 19 -77 43 -97 54 -20 11 -56 33 -80 48 -69 45 -82 52 -103 63 -11 6 -33 19 -50 30 -16 11 -41 24 -54 30 -13 6 -38 21 -55 33 -43 31 -83 54 -136 78 -25 12 -60 32 -77 46 -18 13 -50 32 -70 41 -21 10 -56 29 -78 43 -22 14 -47 29 -55 33 -68 33 -95 54 -96 77 0 13 -4 32 -9 42 -4 10 -4 22 1 27 19 19 148 18 186 -1z m-502 -144 c9 -8 26 -15 37 -15 25 0 59 -48 45 -62 -5 -5 -7 -31 -4 -58 l4 -49 -28 8 c-16 5 -56 24 -88 44 -42 25 -64 33 -75 27 -35 -19 -68 29 -39 58 19 19 35 14 42 -14 6 -21 10 -23 21 -14 10 8 12 25 8 60 l-6 49 33 -9 c18 -5 40 -16 50 -25z m1258 -254 c9 -5 25 -12 35 -15 21 -7 13 -26 -10 -26 -18 0 -53 28 -53 42 0 10 6 10 28 -1z m97 -52 c4 -5 17 -15 28 -20 40 -18 70 -37 77 -49 4 -7 18 -13 30 -14 24 -1 49 -30 37 -42 -4 -4 -15 0 -24 8 -21 18 -104 58 -121 58 -6 0 -17 8 -24 18 -7 10 -21 21 -31 25 -10 4 -15 11 -12 17 8 13 32 13 40 -1z m265 -159 c9 -17 8 -20 -8 -20 -18 0 -42 18 -42 32 0 17 40 7 50 -12z m-270 -1209 c0 -12 -39 -25 -48 -16 -7 7 17 25 36 25 6 0 12 -4 12 -9z m-60 -36 c0 -8 -7 -15 -16 -15 -9 0 -33 -13 -54 -30 -21 -16 -45 -30 -54 -30 -9 0 -19 -7 -22 -15 -7 -18 -38 -21 -32 -3 3 7 22 21 44 33 21 11 57 33 79 48 45 31 55 33 55 12z m-205 -125 c-3 -5 -13 -10 -21 -10 -8 0 -14 5 -14 10 0 6 9 10 21 10 11 0 17 -4 14 -10z m-60 -30 c-3 -5 -13 -10 -21 -10 -8 0 -14 5 -14 10 0 6 9 10 21 10 11 0 17 -4 14 -10z m-47 -39 c3 -10 -2 -11 -18 -6 -21 7 -22 5 -16 -19 6 -24 4 -26 -19 -20 -17 4 -25 2 -25 -6 0 -16 -47 -60 -63 -60 -7 0 -20 -9 -30 -20 -9 -11 -29 -20 -43 -20 -17 0 -37 -12 -58 -35 -18 -19 -40 -35 -50 -35 -10 0 -29 -9 -42 -19 -14 -11 -47 -25 -73 -32 -35 -9 -52 -19 -60 -36 -7 -15 -19 -23 -35 -23 -13 0 -37 -10 -53 -23 -15 -13 -44 -31 -64 -40 -20 -9 -40 -24 -43 -33 -5 -12 -14 -15 -37 -10 -27 5 -30 4 -24 -14 4 -14 1 -22 -12 -27 -10 -3 -26 -13 -35 -21 -10 -8 -24 -12 -32 -9 -8 3 -30 -5 -48 -18 -18 -14 -44 -29 -56 -35 -13 -5 -37 -24 -54 -40 -16 -17 -38 -30 -48 -30 -9 0 -23 -7 -30 -15 -7 -8 -18 -15 -24 -15 -6 0 -17 -9 -24 -20 -7 -11 -18 -20 -26 -20 -7 0 -29 -11 -49 -24 -20 -14 -52 -28 -71 -32 -21 -4 -38 -13 -41 -24 -6 -20 -67 -60 -90 -60 -16 0 -96 -52 -115 -75 -7 -8 -19 -15 -28 -15 -9 0 -25 -8 -36 -18 -12 -10 -37 -25 -56 -32 -49 -20 -100 -50 -100 -61 0 -5 -10 -9 -23 -9 -13 0 -36 -13 -52 -30 -16 -16 -37 -30 -46 -30 -10 0 -21 -4 -24 -10 -3 -5 -15 -10 -26 -10 -11 0 -37 -16 -57 -35 -20 -19 -45 -38 -54 -41 -10 -3 -18 -9 -18 -13 0 -5 -21 -16 -47 -26 -27 -10 -59 -28 -74 -41 -14 -13 -37 -24 -51 -24 -14 0 -28 -7 -31 -15 -4 -8 -30 -26 -59 -41 -29 -15 -78 -46 -109 -69 -31 -23 -71 -48 -90 -54 -19 -6 -42 -19 -51 -29 -42 -42 -56 -50 -110 -56 -32 -4 -60 -11 -63 -15 -7 -13 -148 0 -170 15 -11 8 -29 14 -41 14 -19 0 -81 36 -175 100 -14 10 -57 34 -95 54 -82 43 -99 54 -137 84 -16 12 -34 22 -42 22 -13 0 -89 47 -161 100 -23 16 -46 30 -53 30 -18 0 -136 64 -162 89 -12 11 -31 21 -40 21 -10 0 -21 5 -24 10 -4 6 -34 24 -68 41 -34 18 -63 35 -65 40 -2 5 -15 9 -28 9 -17 0 -27 8 -34 25 -6 16 -17 25 -32 25 -12 0 -31 9 -43 20 -20 19 -144 89 -255 145 -26 13 -52 30 -59 39 -7 9 -22 16 -31 16 -10 0 -31 11 -47 24 -15 13 -57 40 -93 61 -126 72 -141 82 -185 134 -56 66 -58 92 -7 149 l37 43 40 -16 c22 -10 56 -30 76 -46 31 -24 46 -29 92 -29 55 0 56 0 107 59 70 80 104 87 181 37 29 -20 61 -36 70 -36 9 0 24 -9 34 -20 10 -11 24 -20 32 -20 7 0 16 -7 19 -15 4 -8 15 -15 26 -15 11 0 37 -13 58 -30 35 -28 147 -93 180 -105 61 -23 85 -41 83 -65 -1 -15 0 -18 3 -7 3 9 10 17 15 17 12 0 68 -28 87 -43 8 -6 36 -19 63 -28 27 -10 61 -27 75 -38 15 -12 32 -21 38 -21 13 0 105 -56 148 -89 14 -12 31 -21 36 -21 5 0 32 -18 58 -40 27 -22 56 -40 65 -40 10 0 19 -3 21 -8 4 -10 132 -87 231 -140 45 -23 98 -53 119 -67 21 -14 42 -25 47 -25 5 0 32 -18 60 -40 28 -22 56 -40 63 -40 7 0 22 -7 32 -15 11 -8 27 -15 36 -15 8 0 32 -11 52 -25 27 -19 50 -25 87 -25 28 0 51 4 51 8 0 5 17 14 38 20 40 12 68 27 203 106 94 55 175 99 205 110 25 9 72 36 111 64 17 12 36 22 41 22 6 0 31 16 56 35 26 19 50 35 55 35 5 0 14 6 20 14 11 13 92 62 261 159 25 14 101 54 170 88 110 55 181 94 318 176 21 12 56 30 78 41 23 11 45 25 48 31 4 6 15 11 25 11 10 0 26 9 36 20 10 11 24 20 32 20 8 0 31 11 51 25 20 14 42 25 49 25 7 0 16 6 20 13 4 7 22 18 38 25 44 19 164 91 208 125 27 21 37 36 37 57 0 38 20 49 38 22 22 -34 39 -30 126 31 42 29 66 32 74 8z"/> <path d="M2250 970 c0 -5 9 -10 21 -10 11 0 17 5 14 10 -3 6 -13 10 -21 10 -8 0 -14 -4 -14 -10z"/> <path d="M6840 4071 c0 -5 -7 -16 -15 -25 -8 -8 -16 -25 -17 -38 -2 -18 2 -24 23 -26 23 -3 27 1 33 31 7 36 0 67 -15 67 -5 0 -9 -4 -9 -9z"/> <path d="M1910 4060 c0 -6 7 -13 15 -16 8 -4 15 -16 15 -28 0 -22 20 -61 20 -39 0 7 10 21 21 32 l22 20 -26 6 c-15 4 -31 13 -38 21 -13 16 -29 18 -29 4z"/> <path d="M6583 4058 c-33 -42 -64 -160 -44 -172 10 -6 51 44 51 62 0 5 12 17 26 27 22 14 28 15 35 4 14 -23 10 -57 -11 -96 -20 -37 -20 -37 0 -55 24 -23 26 -54 4 -66 -13 -7 -14 -13 -4 -31 6 -12 17 -20 23 -18 14 4 17 311 3 324 -5 4 -11 2 -13 -4 -7 -21 -21 -15 -25 9 -3 26 -30 35 -45 16z"/> <path d="M3584 4042 c-9 -14 -8 -26 7 -52 l18 -35 -2 53 c-1 56 -6 62 -23 34z"/> <path d="M2018 3988 c6 -7 14 -31 18 -53 7 -36 8 -37 14 -15 3 14 15 29 27 34 20 9 19 11 -13 28 -40 21 -61 24 -46 6z"/> <path d="M3500 3941 c0 -21 5 -31 16 -31 11 0 14 8 12 27 -4 39 -28 42 -28 4z"/> <path d="M6776 3945 c-11 -28 -7 -35 20 -35 23 0 25 -2 14 -15 -15 -18 -13 -20 18 -29 20 -7 22 -4 22 32 0 29 -5 41 -17 45 -10 2 -25 8 -34 11 -11 5 -19 1 -23 -9z"/> <path d="M6411 3932 c-6 -11 -11 -37 -11 -56 0 -29 4 -36 19 -36 32 0 43 60 17 95 -13 18 -14 18 -25 -3z"/> <path d="M6887 3944 c-5 -5 -1 -51 9 -102 6 -29 24 -19 24 13 0 38 18 38 42 1 13 -20 29 -36 37 -36 8 0 43 -11 78 -25 43 -18 69 -23 79 -17 14 8 13 11 -7 26 -13 9 -28 16 -34 16 -5 0 -41 20 -80 45 -38 25 -77 45 -87 45 -9 0 -22 9 -28 20 -11 20 -22 25 -33 14z"/> <path d="M2124 3918 c3 -13 6 -34 7 -48 0 -20 3 -17 13 15 14 45 12 55 -11 55 -11 0 -14 -6 -9 -22z"/> <path d="M3997 3910 c-14 -11 -29 -20 -35 -20 -5 0 -27 -13 -49 -29 -22 -16 -50 -32 -63 -36 -13 -4 -38 -16 -54 -26 -17 -9 -55 -30 -83 -45 -29 -15 -53 -31 -53 -36 0 -4 -5 -8 -12 -8 -6 0 -26 -10 -44 -22 l-33 -23 30 -31 c26 -27 29 -34 19 -59 -9 -23 -8 -32 4 -43 13 -14 20 -12 58 14 24 16 45 31 48 34 3 3 16 11 30 18 27 13 62 34 70 42 3 3 25 15 50 28 25 13 61 32 80 44 19 11 57 32 83 45 26 14 46 31 43 37 -7 17 -24 78 -31 109 -6 32 -23 34 -58 7z m28 -101 c0 -16 -7 -25 -20 -28 -11 -2 -36 -16 -56 -32 -20 -16 -45 -29 -56 -29 -10 0 -33 -13 -51 -30 -18 -16 -40 -30 -48 -30 -15 0 -76 -39 -82 -52 -5 -11 -52 -10 -52 0 0 4 22 29 49 56 37 37 58 49 90 53 30 4 41 10 41 23 0 18 45 40 83 40 16 0 17 3 8 14 -13 16 2 32 19 21 5 -3 20 1 32 9 29 21 43 16 43 -15z"/> <path d="M3530 3871 c0 -12 6 -21 16 -21 9 0 14 7 12 17 -5 25 -28 28 -28 4z"/> <path d="M2220 3864 c0 -14 3 -14 15 -4 8 7 15 14 15 16 0 2 -7 4 -15 4 -8 0 -15 -7 -15 -16z"/> <path d="M6757 3863 c-12 -21 -18 -73 -8 -73 6 0 11 10 11 23 0 13 5 28 11 34 7 7 7 13 1 17 -6 3 -13 3 -15 -1z"/> <path d="M7580 3859 c-23 -9 -23 -11 -7 -20 24 -14 62 -7 62 11 0 18 -22 22 -55 9z"/> <path d="M4950 3801 c0 -16 -6 -31 -15 -35 -23 -9 -18 -29 15 -61 42 -40 39 -80 -5 -80 -26 0 -30 -3 -27 -25 1 -14 10 -31 20 -38 15 -11 21 -9 44 17 l28 31 32 -20 c18 -11 42 -24 53 -29 18 -8 237 -137 275 -161 8 -6 24 -14 35 -19 12 -5 61 -33 110 -63 50 -30 97 -57 105 -61 8 -4 29 -16 45 -27 17 -11 42 -25 58 -31 15 -6 27 -15 27 -20 0 -5 5 -9 11 -9 6 0 48 -22 93 -48 70 -42 115 -68 221 -126 11 -7 39 -24 62 -39 24 -15 45 -27 47 -27 2 0 49 -26 103 -58 54 -32 105 -61 113 -65 8 -4 29 -16 45 -27 17 -11 41 -25 55 -30 13 -6 27 -14 30 -18 12 -16 123 -63 142 -60 18 3 15 8 -23 33 -24 16 -46 32 -49 35 -7 7 -40 27 -90 53 -96 52 -115 62 -120 68 -8 8 -110 69 -134 80 -12 5 -34 18 -51 29 -16 11 -37 23 -45 27 -8 4 -58 33 -111 65 -53 32 -99 58 -102 58 -4 0 -57 31 -120 69 -63 38 -124 72 -136 76 -11 3 -21 11 -21 16 0 5 -6 9 -13 9 -7 0 -29 12 -48 26 -19 14 -43 29 -55 34 -11 5 -74 40 -138 79 -65 39 -120 71 -123 71 -3 0 -65 36 -139 81 -121 73 -134 83 -134 109 0 15 -7 30 -15 34 -8 3 -15 14 -15 24 0 28 -21 82 -31 82 -5 0 -9 -13 -9 -29z"/> <path d="M1944 3778 c-3 -13 -12 -30 -19 -38 -7 -8 -15 -35 -18 -60 -7 -55 20 -117 72 -162 30 -26 40 -30 78 -25 24 2 52 12 62 21 10 9 24 16 32 16 32 1 57 34 61 85 l4 50 -50 24 c-28 13 -58 29 -66 36 -22 18 -127 75 -139 75 -5 0 -13 -10 -17 -22z m116 -131 c27 -43 26 -83 -1 -98 -29 -15 -63 1 -89 43 -24 40 -26 75 -4 99 15 17 19 17 46 3 16 -8 38 -29 48 -47z"/> <path d="M3230 3761 c0 -11 45 -41 63 -41 7 0 31 -13 53 -30 37 -28 74 -39 74 -22 0 12 -44 52 -58 52 -7 0 -12 5 -12 10 0 6 -6 10 -14 10 -7 0 -19 7 -26 15 -13 16 -80 21 -80 6z"/> <path d="M6810 3751 c-14 -28 -13 -31 15 -31 20 0 25 5 25 25 0 30 -25 34 -40 6z"/> <path d="M6290 3715 c0 -13 -7 -40 -16 -59 -23 -47 -13 -86 23 -86 21 0 24 3 15 12 -7 7 -12 20 -12 30 0 25 45 24 77 -2 14 -11 38 -20 53 -20 18 0 34 -10 50 -30 16 -20 32 -30 50 -30 21 0 29 -6 33 -22 2 -13 8 -31 12 -40 5 -14 2 -18 -13 -18 -12 0 -24 5 -27 10 -8 13 -45 13 -45 1 0 -5 9 -13 20 -16 11 -3 20 -10 20 -15 0 -5 8 -11 19 -15 10 -3 34 -21 54 -40 25 -24 41 -32 56 -28 25 6 27 25 6 43 -22 18 -19 83 4 104 21 19 41 14 41 -10 0 -22 38 -17 75 11 50 39 28 91 -26 60 -63 -37 -84 -33 -194 34 -50 31 -63 38 -150 85 -38 21 -77 44 -86 52 -24 21 -39 17 -39 -11z"/> <path d="M3170 3723 c1 -11 76 -63 91 -63 16 0 -62 69 -78 70 -7 0 -13 -3 -13 -7z"/> <path d="M7297 3689 c-10 -11 -16 -24 -12 -27 4 -4 11 1 16 11 6 9 19 17 29 17 11 0 20 5 20 10 0 18 -35 11 -53 -11z"/> <path d="M3440 3640 c0 -5 8 -10 19 -10 10 0 24 -7 31 -15 14 -17 40 -20 40 -5 0 6 -6 10 -14 10 -7 0 -19 7 -26 15 -14 17 -50 20 -50 5z"/> <path d="M7105 3580 c-3 -5 3 -10 14 -10 11 0 23 5 26 10 3 6 -3 10 -14 10 -11 0 -23 -4 -26 -10z"/> <path d="M4683 3565 c-8 -21 -3 -23 35 -18 42 7 43 33 2 33 -18 0 -33 -6 -37 -15z"/> <path d="M3290 3560 c-13 -9 -12 -13 8 -28 23 -18 23 -19 8 -62 -8 -24 -13 -46 -10 -49 13 -13 59 29 62 56 4 38 -45 98 -68 83z"/> <path d="M6330 3550 c0 -5 9 -10 20 -10 11 0 20 5 20 10 0 6 -9 10 -20 10 -11 0 -20 -4 -20 -10z"/> <path d="M7045 3549 c-4 -6 -5 -12 -3 -14 7 -7 48 7 48 16 0 13 -37 11 -45 -2z"/> <path d="M6435 3501 c-3 -6 3 -15 14 -21 24 -12 42 7 20 21 -18 11 -26 11 -34 0z"/> <path d="M2210 3475 c0 -8 5 -15 10 -15 6 0 10 -6 10 -13 0 -7 12 -18 28 -25 15 -6 49 -26 76 -42 38 -24 51 -28 57 -18 7 10 9 10 9 1 0 -7 11 -13 25 -13 14 0 25 4 25 9 0 10 -56 41 -73 41 -6 0 -18 6 -26 14 -16 14 -127 76 -136 76 -3 0 -5 -7 -5 -15z"/> <path d="M4223 3433 c-31 -11 33 -62 171 -137 12 -6 40 -24 64 -39 23 -15 59 -37 80 -48 20 -11 55 -31 77 -43 22 -12 56 -31 75 -42 19 -11 54 -32 77 -47 24 -15 47 -27 52 -27 5 0 16 -6 23 -13 7 -7 24 -18 38 -24 32 -16 95 -52 145 -84 22 -14 47 -29 55 -32 8 -4 29 -16 45 -26 17 -11 46 -28 65 -38 63 -34 114 -64 145 -84 17 -10 42 -24 58 -30 15 -6 27 -15 27 -20 0 -5 4 -9 10 -9 8 0 184 -99 230 -130 8 -6 22 -13 30 -17 13 -6 191 -108 230 -132 73 -46 160 -83 176 -77 18 7 18 8 -1 21 -11 8 -24 18 -30 23 -17 14 -232 142 -239 142 -3 0 -32 18 -64 39 -56 38 -148 92 -187 110 -11 5 -36 20 -55 33 -19 13 -55 34 -80 47 -25 12 -58 31 -75 41 -31 20 -76 45 -135 76 -19 11 -37 22 -40 26 -3 4 -17 12 -30 18 -14 5 -38 19 -55 29 -16 11 -48 29 -70 41 -22 12 -58 34 -80 49 -22 15 -60 37 -85 50 -25 12 -58 31 -75 42 -16 10 -39 23 -50 29 -11 5 -27 14 -35 20 -40 25 -155 93 -174 101 -12 5 -28 13 -36 19 -105 68 -261 149 -277 143z"/> <path d="M3315 3378 c-21 -12 -35 -23 -64 -48 -9 -8 -37 -26 -61 -38 -190 -100 -272 -151 -267 -166 5 -17 59 -20 72 -4 5 7 21 19 35 25 38 19 136 76 205 121 11 6 31 17 44 22 49 21 81 51 81 76 0 26 -14 30 -45 12z"/> <path d="M5163 3366 c-57 -18 -91 -47 -120 -102 -17 -32 -23 -54 -18 -73 7 -28 72 -101 90 -101 6 0 24 -13 40 -30 16 -16 36 -30 45 -30 8 0 60 -29 115 -65 55 -36 111 -69 125 -72 14 -3 41 -18 60 -33 29 -22 125 -72 217 -113 30 -13 99 -1 143 25 19 12 54 42 77 67 41 45 41 46 26 76 -28 54 -67 96 -108 117 -22 12 -53 31 -70 44 -16 12 -61 39 -100 59 -38 21 -93 53 -121 71 -28 19 -54 34 -58 34 -4 0 -44 22 -89 50 -69 42 -184 92 -206 89 -3 0 -25 -6 -48 -13z m147 -91 c8 -7 22 -15 30 -19 8 -3 29 -15 45 -26 17 -11 37 -23 45 -27 16 -8 206 -117 230 -133 8 -6 24 -15 35 -20 11 -6 43 -24 70 -41 28 -16 68 -38 90 -48 82 -37 88 -72 20 -111 -91 -53 -121 -61 -147 -37 -24 22 -72 53 -118 76 -52 26 -69 36 -125 72 -22 14 -47 29 -55 32 -8 4 -28 16 -45 27 -16 11 -39 24 -50 29 -11 5 -37 21 -58 35 -21 14 -44 26 -52 26 -8 0 -16 4 -19 9 -8 13 -84 51 -102 51 -18 0 -33 37 -26 63 3 10 15 22 27 27 13 5 45 22 71 39 l49 30 35 -21 c19 -12 42 -27 50 -33z"/> <path d="M1872 3351 c-10 -6 -3 -19 28 -50 40 -40 43 -41 61 -25 17 15 21 15 61 -15 23 -17 48 -31 55 -31 7 0 13 -4 13 -10 0 -5 20 -18 44 -29 24 -11 46 -27 50 -36 3 -8 16 -15 30 -15 13 0 26 -3 28 -7 5 -12 76 -43 96 -43 20 1 -72 90 -93 90 -15 0 -109 58 -142 88 -11 11 -37 22 -56 26 -19 4 -41 13 -47 21 -8 9 -21 13 -31 10 -11 -4 -31 2 -48 14 -33 24 -32 23 -49 12z"/> <path d="M1692 3337 c-6 -7 -15 -25 -21 -40 -7 -17 -20 -29 -38 -33 -15 -3 -34 -7 -40 -10 -18 -5 -16 -59 2 -74 8 -7 15 -19 15 -26 0 -30 17 -11 50 54 36 72 76 122 97 122 7 0 13 5 13 10 0 15 -66 12 -78 -3z"/> <path d="M2460 3330 c0 -5 7 -10 15 -10 8 0 15 5 15 10 0 6 -7 10 -15 10 -8 0 -15 -4 -15 -10z"/> <path d="M4163 3287 c-3 -5 5 -18 18 -29 26 -20 174 -111 199 -122 8 -3 29 -15 45 -26 17 -11 37 -23 45 -27 8 -4 47 -26 86 -50 39 -24 74 -43 78 -43 4 0 25 -12 49 -27 63 -41 80 -52 97 -59 8 -3 25 -10 36 -16 12 -5 30 -8 40 -6 14 2 6 12 -36 43 -72 54 -145 100 -200 127 -25 13 -58 33 -75 44 -16 12 -57 36 -90 53 -33 18 -78 43 -100 56 -124 74 -181 99 -192 82z"/> <path d="M8023 3264 c-27 -12 -11 -25 25 -22 20 2 36 8 35 13 -3 11 -41 17 -60 9z"/> <path d="M1710 3225 c0 -16 93 -85 115 -85 8 0 15 -4 15 -9 0 -5 9 -13 20 -16 23 -7 25 -25 6 -68 -15 -38 -36 -119 -36 -146 0 -10 -6 -24 -13 -30 -25 -20 -38 32 -31 119 l7 79 -29 6 c-51 11 -58 13 -114 34 -68 26 -73 26 -65 1 4 -12 2 -26 -3 -33 -5 -7 -7 -38 -4 -70 4 -49 8 -60 31 -73 14 -8 40 -24 56 -34 17 -11 38 -23 48 -26 24 -9 31 -44 23 -115 -5 -40 -4 -59 4 -59 6 0 30 -20 54 -43 42 -43 43 -44 65 -26 30 25 51 14 51 -25 0 -27 -6 -36 -35 -52 -21 -11 -34 -25 -33 -34 4 -19 48 -26 48 -8 1 7 14 24 30 38 30 24 35 43 24 98 -8 39 -60 72 -113 72 -40 0 -51 13 -51 67 0 34 19 38 65 13 44 -24 49 -23 100 10 17 11 40 24 51 29 29 13 91 90 99 123 4 15 17 33 28 41 12 8 35 26 51 40 28 24 28 25 11 51 -19 28 -30 31 -69 16 -22 -8 -26 -16 -26 -53 0 -37 -4 -45 -31 -62 -17 -11 -43 -28 -58 -37 -14 -10 -33 -21 -41 -25 -8 -3 -31 -19 -51 -35 -20 -15 -44 -28 -53 -28 -23 0 -20 42 4 70 11 13 20 31 20 40 0 9 7 25 15 36 8 10 15 29 15 41 0 26 46 83 66 83 8 0 17 7 20 15 3 8 14 17 25 20 24 8 25 21 2 29 -10 4 -20 1 -25 -9 -5 -8 -16 -15 -25 -15 -9 0 -24 -7 -33 -15 -16 -14 -22 -14 -66 1 -27 9 -56 22 -65 30 -8 8 -27 14 -42 14 -14 0 -29 5 -32 10 -6 10 -25 14 -25 5z m-19 -165 c30 -22 46 -72 34 -109 -6 -20 -8 -20 -33 -6 -86 49 -87 50 -90 93 -3 41 -2 42 28 42 18 0 45 -9 61 -20z"/> <path d="M3970 3220 c-12 -8 -11 -10 8 -10 12 0 22 5 22 10 0 13 -11 13 -30 0z"/> <path d="M7857 3223 c-13 -12 -7 -24 18 -33 14 -5 25 -14 25 -19 0 -15 -32 -22 -47 -10 -11 10 -17 8 -30 -10 -13 -19 -21 -22 -49 -16 -27 5 -36 2 -41 -12 -4 -10 -11 -21 -17 -25 -6 -4 -5 -12 3 -22 18 -22 -21 -86 -53 -86 -13 0 -31 -9 -42 -21 -16 -17 -16 -22 -4 -29 8 -6 18 -10 23 -10 4 0 7 -13 7 -29 0 -20 -12 -42 -35 -68 -40 -44 -41 -62 -2 -81 22 -11 27 -20 27 -51 0 -30 6 -42 23 -54 39 -25 62 -25 65 1 5 32 37 25 38 -8 2 -43 3 -44 29 -20 17 16 22 27 15 34 -16 16 -12 32 15 57 28 27 32 51 10 69 -34 28 -13 72 48 98 23 10 27 17 27 54 0 29 7 49 22 65 19 21 23 21 38 8 25 -22 47 -9 57 33 7 30 14 38 36 40 23 3 27 0 27 -22 0 -37 32 -34 64 7 19 24 29 30 40 22 8 -5 49 -34 91 -62 71 -49 109 -64 117 -45 2 4 22 20 44 35 31 21 48 26 68 21 32 -8 33 1 3 21 -19 12 -30 13 -57 4 -46 -17 -164 6 -208 40 -34 26 -72 88 -72 116 0 8 -4 15 -10 15 -6 0 -10 -30 -10 -70 0 -54 -3 -70 -14 -70 -8 0 -18 5 -22 11 -4 7 -22 9 -50 4 -36 -5 -45 -3 -51 11 -4 10 0 21 10 29 14 10 13 15 -9 43 -24 31 -54 43 -54 22 0 -16 -56 -12 -70 5 -13 16 -32 19 -43 8z m130 -60 c4 -9 -6 -38 -22 -69 -27 -49 -32 -53 -69 -56 -41 -3 -41 -4 -46 -48 -7 -57 -13 -67 -56 -85 -37 -15 -44 -38 -19 -65 13 -15 14 -22 3 -46 -18 -41 -65 -86 -85 -82 -29 5 -26 36 6 80 37 49 38 59 10 76 -15 9 -18 19 -13 35 9 31 34 57 55 57 39 0 47 81 11 123 -14 15 -13 17 1 17 9 0 19 -5 22 -11 5 -7 14 -4 27 7 16 15 23 16 38 6 33 -20 50 -15 50 17 0 46 72 83 87 44z"/> <path d="M1502 3065 c1 -55 -3 -110 -8 -123 -6 -13 -8 -39 -6 -58 4 -32 7 -35 29 -29 30 7 66 -20 58 -44 -3 -11 12 -26 51 -48 31 -18 60 -33 65 -33 22 0 6 42 -26 67 -20 16 -35 37 -35 48 0 29 -19 45 -51 45 -34 0 -45 27 -29 74 6 19 10 65 8 103 -3 59 -6 68 -23 72 -11 2 -23 8 -27 14 -4 6 -6 -34 -6 -88z"/> <path d="M3760 3100 c-12 -8 -11 -10 8 -10 12 0 22 5 22 10 0 13 -11 13 -30 0z"/> <path d="M2346 3044 c-9 -23 -7 -62 3 -68 11 -7 21 17 21 49 0 29 -16 41 -24 19z"/> <path d="M3655 3039 c-4 -6 -5 -12 -2 -15 7 -7 37 7 37 17 0 13 -27 11 -35 -2z"/> <path d="M1210 3020 c-12 -8 -9 -10 13 -10 18 0 40 -12 64 -35 20 -19 42 -35 49 -35 7 0 29 -14 49 -31 39 -35 61 -33 71 6 8 32 -10 55 -28 37 -19 -19 -42 -14 -53 10 -21 47 -125 84 -165 58z"/> <path d="M3610 3010 c-12 -8 -11 -10 8 -10 12 0 22 5 22 10 0 13 -11 13 -30 0z"/> <path d="M2225 2990 c-23 -26 -8 -26 25 0 18 14 21 20 9 20 -9 0 -24 -9 -34 -20z"/> <path d="M8540 2985 c-8 -16 -11 -43 -7 -79 5 -55 -12 -116 -33 -116 -5 0 -12 -9 -15 -21 -11 -34 -100 -119 -125 -119 -12 0 -72 -31 -134 -70 -161 -100 -147 -84 -138 -160 7 -60 9 -66 47 -92 23 -16 54 -27 73 -28 77 0 152 93 152 191 0 42 -4 51 -32 73 -32 25 -32 26 -13 41 19 14 30 18 90 30 30 6 95 62 95 81 0 8 6 17 14 20 8 3 19 20 26 37 6 18 16 40 21 50 22 41 22 187 0 187 -4 0 -14 -11 -21 -25z m-235 -496 c23 -71 -49 -159 -105 -129 -51 27 7 150 70 150 20 0 31 -6 35 -21z"/> <path d="M8182 2988 c-18 -18 -14 -28 11 -28 30 0 40 10 26 27 -14 16 -22 16 -37 1z"/> <path d="M7525 2960 c-5 -17 -12 -19 -46 -14 -31 5 -40 3 -45 -10 -9 -23 -76 -56 -113 -56 -35 0 -61 -9 -61 -21 0 -5 11 -9 23 -9 13 0 32 -9 42 -20 25 -27 41 -25 85 10 21 17 40 30 43 30 3 0 33 18 66 40 41 28 59 45 55 55 -9 22 -42 18 -49 -5z"/> <path d="M8043 2943 c-23 -15 -56 -48 -74 -72 -34 -48 -79 -142 -79 -166 0 -29 41 -14 89 33 41 38 50 54 53 87 2 33 7 41 26 43 18 3 22 -1 22 -22 0 -22 5 -26 29 -26 37 0 91 30 91 51 0 17 -27 76 -38 83 -4 2 -23 7 -42 11 -28 5 -43 1 -77 -22z"/> <path d="M3505 2950 c-3 -5 1 -10 9 -10 8 0 18 5 21 10 3 6 -1 10 -9 10 -8 0 -18 -4 -21 -10z"/> <path d="M1201 2875 c-1 -69 2 -83 19 -98 11 -9 25 -17 30 -17 5 0 15 -9 22 -20 24 -38 38 -24 38 40 0 50 3 60 18 60 9 0 22 4 29 8 13 8 -10 22 -99 61 -25 11 -49 26 -51 33 -3 7 -6 -23 -6 -67z m59 -77 c0 -15 -19 -8 -29 11 -14 25 0 37 16 15 7 -10 13 -21 13 -26z"/> <path d="M2245 2919 c-4 -5 -18 -14 -31 -19 -13 -5 -29 -22 -35 -37 -6 -16 -15 -36 -20 -46 -15 -29 0 -62 36 -78 30 -14 36 -14 69 3 20 10 36 23 36 28 0 5 7 15 15 24 8 8 18 28 21 44 10 50 -68 119 -91 81z m53 -79 c4 -34 -30 -70 -58 -63 -31 8 -35 27 -13 63 23 40 66 39 71 0z"/> <path d="M1380 2831 c0 -5 7 -14 15 -21 8 -7 15 -24 15 -39 1 -22 2 -24 11 -8 19 33 38 20 41 -30 3 -54 21 -65 26 -15 3 34 28 45 38 17 4 -8 14 -15 24 -15 10 0 24 -9 31 -21 9 -13 20 -18 32 -14 23 10 21 24 -5 35 -13 6 -36 19 -53 30 -16 11 -39 24 -50 30 -11 6 -38 21 -60 35 -42 25 -65 31 -65 16z"/> <path d="M3323 2813 c-13 -2 -23 -7 -23 -9 0 -14 110 -95 160 -117 8 -4 29 -16 45 -27 17 -11 37 -23 45 -27 15 -7 254 -147 280 -163 8 -6 22 -13 30 -17 8 -4 47 -26 86 -50 39 -24 75 -43 79 -43 5 0 16 -6 24 -14 15 -13 92 -57 171 -98 19 -10 42 -23 50 -28 63 -40 170 -100 179 -100 6 0 11 -3 11 -8 0 -4 21 -19 47 -32 26 -14 99 -56 162 -94 64 -37 125 -72 136 -77 11 -5 27 -13 35 -19 121 -78 200 -110 200 -79 0 14 -68 77 -92 85 -10 3 -18 10 -18 15 0 5 -8 9 -19 9 -10 0 -24 6 -30 14 -6 7 -41 28 -77 46 -36 17 -68 38 -70 45 -3 7 -18 15 -33 18 -16 3 -58 26 -95 51 -36 26 -75 46 -86 46 -10 0 -24 9 -30 20 -6 11 -19 20 -28 20 -10 0 -39 14 -65 30 -26 17 -51 30 -56 30 -18 0 -91 73 -91 91 0 11 -7 22 -15 25 -8 4 -15 10 -15 14 0 13 85 51 88 40 6 -17 22 -11 22 8 0 11 12 24 27 31 15 7 33 21 41 32 7 10 20 19 28 19 17 0 131 106 123 115 -7 6 -142 -63 -207 -107 -24 -15 -46 -28 -50 -28 -4 0 -38 -20 -75 -45 -38 -25 -78 -45 -88 -45 -17 0 -72 31 -89 51 -8 8 -160 99 -167 99 -3 0 -39 20 -80 45 -40 25 -76 45 -78 45 -2 0 -23 12 -47 28 -66 42 -75 47 -192 106 -60 31 -114 55 -120 55 -6 -1 -21 -4 -33 -6z"/> <path d="M6103 2801 c-48 -22 -153 -99 -153 -112 0 -5 -10 -9 -22 -10 -22 -1 -21 -1 3 -9 22 -6 129 -102 129 -115 0 -21 -113 36 -154 78 -17 17 -20 17 -34 3 -13 -12 -13 -20 -4 -41 6 -14 16 -25 21 -25 6 0 43 -19 83 -43 40 -24 80 -46 88 -50 8 -4 35 -18 59 -32 24 -14 52 -25 62 -25 15 0 129 61 189 100 8 6 24 15 35 20 80 40 108 71 87 92 -11 11 -16 10 -25 -2 -7 -9 -32 -26 -57 -39 -63 -34 -79 -43 -128 -74 -66 -43 -90 -49 -128 -35 -19 7 -34 18 -34 25 0 7 -9 13 -19 13 -22 0 -36 16 -23 24 5 3 18 -1 28 -9 11 -8 42 -14 74 -15 48 0 63 5 118 41 34 22 62 44 62 49 0 19 -19 19 -40 0 -13 -11 -33 -20 -45 -20 -13 0 -36 -7 -51 -15 -42 -22 -68 -19 -116 14 -24 16 -53 32 -65 35 -32 10 -29 25 15 72 42 45 62 56 83 43 10 -6 16 -2 19 14 10 38 35 26 38 -17 5 -63 45 -81 113 -52 19 8 47 12 63 9 20 -4 27 -2 22 6 -4 6 -14 11 -22 11 -8 0 -14 4 -14 10 0 5 -11 12 -24 16 -14 3 -32 14 -42 25 -9 10 -22 19 -29 19 -7 0 -20 9 -30 20 -23 26 -76 26 -132 1z"/> <path d="M4919 2772 c-13 -10 -41 -27 -62 -37 -21 -11 -41 -23 -43 -28 -11 -17 9 -45 44 -63 20 -10 68 -37 107 -59 38 -23 77 -44 85 -48 8 -4 24 -13 35 -20 44 -26 181 -109 200 -120 11 -7 36 -24 56 -39 41 -31 64 -35 76 -14 12 20 79 48 101 42 38 -12 65 -54 73 -113 6 -42 14 -62 31 -74 22 -17 24 -17 55 2 18 11 45 27 62 35 54 27 67 67 29 85 -10 5 -26 14 -35 19 -10 6 -25 13 -33 17 -8 4 -33 18 -55 32 -52 33 -112 68 -150 87 -16 8 -43 23 -60 34 -16 11 -39 24 -50 30 -11 6 -36 20 -55 31 -19 12 -55 32 -80 46 -25 13 -58 33 -75 44 -16 10 -39 23 -50 29 -11 6 -33 19 -50 30 -16 11 -37 23 -45 27 -8 3 -26 15 -39 25 -30 23 -42 23 -72 0z"/> <path d="M8094 2724 c3 -9 6 -18 6 -20 0 -3 5 -2 10 1 16 10 12 35 -6 35 -11 0 -14 -5 -10 -16z"/> <path d="M1320 2705 c0 -8 9 -15 20 -15 24 0 27 15 4 24 -22 9 -24 8 -24 -9z"/> <path d="M3171 2706 c-8 -9 -24 -16 -37 -16 -13 0 -24 -2 -24 -5 0 -17 143 -115 169 -115 6 0 11 -4 11 -9 0 -5 12 -14 28 -20 15 -6 41 -20 57 -31 17 -11 37 -23 45 -27 8 -4 44 -24 79 -46 35 -21 74 -43 85 -48 26 -11 56 -30 74 -46 7 -7 17 -13 22 -13 5 0 51 -25 102 -56 50 -31 101 -60 113 -65 21 -10 26 -13 196 -115 59 -35 110 -64 113 -64 4 0 25 -12 49 -27 51 -33 111 -68 152 -89 17 -8 39 -21 50 -27 11 -7 44 -25 73 -41 39 -22 54 -37 60 -60 l8 -31 27 29 c22 24 28 26 33 12 3 -9 11 -16 18 -16 6 0 31 -14 55 -30 24 -17 57 -30 72 -30 15 0 31 -4 34 -10 8 -12 55 -13 55 -1 0 10 -95 74 -165 111 -11 6 -33 19 -50 30 -16 11 -39 24 -50 30 -11 6 -32 18 -47 28 -63 40 -200 122 -205 122 -3 0 -35 18 -70 40 -35 23 -74 45 -86 51 -12 5 -35 18 -52 29 -16 11 -39 24 -50 29 -11 5 -37 21 -58 35 -21 14 -40 26 -44 26 -3 0 -39 20 -80 45 -40 25 -77 45 -80 45 -4 0 -14 6 -22 14 -9 7 -43 28 -76 47 -33 18 -78 43 -100 56 -22 12 -47 26 -55 30 -8 4 -33 19 -55 33 -61 39 -76 47 -130 75 -27 14 -63 34 -80 45 -56 35 -106 60 -120 60 -8 0 -18 7 -23 16 -8 14 -10 14 -21 0z"/> <path d="M2090 2690 c-14 -11 -30 -24 -37 -30 -7 -5 -17 -10 -23 -10 -13 0 -50 -37 -50 -50 0 -5 6 -10 13 -10 20 0 57 30 57 46 0 8 8 17 18 20 32 11 82 39 82 46 0 15 -35 7 -60 -12z"/> <path d="M1392 2689 c-13 -5 -30 -16 -38 -24 -20 -19 -43 -19 -50 0 -4 8 -10 15 -15 15 -5 0 -9 -7 -9 -15 0 -8 4 -15 9 -15 4 0 16 -20 25 -45 10 -25 22 -45 27 -45 23 0 78 43 79 62 0 4 -10 7 -21 5 -12 -1 -24 4 -26 11 -6 15 29 16 44 1 7 -7 20 -8 30 -5 17 7 17 8 1 20 -10 7 -18 18 -18 24 0 17 -13 20 -38 11z"/> <path d="M1525 2662 c-4 -21 -15 -34 -33 -40 l-27 -9 39 -17 c56 -24 60 -22 52 31 -8 59 -22 75 -31 35z"/> <path d="M1636 2658 c-9 -17 -16 -41 -16 -53 0 -13 -7 -28 -16 -36 -13 -11 -11 -15 23 -31 41 -20 63 -18 63 7 0 21 24 19 45 -5 18 -19 17 -20 -3 -20 -28 0 -38 -18 -15 -27 10 -3 26 -15 35 -27 9 -11 19 -19 21 -16 5 5 11 120 8 147 0 6 -22 24 -48 39 -27 15 -54 34 -61 41 -18 18 -18 17 -36 -19z"/> <path d="M7240 2676 c0 -8 9 -18 20 -21 11 -3 20 -10 20 -15 0 -4 8 -10 18 -14 9 -3 42 -22 72 -41 30 -18 70 -41 88 -49 37 -18 42 -41 9 -50 -13 -3 -40 -17 -61 -31 -42 -28 -74 -32 -82 -10 -4 8 -12 15 -19 15 -7 0 -18 7 -25 15 -7 8 -20 15 -30 15 -10 0 -23 7 -30 15 -7 8 -20 15 -30 15 -10 0 -23 7 -30 15 -7 8 -21 15 -31 15 -11 0 -19 5 -19 10 0 6 -11 10 -25 10 -29 0 -34 -17 -8 -27 10 -4 30 -19 45 -35 15 -15 34 -28 41 -28 8 0 34 -11 58 -25 24 -14 52 -28 62 -31 25 -9 34 -39 29 -101 -3 -43 -7 -53 -22 -53 -10 0 -20 3 -22 8 -5 12 -66 52 -79 52 -20 0 -38 34 -40 75 -1 38 -2 38 -8 10 -6 -25 -11 -30 -34 -28 -15 1 -34 9 -43 17 -8 9 -24 16 -35 16 -10 0 -19 5 -19 10 0 6 -7 10 -16 10 -9 0 -13 -5 -10 -12 3 -7 9 -20 12 -28 3 -8 24 -23 47 -33 65 -29 107 -51 103 -54 -27 -28 -115 -83 -130 -83 -12 0 -47 16 -79 35 -32 19 -63 33 -68 30 -19 -13 -9 -46 18 -56 15 -6 30 -13 33 -17 10 -13 89 -52 105 -52 9 0 45 17 80 38 49 28 65 42 65 60 0 15 6 22 20 22 11 0 20 -4 20 -10 0 -5 12 -13 28 -16 32 -8 72 -33 72 -44 0 -5 -27 -25 -61 -45 -69 -42 -175 -137 -184 -165 -4 -12 -12 -16 -25 -13 -18 5 -20 0 -20 -40 0 -25 -4 -49 -10 -52 -5 -3 -10 -10 -10 -16 0 -12 33 -12 46 1 14 14 64 -4 64 -22 -1 -7 -7 -24 -14 -37 -16 -28 -4 -65 23 -75 9 -4 27 -13 41 -21 35 -21 79 -18 115 6 38 26 61 65 85 141 l18 57 -30 41 c-16 22 -36 40 -43 40 -7 0 -39 -16 -71 -35 -32 -19 -60 -35 -63 -35 -10 1 -71 59 -71 68 0 5 12 14 28 21 15 7 44 24 64 38 31 21 46 25 79 20 23 -3 45 -11 50 -18 4 -8 12 -10 16 -5 4 5 2 11 -4 13 -17 6 -16 34 0 57 9 13 28 18 70 19 36 1 58 6 61 14 6 15 32 17 41 3 12 -20 -6 -50 -31 -50 -25 0 -124 -65 -124 -81 0 -5 9 -9 19 -9 23 0 91 38 91 51 0 15 47 10 60 -6 21 -26 32 -5 28 59 -3 59 -2 61 22 64 14 2 31 9 39 15 18 16 53 35 74 43 24 9 22 44 -3 44 -10 0 -23 -6 -27 -13 -13 -21 -64 -49 -79 -43 -20 8 -17 43 6 91 18 38 23 41 51 37 17 -2 33 -11 36 -18 3 -8 9 -14 14 -14 12 0 11 47 -1 55 -13 8 -34 84 -31 113 3 31 -25 39 -52 14 -20 -18 -25 -19 -52 -8 -17 7 -36 20 -44 29 -7 10 -18 17 -23 17 -6 0 -30 14 -55 30 -24 17 -48 30 -54 30 -5 0 -28 14 -51 30 -44 32 -78 39 -78 16z m307 -204 c8 -5 12 -31 10 -70 l-1 -63 -56 -36 c-30 -19 -67 -44 -82 -54 -15 -11 -38 -20 -50 -22 -29 -3 -35 30 -14 72 9 16 16 41 16 54 0 26 33 61 68 72 12 3 22 11 22 16 0 5 7 9 15 9 9 0 18 7 21 15 7 16 31 20 51 7z m-249 -554 c29 -29 0 -117 -47 -138 -18 -8 -29 -7 -47 5 -29 19 -30 47 -3 91 31 51 71 68 97 42z m-148 -13 c0 -8 -4 -15 -10 -15 -5 0 -10 7 -10 15 0 8 5 15 10 15 6 0 10 -7 10 -15z"/> <path d="M8000 2666 c0 -22 17 -28 24 -10 9 22 8 24 -9 24 -8 0 -15 -6 -15 -14z"/> <path d="M4705 2650 c-4 -6 -17 -16 -28 -21 -35 -15 -91 -50 -98 -61 -14 -22 6 -49 55 -73 53 -26 125 -66 186 -104 19 -11 44 -25 55 -31 11 -6 34 -19 50 -29 17 -11 53 -32 80 -47 28 -14 52 -29 55 -33 3 -3 19 -14 37 -24 32 -18 32 -18 74 13 23 16 47 30 54 30 19 0 48 38 42 55 -4 8 -30 26 -59 40 -29 14 -60 30 -68 35 -8 5 -89 53 -180 106 -91 54 -178 107 -195 119 -45 33 -53 36 -60 25z"/> <path d="M2986 2605 c-3 -8 -14 -15 -25 -15 -29 0 -37 -21 -15 -36 10 -7 24 -17 29 -22 13 -10 176 -107 195 -116 8 -3 29 -15 45 -26 17 -11 39 -24 50 -30 11 -6 29 -16 40 -23 11 -7 51 -30 90 -52 38 -22 79 -45 90 -52 11 -7 27 -15 35 -20 8 -4 47 -26 86 -50 39 -24 75 -43 78 -43 4 0 22 -11 39 -24 18 -14 43 -30 57 -35 14 -6 39 -20 55 -31 17 -11 37 -23 45 -27 8 -4 58 -32 110 -63 52 -31 115 -64 138 -75 42 -18 44 -20 40 -57 -3 -36 8 -49 26 -31 20 20 79 12 138 -18 10 -5 27 -9 38 -9 11 0 23 -7 26 -15 4 -8 17 -15 29 -15 13 0 27 -4 30 -10 3 -5 19 -10 36 -10 16 0 29 5 29 10 0 6 -9 10 -20 10 -11 0 -28 9 -37 20 -10 11 -21 20 -25 20 -4 0 -27 14 -51 30 -25 17 -47 30 -50 30 -4 0 -26 14 -50 30 -25 17 -47 30 -50 30 -4 0 -26 14 -50 30 -25 17 -47 30 -50 30 -4 0 -25 13 -49 29 -24 16 -61 39 -83 51 -22 12 -53 30 -70 41 -16 10 -39 23 -51 28 -11 5 -51 28 -88 50 -36 23 -68 41 -71 41 -2 0 -24 14 -48 30 -25 17 -48 30 -52 30 -4 0 -44 22 -89 49 -92 55 -101 61 -258 151 -62 36 -137 79 -168 97 -30 18 -63 32 -73 33 -10 0 -22 11 -27 25 -11 29 -16 31 -24 10z"/> <path d="M7910 2608 c0 -7 5 -20 10 -28 8 -12 10 -9 10 13 0 15 -4 27 -10 27 -5 0 -10 -6 -10 -12z"/> <path d="M1450 2545 c-7 -8 -19 -15 -26 -15 -8 0 -14 -5 -14 -11 0 -5 -14 -15 -31 -21 -36 -12 -33 -17 16 -28 32 -7 40 -5 71 24 24 22 33 37 28 49 -8 21 -27 22 -44 2z"/> <path d="M1550 2525 c0 -8 7 -15 15 -15 8 0 15 7 15 15 0 8 -7 15 -15 15 -8 0 -15 -7 -15 -15z"/> <path d="M1530 2455 c-7 -8 -19 -15 -26 -15 -8 0 -14 -4 -14 -10 0 -5 11 -10 25 -10 30 0 85 26 85 40 0 16 -56 12 -70 -5z"/> <path d="M2616 2408 c-64 -48 -75 -61 -58 -72 16 -9 5 -126 -13 -146 -14 -15 -15 -24 -5 -59 14 -53 29 -45 23 12 -6 49 -10 45 87 65 26 5 35 13 35 27 0 16 -8 21 -40 25 -34 4 -40 9 -43 32 -5 41 36 65 87 49 54 -16 79 -14 108 9 24 18 28 19 47 5 26 -18 121 -75 160 -95 40 -20 43 -38 10 -50 -26 -10 -26 -11 -9 -30 21 -23 50 -25 85 -5 33 19 42 18 67 -5 12 -10 50 -33 85 -51 35 -17 70 -35 78 -39 26 -12 24 -39 -4 -50 -17 -6 -24 -14 -20 -25 3 -8 10 -15 15 -15 12 0 11 -37 -1 -45 -6 -4 -30 -7 -53 -8 -32 -1 -48 4 -65 21 -35 35 -102 31 -142 -8 -46 -45 -120 -39 -120 11 0 47 -86 58 -143 19 -32 -22 -35 -27 -21 -37 24 -17 8 -33 -34 -33 -26 0 -42 -7 -57 -24 -33 -40 -66 -40 -106 -3 -46 45 -108 71 -138 59 -19 -7 -38 -1 -90 26 -81 42 -138 46 -200 15 -39 -19 -46 -20 -64 -8 -11 8 -32 12 -47 8 -22 -4 -28 -1 -33 16 -3 11 1 25 9 32 26 21 7 20 -30 -2 -20 -11 -36 -25 -36 -30 0 -5 -10 -9 -23 -9 -30 0 -40 -10 -26 -26 9 -11 4 -13 -27 -11 -32 2 -38 -1 -36 -15 2 -13 -4 -18 -22 -18 -18 0 -24 -4 -20 -15 4 -10 0 -15 -14 -15 -12 0 -24 -4 -27 -10 -3 -5 -19 -10 -35 -10 -15 0 -30 -7 -34 -15 -3 -8 -12 -15 -21 -15 -8 0 -15 -4 -15 -10 0 -15 30 -12 47 5 8 9 18 13 22 10 3 -4 -2 -11 -12 -16 -21 -12 -22 -37 -3 -64 7 -11 15 -29 17 -39 3 -15 14 -20 51 -23 27 -3 49 0 53 7 11 19 -16 40 -51 40 -32 0 -34 2 -34 33 1 22 8 37 24 49 20 15 27 15 62 3 53 -19 78 -18 97 3 19 21 22 42 7 42 -25 0 -8 39 24 54 38 18 56 14 102 -21 48 -36 86 -31 124 17 34 43 46 46 97 28 27 -10 33 -17 33 -40 0 -23 7 -32 36 -45 28 -14 39 -15 55 -5 30 19 103 26 128 13 27 -15 27 -48 -1 -70 -33 -27 -18 -51 32 -51 57 0 80 -14 80 -50 0 -37 14 -45 50 -30 47 19 45 39 -5 61 -50 22 -58 45 -26 73 17 15 26 16 80 6 77 -14 105 -3 91 36 -19 49 -13 63 28 66 39 3 71 -8 85 -29 5 -8 29 -13 61 -13 46 0 55 3 74 30 17 23 31 30 55 30 41 0 54 -9 75 -51 14 -29 23 -35 55 -37 23 -2 48 3 62 12 31 20 69 20 100 0 33 -22 31 -38 -6 -64 -29 -21 -29 -23 -13 -41 13 -15 31 -19 79 -19 l63 0 7 -36 c8 -45 -4 -54 -51 -44 -25 6 -39 4 -49 -7 -22 -22 -19 -30 21 -49 42 -20 50 -35 34 -63 -12 -24 -47 -27 -97 -9 -28 10 -39 10 -61 -3 -22 -12 -27 -22 -27 -54 0 -39 -1 -40 -37 -43 -20 -2 -50 4 -67 12 -16 9 -51 16 -76 16 -38 0 -47 -4 -54 -22 -12 -33 -1 -129 15 -135 19 -7 18 -47 -1 -63 -21 -18 -19 -35 11 -67 l26 -28 -6 31 c-9 57 1 72 58 81 40 6 52 12 54 28 2 15 -8 24 -38 37 -44 18 -50 36 -20 63 15 14 27 16 57 10 93 -19 141 -3 121 40 -18 40 -4 55 50 55 32 0 54 -5 62 -15 8 -10 30 -15 60 -15 44 0 50 3 70 35 18 30 27 35 58 35 47 0 55 -6 73 -55 13 -36 19 -40 52 -43 24 -2 54 5 84 20 35 18 47 20 51 10 2 -7 15 -17 28 -22 31 -12 30 -25 -2 -57 -40 -40 -23 -57 60 -61 48 -2 68 -7 71 -17 16 -50 17 -51 25 -30 9 25 -14 69 -47 86 -13 7 -37 34 -53 60 -41 67 -70 84 -148 84 -43 0 -67 4 -70 13 -2 6 -9 12 -15 12 -6 0 -19 7 -29 16 -12 12 -40 18 -89 20 -39 2 -73 5 -76 7 -2 2 0 29 5 59 6 41 5 57 -5 66 -7 7 -13 21 -13 32 0 10 -19 34 -41 54 -34 28 -41 40 -37 61 4 18 0 29 -13 36 -11 5 -19 14 -19 19 0 16 43 11 85 -10 22 -11 44 -20 49 -20 5 0 18 -8 29 -17 20 -19 123 -78 192 -111 22 -11 51 -31 64 -46 15 -16 35 -26 52 -26 14 0 32 -6 38 -14 6 -7 38 -25 71 -40 33 -15 62 -31 65 -36 4 -6 14 -10 25 -10 10 0 53 -24 95 -52 42 -29 81 -56 88 -60 24 -13 142 -46 149 -42 9 6 -31 64 -43 64 -4 0 -53 27 -109 60 -56 33 -103 60 -105 60 -2 0 -24 14 -48 30 -25 17 -50 30 -57 30 -7 0 -32 14 -57 30 -24 17 -50 30 -58 30 -8 0 -18 6 -22 13 -7 11 -40 31 -118 71 -16 8 -31 18 -34 23 -3 4 -26 18 -51 31 -49 25 -54 28 -152 90 -37 23 -69 42 -73 42 -3 0 -28 16 -55 35 -27 19 -52 35 -55 35 -5 0 -54 35 -120 85 -10 8 -25 15 -32 15 -7 0 -13 4 -13 9 0 5 -11 12 -25 15 -14 4 -25 10 -25 15 0 5 -13 12 -30 16 -16 4 -30 11 -30 16 0 5 -8 9 -19 9 -10 0 -24 7 -31 15 -7 8 -17 15 -22 15 -5 0 -24 11 -42 25 -28 22 -59 39 -141 82 -33 18 -122 54 -172 70 -29 10 -36 7 -97 -39z m808 -422 c21 -11 24 -15 13 -25 -11 -8 -22 -7 -47 5 -24 12 -29 19 -19 25 19 12 22 11 53 -5z"/> <path d="M7956 2421 c-31 -17 -70 -41 -88 -54 -18 -14 -50 -32 -70 -41 -37 -14 -38 -17 -38 -64 0 -56 7 -65 93 -105 50 -24 62 -26 95 -17 43 11 70 37 101 95 17 32 20 50 15 90 -4 27 -13 57 -20 66 -8 8 -14 23 -14 32 0 28 -17 28 -74 -2z m62 -121 c3 -42 -27 -95 -63 -112 -22 -10 -29 -9 -47 9 -44 44 11 147 75 141 29 -3 32 -7 35 -38z"/> <path d="M1670 2424 c0 -9 7 -14 17 -12 25 5 28 28 4 28 -12 0 -21 -6 -21 -16z"/> <path d="M2910 2411 c0 -6 21 -22 48 -36 127 -69 147 -80 152 -86 3 -3 34 -22 70 -43 36 -20 72 -42 80 -47 40 -24 90 -49 100 -49 18 0 11 16 -12 29 -13 6 -45 25 -73 41 -27 16 -75 42 -105 57 -30 15 -61 34 -68 40 -7 7 -20 13 -28 13 -8 0 -14 4 -14 10 0 5 -11 12 -25 16 -14 3 -25 10 -25 15 0 5 -6 9 -14 9 -8 0 -21 6 -28 14 -19 18 -58 30 -58 17z"/> <path d="M5510 2306 c0 -40 11 -56 36 -56 29 0 30 13 3 51 -25 35 -39 37 -39 5z"/> <path d="M6367 2323 c-22 -6 -12 -23 14 -23 10 0 19 7 19 15 0 15 -2 16 -33 8z"/> <path d="M6248 2256 c-8 -7 -23 -16 -33 -20 -11 -3 -31 -15 -45 -26 -23 -18 -24 -19 -6 -26 12 -5 23 -2 30 8 6 8 21 18 34 22 12 4 22 11 22 16 0 5 9 12 20 15 11 4 18 11 15 16 -9 13 -21 11 -37 -5z"/> <path d="M2847 2244 c-4 -4 -7 -31 -7 -61 0 -47 2 -53 20 -53 54 0 87 54 58 93 -15 18 -60 32 -71 21z"/> <path d="M5387 2213 c-13 -12 -7 -43 7 -43 19 0 28 14 20 34 -7 17 -16 20 -27 9z"/> <path d="M1129 2183 c-71 -78 -78 -130 -23 -162 l36 -22 42 36 c22 20 49 43 58 52 17 15 20 15 43 -7 l25 -23 0 37 c0 39 -24 86 -45 86 -7 0 -18 7 -25 15 -21 26 -83 19 -111 -12z"/> <path d="M6650 2191 c0 -10 -6 -21 -14 -24 -14 -6 -27 -53 -19 -73 5 -15 51 -36 57 -26 3 5 1 14 -5 22 -12 20 -11 77 1 85 15 10 12 35 -5 35 -8 0 -15 -9 -15 -19z"/> <path d="M5517 2173 c-13 -12 -7 -51 8 -57 8 -3 15 -16 15 -28 1 -72 33 -91 49 -30 22 77 8 122 -38 122 -15 0 -31 -3 -34 -7z"/> <path d="M6730 2133 c0 -15 -7 -41 -15 -57 -9 -16 -14 -30 -13 -31 2 0 15 -9 30 -18 15 -9 36 -17 48 -17 11 0 20 -4 20 -9 0 -4 21 -22 48 -38 26 -17 64 -43 84 -58 44 -32 67 -25 32 10 -25 25 -31 68 -14 95 12 19 -6 40 -35 40 -12 0 -34 9 -48 20 -14 11 -28 20 -32 20 -4 0 -24 13 -44 28 -58 46 -61 46 -61 15z"/> <path d="M3383 2137 c5 -15 37 -22 37 -9 0 5 -9 12 -21 15 -13 3 -19 1 -16 -6z"/> <path d="M5411 2137 c-15 -15 -14 -57 2 -57 32 0 51 52 23 63 -7 3 -19 0 -25 -6z"/> <path d="M7695 2104 c-27 -14 -57 -31 -65 -38 -8 -7 -34 -22 -57 -32 -48 -21 -55 -34 -19 -34 70 0 187 64 199 110 7 25 3 25 -58 -6z"/> <path d="M2660 2113 c-50 -8 -55 -13 -32 -29 26 -18 28 -31 5 -56 -16 -18 -15 -20 8 -44 25 -25 66 -25 56 0 -3 6 -8 18 -12 27 -4 11 3 25 20 42 23 21 25 28 16 46 -7 11 -17 20 -24 20 -7 -1 -23 -4 -37 -6z"/> <path d="M2970 2105 c-7 -8 -10 -22 -6 -30 4 -12 23 -15 86 -15 63 0 82 3 86 15 12 31 -15 45 -86 45 -48 0 -71 -4 -80 -15z"/> <path d="M6615 2010 c-7 -22 1 -40 17 -40 5 0 30 -13 55 -30 24 -16 48 -30 53 -30 5 0 37 -19 72 -42 117 -78 195 -119 214 -111 7 3 14 9 14 13 0 12 -68 62 -120 88 -25 13 -58 32 -75 42 -16 11 -40 24 -52 29 -11 5 -24 15 -28 20 -3 6 -13 11 -22 11 -9 0 -35 16 -59 35 -49 40 -60 43 -69 15z"/> <path d="M7480 1974 c0 -9 7 -14 17 -12 25 5 28 28 4 28 -12 0 -21 -6 -21 -16z"/> <path d="M1260 1949 c0 -11 5 -17 10 -14 6 3 10 13 10 21 0 8 -4 14 -10 14 -5 0 -10 -9 -10 -21z"/> <path d="M8280 1909 c-14 -6 -67 -12 -118 -15 -82 -3 -100 -8 -160 -39 -66 -34 -109 -71 -97 -83 3 -3 14 -1 25 5 10 7 34 10 54 6 31 -5 36 -3 36 14 0 34 41 63 88 63 28 0 45 -5 48 -14 7 -17 46 -28 69 -20 8 4 22 19 31 35 27 54 81 35 130 -47 11 -18 13 -18 40 -3 16 9 41 19 57 23 28 7 37 30 13 39 -7 3 -35 8 -62 12 -27 4 -66 13 -87 21 -20 8 -38 14 -40 13 -1 0 -13 -5 -27 -10z"/> <path d="M8537 1844 c-10 -10 12 -44 28 -44 18 0 18 5 5 31 -11 19 -22 24 -33 13z"/> <path d="M2110 1801 c-14 -4 -25 -13 -25 -21 0 -18 125 -33 161 -20 76 29 -47 66 -136 41z"/> <path d="M1160 1785 c0 -8 7 -15 15 -15 8 0 15 7 15 15 0 8 -7 15 -15 15 -8 0 -15 -7 -15 -15z"/> <path d="M2965 1780 c-10 -16 52 -40 104 -40 56 0 101 16 101 37 0 10 -23 13 -99 13 -55 0 -102 -4 -106 -10z"/> <path d="M8505 1756 c-18 -13 -18 -14 3 -25 18 -10 23 -9 28 4 10 25 -9 37 -31 21z"/> <path d="M8580 1744 c-13 -33 -8 -38 25 -30 20 5 26 12 23 29 -5 33 -36 34 -48 1z"/> <path d="M4551 1746 c-8 -10 -9 -16 -1 -21 13 -8 30 3 30 21 0 18 -14 18 -29 0z"/> <path d="M8185 1751 c-5 -9 33 -45 58 -54 9 -3 9 -8 0 -18 -22 -22 -15 -39 15 -39 38 0 46 9 25 32 -9 10 -14 19 -12 21 2 2 16 11 32 20 49 31 35 47 -42 47 -39 0 -72 -4 -76 -9z"/> <path d="M1965 1707 c-4 -19 -4 -45 0 -57 6 -19 12 -21 39 -16 73 14 73 88 -1 102 -30 6 -32 4 -38 -29z"/> <path d="M2317 1722 c-34 -38 -5 -97 45 -90 19 3 23 10 26 47 3 45 -7 61 -39 61 -9 0 -23 -8 -32 -18z"/> <path d="M2860 1711 c-13 -25 -13 -44 2 -76 14 -30 21 -31 59 -4 35 24 37 54 7 80 -30 24 -55 24 -68 0z"/> <path d="M3213 1711 c-29 -24 -29 -52 0 -79 28 -27 39 -27 60 -4 22 24 21 65 -1 85 -23 21 -32 21 -59 -2z"/> <path d="M7935 1720 c-12 -20 6 -50 30 -50 33 0 38 13 14 38 -22 24 -34 27 -44 12z"/> <path d="M2138 1704 c-30 -9 -20 -33 15 -39 38 -8 95 11 80 26 -12 12 -71 20 -95 13z"/> <path d="M8108 1699 c-24 -14 -23 -56 2 -69 14 -8 25 -7 40 2 25 16 26 54 1 68 -23 12 -22 12 -43 -1z"/> <path d="M8385 1702 c-42 -9 -46 -44 -9 -69 25 -16 27 -16 40 2 8 10 14 24 14 30 0 21 -25 42 -45 37z"/> <path d="M3024 1686 c-10 -25 5 -36 47 -36 36 0 40 2 37 23 -2 18 -10 23 -41 25 -26 2 -39 -1 -43 -12z"/> <path d="M7856 1693 c-13 -14 -5 -53 13 -63 30 -16 41 -12 41 14 0 23 -41 61 -54 49z"/> <path d="M5876 1672 c-7 -12 5 -25 41 -44 56 -32 74 -14 27 28 -25 24 -58 31 -68 16z"/> <path d="M2540 1646 c0 -18 8 -27 30 -34 33 -12 50 -53 31 -76 -8 -10 -9 -16 -1 -21 5 -3 10 -15 10 -27 0 -17 5 -20 30 -16 17 3 35 -1 41 -8 5 -6 19 -10 29 -7 22 6 26 18 10 28 -17 11 -11 44 10 55 46 25 7 74 -51 63 -40 -7 -79 13 -79 42 0 21 -5 25 -30 25 -25 0 -30 -4 -30 -24z"/> <path d="M8540 1655 c-19 -22 -4 -45 29 -45 21 0 30 6 34 22 3 12 4 25 1 30 -9 13 -51 9 -64 -7z"/> <path d="M7430 1603 c-41 -19 -88 -45 -103 -55 -15 -11 -43 -24 -62 -29 -19 -5 -37 -18 -40 -28 -5 -17 -69 -51 -95 -51 -5 0 -20 -10 -34 -23 -13 -12 -37 -29 -53 -36 -82 -38 -101 -49 -152 -88 -30 -24 -60 -43 -66 -43 -19 0 -92 -68 -111 -103 -10 -17 -20 -63 -23 -102 l-6 -70 -45 2 c-45 2 -45 2 -22 -15 28 -22 22 -64 -11 -80 -19 -9 -15 -11 26 -11 26 -1 47 -5 47 -11 0 -5 9 -10 21 -10 26 0 61 -18 77 -42 8 -11 26 -18 47 -18 24 0 45 -9 68 -30 19 -17 39 -30 45 -30 11 0 76 -35 102 -55 8 -6 31 -18 50 -25 19 -7 44 -21 55 -31 11 -9 61 -38 110 -65 50 -26 103 -58 118 -71 16 -13 38 -23 49 -23 12 0 29 -7 39 -16 29 -26 150 -64 203 -64 55 0 117 18 129 37 4 7 16 13 25 13 10 0 34 11 53 24 20 14 48 28 62 31 14 4 33 14 44 24 25 23 150 91 168 91 8 0 18 6 22 14 4 8 34 28 66 45 74 40 128 75 201 130 70 53 94 100 98 192 3 59 0 69 -31 118 -19 29 -46 60 -60 69 -14 8 -35 23 -46 33 -11 9 -33 19 -49 23 -16 4 -41 16 -54 27 -14 10 -31 19 -38 19 -22 0 -17 22 11 53 32 34 81 36 135 5 37 -21 42 -22 67 -8 35 20 45 70 14 70 -11 0 -23 -4 -26 -10 -8 -13 -45 -13 -45 0 0 5 -11 12 -25 16 -14 3 -25 10 -25 15 0 20 -48 7 -80 -21 -52 -44 -124 -39 -133 9 -5 23 -13 29 -41 34 -19 3 -51 1 -70 -4 -25 -7 -42 -6 -58 2 -12 7 -36 12 -52 13 -16 1 -31 7 -34 14 -2 7 2 12 9 10 8 -1 26 6 41 16 22 14 27 23 22 42 -4 16 -2 24 7 24 8 0 25 9 39 20 33 25 19 37 -45 42 l-50 3 0 -35 c0 -34 -1 -35 -35 -32 -19 1 -36 7 -38 12 -6 18 -22 11 -22 -9 0 -28 -17 -35 -29 -13 -6 11 -27 27 -48 37 -21 10 -44 23 -52 29 -25 20 -86 36 -136 36 -37 0 -70 -10 -125 -37z m278 -89 c40 -24 77 -44 83 -44 6 0 26 -12 45 -26 36 -28 66 -46 144 -86 25 -13 47 -26 50 -29 3 -4 60 -40 128 -80 68 -41 136 -82 150 -91 15 -9 46 -27 70 -39 75 -40 79 -47 77 -137 -1 -92 -9 -105 -77 -141 -24 -12 -50 -26 -58 -31 -8 -5 -62 -37 -120 -70 -58 -34 -112 -65 -120 -70 -8 -5 -32 -18 -52 -29 -21 -11 -57 -33 -80 -48 -24 -15 -61 -37 -83 -49 -22 -11 -56 -31 -75 -42 -121 -73 -148 -77 -222 -32 -26 16 -51 30 -53 30 -3 0 -24 14 -47 30 -22 17 -44 30 -49 30 -6 0 -184 101 -229 130 -8 6 -24 15 -35 20 -11 6 -33 19 -50 30 -16 11 -39 24 -50 30 -11 5 -45 24 -76 42 -31 18 -91 52 -133 76 -42 23 -76 48 -77 55 -1 6 -2 47 -4 90 -3 86 3 98 60 124 16 7 44 22 60 33 17 11 39 24 50 29 11 5 37 21 58 35 21 14 40 26 44 26 3 0 50 27 105 60 54 33 103 60 108 60 5 0 15 6 22 13 7 8 32 25 55 38 23 13 72 43 110 65 37 23 79 44 93 47 50 10 106 -6 178 -49z m430 -171 c4 -27 3 -27 -34 -8 -16 8 -38 15 -49 16 -17 1 -16 2 5 9 43 14 75 7 78 -17z"/> <path d="M7476 1410 c-65 -38 -122 -70 -127 -70 -15 0 -30 -39 -23 -64 4 -17 20 -31 54 -45 27 -12 52 -26 55 -31 3 -6 15 -10 26 -10 10 0 19 -4 19 -9 0 -11 116 -71 136 -71 7 0 37 14 66 31 29 16 65 35 81 42 15 6 27 14 27 18 0 3 25 16 55 29 45 19 55 28 55 48 0 26 -47 77 -81 87 -12 4 -40 19 -62 35 -61 40 -136 80 -151 80 -7 0 -65 -31 -130 -70z m223 -27 c34 -20 50 -57 34 -82 -13 -21 -98 -48 -164 -52 l-54 -4 1 45 c1 38 6 48 39 77 45 38 94 44 144 16z"/> <path d="M7610 1345 c-6 -8 -9 -19 -5 -25 8 -12 45 -13 64 -1 12 8 12 12 2 25 -17 20 -45 21 -61 1z"/> <path d="M7205 1249 c-16 -10 -37 -22 -45 -25 -8 -4 -21 -12 -29 -18 -7 -6 -43 -27 -80 -47 -60 -32 -66 -39 -69 -70 -3 -32 0 -36 50 -62 29 -16 67 -37 83 -47 17 -11 37 -23 45 -26 8 -4 22 -12 30 -19 8 -7 30 -17 48 -23 36 -12 63 -4 127 37 17 11 50 30 75 43 25 13 47 27 49 31 2 5 14 12 27 17 28 11 41 37 27 51 -6 6 -28 0 -62 -17 -49 -26 -78 -27 -53 -2 22 22 12 53 -31 90 -23 20 -59 53 -81 72 -43 40 -67 43 -111 15z m105 -68 c0 -5 10 -13 23 -16 66 -20 78 -29 75 -60 -4 -44 -52 -64 -154 -65 -91 0 -94 2 -94 72 0 55 28 77 98 78 28 0 52 -4 52 -9z"/> <path d="M7928 1254 c-7 -8 -21 -23 -30 -32 -26 -24 -6 -32 83 -32 62 0 79 -4 97 -20 12 -12 22 -24 22 -27 0 -23 -52 -76 -96 -98 -56 -28 -58 -28 -143 20 -47 27 -95 35 -73 13 18 -18 15 -28 -8 -28 -11 0 -20 4 -20 8 0 14 -79 42 -86 31 -10 -17 6 -45 33 -56 16 -7 51 -25 78 -42 28 -17 59 -35 70 -41 11 -6 31 -18 45 -26 38 -23 77 -11 188 55 55 34 105 61 110 61 14 0 42 35 42 53 0 13 -119 89 -262 167 -25 14 -35 12 -50 -6z"/> <path d="M7995 1160 c-9 -15 4 -30 25 -30 24 0 36 20 19 31 -19 12 -36 11 -44 -1z"/> <path d="M7815 875 c-22 -14 -46 -27 -52 -30 -7 -3 -19 -7 -25 -10 -7 -3 -26 -14 -43 -25 -16 -11 -41 -24 -54 -30 -28 -13 -108 -3 -119 14 -4 6 -27 20 -52 31 -25 10 -52 24 -60 30 -33 24 -70 37 -86 31 -15 -6 -15 -9 5 -30 12 -12 40 -33 64 -45 23 -12 56 -31 72 -41 17 -11 39 -24 50 -30 11 -6 31 -17 45 -25 26 -16 74 -12 99 8 13 12 41 28 76 47 11 6 34 19 50 30 17 11 39 24 50 29 30 13 48 38 41 56 -7 20 -14 19 -61 -10z"/> <path d="M2109 1610 c-13 -3 -24 -11 -27 -18 -6 -20 49 -34 112 -29 63 6 88 19 69 38 -12 12 -116 18 -154 9z"/> <path d="M8240 1613 c-59 -6 -68 -12 -46 -29 25 -18 106 -18 131 -1 28 21 -17 37 -85 30z"/> <path d="M2986 1591 c-29 -32 -11 -41 84 -41 97 0 118 11 80 42 -32 26 -140 26 -164 -1z"/> <path d="M8626 1603 c-11 -3 -29 -16 -39 -30 -18 -22 -24 -24 -69 -18 -58 8 -84 -6 -67 -37 8 -15 17 -18 35 -14 31 8 46 -21 20 -40 -29 -21 -13 -38 49 -50 51 -10 62 -10 82 5 26 18 32 71 9 71 -8 0 -18 -4 -21 -10 -6 -10 -75 -14 -75 -4 0 10 23 48 37 63 9 8 26 12 46 9 45 -7 57 0 57 33 0 30 -14 35 -64 22z"/> <path d="M5955 1586 c-18 -13 -18 -15 -2 -30 9 -10 17 -25 17 -33 0 -9 7 -24 16 -34 9 -10 14 -25 11 -33 -7 -18 -65 -44 -118 -52 l-38 -6 -3 -96 c-2 -65 -7 -97 -16 -100 -6 -2 -16 7 -21 20 -10 23 -10 23 -10 1 -1 -38 -19 -36 -89 10 -37 24 -91 59 -121 77 -50 32 -53 35 -48 67 10 57 -51 94 -85 53 -26 -32 -20 -50 28 -82 23 -15 47 -42 54 -60 20 -49 78 -117 106 -124 13 -3 24 -9 24 -13 0 -8 71 -41 87 -41 6 0 26 11 46 24 19 13 38 22 41 18 3 -3 6 -30 6 -60 l0 -54 -42 5 c-49 5 -103 -23 -112 -58 -15 -53 -6 -88 29 -121 40 -40 69 -43 119 -13 31 18 35 25 29 47 -12 49 -7 116 11 143 9 15 18 50 19 80 3 67 6 72 61 97 24 12 56 33 71 46 24 22 27 33 26 78 -2 91 -4 103 -23 116 -18 13 -18 15 2 46 28 46 26 74 -6 86 -34 13 -47 13 -69 -4z m59 -192 c31 -30 20 -59 -39 -98 -31 -20 -60 -34 -65 -31 -6 4 -10 26 -10 49 0 36 5 47 32 70 36 30 60 33 82 10z m-241 -431 c43 -49 22 -110 -29 -83 -29 16 -40 50 -24 79 13 26 32 27 53 4z"/> <path d="M2436 1531 c-14 -15 -15 -23 -5 -43 8 -19 8 -31 0 -46 -6 -11 -11 -23 -11 -26 0 -10 50 -7 71 4 20 11 27 40 9 40 -5 0 -10 6 -10 14 0 8 15 17 35 20 46 9 44 20 -5 40 -52 21 -63 20 -84 -3z"/> <path d="M5485 1540 c-3 -5 1 -10 9 -10 8 0 18 5 21 10 3 6 -1 10 -9 10 -8 0 -18 -4 -21 -10z"/> <path d="M5844 1536 c-17 -6 -37 -16 -45 -22 -32 -26 -81 -34 -118 -22 -20 7 -40 19 -44 25 -4 7 -15 13 -22 13 -28 0 -15 -27 26 -56 53 -37 79 -70 79 -104 0 -15 6 -33 14 -40 8 -6 16 -23 18 -37 2 -15 9 -28 16 -31 17 -5 15 66 -3 98 -29 52 -17 78 55 117 41 21 90 58 90 67 0 9 -30 5 -66 -8z"/> <path d="M8072 1519 c-13 -5 -35 -6 -48 -3 -19 5 -24 2 -24 -14 0 -37 62 -62 90 -37 23 21 78 1 90 -31 13 -32 51 -31 81 1 28 29 79 34 99 9 9 -10 26 -14 49 -12 29 2 37 8 39 26 3 19 -1 22 -30 22 -19 0 -43 7 -54 15 -31 24 -79 19 -98 -10 -12 -19 -25 -25 -51 -25 -24 0 -35 5 -35 15 0 23 -37 55 -62 54 -13 0 -33 -4 -46 -10z"/> <path d="M6113 1493 c-4 -10 -15 -24 -25 -31 -16 -12 -18 -27 -14 -154 3 -116 7 -143 20 -150 12 -7 16 -26 16 -83 0 -75 7 -88 30 -60 10 12 9 40 -5 138 -17 122 -17 303 -1 340 5 11 4 17 -3 17 -7 0 -15 -8 -18 -17z"/> <path d="M2817 1470 c-14 -11 -32 -20 -41 -20 -9 0 -16 -5 -16 -11 0 -11 17 -10 83 7 27 6 57 -8 57 -27 0 -5 -12 -14 -27 -20 l-26 -10 21 -15 c12 -8 27 -12 32 -9 6 4 18 1 27 -7 13 -10 17 -10 20 0 3 7 23 12 54 12 66 0 63 18 -3 22 -53 3 -53 3 -56 38 -2 19 -8 41 -14 47 -16 20 -82 16 -111 -7z"/> <path d="M2208 1466 c-31 -23 -20 -33 46 -39 36 -3 74 -12 84 -18 12 -8 26 -9 38 -4 17 8 16 9 -8 13 -15 2 -41 16 -59 33 -34 31 -72 37 -101 15z"/> <path d="M5245 1373 c9 -33 9 -34 7 -94 -2 -38 -6 -48 -22 -52 -13 -3 -20 -14 -20 -29 0 -26 -17 -48 -36 -48 -7 0 -26 14 -44 30 -65 61 -100 31 -100 -86 0 -76 1 -79 27 -91 39 -19 58 -16 103 12 22 14 43 25 48 25 5 0 18 10 30 23 18 20 22 35 22 96 0 44 6 83 14 99 31 57 37 92 20 118 -9 13 -25 24 -36 24 -17 0 -19 -4 -13 -27z"/> <path d="M3507 1363 c-13 -12 -7 -21 26 -36 52 -25 167 -4 167 30 0 10 -22 13 -93 13 -52 0 -97 -3 -100 -7z"/> <path d="M5340 1336 c0 -2 16 -14 36 -25 48 -28 68 -21 22 7 -32 20 -58 28 -58 18z"/> <path d="M3396 1288 c-9 -12 -16 -32 -16 -43 0 -27 27 -65 46 -65 22 0 54 37 54 63 0 24 -37 67 -58 67 -6 0 -18 -10 -26 -22z"/> <path d="M3746 1289 c-15 -12 -26 -30 -26 -44 0 -24 42 -65 66 -65 31 0 45 79 20 113 -17 22 -28 22 -60 -4z"/> <path d="M3556 1254 c-10 -26 2 -34 50 -34 40 0 44 2 44 25 0 23 -4 25 -44 25 -31 0 -46 -5 -50 -16z"/> <path d="M5315 1228 c-22 -26 -25 -37 -20 -67 16 -86 104 -132 155 -81 23 23 24 26 8 83 -8 31 -20 48 -42 61 -64 37 -73 38 -101 4z m65 -38 c12 0 33 -58 26 -75 -14 -38 -76 -4 -76 42 0 34 8 46 28 38 7 -3 17 -5 22 -5z"/> <path d="M3978 1223 c-10 -2 -18 -10 -18 -17 0 -17 45 -40 64 -33 21 8 21 43 0 51 -17 6 -19 6 -46 -1z"/> <path d="M3215 1163 c-49 -10 -51 -13 -25 -34 23 -18 24 -20 8 -33 -22 -17 -23 -34 -2 -57 24 -26 58 -7 50 27 -5 19 0 30 21 49 18 15 25 27 18 33 -14 13 -46 20 -70 15z"/> <path d="M3515 1157 c-29 -22 -12 -31 68 -35 81 -4 138 11 118 31 -19 19 -162 22 -186 4z"/> <path d="M5995 1149 c-10 -15 3 -25 16 -12 7 7 7 13 1 17 -6 3 -14 1 -17 -5z"/> <path d="M6014 1102 c-47 -37 -33 -118 15 -92 16 8 21 20 21 48 0 53 -10 65 -36 44z"/> <path d="M6197 1077 c-15 -45 -15 -51 -1 -73 24 -36 63 -32 104 11 19 19 43 35 55 35 23 0 51 -28 65 -66 12 -29 33 -31 67 -4 15 11 33 18 42 16 9 -2 26 -7 39 -11 31 -9 29 18 -4 40 -16 10 -35 14 -53 10 -18 -4 -46 3 -84 20 -60 26 -96 31 -112 16 -6 -5 -24 -12 -41 -15 -29 -6 -32 -4 -46 31 l-14 38 -17 -48z"/> <path d="M3860 1076 c0 -24 14 -26 40 -5 l25 19 -32 0 c-22 0 -33 -5 -33 -14z"/> <path d="M3375 1050 c-3 -5 -25 -15 -48 -21 l-42 -12 40 -8 c22 -3 45 -5 52 -2 6 3 20 0 30 -5 16 -10 15 -12 -9 -21 -37 -14 -36 -31 2 -31 17 0 30 -4 30 -10 0 -5 8 -10 19 -10 19 0 38 42 21 48 -5 2 -7 16 -4 32 5 22 1 31 -14 39 -26 14 -69 14 -77 1z"/> <path d="M5900 1026 c0 -17 5 -26 16 -26 10 0 14 7 12 22 -5 32 -28 35 -28 4z"/> <path d="M3612 995 c-18 -28 -19 -35 -7 -35 8 0 15 4 15 9 0 5 25 13 55 16 30 4 55 10 55 14 0 17 -27 31 -59 31 -30 0 -40 -6 -59 -35z"/> <path d="M5480 1020 c0 -5 4 -10 10 -10 5 0 24 -12 42 -27 32 -27 73 -53 83 -53 3 0 5 8 5 18 0 12 -16 27 -45 41 -24 12 -47 26 -50 32 -8 12 -45 12 -45 -1z"/> <path d="M5996 964 c-11 -29 -6 -33 34 -31 44 1 46 4 26 30 -16 21 -52 22 -60 1z"/> <path d="M5067 933 c-12 -11 -8 -22 20 -48 34 -30 81 -33 114 -6 19 16 22 22 12 32 -11 10 -15 9 -26 -5 -18 -25 -61 -18 -65 12 -2 15 -10 22 -26 22 -12 0 -26 -3 -29 -7z"/> <path d="M6552 919 c-28 -11 -20 -29 14 -29 25 0 29 7 16 26 -4 8 -15 8 -30 3z"/> <path d="M6235 911 c-8 -15 45 -51 75 -51 33 0 76 32 66 48 -9 14 -132 16 -141 3z"/> <path d="M5984 882 c-21 -13 2 -52 31 -52 30 0 33 20 7 43 -21 19 -23 20 -38 9z"/> <path d="M6142 818 c2 -35 7 -44 25 -46 14 -2 27 5 38 22 23 34 6 66 -36 66 -29 0 -30 -1 -27 -42z"/> <path d="M6400 839 c-16 -28 12 -72 43 -67 18 2 23 11 25 46 3 41 2 42 -27 42 -20 0 -34 -7 -41 -21z"/> <path d="M5895 823 c-7 -30 16 -56 45 -51 22 5 25 47 3 63 -27 21 -40 18 -48 -12z"/> <path d="M6271 831 c-22 -14 -3 -31 34 -31 19 0 37 5 41 11 8 14 -14 29 -41 29 -11 0 -26 -4 -34 -9z"/> <path d="M6589 801 l-24 -19 27 -12 c35 -16 58 -7 58 25 0 31 -27 34 -61 6z"/> <path d="M5965 760 c-3 -5 -3 -20 1 -33 7 -32 -5 -39 -47 -27 -45 13 -56 -1 -33 -41 16 -27 26 -34 57 -36 26 -1 40 3 44 13 3 7 11 14 19 14 22 0 16 27 -7 33 -31 8 -13 27 27 27 38 0 54 21 34 45 -14 17 -85 21 -95 5z"/> <path d="M6250 755 c-20 -24 -2 -35 60 -35 59 0 81 15 57 39 -16 16 -102 14 -117 -4z"/> <path d="M6675 755 c-22 -8 -41 -15 -42 -15 -1 0 -3 -8 -5 -17 -3 -15 -14 -18 -67 -18 -35 0 -66 -5 -68 -10 -7 -21 23 -43 65 -49 40 -6 44 -4 60 24 16 29 20 30 67 28 l50 -3 3 38 c4 42 -2 44 -63 22z"/> <path d="M6115 669 c-4 -5 -19 -7 -35 -4 -38 8 -48 -19 -15 -41 18 -12 31 -13 59 -6 47 13 69 7 95 -29 25 -34 49 -37 82 -10 41 31 65 34 109 11 39 -20 43 -20 66 -5 29 19 26 41 -5 38 -12 -2 -38 6 -59 17 -48 26 -64 25 -100 -5 -46 -39 -90 -29 -107 25 -5 15 -15 20 -45 20 -21 0 -42 -5 -45 -11z"/> <path d="M6686 634 c-16 -15 -32 -19 -82 -17 -68 3 -76 -2 -67 -35 5 -20 12 -22 73 -22 62 0 69 2 84 26 10 14 16 35 14 46 -3 22 -3 22 -22 2z"/> <path d="M5987 583 c-16 -15 -5 -43 25 -64 30 -22 32 -22 60 -6 58 33 124 12 130 -40 3 -24 8 -27 40 -29 31 -2 42 3 63 28 31 37 91 44 123 15 14 -13 32 -17 63 -15 39 3 44 6 44 28 0 23 -3 25 -41 22 -30 -2 -45 2 -59 18 -28 31 -84 27 -125 -10 -34 -30 -39 -31 -97 -9 -12 4 -23 18 -25 31 -4 32 -79 49 -106 24 -23 -20 -46 -21 -62 -1 -14 16 -23 19 -33 8z"/> </g> </svg> 