<?xml version="1.0" standalone="no"?>
<!DOCTYPE svg PUBLIC "-//W3C//DTD SVG 20010904//EN"
 "http://www.w3.org/TR/2001/REC-SVG-20010904/DTD/svg10.dtd">
<svg version="1.0" xmlns="http://www.w3.org/2000/svg"
 width="900.000000pt" height="459.000000pt" viewBox="0 0 900.000000 459.000000"
 preserveAspectRatio="xMidYMid meet">
<metadata>
Created by potrace 1.10, written by Peter Selinger 2001-2011
</metadata>
<g transform="translate(0.000000,459.000000) scale(0.100000,-0.100000)"
fill="#255165" stroke="none">
<path d="M5375 4193 c-48 -11 -103 -44 -129 -77 -48 -63 -57 -100 -62 -240 -2
-72 -5 -138 -6 -146 -4 -23 12 -227 23 -302 6 -37 7 -72 4 -78 -8 -13 -55 34
-55 54 0 8 -7 19 -15 26 -8 7 -15 21 -15 31 0 10 -4 20 -9 23 -20 13 -38 105
-36 189 1 55 -3 87 -9 87 -6 0 -26 16 -44 34 -38 40 -89 66 -126 66 -34 0 -95
-31 -122 -62 -62 -71 -75 -126 -74 -318 1 -208 5 -244 30 -285 23 -37 93 -95
114 -95 20 0 83 -74 101 -120 4 -8 11 -22 16 -30 5 -8 12 -22 15 -30 3 -8 12
-29 20 -46 7 -16 16 -49 20 -73 l7 -42 -39 8 c-49 10 -103 10 -130 0 -30 -11
-77 38 -117 122 -26 53 -32 61 -35 42 -2 -13 1 -28 7 -34 29 -29 -1 -93 -47
-101 -37 -6 -66 8 -119 58 -40 36 -50 29 -34 -22 19 -58 12 -77 -27 -77 -27 0
-42 9 -78 49 -24 27 -44 55 -44 62 0 7 -4 16 -10 19 -6 3 -10 -5 -10 -19 0
-13 5 -26 12 -28 23 -8 -2 -25 -57 -38 -83 -20 -211 -2 -242 34 -12 14 -25 26
-28 26 -4 0 -5 -24 -3 -52 3 -48 1 -53 -19 -56 -27 -4 -68 37 -91 88 l-15 35
-8 -30 c-12 -45 -50 -54 -207 -50 -110 3 -137 6 -153 21 -10 9 -19 23 -19 31
0 19 42 83 75 113 15 14 33 36 40 50 16 31 35 153 37 243 2 58 5 67 21 67 15
0 18 -5 13 -24 -6 -26 40 -123 100 -208 19 -26 34 -54 34 -62 0 -8 5 -18 11
-22 9 -5 10 1 5 22 -27 108 -14 136 37 78 17 -21 42 -48 55 -61 12 -13 22 -35
22 -48 0 -14 5 -25 11 -25 6 0 9 15 8 35 -3 30 4 42 71 112 41 43 80 87 86 97
12 22 34 14 34 -12 0 -10 9 -23 20 -30 11 -7 20 -21 20 -31 0 -10 6 -24 14
-30 8 -7 17 -23 20 -36 4 -14 11 -25 16 -25 16 0 11 47 -5 54 -11 4 -14 13
-10 29 4 15 1 30 -9 40 -9 8 -16 24 -16 35 0 11 -7 25 -15 32 -8 7 -15 20 -15
29 0 9 -6 25 -13 36 -7 11 -20 43 -29 70 -41 130 -42 135 -31 178 13 46 3 159
-15 194 -17 31 -99 102 -126 109 -68 17 -159 -28 -199 -98 -33 -58 -38 -102
-24 -245 7 -67 11 -126 9 -132 -6 -17 -22 -2 -22 18 0 10 -7 24 -15 31 -8 7
-15 21 -15 32 0 11 -6 29 -12 41 -7 12 -19 45 -26 72 -7 28 -18 68 -24 90 -12
43 -13 94 -8 250 4 119 -6 147 -77 223 -47 50 -51 52 -102 52 -45 0 -61 -5
-102 -36 -62 -45 -84 -77 -97 -139 -16 -78 -13 -565 4 -708 8 -66 17 -123 19
-127 2 -3 0 -12 -5 -20 -7 -11 -11 -8 -19 13 -6 15 -15 27 -21 27 -5 0 -10 11
-10 24 0 13 -7 29 -15 36 -8 7 -15 23 -15 37 0 13 -6 36 -13 51 -8 15 -19 52
-26 82 -12 52 -12 79 5 201 4 34 1 56 -11 80 -25 49 -83 111 -128 136 -36 21
-42 22 -92 10 -45 -10 -59 -20 -99 -67 -25 -30 -51 -70 -56 -90 -13 -51 -15
-407 -2 -455 12 -42 66 -115 85 -115 18 0 97 -92 104 -120 11 -45 16 -44 35 9
11 28 29 56 41 63 12 6 44 33 73 59 64 61 73 56 115 -61 16 -47 41 -101 54
-121 14 -19 25 -40 25 -46 0 -6 7 -16 15 -23 8 -7 15 -29 15 -50 l0 -37 -102
-5 c-92 -5 -107 -3 -140 16 -20 11 -43 32 -50 46 -12 23 -13 21 -16 -33 l-3
-58 -72 3 c-40 1 -79 -1 -88 -5 -23 -11 -85 53 -98 101 -10 37 -25 30 -31 -15
-4 -33 -9 -39 -35 -44 -43 -8 -69 7 -96 55 l-24 41 -3 -29 c-2 -16 2 -39 8
-51 27 -51 2 -68 -72 -50 -76 19 -154 -18 -206 -99 l-27 -41 1 -652 1 -652 27
-36 c15 -19 33 -35 40 -35 15 0 106 -96 106 -111 0 -6 7 -17 15 -25 8 -9 15
-24 15 -36 0 -11 5 -18 13 -15 7 2 11 16 9 33 -2 16 4 38 12 49 14 20 28 20
1253 22 681 1 1312 2 1403 2 181 0 1042 1 1156 1 68 0 75 2 125 40 97 73 91
20 91 765 0 702 2 665 -55 738 -58 74 -20 71 -712 73 -341 1 -642 5 -668 9
-34 5 -53 14 -65 32 -9 14 -25 32 -34 41 -10 9 -18 22 -18 30 0 7 -6 25 -14
40 -8 15 -17 44 -21 63 -6 33 -2 41 56 110 62 74 83 110 94 162 14 66 46 -12
60 -143 7 -67 26 -122 52 -151 13 -14 23 -29 23 -35 1 -14 91 -65 126 -71 42
-7 82 16 134 74 68 77 71 88 81 277 8 150 12 173 29 191 20 19 20 19 22 -15 0
-19 3 -46 5 -60 2 -14 5 -43 7 -65 2 -46 16 -73 63 -132 43 -52 77 -75 127
-84 55 -10 96 5 147 53 46 44 78 100 88 158 5 26 12 36 28 38 17 3 24 -3 28
-25 12 -53 39 -108 72 -143 17 -19 41 -46 52 -60 16 -21 28 -25 68 -25 70 1
99 11 143 51 39 35 48 37 93 19 13 -6 17 -2 17 18 0 14 -4 29 -10 32 -5 3 -10
19 -10 34 0 15 -4 31 -9 37 -16 16 -32 124 -21 144 23 43 -4 105 -72 171 -69
65 -138 69 -201 10 -52 -47 -72 -84 -77 -141 l-5 -55 -32 35 c-18 18 -48 66
-68 105 -30 62 -34 77 -28 122 6 58 -15 111 -65 165 -53 56 -160 60 -216 9
-62 -57 -76 -92 -76 -192 0 -68 -3 -90 -12 -87 -7 3 -14 14 -16 26 -2 11 -10
26 -18 32 -8 7 -14 20 -14 29 0 10 -7 26 -15 37 -8 10 -15 31 -15 46 0 15 -4
29 -9 32 -16 10 -25 79 -25 201 l-1 120 -40 48 c-21 26 -44 47 -50 47 -5 0
-21 9 -35 20 -26 20 -30 21 -65 13z m82 -122 l22 -26 1 -493 c0 -527 1 -519
-49 -559 -25 -21 -77 -15 -108 11 l-28 24 0 515 c0 487 1 516 19 535 35 39
108 36 143 -7z m-1935 -2 c18 -24 19 -48 19 -522 0 -335 -4 -503 -11 -517 -32
-61 -130 -66 -162 -9 -17 28 -18 72 -18 521 l0 491 26 34 c24 32 29 34 76 31
41 -2 55 -8 70 -29z m-489 -320 c22 -20 22 -25 22 -284 l0 -263 -24 -21 c-34
-29 -68 -36 -99 -20 -61 32 -61 31 -62 302 0 239 1 249 22 277 19 26 28 30 70
30 35 0 55 -6 71 -21z m965 1 c29 -27 31 -53 29 -307 -2 -208 -3 -223 -23
-250 -43 -57 -115 -52 -152 11 -16 28 -18 54 -16 261 2 232 5 256 32 288 22
25 101 23 130 -3z m964 3 c26 -29 28 -51 32 -279 5 -258 -3 -294 -65 -314 -30
-10 -41 -9 -68 5 -57 29 -62 58 -59 320 3 231 3 234 27 259 20 21 34 26 71 26
32 0 52 -6 62 -17z m976 -7 c22 -23 22 -28 22 -280 0 -244 -1 -258 -20 -278
-34 -37 -70 -47 -107 -30 -54 25 -56 38 -56 316 l0 255 24 20 c35 30 107 28
137 -3z m478 -239 c22 -22 23 -32 25 -162 l2 -139 -32 -28 c-43 -38 -84 -37
-122 3 -29 31 -29 31 -29 163 1 122 2 133 24 157 12 14 29 29 37 32 25 11 71
-2 95 -26z m-3018 -571 c42 -31 78 -84 84 -127 11 -71 -14 -78 -71 -20 -38 39
-48 61 -58 134 -6 43 2 46 45 13z m3043 -949 l0 -698 -2025 -2 c-1345 -1
-2026 1 -2026 8 0 7 0 1266 0 1387 0 4 911 7 2026 5 l2025 -2 0 -698z"/>
<path d="M3088 2361 c-27 -4 -53 -12 -60 -19 -7 -7 -18 -12 -25 -12 -22 0 -96
-61 -129 -105 -53 -72 -85 -164 -83 -243 0 -47 21 -137 42 -183 19 -43 104
-129 127 -129 9 0 21 -5 28 -12 38 -38 247 -61 301 -34 31 16 31 17 31 97 l0
81 -32 -8 c-18 -3 -48 -14 -66 -22 -30 -15 -36 -14 -83 2 -44 16 -119 74 -119
93 0 4 -8 15 -17 25 -25 28 -25 188 0 215 9 11 17 23 17 27 0 4 17 23 38 41
35 33 41 35 110 35 40 0 88 -6 107 -14 18 -8 36 -12 39 -8 3 3 6 42 6 87 l0
82 -52 7 c-61 7 -114 6 -180 -3z"/>
<path d="M3898 2361 c-27 -4 -53 -12 -60 -19 -7 -7 -18 -12 -26 -12 -15 0 -90
-55 -108 -80 -7 -8 -21 -26 -33 -39 -12 -13 -21 -30 -21 -36 0 -7 -7 -18 -15
-25 -8 -7 -15 -23 -15 -37 0 -13 -5 -34 -11 -45 -25 -46 -6 -194 35 -273 16
-32 97 -112 133 -132 12 -7 50 -22 83 -34 71 -24 194 -24 244 1 29 15 30 17
29 88 0 40 -3 75 -6 78 -3 4 -34 -4 -69 -17 -62 -22 -65 -22 -109 -5 -53 20
-89 51 -127 108 -24 37 -27 51 -27 124 0 64 4 86 18 101 9 11 17 23 17 27 0 4
17 23 38 41 35 33 40 35 112 35 48 0 86 -6 104 -15 16 -9 33 -12 37 -8 11 11
14 161 4 171 -9 10 -169 12 -227 3z"/>
<path d="M4419 2353 c-3 -52 1 -715 5 -721 3 -5 38 -8 78 -8 l73 1 3 120 c1
66 -1 163 -6 215 -8 91 -5 109 20 110 4 0 18 -21 31 -47 35 -70 49 -94 80
-134 15 -20 27 -40 27 -44 0 -4 14 -24 30 -45 17 -21 30 -40 30 -43 0 -10 72
-112 88 -124 9 -8 45 -13 84 -13 l68 0 0 370 0 371 -87 -3 c-81 -3 -88 -5 -86
-23 1 -11 7 -87 12 -170 6 -82 13 -166 17 -186 13 -77 -39 -53 -83 36 -13 28
-33 64 -43 80 -11 17 -24 39 -30 50 -6 11 -19 34 -30 50 -11 17 -23 37 -27 45
-5 8 -23 39 -41 68 l-34 52 -89 0 c-49 0 -89 -3 -90 -7z"/>
<path d="M5566 2351 c-3 -4 -12 -35 -21 -67 -8 -32 -19 -62 -25 -68 -5 -5 -10
-19 -10 -30 0 -12 -7 -30 -15 -40 -8 -11 -15 -29 -15 -40 0 -12 -7 -30 -15
-40 -8 -11 -15 -29 -15 -40 0 -12 -7 -30 -15 -40 -8 -11 -15 -28 -15 -37 0
-10 -7 -31 -15 -48 -8 -17 -22 -45 -30 -62 -8 -17 -15 -37 -15 -46 0 -8 -6
-27 -13 -41 -8 -15 -21 -42 -30 -60 -18 -36 -22 -68 -9 -75 4 -3 49 -2 101 2
l94 6 18 65 c10 36 18 75 19 86 0 38 25 47 131 50 l101 2 19 -32 c11 -18 19
-50 19 -76 0 -25 6 -56 13 -70 12 -24 16 -25 120 -27 104 -2 107 -1 107 20 0
12 -7 31 -15 41 -8 11 -15 29 -15 41 0 12 -7 30 -15 41 -8 10 -15 31 -15 45 0
14 -7 34 -15 45 -8 10 -15 29 -15 41 0 12 -6 34 -14 50 -15 30 -33 80 -46 128
-13 48 -31 98 -46 128 -8 16 -14 37 -14 47 0 9 -9 38 -20 64 l-21 46 -114 0
c-63 0 -116 -4 -119 -9z m128 -187 c3 -9 6 -29 6 -44 0 -16 5 -32 10 -35 6 -3
10 -15 10 -27 0 -11 8 -33 17 -49 23 -39 9 -49 -75 -49 -70 0 -85 13 -60 53 8
12 18 36 22 52 22 94 54 140 70 99z"/>
<path d="M2429 3610 c-33 -10 -110 -92 -126 -134 -13 -34 -17 -178 -6 -241 8
-48 81 -126 135 -144 34 -11 88 -72 88 -99 0 -27 20 -9 26 23 7 39 53 95 78
95 8 0 20 -9 26 -20 6 -11 15 -20 20 -20 13 0 13 63 1 76 -13 13 -18 126 -6
144 12 18 16 56 16 129 -1 49 -4 58 -48 109 -67 78 -132 104 -204 82z m124
-102 c21 -22 22 -31 22 -154 0 -148 -9 -177 -61 -194 -41 -14 -76 -5 -103 26
-19 22 -21 36 -21 161 0 127 2 138 22 160 30 32 108 33 141 1z"/>
<path d="M4368 3610 c-34 -10 -98 -59 -98 -75 0 -6 -10 -20 -21 -31 -20 -18
-21 -27 -17 -130 4 -96 8 -118 31 -165 15 -30 40 -63 54 -74 50 -38 116 -110
125 -137 13 -37 28 -26 28 21 0 41 33 81 83 100 41 16 54 14 62 -11 4 -16 8
-19 12 -9 3 7 1 30 -5 50 -36 124 -41 176 -21 213 7 12 8 41 4 73 -5 46 -14
61 -55 107 -27 29 -54 59 -60 66 -12 13 -80 15 -122 2z m115 -111 c26 -28 27
-33 27 -144 0 -76 -5 -127 -14 -149 -30 -71 -129 -70 -165 2 -26 53 -22 243 7
281 43 58 97 62 145 10z"/>
<path d="M6590 3096 c0 -8 5 -18 10 -21 6 -3 10 3 10 14 0 12 -4 21 -10 21 -5
0 -10 -6 -10 -14z"/>
<path d="M4640 3056 c0 -14 5 -28 10 -31 6 -4 10 7 10 24 0 17 -4 31 -10 31
-5 0 -10 -11 -10 -24z"/>
<path d="M2690 3022 c0 -35 26 -102 40 -102 16 0 12 46 -5 60 -8 7 -15 23 -15
36 0 12 -4 26 -10 29 -6 4 -10 -6 -10 -23z"/>
<path d="M6616 3042 c-3 -5 1 -18 9 -28 14 -18 14 -18 15 3 0 23 -15 39 -24
25z"/>
<path d="M4280 3006 c0 -14 5 -28 10 -31 6 -3 10 5 10 19 0 14 -4 28 -10 31
-6 3 -10 -5 -10 -19z"/>
<path d="M4670 2991 c0 -11 5 -23 10 -26 6 -3 10 3 10 14 0 11 -4 23 -10 26
-5 3 -10 -3 -10 -14z"/>
<path d="M6650 2960 c0 -11 5 -20 10 -20 6 0 10 9 10 20 0 11 -4 20 -10 20 -5
0 -10 -9 -10 -20z"/>
<path d="M4470 2946 c0 -14 5 -28 10 -31 6 -3 10 5 10 19 0 14 -4 28 -10 31
-6 3 -10 -5 -10 -19z"/>
<path d="M2550 2935 c0 -17 5 -25 13 -22 6 2 12 12 12 22 0 10 -6 20 -12 23
-8 2 -13 -6 -13 -23z"/>
<path d="M3000 2928 c0 -27 4 -38 15 -38 19 0 19 30 0 56 -13 18 -14 17 -15
-18z"/>
<path d="M6677 2924 c-7 -8 4 -44 14 -44 12 0 12 37 0 44 -4 3 -11 3 -14 0z"/>
<path d="M6710 2838 c0 -17 34 -87 43 -88 13 0 7 37 -8 50 -8 7 -15 21 -15 31
0 11 -4 19 -10 19 -5 0 -10 -5 -10 -12z"/>
<path d="M6770 2711 c0 -12 5 -21 10 -21 6 0 10 6 10 14 0 8 -4 18 -10 21 -5
3 -10 -3 -10 -14z"/>
<path d="M6800 2646 c0 -14 5 -26 10 -26 6 0 10 9 10 19 0 11 -4 23 -10 26 -6
4 -10 -5 -10 -19z"/>
<path d="M6830 2591 c0 -11 5 -23 10 -26 6 -3 10 3 10 14 0 11 -4 23 -10 26
-5 3 -10 -3 -10 -14z"/>
<path d="M6856 2532 c-3 -5 1 -18 9 -28 14 -18 14 -18 15 3 0 23 -15 39 -24
25z"/>
<path d="M6920 2398 c0 -7 5 -20 10 -28 8 -12 10 -9 10 13 0 15 -4 27 -10 27
-5 0 -10 -6 -10 -12z"/>
<path d="M6940 2343 c0 -5 4 -15 10 -23 11 -18 25 -7 17 15 -6 15 -27 21 -27
8z"/>
<path d="M6980 2265 c0 -14 5 -25 10 -25 6 0 10 11 10 25 0 14 -4 25 -10 25
-5 0 -10 -11 -10 -25z"/>
<path d="M7040 2146 c0 -14 5 -26 10 -26 6 0 10 9 10 19 0 11 -4 23 -10 26 -6
4 -10 -5 -10 -19z"/>
<path d="M7060 2088 c0 -8 7 -23 15 -34 15 -18 15 -18 13 10 -3 29 -28 50 -28
24z"/>
<path d="M7100 2010 c0 -11 5 -20 10 -20 6 0 10 9 10 20 0 11 -4 20 -10 20 -5
0 -10 -9 -10 -20z"/>
<path d="M7120 1962 c0 -5 7 -17 15 -28 14 -18 14 -18 15 9 0 17 -5 27 -15 27
-8 0 -15 -4 -15 -8z"/>
<path d="M7150 1903 c0 -5 7 -18 15 -29 15 -18 15 -18 13 5 -3 23 -28 44 -28
24z"/>
<path d="M7190 1821 c0 -11 5 -23 10 -26 6 -4 10 5 10 19 0 14 -4 26 -10 26
-5 0 -10 -9 -10 -19z"/>
<path d="M7220 1761 c0 -11 5 -23 10 -26 6 -4 10 5 10 19 0 14 -4 26 -10 26
-5 0 -10 -9 -10 -19z"/>
<path d="M7250 1690 c0 -11 5 -20 10 -20 6 0 10 9 10 20 0 11 -4 20 -10 20 -5
0 -10 -9 -10 -20z"/>
<path d="M7280 1641 c0 -25 31 -91 42 -91 14 0 9 27 -7 40 -8 7 -15 23 -15 36
0 12 -4 26 -10 29 -5 3 -10 -3 -10 -14z"/>
<path d="M7340 1506 c0 -8 5 -18 10 -21 6 -3 10 3 10 14 0 12 -4 21 -10 21 -5
0 -10 -6 -10 -14z"/>
<path d="M7367 1454 c-7 -7 39 -113 63 -144 19 -24 20 -24 20 -4 0 12 -7 27
-15 34 -8 7 -15 20 -15 30 0 10 -7 23 -15 30 -8 7 -15 21 -15 31 0 19 -13 32
-23 23z"/>
<path d="M7460 1251 c0 -11 5 -23 10 -26 6 -4 10 5 10 19 0 14 -4 26 -10 26
-5 0 -10 -9 -10 -19z"/>
<path d="M7490 1193 c0 -22 32 -93 42 -93 14 0 8 40 -7 46 -9 4 -15 19 -15 35
0 16 -4 29 -10 29 -5 0 -10 -7 -10 -17z"/>
<path d="M7550 1062 c0 -24 29 -82 41 -82 14 0 11 26 -6 40 -8 7 -15 23 -15
36 0 13 -4 24 -10 24 -5 0 -10 -8 -10 -18z"/>
<path d="M2520 1026 c0 -14 5 -28 10 -31 6 -3 10 5 10 19 0 14 -4 28 -10 31
-6 3 -10 -5 -10 -19z"/>
<path d="M2550 955 c0 -14 5 -25 10 -25 6 0 10 11 10 25 0 14 -4 25 -10 25 -5
0 -10 -11 -10 -25z"/>
<path d="M7607 946 c-3 -8 1 -22 8 -33 13 -17 14 -16 15 9 0 30 -15 46 -23 24z"/>
<path d="M2582 896 c2 -16 9 -31 17 -34 10 -3 11 2 6 19 -12 39 -27 48 -23 15z"/>
<path d="M7640 871 c0 -11 5 -23 10 -26 6 -3 10 3 10 14 0 11 -4 23 -10 26 -5
3 -10 -3 -10 -14z"/>
<path d="M2610 831 c0 -11 5 -23 10 -26 6 -3 10 3 10 14 0 11 -4 23 -10 26 -5
3 -10 -3 -10 -14z"/>
<path d="M7660 826 c0 -5 49 -107 64 -134 9 -16 16 -20 21 -12 4 6 0 19 -9 29
-9 10 -16 25 -16 35 0 9 -7 19 -15 22 -9 4 -15 19 -15 35 0 19 -5 29 -15 29
-8 0 -15 -2 -15 -4z"/>
<path d="M2640 750 c0 -11 5 -20 10 -20 6 0 10 9 10 20 0 11 -4 20 -10 20 -5
0 -10 -9 -10 -20z"/>
<path d="M2670 670 c0 -11 5 -20 10 -20 6 0 10 9 10 20 0 11 -4 20 -10 20 -5
0 -10 -9 -10 -20z"/>
<path d="M2700 616 c0 -14 5 -28 10 -31 6 -3 10 5 10 19 0 14 -4 28 -10 31 -6
3 -10 -5 -10 -19z"/>
<path d="M7750 631 c0 -17 12 -41 21 -41 5 0 9 11 9 25 0 16 -6 25 -15 25 -8
0 -15 -4 -15 -9z"/>
<path d="M2730 546 c0 -14 5 -28 10 -31 6 -3 10 5 10 19 0 14 -4 28 -10 31 -6
3 -10 -5 -10 -19z"/>
<path d="M7790 550 c0 -11 5 -20 10 -20 6 0 10 9 10 20 0 11 -4 20 -10 20 -5
0 -10 -9 -10 -20z"/>
<path d="M7818 498 c-6 -17 1 -38 13 -38 5 0 9 11 9 25 0 26 -14 34 -22 13z"/>
<path d="M2760 475 c0 -14 5 -25 10 -25 6 0 10 11 10 25 0 14 -4 25 -10 25 -5
0 -10 -11 -10 -25z"/>
<path d="M7850 431 c0 -11 5 -23 10 -26 6 -3 10 3 10 14 0 11 -4 23 -10 26 -5
3 -10 -3 -10 -14z"/>
<path d="M2790 416 c0 -14 5 -28 10 -31 6 -3 10 5 10 19 0 14 -4 28 -10 31 -6
3 -10 -5 -10 -19z"/>
<path d="M7883 363 c23 -69 33 -93 39 -93 14 0 8 29 -13 70 -22 41 -36 54 -26
23z"/>
<path d="M2820 336 c0 -8 5 -18 10 -21 6 -3 10 3 10 14 0 12 -4 21 -10 21 -5
0 -10 -6 -10 -14z"/>
<path d="M2850 276 c0 -14 5 -26 10 -26 6 0 10 9 10 19 0 11 -4 23 -10 26 -6
4 -10 -5 -10 -19z"/>
<path d="M7940 245 c0 -9 6 -29 14 -43 8 -15 18 -36 22 -47 7 -19 8 -19 11 3
3 12 -3 29 -11 38 -9 8 -16 24 -16 34 0 10 -4 22 -10 25 -5 3 -10 -1 -10 -10z"/>
<path d="M8000 110 c0 -11 5 -20 10 -20 6 0 10 9 10 20 0 11 -4 20 -10 20 -5
0 -10 -9 -10 -20z"/>
<path d="M8030 48 c0 -27 17 -48 38 -48 10 0 10 3 -2 16 -9 8 -16 22 -16 29 0
8 -4 17 -10 20 -6 3 -10 -4 -10 -17z"/>
</g>
</svg>
