 <svg  version="1.0" xmlns="http://www.w3.org/2000/svg"  width="900.000000pt" height="480.000000pt" viewBox="0 0 900.000000 480.000000"  preserveAspectRatio="xMidYMid meet">  <g transform="translate(0.000000,480.000000) scale(0.100000,-0.100000)" fill="#ffffff" stroke="none"> <path d="M2305 2970 c-445 -6 -409 2 -487 -102 l-38 -50 3 -557 c4 -618 -1 -581 74 -653 21 -20 51 -42 66 -47 19 -8 382 -11 1142 -11 972 0 1121 2 1174 15 54 14 63 14 84 1 18 -13 52 -15 172 -13 171 2 198 11 254 78 27 33 34 50 35 88 1 25 -3 56 -7 69 -7 20 -5 22 21 22 16 0 35 -7 42 -15 7 -9 20 -13 29 -10 9 4 57 8 106 11 121 6 178 19 225 50 l39 26 58 -29 c74 -38 113 -44 244 -34 78 5 117 13 148 29 56 29 80 28 148 -10 53 -29 67 -33 152 -34 84 -2 100 1 159 27 l66 30 49 -21 c27 -11 61 -20 76 -20 24 0 40 9 120 62 32 22 36 22 56 2 9 -9 33 -28 53 -42 49 -33 107 -27 157 17 45 39 83 40 127 3 41 -35 80 -52 119 -52 25 0 33 -6 44 -34 17 -40 76 -101 119 -123 54 -28 144 4 207 73 43 48 89 117 89 133 0 9 11 45 24 81 50 135 85 237 106 310 11 41 25 82 29 90 28 51 -59 171 -133 184 -33 6 -46 3 -96 -28 -32 -20 -65 -36 -73 -36 -9 0 -29 11 -45 25 -70 59 -132 66 -214 24 -38 -19 -38 -19 -100 2 -54 18 -75 20 -143 14 -87 -8 -97 -8 -289 1 -155 7 -203 1 -251 -32 -45 -30 -54 -30 -118 3 -45 23 -64 27 -142 27 -49 0 -109 -4 -132 -8 l-41 -8 -17 59 c-33 117 -142 197 -218 161 -46 -22 -95 -65 -122 -107 -21 -34 -32 -42 -115 -80 -19 -9 -54 -30 -77 -48 -23 -18 -47 -33 -53 -33 -7 0 -46 17 -88 37 -71 36 -79 37 -171 37 -79 -1 -102 -5 -131 -22 -92 -56 -80 -54 -155 -15 -64 33 -73 35 -164 35 -53 0 -104 2 -113 4 -23 7 -31 50 -29 168 1 121 -10 159 -58 210 -70 75 -19 70 -856 71 -412 0 -926 -2 -1140 -5z m1946 -112 c2 -7 2 -280 -1 -606 l-5 -592 -1174 -1 c-645 0 -1175 2 -1178 4 -2 3 -6 1137 -3 1200 0 4 531 7 1179 7 935 0 1180 -3 1182 -12z m1439 -588 l0 -360 -54 0 c-44 0 -56 4 -69 23 l-15 22 -24 -22 c-20 -19 -36 -23 -94 -23 -74 0 -106 14 -142 60 -45 59 -62 231 -33 335 26 92 103 148 194 143 l52 -3 0 -55 0 -55 -48 -3 c-42 -3 -50 -7 -72 -40 -21 -31 -25 -48 -25 -114 0 -96 18 -140 66 -157 30 -11 40 -10 72 6 32 15 39 25 49 68 13 56 15 359 4 450 -5 33 -6 66 -3 73 3 8 27 12 73 12 l69 0 0 -360z m1481 160 c10 -6 19 -18 19 -28 0 -19 24 -98 46 -150 8 -18 14 -44 14 -58 0 -34 27 -84 45 -84 10 0 15 11 15 33 0 29 12 76 42 162 6 17 13 46 15 65 6 45 26 60 82 60 58 0 76 -11 63 -36 -31 -58 -52 -107 -52 -122 0 -10 -4 -22 -9 -27 -5 -6 -14 -26 -19 -45 -12 -41 -30 -93 -47 -135 -16 -39 -35 -92 -45 -130 -15 -54 -36 -105 -48 -117 -7 -7 -12 -18 -12 -24 0 -20 -61 -62 -101 -69 -22 -4 -46 -2 -58 5 -19 10 -22 19 -19 63 l3 52 37 3 c28 2 43 11 58 32 33 46 26 98 -26 203 -8 16 -14 36 -14 46 0 9 -7 26 -15 37 -8 10 -15 28 -15 40 0 11 -7 29 -15 40 -8 10 -15 27 -15 37 0 9 -13 42 -30 73 -16 30 -26 61 -23 69 6 18 94 21 124 5z m-2543 -30 c83 -44 92 -69 38 -112 -41 -33 -48 -34 -70 -9 -39 43 -122 38 -149 -8 -26 -45 -24 -193 4 -237 19 -31 25 -34 69 -34 29 0 52 6 60 15 22 27 50 28 86 3 59 -40 42 -75 -59 -121 -48 -22 -90 -22 -150 1 -58 22 -100 60 -127 113 -16 31 -20 59 -20 142 0 142 22 192 110 250 38 24 160 23 208 -3z m455 3 c74 -42 85 -84 90 -325 l3 -167 -24 -6 c-33 -8 -90 4 -96 21 -5 12 -11 11 -35 -7 -64 -47 -182 -31 -234 33 -26 32 -29 44 -29 103 0 56 3 70 23 91 40 43 92 64 159 64 l60 0 0 -45 0 -45 -44 0 c-73 0 -114 -48 -86 -101 9 -16 22 -19 78 -19 59 0 69 3 89 27 21 24 23 36 23 133 0 100 -2 108 -24 129 -43 41 -136 38 -187 -6 -14 -11 -20 -10 -42 11 -38 35 -37 83 1 96 15 6 34 14 42 19 8 6 57 10 108 10 72 1 101 -3 125 -16z m1005 -7 c20 -13 47 -34 58 -47 30 -33 54 -113 54 -176 l0 -53 -136 0 -135 0 3 43 3 42 73 3 72 3 0 29 c0 33 -60 90 -95 90 -56 0 -113 -81 -114 -162 -1 -49 26 -117 57 -145 38 -34 107 -32 159 6 l40 29 36 -32 c20 -18 37 -37 37 -43 0 -19 -68 -65 -123 -84 -65 -23 -99 -23 -157 -2 -54 20 -84 44 -118 98 -24 37 -25 48 -25 160 1 97 5 127 20 156 42 80 91 108 186 109 54 0 75 -5 105 -24z m298 9 c4 -8 14 -15 24 -15 10 0 23 7 30 15 9 10 31 15 74 15 54 0 66 -4 96 -30 34 -28 70 -39 70 -21 0 24 72 51 135 51 88 0 147 -38 170 -110 13 -42 22 -394 10 -402 -16 -12 -103 -9 -111 3 -3 6 -6 87 -5 179 l2 167 -31 32 c-35 34 -66 39 -110 16 -39 -20 -44 -51 -38 -241 5 -170 7 -164 -62 -164 -72 0 -70 -6 -63 164 7 174 -1 217 -47 241 -16 8 -36 15 -44 15 -32 0 -68 -25 -82 -58 -16 -39 -18 -204 -4 -287 10 -61 -3 -75 -66 -75 -73 0 -69 -16 -67 258 1 136 2 250 2 255 1 4 26 7 56 7 40 0 57 -4 61 -15z m-1698 -627 c16 -16 15 -103 0 -115 -15 -11 -338 -10 -356 1 -12 7 -17 82 -6 110 5 14 31 16 178 16 120 0 176 -4 184 -12z"/> <path d="M2014 2739 c-5 -8 -6 -940 -1 -945 2 -3 478 -4 1058 -5 l1054 0 0 478 0 477 -1053 0 c-580 1 -1056 -2 -1058 -5z m1230 -119 c14 -5 26 -14 26 -19 0 -12 -58 -61 -90 -75 -14 -6 -51 -30 -84 -53 -32 -24 -63 -43 -70 -43 -6 0 -35 16 -64 37 -58 39 -125 57 -208 55 -49 -1 -76 -12 -171 -68 -31 -18 -34 -18 -60 -2 -88 53 -140 72 -203 73 -36 1 -76 -3 -90 -10 -57 -29 -67 -28 -84 7 -19 36 -8 80 22 94 42 20 1025 24 1076 4z m728 -4 c10 -4 19 -15 22 -24 15 -59 15 -70 -4 -87 -19 -17 -22 -17 -74 5 -43 17 -68 21 -118 17 -35 -3 -83 -7 -107 -9 l-45 -3 -8 40 c-13 59 9 74 114 74 44 0 82 2 84 3 5 6 117 -8 136 -16z m-449 7 c2 -5 0 -127 -5 -272 -6 -155 -6 -292 0 -333 11 -89 -1 -111 -59 -105 -22 2 -45 12 -52 21 -10 14 -18 15 -39 7 -14 -5 -29 -15 -33 -20 -10 -17 -116 -12 -152 7 -70 38 -103 115 -103 245 0 159 43 232 153 261 40 10 66 12 82 6 22 -8 25 -16 25 -60 l0 -50 -41 0 c-33 0 -46 -6 -70 -32 -28 -31 -29 -36 -29 -126 0 -106 12 -135 65 -152 28 -9 41 -8 69 5 19 9 38 24 43 33 4 9 9 139 9 287 1 149 2 273 3 278 0 4 30 7 65 7 36 0 67 -3 69 -7z m-1089 -223 c45 -23 76 -49 76 -64 0 -16 -65 -76 -82 -76 -8 0 -24 11 -36 25 -30 35 -68 42 -109 20 -41 -23 -48 -44 -47 -161 0 -84 2 -94 24 -118 29 -30 99 -37 120 -10 30 35 49 36 90 7 45 -32 48 -41 20 -69 -32 -32 -43 -38 -101 -58 -55 -18 -58 -18 -110 -1 -70 23 -115 58 -142 109 -18 35 -21 58 -21 156 0 120 10 157 59 206 54 55 184 73 259 34z m461 -3 c22 -12 53 -43 70 -67 29 -44 30 -47 30 -170 -1 -118 -2 -127 -27 -166 -34 -53 -70 -78 -134 -93 -78 -19 -175 10 -214 64 -42 57 -50 88 -50 195 0 98 2 108 30 157 45 78 87 102 180 102 60 1 83 -4 115 -22z m1034 -8 c26 -18 55 -46 65 -63 19 -37 49 -173 42 -193 -4 -10 -36 -13 -135 -13 -71 0 -132 4 -135 8 -3 5 -3 25 1 45 l6 37 68 0 c38 0 71 5 75 11 12 20 -29 77 -68 95 -32 14 -42 15 -69 4 -51 -21 -69 -62 -69 -155 0 -83 13 -117 56 -150 32 -24 105 -19 144 10 44 32 53 32 95 -6 33 -31 34 -32 17 -55 -9 -13 -21 -24 -26 -24 -5 0 -17 -6 -25 -14 -9 -7 -46 -21 -83 -31 -63 -17 -69 -17 -125 1 -65 20 -99 42 -123 82 -40 66 -51 189 -26 286 30 113 82 155 194 155 66 1 78 -2 121 -30z"/> <path d="M2750 2313 c-53 -37 -59 -52 -60 -150 0 -89 1 -94 31 -128 76 -86 169 -12 169 134 0 70 -19 119 -55 141 -40 24 -54 25 -85 3z"/> </g> </svg> 