 <svg  version="1.0" xmlns="http://www.w3.org/2000/svg"  width="1350.000000pt" height="1350.000000pt" viewBox="0 0 1350.000000 1350.000000"  preserveAspectRatio="xMidYMid meet">  <g transform="translate(0.000000,1350.000000) scale(0.100000,-0.100000)" fill="#601cfb" stroke="none"> <path d="M4350 8923 c-47 -2 -89 -8 -94 -13 -6 -6 -19 -10 -29 -10 -10 0 -31 -6 -45 -14 -43 -22 -95 -38 -118 -37 -13 0 -45 -22 -80 -54 -32 -30 -62 -55 -66 -55 -15 0 -78 -65 -78 -82 0 -9 -4 -20 -10 -23 -5 -3 -28 -37 -50 -75 -28 -48 -40 -80 -40 -107 0 -22 -4 -43 -9 -48 -16 -16 -43 -125 -46 -185 -2 -30 -4 -212 -4 -405 -1 -260 -4 -367 -15 -417 -29 -138 -58 -204 -93 -213 -13 -3 -29 -17 -35 -30 -6 -14 -15 -25 -19 -25 -5 0 -18 -11 -31 -25 -20 -21 -159 -75 -195 -75 -6 0 -25 -11 -42 -25 -42 -36 -54 -103 -49 -283 4 -210 3 -208 197 -263 24 -7 45 -19 48 -26 3 -7 15 -13 28 -13 25 0 51 -25 56 -54 3 -12 16 -23 37 -28 22 -6 32 -14 32 -28 0 -11 9 -29 21 -41 12 -12 23 -33 24 -48 2 -14 11 -51 19 -81 13 -45 16 -116 16 -400 0 -348 3 -442 15 -515 8 -52 26 -114 42 -145 7 -14 13 -33 13 -44 0 -10 15 -48 32 -85 30 -61 118 -160 211 -236 35 -29 119 -71 135 -67 7 2 25 -4 39 -14 31 -20 205 -38 363 -39 94 0 108 2 138 23 17 13 36 31 41 41 15 27 24 200 16 287 -10 110 -26 125 -165 147 -57 9 -109 22 -114 27 -6 6 -21 10 -34 10 -39 0 -80 31 -97 72 -8 21 -21 38 -30 38 -18 0 -36 32 -49 90 -5 25 -11 231 -12 458 -3 421 -3 423 -45 622 -5 25 -7 55 -4 68 4 15 1 22 -9 22 -15 0 -46 41 -46 61 0 11 -10 22 -87 103 -21 22 -37 45 -35 53 2 7 -6 13 -18 13 -20 0 -28 24 -10 35 5 3 17 21 26 41 10 20 26 37 40 40 13 3 24 12 24 18 0 14 78 138 94 148 11 7 34 106 36 153 0 17 8 50 17 75 14 39 17 103 18 475 2 287 6 449 14 487 12 55 31 84 39 60 7 -23 20 -12 26 24 6 27 14 39 37 48 20 8 26 15 19 22 -24 24 80 64 168 64 76 1 138 16 165 40 24 23 35 89 36 220 0 176 -23 222 -119 240 -51 10 -76 10 -260 3z m320 -252 l0 -188 -150 0 c-122 1 -152 -2 -167 -15 -10 -9 -27 -18 -39 -22 -40 -12 -98 -74 -119 -126 -4 -8 -12 -28 -20 -45 -23 -51 -26 -105 -33 -615 -6 -448 -9 -497 -25 -520 -9 -13 -17 -31 -17 -40 0 -48 -122 -217 -175 -241 -11 -5 -33 -18 -50 -29 -37 -25 -36 -24 -118 -46 -38 -11 -68 -23 -68 -29 0 -9 47 -22 143 -42 15 -3 33 -11 39 -19 6 -8 18 -14 26 -14 7 0 16 -7 19 -15 4 -8 10 -15 15 -15 20 0 139 -135 139 -158 0 -5 7 -15 15 -22 8 -7 15 -24 15 -39 0 -15 8 -38 17 -51 16 -23 18 -73 25 -520 7 -509 9 -564 33 -615 8 -16 16 -37 20 -45 19 -48 59 -97 90 -111 11 -5 27 -13 35 -18 59 -34 94 -41 220 -41 l130 0 0 -182 0 -183 -192 3 c-140 3 -200 8 -220 18 -15 8 -37 14 -49 14 -25 0 -105 36 -115 51 -3 5 -13 9 -24 9 -10 0 -20 7 -24 15 -3 8 -10 15 -15 15 -16 0 -91 72 -128 123 -51 69 -103 177 -103 212 0 17 -5 36 -11 42 -30 30 -43 187 -48 623 -4 321 -9 441 -18 457 -7 12 -13 33 -13 46 0 14 -7 30 -15 37 -8 7 -15 19 -15 27 0 20 -129 143 -150 143 -9 0 -21 5 -28 12 -11 11 -46 18 -187 36 l-50 7 -3 199 c-1 110 1 203 5 207 5 5 46 11 93 15 47 3 95 13 107 20 12 8 31 14 41 14 11 0 25 7 32 15 7 8 18 15 25 15 19 0 102 90 125 135 11 21 20 49 20 60 0 12 7 30 15 41 12 16 14 86 15 439 1 331 4 433 15 480 8 33 15 76 15 95 0 19 7 44 15 54 8 11 15 32 15 47 0 29 35 114 50 124 6 3 10 14 10 24 0 10 13 31 30 47 16 16 30 34 30 39 0 15 83 95 97 95 7 0 16 6 20 13 11 17 59 47 76 47 8 0 20 7 27 15 7 8 23 15 37 15 13 0 38 7 56 16 24 13 72 18 212 22 99 2 187 8 195 12 8 5 18 6 22 4 5 -3 8 -90 8 -193z"/> <path d="M8877 8920 c-62 -6 -82 -12 -101 -31 -47 -48 -51 -65 -50 -221 2 -212 17 -233 180 -243 110 -8 207 -40 198 -67 -7 -23 21 -35 42 -17 14 11 16 10 13 -6 -3 -30 17 -72 38 -77 31 -8 42 -90 48 -360 3 -139 7 -358 10 -487 4 -166 9 -242 19 -265 7 -17 19 -49 25 -72 15 -54 64 -146 96 -178 14 -14 25 -29 25 -33 0 -4 14 -16 30 -25 19 -11 30 -25 30 -38 0 -12 7 -28 15 -36 22 -23 19 -31 -25 -60 -22 -15 -40 -29 -40 -33 0 -3 -13 -19 -28 -36 -58 -62 -93 -141 -134 -300 -6 -24 -11 -221 -12 -480 -3 -543 -7 -567 -97 -640 -27 -22 -49 -46 -49 -52 0 -16 -46 -46 -59 -39 -5 3 -22 0 -38 -9 -15 -8 -71 -20 -123 -27 -84 -11 -99 -16 -126 -43 -24 -23 -33 -43 -39 -85 -11 -79 -8 -197 7 -255 22 -84 103 -121 243 -112 145 10 310 29 320 37 6 4 26 10 46 14 21 4 49 16 63 27 14 11 30 18 35 14 11 -6 141 118 188 180 31 41 83 143 83 164 0 6 4 19 9 29 27 54 50 157 71 317 5 39 11 237 13 440 4 313 7 378 21 423 11 32 23 52 33 52 8 0 17 9 20 20 3 10 18 25 34 32 16 7 30 16 30 20 1 5 2 13 3 20 2 22 110 77 183 93 59 13 77 22 102 51 41 46 45 67 44 224 -1 167 -4 189 -31 228 -23 31 -43 40 -181 82 -51 15 -75 28 -78 40 -3 10 -18 24 -34 30 -17 7 -36 27 -46 48 -9 19 -24 37 -33 39 -9 3 -24 21 -32 41 -37 88 -42 158 -43 554 0 296 -3 390 -12 399 -7 7 -13 31 -13 53 0 23 -9 70 -20 106 -11 36 -20 79 -20 96 0 18 -8 38 -19 48 -11 10 -28 39 -40 65 -11 26 -27 54 -36 61 -8 7 -15 18 -15 24 0 7 -16 29 -35 50 -19 21 -35 41 -35 45 0 3 -17 14 -38 23 -20 10 -50 27 -67 38 -35 23 -28 20 -130 54 -44 14 -91 26 -105 26 -15 0 -30 4 -36 10 -13 13 -201 20 -297 10z m182 -74 c115 -4 159 -9 177 -21 13 -8 36 -15 52 -15 16 0 35 -7 42 -15 7 -8 20 -15 30 -15 10 0 23 -7 30 -15 7 -8 18 -15 24 -15 6 0 19 -8 27 -17 9 -10 31 -31 50 -48 50 -44 110 -125 130 -177 6 -16 15 -28 20 -28 5 0 9 -9 9 -20 0 -12 6 -33 14 -48 7 -15 16 -49 20 -76 3 -27 11 -55 18 -63 9 -11 14 -140 19 -466 7 -447 13 -524 42 -602 17 -44 108 -151 141 -166 12 -5 28 -13 36 -18 45 -27 103 -41 172 -43 43 -1 79 -7 81 -13 1 -5 3 -100 2 -210 l0 -200 -45 -6 c-25 -4 -70 -10 -100 -14 -30 -4 -65 -14 -77 -21 -12 -8 -27 -14 -34 -14 -12 0 -82 -51 -114 -85 -11 -11 -28 -38 -39 -60 -10 -22 -23 -49 -29 -60 -23 -41 -29 -142 -36 -580 -6 -394 -9 -454 -24 -482 -9 -18 -17 -47 -17 -65 -1 -18 -7 -44 -15 -58 -8 -14 -14 -35 -15 -46 0 -12 -7 -27 -15 -34 -8 -7 -15 -19 -15 -27 0 -8 -13 -32 -30 -53 -16 -21 -30 -42 -30 -46 -1 -11 -100 -108 -120 -117 -8 -4 -28 -16 -45 -27 -16 -11 -37 -22 -45 -26 -8 -3 -27 -12 -42 -20 -14 -8 -36 -14 -48 -14 -11 0 -34 -6 -49 -14 -21 -11 -76 -15 -225 -17 -108 -1 -199 1 -203 4 -3 4 0 20 7 36 13 32 9 255 -5 298 -7 22 -6 22 141 26 161 3 193 11 260 62 49 37 73 65 74 86 0 9 7 22 15 29 8 7 15 22 15 34 1 11 7 32 15 46 12 21 14 107 15 496 0 393 3 479 15 514 8 23 15 55 15 70 0 16 7 41 14 57 8 15 18 35 21 43 21 55 92 144 135 171 22 13 40 27 40 32 0 4 6 7 14 7 7 0 19 7 26 15 7 8 23 15 36 15 12 0 25 4 28 9 3 4 28 11 55 15 85 11 76 28 -29 56 -58 16 -59 17 -95 40 -16 11 -39 24 -51 29 -27 12 -124 122 -147 169 -42 83 -47 95 -47 125 -1 18 -7 50 -15 72 -12 33 -15 125 -15 500 0 492 1 485 -52 601 -18 40 -99 124 -119 124 -5 0 -21 8 -35 17 -21 13 -53 17 -172 17 l-147 1 3 140 c2 77 -1 155 -7 172 -14 47 5 63 67 58 26 -3 116 -7 201 -9z"/> <path d="M7110 8849 c-30 -5 -138 -8 -239 -7 l-185 3 -29 -80 c-16 -44 -31 -89 -34 -100 -3 -11 -11 -34 -19 -52 -8 -17 -14 -37 -14 -45 0 -8 -4 -18 -9 -23 -4 -6 -13 -23 -19 -40 -6 -16 -20 -55 -32 -85 -11 -30 -30 -82 -41 -115 -11 -33 -26 -73 -34 -90 -36 -83 -45 -107 -45 -119 0 -8 -7 -27 -15 -42 -8 -16 -15 -37 -15 -46 0 -9 -4 -19 -9 -22 -5 -3 -16 -29 -26 -58 -9 -29 -25 -71 -35 -93 -9 -22 -26 -65 -36 -95 -10 -30 -24 -66 -31 -80 -7 -14 -13 -33 -13 -42 0 -9 -6 -29 -14 -45 -20 -41 -34 -74 -41 -103 -4 -14 -12 -38 -20 -55 -12 -28 -25 -60 -62 -160 -9 -22 -22 -58 -30 -80 -9 -22 -22 -58 -30 -80 -32 -86 -46 -121 -59 -152 -8 -17 -14 -36 -14 -42 0 -6 -6 -25 -14 -43 -8 -18 -22 -53 -31 -78 -9 -25 -22 -54 -28 -65 -5 -11 -14 -33 -18 -50 -4 -16 -17 -55 -29 -85 -11 -30 -28 -75 -37 -100 -8 -24 -24 -60 -34 -79 -11 -20 -19 -46 -19 -58 0 -12 -6 -34 -14 -50 -8 -15 -22 -48 -31 -73 -9 -25 -21 -53 -27 -64 -5 -10 -20 -50 -33 -90 -26 -75 -43 -122 -64 -171 -7 -16 -19 -45 -27 -63 -8 -18 -14 -41 -14 -52 0 -10 -4 -21 -9 -25 -5 -3 -13 -20 -17 -38 -3 -17 -13 -48 -22 -67 -8 -19 -20 -48 -27 -65 -7 -16 -20 -47 -29 -68 -9 -21 -16 -46 -16 -55 0 -10 -4 -22 -9 -27 -5 -6 -14 -26 -19 -45 -19 -63 -38 -110 -50 -122 -7 -7 -12 -20 -12 -29 0 -16 -17 -62 -46 -126 -8 -17 -14 -38 -14 -46 0 -9 -6 -28 -14 -44 -27 -54 -46 -104 -46 -121 0 -9 -7 -26 -15 -36 -8 -11 -15 -27 -15 -37 0 -9 -13 -40 -29 -70 -54 -103 -49 -126 25 -108 22 5 130 8 241 7 149 -1 205 2 217 11 8 7 19 31 24 54 15 62 51 160 78 209 7 14 14 33 14 42 0 8 6 30 14 48 8 18 29 71 46 118 17 47 38 99 46 117 8 17 14 38 14 46 0 9 4 18 9 22 5 3 13 20 17 38 3 17 12 45 19 62 7 16 21 50 30 75 10 25 24 59 31 77 8 17 14 36 14 42 0 6 6 25 14 43 8 18 22 53 31 78 10 25 24 59 31 77 8 17 14 38 14 46 0 9 4 18 9 22 5 3 13 20 17 38 6 30 11 43 48 129 9 20 16 40 16 46 0 5 7 23 15 38 8 16 15 36 15 44 0 8 7 24 15 34 8 11 15 30 15 42 0 12 8 37 17 56 9 18 22 45 30 60 7 14 13 35 13 46 0 12 4 23 9 27 5 3 12 19 16 36 4 17 13 42 21 57 8 15 14 32 14 39 0 6 14 41 30 78 17 37 30 74 30 83 0 10 7 26 15 36 8 11 15 30 15 42 0 13 4 25 9 29 5 3 13 19 16 37 4 17 20 60 36 96 16 35 29 70 29 77 0 7 7 26 15 41 8 16 15 37 15 46 0 9 4 19 9 22 5 3 12 18 15 33 4 16 13 42 20 58 33 73 46 107 46 120 0 9 4 23 9 33 34 64 51 106 51 127 0 13 4 26 9 29 4 3 18 36 30 73 12 37 26 77 31 88 10 22 44 108 67 170 8 22 21 55 29 73 8 18 14 39 14 47 0 7 6 26 14 42 28 56 46 104 46 121 0 10 4 22 9 28 4 5 13 23 19 39 30 85 64 173 76 200 8 17 24 59 36 95 40 116 51 144 76 194 30 59 36 119 14 122 -8 1 -40 -2 -70 -7z m-72 -112 c17 -14 15 -44 -7 -91 -11 -23 -26 -63 -34 -91 -8 -27 -24 -70 -35 -95 -12 -25 -32 -76 -46 -115 -13 -38 -36 -101 -51 -140 -15 -38 -40 -104 -54 -145 -15 -41 -35 -91 -43 -110 -9 -19 -19 -53 -24 -75 -4 -22 -15 -50 -25 -63 -10 -13 -25 -49 -34 -80 -9 -31 -27 -82 -40 -113 -14 -31 -25 -61 -25 -67 0 -6 -11 -35 -24 -64 -13 -29 -29 -69 -34 -88 -20 -67 -71 -202 -82 -214 -5 -8 -17 -38 -26 -67 -8 -30 -19 -63 -25 -74 -11 -24 -61 -163 -94 -261 -13 -39 -32 -86 -43 -105 -11 -19 -23 -54 -26 -79 -4 -24 -14 -52 -22 -61 -12 -13 -59 -131 -94 -239 -5 -14 -21 -56 -35 -95 -15 -38 -29 -79 -32 -90 -3 -11 -10 -25 -15 -32 -6 -7 -14 -27 -18 -45 -11 -43 -50 -150 -60 -163 -5 -5 -20 -46 -35 -90 -15 -44 -31 -84 -35 -90 -4 -5 -11 -24 -15 -42 -3 -18 -15 -50 -25 -71 -10 -21 -24 -61 -31 -88 -7 -27 -22 -65 -35 -84 -12 -19 -25 -55 -28 -80 -4 -25 -16 -61 -28 -80 -18 -30 -76 -178 -95 -245 -3 -11 -9 -24 -13 -30 -4 -5 -10 -25 -14 -44 -9 -51 -67 -158 -90 -169 -30 -13 -262 -10 -276 4 -8 8 -9 17 -1 30 6 11 22 53 35 94 50 149 115 329 130 358 9 17 16 37 16 45 0 7 11 37 25 65 14 29 25 58 25 65 0 7 7 22 15 33 8 10 15 29 15 42 0 12 11 44 24 70 13 26 29 68 35 92 7 25 20 65 31 90 27 62 86 220 94 250 4 14 18 50 31 80 13 30 35 89 50 130 14 41 39 103 55 136 16 34 32 79 36 100 4 21 17 59 30 84 12 25 26 59 29 75 4 17 20 59 35 95 15 36 41 101 57 145 17 44 47 125 68 180 20 55 48 127 61 160 13 33 24 66 24 74 0 7 16 48 35 91 19 43 38 93 41 111 3 19 14 52 24 74 40 85 59 132 75 185 10 30 28 79 41 108 13 29 24 59 24 68 0 8 13 41 29 73 15 31 31 75 35 97 4 21 12 44 17 50 8 10 60 148 99 264 7 19 22 58 35 85 13 28 26 66 29 86 4 21 18 54 32 74 14 21 28 51 31 67 9 46 48 58 178 57 61 -1 116 -6 123 -12z"/> <path d="M8210 8848 c-30 -5 -135 -8 -232 -5 -124 3 -180 1 -187 -7 -9 -11 -49 -116 -58 -151 -2 -11 -9 -29 -13 -40 -42 -97 -50 -119 -50 -130 0 -7 -13 -43 -30 -80 -16 -37 -30 -75 -30 -84 0 -9 -4 -21 -8 -26 -5 -6 -19 -39 -31 -75 -13 -36 -29 -78 -36 -95 -7 -16 -20 -47 -29 -68 -9 -21 -16 -46 -16 -56 0 -10 -3 -21 -6 -24 -10 -9 -54 -120 -54 -134 0 -6 -6 -24 -14 -40 -26 -51 -46 -103 -46 -117 0 -8 -7 -27 -15 -42 -8 -16 -15 -37 -15 -46 0 -9 -4 -19 -10 -23 -5 -3 -14 -20 -19 -38 -5 -18 -19 -57 -31 -87 -11 -30 -30 -82 -42 -115 -11 -33 -27 -69 -34 -80 -8 -11 -14 -29 -14 -41 0 -12 -6 -35 -14 -51 -8 -15 -29 -66 -46 -113 -17 -47 -35 -94 -40 -105 -5 -11 -19 -49 -31 -85 -12 -36 -40 -108 -61 -160 -22 -52 -43 -108 -47 -125 -8 -31 -52 -145 -77 -202 -8 -17 -14 -38 -14 -46 0 -9 -4 -18 -9 -22 -5 -3 -13 -20 -17 -38 -3 -17 -12 -45 -19 -62 -7 -16 -21 -50 -30 -75 -17 -44 -26 -65 -59 -143 -9 -21 -16 -49 -16 -62 0 -13 -4 -26 -9 -29 -4 -3 -18 -34 -31 -68 -12 -35 -28 -75 -36 -90 -8 -14 -14 -35 -14 -46 0 -12 -4 -23 -9 -27 -5 -3 -13 -20 -17 -38 -3 -17 -12 -45 -20 -62 -32 -76 -44 -106 -74 -190 -17 -49 -45 -121 -61 -159 -16 -38 -29 -77 -29 -87 0 -10 -4 -20 -9 -24 -5 -3 -13 -20 -17 -37 -3 -18 -10 -39 -15 -48 -11 -19 -74 -186 -84 -220 -4 -14 -18 -46 -32 -71 -14 -26 -25 -62 -26 -80 -2 -31 0 -34 23 -30 14 2 129 5 255 6 l230 2 19 59 c21 67 27 80 55 146 12 26 21 51 21 57 0 6 6 25 14 43 8 18 21 51 29 73 35 95 50 132 63 157 8 14 14 35 14 46 0 12 5 24 10 27 6 3 10 13 10 21 0 17 64 187 86 226 7 14 14 33 14 42 0 15 21 68 46 118 8 14 14 34 14 45 0 10 12 41 26 68 14 28 30 66 34 85 10 43 56 168 71 194 6 10 21 50 34 90 13 39 29 85 35 101 7 17 16 39 21 50 4 11 17 42 28 69 12 27 21 54 21 61 0 7 7 26 15 41 8 16 15 37 15 46 0 9 4 19 9 22 5 3 12 18 15 33 4 16 13 42 21 58 8 17 28 71 46 120 42 122 59 167 70 185 10 17 10 15 35 90 10 30 24 66 31 80 7 14 13 33 13 42 0 9 6 29 14 45 27 52 46 101 46 117 0 9 4 24 10 34 5 9 26 60 46 112 19 52 42 109 50 127 8 17 14 38 14 47 0 9 4 24 10 34 19 35 50 111 50 124 0 8 4 18 9 23 4 6 16 35 26 65 18 58 77 214 101 267 8 17 14 35 14 40 0 12 58 164 72 188 6 11 15 33 19 50 11 46 57 167 74 197 8 14 15 33 15 41 0 9 6 28 14 44 49 97 59 122 53 136 -7 19 -16 19 -97 5z m-67 -108 c33 -1 38 -33 7 -50 -11 -6 -20 -17 -20 -24 0 -16 -29 -106 -65 -201 -14 -38 -35 -95 -45 -125 -10 -30 -25 -68 -34 -85 -9 -16 -16 -38 -16 -47 0 -9 -4 -20 -10 -23 -5 -3 -10 -17 -10 -30 0 -14 -13 -51 -30 -83 -16 -33 -30 -65 -30 -71 0 -7 -13 -43 -29 -80 -16 -37 -32 -83 -36 -102 -4 -19 -18 -56 -31 -82 -12 -26 -26 -62 -30 -80 -3 -18 -17 -52 -29 -77 -12 -25 -25 -63 -28 -85 -4 -21 -15 -51 -25 -65 -10 -14 -21 -34 -24 -45 -3 -11 -20 -58 -38 -105 -18 -47 -40 -107 -50 -135 -10 -27 -30 -81 -45 -120 -14 -38 -35 -97 -47 -130 -11 -33 -25 -65 -29 -71 -5 -6 -20 -44 -33 -85 -13 -41 -33 -92 -44 -114 -11 -22 -23 -56 -27 -75 -4 -19 -17 -55 -29 -80 -12 -25 -28 -70 -35 -100 -8 -30 -21 -68 -31 -85 -10 -16 -21 -48 -25 -70 -4 -22 -14 -51 -23 -65 -20 -31 -62 -130 -62 -147 0 -7 -9 -32 -19 -55 -11 -24 -45 -113 -76 -198 -31 -85 -78 -212 -105 -281 -28 -69 -50 -133 -50 -142 0 -8 -4 -19 -10 -22 -5 -3 -10 -13 -10 -21 0 -14 -30 -90 -50 -126 -6 -10 -10 -25 -10 -34 0 -8 -11 -40 -25 -70 -14 -30 -29 -71 -34 -92 -9 -36 -32 -91 -51 -122 -5 -8 -15 -28 -22 -45 -12 -28 -18 -31 -89 -39 -91 -11 -208 0 -216 19 -2 8 2 29 11 46 9 18 16 42 16 55 0 13 5 26 10 29 6 3 10 15 10 26 0 11 11 44 24 72 14 29 34 81 45 116 12 35 25 69 30 75 5 6 19 43 29 83 11 39 29 88 40 109 11 22 29 66 40 99 30 93 42 124 78 206 18 41 36 89 40 105 4 16 14 47 24 69 21 51 38 97 57 160 9 27 26 68 39 92 13 23 24 48 24 56 0 8 7 28 15 43 8 16 15 37 15 47 0 10 11 42 24 70 13 29 41 99 61 157 39 111 52 146 105 275 18 44 36 100 41 123 5 24 18 60 29 80 11 21 49 118 86 217 36 99 72 194 79 210 8 17 25 62 38 100 21 62 40 109 94 245 8 19 18 43 23 52 6 10 10 27 10 38 0 12 7 35 16 51 16 32 62 151 97 254 11 33 30 83 43 111 13 28 39 95 58 150 75 214 116 309 142 332 26 23 32 23 138 18 61 -3 123 -6 139 -6z"/> <path d="M4765 8567 c-4 -10 -5 -21 -1 -24 10 -10 18 4 13 24 -4 17 -4 17 -12 0z"/> </g> </svg> 