 <svg  version="1.0" xmlns="http://www.w3.org/2000/svg"  width="300.000000pt" height="169.000000pt" viewBox="0 0 300.000000 169.000000"  preserveAspectRatio="xMidYMid meet">  <g transform="translate(0.000000,169.000000) scale(0.100000,-0.100000)" fill="#ff0000" stroke="none"> <path d="M390 1064 c-58 -25 -109 -83 -126 -141 -14 -48 -14 -58 0 -106 17 -60 69 -117 128 -142 52 -21 143 -19 195 5 45 20 93 61 93 80 0 18 -60 11 -90 -12 -41 -30 -134 -37 -184 -13 -119 57 -120 213 -3 269 67 31 168 16 211 -33 17 -19 86 -32 86 -15 0 20 -60 77 -103 99 -60 29 -150 34 -207 9z"/> <path d="M1710 1072 c0 -4 7 -18 16 -30 13 -20 24 -22 95 -22 l79 0 0 -158 c0 -166 9 -202 48 -202 15 0 17 16 14 180 l-3 180 79 0 c64 0 82 4 95 18 36 40 27 42 -203 42 -121 0 -220 -3 -220 -8z"/> <path d="M2170 892 c0 -154 3 -192 16 -210 8 -12 23 -22 32 -22 15 0 17 18 16 190 -2 167 -4 193 -19 210 -41 45 -45 31 -45 -168z"/> <path d="M2436 1058 c-18 -28 -187 -400 -184 -403 2 -2 19 2 38 9 27 8 40 22 57 59 l23 47 107 0 108 0 19 -45 c19 -47 44 -68 75 -63 15 3 5 31 -71 197 -48 107 -93 200 -99 208 -18 20 -57 16 -73 -9z m84 -144 c22 -48 40 -87 40 -88 0 0 -36 -1 -80 -1 -44 0 -80 3 -80 7 0 8 72 168 76 168 2 0 21 -39 44 -86z"/> <path d="M790 949 c-55 -22 -100 -85 -100 -139 0 -111 131 -183 244 -136 112 47 116 210 7 266 -43 21 -109 25 -151 9z m148 -82 c37 -37 34 -82 -6 -119 -76 -67 -201 -6 -178 87 16 65 131 84 184 32z"/> <path d="M1098 942 c-45 -27 -58 -68 -58 -181 0 -81 3 -101 14 -101 34 0 46 29 46 116 0 92 16 124 63 124 44 0 57 -28 57 -122 0 -70 3 -88 18 -101 37 -33 42 -22 42 86 0 114 10 137 62 137 45 0 58 -27 58 -122 0 -70 3 -88 18 -101 37 -33 42 -22 42 88 0 75 -4 115 -15 135 -29 55 -105 76 -165 45 -27 -14 -33 -14 -60 0 -38 20 -88 19 -122 -3z"/> <path d="M1567 938 c-64 -37 -77 -80 -77 -246 0 -149 6 -166 43 -124 12 13 16 46 19 149 3 150 12 168 81 180 98 16 166 -90 97 -152 -28 -25 -104 -31 -135 -11 -24 16 -25 16 -25 -9 0 -40 33 -65 86 -65 95 0 172 78 161 163 -15 113 -147 174 -250 115z"/> <path d="M2694 725 c-9 -23 3 -45 24 -45 29 0 48 26 32 45 -7 8 -21 15 -32 15 -10 0 -21 -7 -24 -15z"/> </g> </svg> 