 <svg  version="1.0" xmlns="http://www.w3.org/2000/svg"  width="300.000000pt" height="200.000000pt" viewBox="0 0 300.000000 200.000000"  preserveAspectRatio="xMidYMid meet">  <g transform="translate(0.000000,200.000000) scale(0.050000,-0.050000)" fill="#ff0000" stroke="none"> <path d="M101 3972 c-12 -16 -16 -33 -7 -38 22 -12 209 -41 246 -38 20 2 21 -1 5 -8 -41 -18 -28 -48 20 -48 72 -1 136 -23 123 -43 -7 -12 -22 -11 -37 2 -30 25 -141 -23 -158 -69 -7 -17 -29 -30 -51 -30 -22 0 -44 -8 -50 -17 -19 -31 98 3 121 35 23 31 103 35 476 24 80 -2 80 -29 1 -48 -36 -8 -36 -10 5 -12 25 -1 45 -13 45 -27 1 -17 7 -15 20 5 12 19 20 21 20 6 0 -14 13 -20 29 -14 16 6 45 2 65 -10 38 -22 4 -30 -109 -26 -25 1 -45 -6 -45 -17 0 -10 10 -17 23 -14 12 3 26 -7 31 -21 12 -32 -83 -18 -130 20 -20 17 -27 17 -18 2 10 -16 -8 -23 -61 -23 -128 -1 -147 -6 -122 -36 12 -15 14 -28 4 -29 -102 -10 -143 -8 -135 6 19 31 -18 16 -46 -19 -16 -19 -23 -24 -16 -10 7 14 5 26 -4 26 -9 1 -38 6 -66 11 -45 8 -46 7 -14 -17 33 -24 32 -26 -16 -30 -29 -3 -66 -18 -83 -35 -32 -32 -56 -40 -39 -13 6 9 -2 16 -18 16 -16 0 -24 -7 -19 -15 17 -28 -32 -42 -62 -17 -24 20 -29 13 -29 -49 0 -39 7 -72 15 -72 8 0 107 18 220 40 502 97 1260 171 1974 193 l450 13 20 -54 c12 -30 21 -56 21 -58 0 -2 -304 -5 -675 -5 -689 -2 -815 -10 -1625 -110 -398 -49 -400 -50 -400 -107 0 -42 8 -45 82 -38 44 5 93 -2 108 -14 19 -16 28 -15 34 3 13 37 277 57 290 23 6 -14 20 -19 33 -11 35 21 73 24 73 4 0 -10 29 -16 65 -13 36 3 65 14 65 25 0 10 -11 16 -25 13 -49 -11 -24 13 36 33 44 16 57 15 46 -1 -9 -15 -2 -18 20 -10 18 7 33 4 33 -7 0 -10 -10 -19 -23 -19 -13 0 -18 -5 -12 -12 6 -6 33 0 58 14 61 34 123 44 107 18 -21 -33 54 -22 79 11 20 28 29 26 77 -22 60 -60 70 -102 24 -102 -16 0 -30 12 -30 28 0 15 -9 22 -20 15 -11 -7 -20 -1 -20 12 0 14 -6 19 -13 12 -7 -7 -2 -26 10 -41 33 -39 -15 -75 -106 -79 -39 -2 -71 -11 -71 -19 0 -9 -22 -25 -50 -35 -27 -10 -50 -27 -50 -36 0 -20 -73 -18 -93 2 -21 21 -47 17 -47 -7 0 -12 8 -16 19 -10 10 6 23 4 29 -6 18 -29 -37 -63 -85 -54 -27 6 -39 1 -31 -12 7 -11 -7 -38 -30 -59 -24 -23 -42 -29 -42 -16 0 15 -13 12 -37 -9 -20 -18 -44 -26 -53 -18 -9 8 -10 4 -2 -10 9 -16 1 -25 -25 -25 -46 0 -113 -91 -82 -111 15 -9 15 -20 0 -38 -11 -13 -14 -32 -6 -41 8 -9 3 -10 -11 -1 -20 11 -21 21 -3 43 17 20 18 28 1 28 -12 0 -22 -10 -22 -21 0 -12 -11 -15 -25 -6 -17 10 -16 4 2 -19 16 -19 20 -34 10 -35 -9 0 -2 -9 16 -19 25 -15 66 3 170 73 479 321 1410 661 2052 749 195 27 186 29 206 -47 13 -55 13 -55 -89 -55 -255 0 -797 -112 -1182 -244 -401 -138 -1112 -484 -1060 -516 17 -11 18 -19 2 -29 -12 -7 -22 -4 -22 8 0 11 -9 21 -20 21 -38 0 -20 -34 30 -56 30 -14 50 -15 50 -4 0 11 12 20 26 20 14 0 59 17 100 38 41 21 79 30 86 19 6 -10 0 -16 -13 -12 -13 3 -29 -8 -34 -23 -8 -21 -1 -24 27 -12 21 10 63 18 93 19 30 0 52 10 47 21 -4 11 -19 17 -34 13 -16 -3 -20 1 -11 10 9 10 27 17 40 17 12 0 23 13 23 30 0 37 63 51 98 21 20 -16 34 -13 54 14 26 32 25 33 -12 6 -38 -28 -39 -27 -6 8 27 30 40 33 63 13 23 -19 33 -19 44 0 10 15 7 19 -8 10 -13 -8 -23 -2 -23 15 0 16 14 34 32 41 47 18 62 14 28 -8 -24 -16 -24 -19 -2 -20 15 0 39 15 52 33 31 43 91 54 76 15 -7 -19 -1 -25 20 -17 17 7 36 25 42 41 6 15 24 28 41 28 16 0 49 20 73 45 24 25 38 34 30 20 -20 -35 28 -32 105 6 34 18 72 26 83 19 11 -7 33 -1 49 14 84 75 88 77 120 44 30 -29 41 -22 32 22 -3 11 2 13 11 5 8 -8 31 0 51 18 22 20 37 24 37 10 0 -13 -11 -23 -23 -23 -13 0 -18 -6 -11 -13 7 -7 25 -2 40 10 15 12 34 17 41 9 7 -7 13 -1 13 13 0 21 6 21 30 1 16 -13 23 -35 16 -47 -8 -13 1 -11 19 3 28 23 31 19 26 -29 -6 -48 -3 -51 19 -21 35 48 56 43 97 -27 29 -49 42 -56 65 -38 21 18 28 18 28 0 0 -13 11 -17 25 -9 14 8 8 -4 -12 -28 -37 -42 -37 -42 15 -33 36 7 67 -4 97 -33 25 -24 34 -38 20 -30 -17 10 -23 -1 -21 -37 3 -28 13 -51 23 -51 10 0 7 -14 -7 -30 -14 -17 -29 -69 -34 -115 -5 -47 -16 -109 -25 -138 -12 -34 -9 -61 6 -78 18 -19 17 -22 -2 -11 -18 10 -22 -4 -17 -52 5 -36 -1 -82 -11 -101 -10 -20 -12 -34 -3 -33 52 9 63 -7 58 -80 -4 -52 2 -76 17 -70 12 5 24 -11 26 -35 2 -24 18 -52 35 -62 26 -15 27 -24 8 -47 -19 -24 -18 -27 9 -16 21 8 37 -1 46 -25 8 -20 26 -44 41 -53 15 -9 22 -25 15 -35 -6 -10 3 -13 20 -7 20 8 31 1 31 -21 0 -18 8 -28 17 -23 10 6 34 -11 54 -37 20 -27 45 -44 55 -37 10 6 12 -8 5 -32 -13 -39 -8 -42 47 -32 48 8 62 3 62 -22 0 -18 11 -28 26 -22 15 5 48 -7 75 -28 27 -21 36 -35 19 -32 -16 4 -23 4 -15 -1 8 -5 9 -19 1 -32 -7 -13 2 -11 20 4 19 16 34 21 34 13 0 -8 13 -4 29 9 16 14 41 17 54 9 37 -23 120 -28 106 -7 -16 26 58 -3 76 -30 10 -14 14 -13 15 4 0 14 10 25 22 25 12 0 18 -12 12 -27 -6 -14 2 -26 17 -26 15 0 25 8 23 19 -2 10 16 22 41 26 28 5 45 -2 45 -19 0 -14 13 -26 29 -26 16 0 25 7 20 15 -5 8 -1 21 11 28 11 7 20 1 20 -14 1 -19 6 -18 19 4 17 25 23 26 45 2 21 -23 21 -25 -2 -12 -19 11 -23 9 -14 -7 8 -13 25 -17 38 -9 29 18 153 8 196 -15 19 -10 41 -8 54 5 17 17 21 11 14 -22 -7 -36 -3 -41 18 -24 30 25 143 -20 117 -46 -7 -8 1 -9 18 -2 19 7 37 0 43 -17 7 -19 27 -26 53 -19 37 10 51 -8 44 -58 -1 -7 16 -10 39 -6 29 6 38 0 31 -19 -14 -36 8 -55 35 -32 21 17 96 -20 94 -47 -2 -34 25 -70 45 -58 13 8 10 -3 -7 -24 -19 -23 -20 -32 -4 -22 30 18 150 -102 132 -131 -7 -11 -23 -4 -37 14 -18 25 -24 27 -24 7 1 -16 19 -45 40 -66 37 -36 39 -36 26 -3 -12 31 -9 33 17 11 18 -15 27 -39 21 -55 -8 -20 -2 -26 19 -18 17 7 28 1 25 -13 -3 -13 8 -21 24 -18 22 5 20 -4 -9 -36 -38 -42 -38 -42 17 -32 50 9 53 6 30 -23 -15 -18 -17 -27 -4 -19 28 17 41 -16 38 -98 -2 -37 7 -61 22 -61 14 0 20 9 13 21 -7 12 -5 15 5 6 43 -39 30 -96 -16 -74 -40 20 -41 19 -10 -6 19 -15 29 -34 21 -41 -7 -7 -7 -13 -1 -13 7 0 26 13 42 30 26 26 31 20 43 -50 7 -44 21 -85 31 -91 9 -5 12 -23 6 -40 -6 -16 -2 -29 9 -29 12 0 25 16 30 35 9 33 9 33 12 0 3 -47 42 -45 42 3 0 175 -211 650 -392 882 -275 350 -583 491 -1138 519 -380 19 -486 47 -656 172 -393 290 -355 971 70 1252 l74 49 -48 104 c-52 112 -170 467 -170 512 0 15 -61 49 -145 78 -569 202 -1208 307 -2005 331 -320 10 -419 19 -415 38 7 33 -5 32 -34 -3z m974 -184 c35 -35 52 -36 35 -3 -7 14 0 9 17 -11 20 -25 34 -29 43 -14 9 15 22 11 39 -12 16 -22 57 -36 115 -38 50 -2 100 -10 112 -17 12 -8 27 -4 34 7 7 11 23 14 36 6 12 -7 54 -20 93 -28 64 -12 65 -14 15 -16 -39 -1 -52 -10 -41 -27 11 -19 8 -20 -14 -2 -16 13 -62 22 -102 20 -45 -2 -69 4 -61 17 6 11 -4 7 -24 -9 -46 -37 0 -59 102 -47 36 4 66 0 66 -9 0 -8 -25 -16 -55 -17 -69 -3 -166 -23 -181 -37 -18 -18 -444 253 -444 283 0 21 187 -18 215 -46z m305 -29 c0 -7 -36 -14 -80 -16 -44 -1 -80 5 -80 13 0 9 36 16 80 16 44 0 80 -6 80 -13z m363 -460 c42 -23 48 -34 27 -53 -23 -21 -170 52 -170 85 0 18 88 -2 143 -32z m-453 -79 c-7 -11 -4 -20 7 -20 11 0 24 11 29 25 6 14 9 6 8 -18 -2 -30 -13 -41 -39 -36 -20 4 -31 -1 -26 -10 6 -9 -3 -28 -20 -42 -25 -20 -28 -19 -18 6 6 17 1 38 -13 46 -17 11 -19 7 -8 -13 9 -15 9 -21 -1 -12 -35 32 -27 78 13 68 21 -6 33 -2 27 8 -6 10 3 18 21 18 18 0 27 -9 20 -20z m1323 -260 c6 0 6 13 0 29 -14 38 24 62 53 33 33 -33 34 -82 2 -82 -15 0 -28 -13 -28 -30 0 -16 -11 -28 -24 -25 -23 5 -28 -6 -33 -76 -2 -17 -12 -26 -23 -19 -12 7 -15 23 -7 34 7 13 4 16 -8 9 -15 -9 -16 -34 -5 -73 9 -33 11 -63 3 -68 -14 -9 -465 289 -518 340 -27 27 147 28 190 1 12 -8 28 -4 35 7 7 11 21 15 32 9 10 -6 12 -22 4 -35 -9 -17 -4 -16 17 1 17 14 55 25 84 25 29 0 78 0 108 0 30 0 59 12 64 25 4 14 16 -4 25 -40 9 -36 22 -65 29 -65z"/> <path d="M710 3978 c1042 -30 1427 -85 1928 -278 l155 -60 -9 -117 c-25 -342 132 -514 484 -533 123 -6 227 -27 352 -70 97 -33 185 -58 194 -55 9 3 39 -15 65 -40 52 -48 101 -59 101 -23 0 13 36 -10 80 -50 93 -83 129 -92 109 -27 -10 31 12 15 70 -49 71 -81 91 -93 139 -83 55 11 198 -176 187 -243 -4 -24 140 -130 178 -130 70 -1 74 -33 8 -85 l-66 -53 -88 81 c-48 44 -138 107 -201 139 -115 58 -156 104 -156 173 0 37 -338 196 -659 310 -484 173 -910 -96 -911 -575 0 -429 203 -580 840 -623 971 -65 1506 -365 1703 -957 l27 -80 -6 73 c-5 66 -2 72 30 55 20 -11 36 -36 36 -56 0 -21 15 -49 34 -65 29 -23 31 -23 15 3 -53 84 -68 169 -38 214 18 27 21 49 9 56 -11 7 -20 3 -20 -9 0 -11 -9 -21 -21 -21 -11 0 -18 16 -15 35 4 22 -5 33 -23 29 -22 -5 -19 5 10 39 30 35 31 40 4 19 -19 -15 -35 -19 -35 -9 0 9 -24 44 -54 76 -35 37 -42 54 -21 46 19 -7 40 -3 47 9 9 13 5 17 -9 8 -14 -9 -31 6 -43 37 -10 28 -32 51 -48 51 -19 0 -27 15 -22 42 7 33 3 37 -19 19 -21 -17 -31 -17 -42 0 -8 13 -2 32 13 43 22 16 21 17 -6 9 -35 -11 -85 31 -62 54 7 7 -1 13 -18 13 -39 0 -100 68 -81 91 8 10 -1 6 -20 -9 -27 -21 -35 -21 -35 -2 0 14 -16 21 -37 15 -21 -6 -38 2 -40 18 -1 15 -4 40 -6 57 -3 22 -10 24 -29 8 -40 -33 -76 -2 -44 37 22 27 18 27 -26 -2 -46 -30 -55 -30 -77 -5 -13 16 -38 24 -56 17 -19 -7 -27 -4 -18 10 16 27 -37 48 -80 31 -25 -10 -29 -6 -16 16 13 22 10 22 -20 -2 -34 -27 -36 -26 -23 14 12 38 8 43 -32 33 -99 -23 -152 -21 -142 5 6 18 -5 23 -38 17 -32 -5 -108 31 -250 119 -112 70 -208 123 -213 118 -5 -5 -20 10 -32 33 -13 23 -32 37 -42 30 -11 -6 -13 -22 -5 -35 8 -14 -1 -12 -20 3 -23 19 -34 20 -34 5 0 -22 111 -56 147 -45 10 2 12 -10 6 -27 -7 -18 -4 -27 6 -21 10 7 24 2 31 -9 7 -11 19 -17 27 -12 8 5 24 -6 36 -24 19 -31 8 -34 -106 -36 -94 -2 -127 5 -127 25 0 15 -10 27 -22 27 -12 0 -17 -13 -11 -30 8 -21 -1 -30 -29 -30 -25 0 -35 9 -26 23 10 16 5 18 -14 6 -45 -28 -164 -26 -212 3 -28 18 -48 20 -56 7 -20 -31 -54 1 -41 38 8 23 2 21 -20 -7 -26 -34 -33 -36 -49 -10 -11 17 -20 22 -20 13 0 -10 -14 -7 -30 7 -17 14 -28 40 -25 58 3 19 -7 29 -24 26 -22 -5 -20 4 8 35 34 37 34 41 3 41 -19 0 -29 -9 -22 -20 25 -41 -29 -18 -59 24 -33 48 -43 146 -12 127 10 -6 24 -2 31 9 7 12 1 19 -13 15 -18 -3 -27 17 -27 63 0 50 9 70 35 73 19 3 30 -3 24 -13 -6 -10 -2 -18 9 -18 11 0 16 -18 12 -41 -4 -22 0 -35 10 -29 10 6 14 28 10 50 -4 22 1 45 12 51 10 7 17 0 13 -14 -6 -30 49 -37 70 -8 8 12 15 1 15 -24 0 -25 10 -45 21 -45 12 0 15 10 8 22 -10 16 -2 16 28 0 27 -15 38 -35 30 -57 -8 -27 -6 -29 9 -8 31 44 102 11 89 -41 -9 -33 -4 -40 20 -30 18 6 37 1 42 -12 8 -18 10 -18 11 0 1 15 16 20 37 12 42 -15 -24 40 -160 131 -52 36 -95 58 -96 49 0 -9 -10 0 -21 20 -16 27 -28 31 -48 14 -20 -16 -25 -13 -23 13 2 20 -19 47 -47 61 -27 13 -77 47 -110 74 l-60 49 55 13 c30 8 55 23 55 35 0 11 18 15 40 9 27 -7 40 0 40 19 0 16 9 24 20 17 11 -7 20 -2 20 11 0 13 14 18 32 11 21 -8 35 1 41 24 11 42 55 44 124 6 42 -23 44 -22 26 13 -20 37 35 54 68 21 7 -7 38 -5 70 4 32 10 63 10 68 1 6 -9 33 -11 61 -6 104 20 42 -22 -219 -146 -147 -71 -275 -139 -283 -152 -9 -14 -6 -18 9 -9 13 8 23 3 23 -12 1 -20 5 -20 18 2 10 15 32 22 49 16 18 -7 37 -3 44 8 8 13 29 7 56 -16 33 -28 37 -29 17 -3 -22 29 -20 36 15 47 25 8 36 22 27 36 -8 14 1 12 20 -3 29 -24 34 -23 34 5 0 17 10 32 21 32 12 0 17 -7 11 -17 -6 -9 2 -16 17 -16 15 0 25 14 21 32 -3 18 15 42 44 56 45 21 49 19 40 -14 -12 -48 40 -32 90 28 23 27 35 32 35 14 1 -23 7 -23 32 -2 26 22 33 19 42 -18 7 -24 21 -43 31 -43 11 0 15 14 9 30 -10 26 -5 27 32 6 25 -13 52 -23 60 -20 22 6 18 -32 -5 -46 -11 -7 -19 -23 -18 -36 1 -17 4 -17 11 1 6 14 18 21 27 15 10 -6 24 0 32 13 9 15 5 18 -12 7 -18 -11 -21 -8 -11 8 10 17 22 18 40 3 13 -11 32 -14 41 -6 9 8 9 2 0 -13 -12 -21 -8 -26 15 -17 31 12 95 -40 95 -77 0 -10 -9 -5 -19 11 -10 15 -32 30 -49 33 -18 2 -27 -4 -20 -15 7 -11 17 -15 22 -9 6 6 29 -10 50 -34 21 -24 33 -33 26 -19 -7 15 0 25 19 25 17 0 31 -11 31 -25 1 -17 7 -15 20 5 17 26 19 26 20 -3 0 -17 14 -43 30 -57 17 -14 30 -43 30 -65 0 -31 6 -35 27 -17 21 17 34 15 54 -9 22 -27 22 -35 -2 -51 -21 -13 -13 -16 26 -10 35 6 67 -3 88 -24 19 -19 37 -32 40 -30 4 3 27 -4 52 -15 40 -18 41 -19 3 -12 -24 4 -41 -3 -41 -18 0 -15 17 -22 40 -18 22 5 53 -3 70 -16 23 -20 31 -20 38 0 6 18 18 15 42 -11 18 -20 29 -26 23 -14 -5 12 5 6 23 -14 31 -33 35 -33 60 -2 23 29 23 31 -1 17 -19 -12 -24 -10 -14 6 8 13 22 19 31 14 8 -6 32 8 51 29 20 22 48 40 62 40 15 0 22 17 18 40 -4 21 2 45 14 53 13 8 16 4 8 -10 -22 -35 -1 -28 31 11 23 29 23 31 -1 17 -22 -13 -26 -6 -18 35 6 33 3 48 -10 40 -13 -7 -16 5 -9 32 9 33 6 39 -12 25 -29 -24 -91 21 -143 102 -25 40 -28 55 -9 55 14 0 20 6 13 13 -7 7 -25 3 -39 -9 -21 -17 -27 -12 -30 21 -2 23 -17 50 -34 60 -18 10 -27 26 -20 36 6 11 -3 25 -20 31 -17 7 -31 24 -31 38 0 14 -13 31 -30 37 -16 7 -30 23 -30 37 1 20 5 20 18 -1 12 -19 21 -21 31 -5 8 13 24 16 37 8 16 -9 15 -3 -2 18 -14 18 -42 27 -63 22 -35 -9 -77 55 -64 100 2 10 -5 11 -17 4 -11 -7 -14 -23 -6 -36 8 -14 -1 -12 -20 3 -19 16 -34 20 -34 10 0 -9 -9 -4 -18 11 -22 34 15 126 46 116 12 -4 34 7 49 24 24 29 25 28 15 -4 -7 -21 -3 -31 8 -24 11 7 20 25 20 40 0 17 16 25 40 20 22 -4 37 2 35 15 -3 13 22 28 55 35 34 7 58 23 55 38 -4 14 3 20 13 13 11 -6 25 -2 33 10 7 12 26 17 42 11 16 -7 24 -4 18 6 -6 10 7 22 28 28 22 5 43 -1 48 -13 6 -13 11 -3 11 22 1 25 10 45 21 45 10 0 15 -18 11 -41 -4 -22 1 -35 11 -28 10 6 19 23 19 37 0 26 77 107 92 97 23 -14 48 -1 48 25 0 34 51 41 71 9 8 -14 23 -12 45 5 17 14 26 17 19 5 -7 -11 -3 -34 8 -50 17 -24 19 -23 10 5 -11 35 31 85 54 62 7 -7 13 3 13 23 0 30 5 32 30 11 17 -14 37 -20 44 -13 7 7 1 13 -12 13 -14 0 -22 10 -18 22 4 11 11 18 17 15 5 -4 41 13 80 37 43 27 90 41 120 35 34 -7 38 -5 15 6 -25 11 -29 23 -16 45 15 24 19 24 20 3 0 -23 5 -23 32 -1 36 30 116 47 100 21 -6 -9 3 -16 19 -16 24 0 23 7 -5 38 -19 21 -26 36 -15 34 44 -9 91 2 80 19 -6 10 6 14 27 8 20 -5 44 2 53 15 9 16 7 20 -7 12 -11 -8 -26 -6 -31 2 -6 9 15 16 47 16 31 -1 52 -7 48 -15 -5 -7 -1 -18 9 -24 20 -13 42 52 43 122 0 42 -11 39 -198 -59 -110 -57 -194 -112 -187 -123 6 -10 1 -12 -11 -4 -12 7 -137 -45 -278 -116 -347 -174 -1106 -532 -1130 -532 -25 0 -128 80 -104 81 10 0 2 9 -17 21 -20 11 -31 28 -26 36 5 9 -13 14 -41 11 -39 -4 -45 0 -29 20 16 20 11 24 -25 20 -29 -3 -47 6 -47 23 0 22 6 22 31 4 22 -16 20 -11 -4 15 -22 24 -41 31 -50 19 -19 -28 -64 -34 -64 -10 0 11 9 20 20 20 11 0 20 10 20 23 0 14 -15 10 -36 -10 -33 -29 -41 -29 -75 -3 -43 32 -98 40 -80 12 18 -29 -33 -38 -94 -17 -74 26 -121 6 -105 -44 11 -35 7 -36 -50 -15 -47 18 -70 17 -103 -3 -34 -21 -38 -21 -25 1 12 20 8 20 -18 -1 -26 -21 -34 -22 -34 -3 0 19 -7 19 -28 2 -18 -15 -31 -16 -35 -3 -4 11 -29 23 -57 28 -32 5 -49 20 -47 41 2 26 -3 29 -25 10 -25 -21 -36 -12 -31 25 1 7 -18 9 -43 3 -44 -9 -44 -9 -4 25 36 31 37 33 3 21 -27 -9 -34 -5 -26 16 6 16 3 32 -6 36 -9 3 -12 35 -6 71 5 35 17 60 27 54 10 -6 18 -2 18 10 0 11 -13 21 -28 21 -59 0 -48 88 11 90 8 0 21 8 30 18 10 11 7 13 -5 6 -12 -7 -39 1 -60 18 -21 17 -25 24 -10 16 19 -9 23 -6 14 9 -8 13 -28 23 -46 23 -22 0 -28 14 -21 50 8 42 5 46 -19 27 -23 -19 -26 -14 -18 29 5 30 2 58 -7 63 -9 6 -15 -5 -13 -24 1 -19 -5 -36 -13 -38 -29 -7 -95 18 -95 37 0 10 10 12 23 4 13 -8 18 -5 11 6 -7 12 -49 27 -94 34 -44 7 -80 21 -80 32 0 22 -56 18 -97 -8 -15 -10 -36 -7 -50 7 -17 18 -15 20 12 10 19 -7 35 -5 35 4 0 10 -27 28 -60 41 -49 18 -60 17 -60 -5 0 -17 -12 -23 -32 -16 -25 10 -26 16 -5 29 15 10 -463 16 -1063 15 -1031 -3 -1060 -4 -530 -19z m3058 -871 c203 -101 446 -268 563 -388 111 -114 47 -97 -90 23 -227 200 -669 460 -724 426 -14 -8 -18 -6 -10 7 7 12 2 27 -12 33 -14 7 1 7 33 1 32 -6 140 -52 240 -102z"/> <path d="M350 3143 c-26 -25 -5 -45 41 -39 27 3 48 15 45 25 -6 20 -69 31 -86 14z"/> <path d="M3421 2072 c-1 -11 14 -35 32 -55 28 -31 29 -41 5 -71 -22 -27 -17 -26 25 5 47 34 49 41 20 58 -18 10 -44 32 -57 50 -14 17 -25 23 -25 13z"/> <path d="M4230 1334 c371 -268 652 -708 744 -1166 34 -166 36 -172 42 -88 4 49 17 102 30 117 12 15 20 58 17 95 -3 38 3 68 13 68 28 0 19 118 -9 128 -14 6 -19 28 -12 54 8 30 4 40 -12 30 -13 -8 -23 -30 -23 -48 -1 -29 -4 -29 -19 -5 -12 19 -11 39 2 55 24 28 9 86 -21 86 -11 0 -16 -18 -12 -41 5 -23 -1 -35 -12 -28 -11 7 -16 38 -11 70 5 32 -1 61 -14 67 -13 5 0 7 27 3 28 -4 47 -18 44 -31 -3 -15 7 -20 26 -13 18 7 28 6 23 -2 -16 -28 26 -108 49 -94 16 10 16 18 -2 29 -17 10 -15 18 7 26 40 16 58 -37 22 -67 -32 -26 -39 -79 -11 -79 10 0 16 16 15 35 -2 22 10 34 33 32 41 -3 34 32 -31 163 -147 294 -429 504 -818 608 l-147 40 60 -44z"/> <path d="M5054 185 c-12 -20 -2 -74 21 -115 14 -26 19 -14 17 48 -2 76 -17 103 -38 67z"/> </g> </svg> 