<?xml version="1.0" standalone="no"?>
<!DOCTYPE svg PUBLIC "-//W3C//DTD SVG 20010904//EN"
 "http://www.w3.org/TR/2001/REC-SVG-20010904/DTD/svg10.dtd">
<svg version="1.0" xmlns="http://www.w3.org/2000/svg"
 width="441.000000pt" height="441.000000pt" viewBox="0 0 441.000000 441.000000"
 preserveAspectRatio="xMidYMid meet">
<metadata>
Created by potrace 1.10, written by Peter Selinger 2001-2011
</metadata>
<g transform="translate(0.000000,441.000000) scale(0.100000,-0.100000)"
fill="#00ff00" stroke="none">
<path d="M1980 4003 c-54 -28 -190 -154 -190 -178 0 -6 -11 -21 -25 -33 -14
-12 -25 -31 -25 -41 0 -11 -9 -26 -21 -35 -15 -10 -19 -20 -14 -36 4 -13 1
-38 -8 -59 -8 -20 -24 -57 -34 -84 -10 -26 -25 -49 -33 -52 -9 -3 -43 2 -75
11 -42 11 -120 17 -258 20 -110 2 -207 9 -217 14 -13 7 -20 26 -25 67 -8 74
-20 103 -43 103 -13 0 -21 11 -28 38 -8 31 -14 38 -39 40 -16 2 -34 7 -40 12
-5 4 -34 10 -64 14 -39 5 -58 3 -70 -7 -9 -8 -34 -17 -56 -20 -24 -4 -46 -15
-55 -27 -43 -60 -95 -115 -107 -112 -8 2 -13 -6 -13 -20 0 -12 -11 -33 -24
-47 -19 -20 -22 -31 -15 -48 5 -14 17 -23 29 -23 27 0 36 -25 21 -57 -16 -34
-5 -44 74 -71 65 -22 81 -47 51 -81 -15 -16 -15 -19 3 -35 44 -40 115 -39 109
3 -2 11 5 17 22 19 71 8 91 24 48 38 -13 4 -34 15 -48 24 -14 10 -43 21 -65
25 -26 5 -50 18 -72 42 -18 19 -33 38 -33 42 0 4 -11 14 -25 21 -18 10 -25 22
-25 43 0 16 11 42 25 59 14 16 25 40 25 53 0 44 42 79 117 97 126 31 149 31
167 3 9 -14 23 -25 31 -25 8 0 21 -15 29 -34 12 -29 12 -46 0 -117 -8 -46 -18
-92 -24 -101 -5 -9 -9 -39 -9 -66 1 -28 -2 -55 -6 -62 -4 -7 -9 -58 -10 -113
-3 -102 9 -152 41 -184 8 -8 14 -22 14 -31 0 -9 12 -26 27 -38 22 -17 27 -30
28 -65 0 -38 3 -44 20 -41 15 2 26 -9 43 -45 26 -56 28 -79 7 -87 -8 -3 -15
-14 -15 -25 0 -11 -8 -26 -18 -33 -36 -26 -74 -110 -73 -159 1 -34 -3 -48 -14
-53 -11 -4 -14 -13 -9 -30 4 -17 1 -27 -11 -34 -10 -5 -21 -27 -25 -48 -5 -21
-14 -59 -20 -84 -6 -25 -9 -62 -7 -82 4 -28 1 -38 -9 -38 -8 0 -14 -7 -14 -15
0 -8 4 -15 9 -15 5 0 13 -10 17 -22 11 -37 68 -118 82 -118 7 0 22 -15 33 -34
18 -31 25 -35 82 -41 34 -3 72 -11 85 -18 18 -8 28 -8 42 1 25 15 102 16 117
1 7 -7 27 -9 50 -6 121 18 179 30 190 39 7 5 17 7 23 3 14 -9 13 -32 -2 -38
-7 -3 -3 -6 8 -6 23 -1 44 -41 58 -108 4 -17 14 -37 22 -44 8 -6 14 -22 14
-36 0 -13 7 -26 15 -29 8 -3 19 -21 25 -40 7 -19 18 -34 27 -34 10 0 14 -6 10
-19 -5 -20 23 -53 56 -64 9 -4 17 -14 17 -24 0 -10 13 -24 30 -31 17 -8 30
-20 30 -28 0 -10 8 -12 30 -7 25 5 30 2 30 -15 0 -11 -6 -23 -12 -26 -7 -3 16
-3 52 0 36 3 72 12 82 20 11 10 18 12 23 5 9 -16 51 -13 65 4 7 8 21 15 31 15
11 0 19 7 19 15 0 8 11 17 25 21 14 3 25 13 25 20 0 8 10 18 23 23 22 9 58 51
70 83 4 11 12 15 22 12 11 -5 15 0 15 18 0 13 16 47 35 77 19 29 35 65 35 81
0 16 5 32 10 35 6 4 9 19 8 33 -3 22 3 30 35 45 43 22 67 17 67 -13 0 -11 8
-23 18 -26 9 -3 25 -10 34 -15 10 -5 28 -9 41 -9 13 0 28 -5 34 -11 9 -9 23
-5 56 13 30 17 54 24 76 20 23 -3 31 0 31 11 0 8 -5 17 -12 19 -6 2 -8 9 -4
16 5 9 11 9 26 0 14 -9 22 -9 33 0 8 7 22 9 31 6 11 -4 23 1 32 12 11 14 17
15 20 7 8 -18 40 -16 59 4 10 9 31 24 49 32 17 9 31 24 31 33 0 10 10 24 21
33 12 8 25 26 28 40 4 14 11 25 16 25 6 0 10 8 10 19 0 10 7 25 16 32 13 10
15 25 11 66 -6 57 -26 124 -41 134 -5 4 -6 22 -2 40 5 25 2 35 -14 46 -10 7
-17 20 -14 28 3 7 -4 18 -15 25 -12 6 -21 18 -21 26 0 14 -21 44 -93 130 -16
19 -35 54 -43 80 -13 43 -12 46 10 67 12 12 25 30 29 40 3 9 16 17 27 17 13 0
24 10 31 28 5 15 18 34 27 42 10 8 24 33 31 55 7 22 23 54 36 70 12 17 25 40
29 53 4 12 12 22 17 22 13 0 11 37 -5 68 -16 32 -19 117 -5 143 7 15 6 21 -6
25 -8 3 -15 12 -15 19 0 7 -7 18 -15 25 -12 10 -13 15 -3 21 8 5 3 10 -15 14
-15 4 -27 14 -27 21 0 8 -12 20 -27 26 -16 7 -37 22 -48 33 -37 38 -153 59
-287 51 -64 -4 -132 -11 -150 -17 -41 -11 -125 -12 -132 0 -3 5 1 21 9 37 32
66 39 117 24 184 -7 34 -19 65 -26 67 -7 3 -13 11 -13 18 0 8 -9 17 -20 20
-23 7 -27 25 -5 25 8 0 15 5 15 11 0 8 -12 10 -36 6 -29 -5 -40 -2 -60 18 -14
14 -33 25 -44 25 -10 0 -22 5 -26 11 -3 6 -17 8 -30 5 -14 -4 -26 -1 -31 7 -4
7 -33 28 -63 47 -48 31 -64 35 -130 38 -66 2 -82 -1 -130 -25z m193 -69 c41
-21 67 -44 67 -59 0 -7 -15 -20 -34 -30 -31 -17 -35 -17 -57 -2 -27 20 -66 21
-94 4 -45 -26 -85 -61 -85 -74 0 -7 -3 -13 -8 -13 -7 0 -35 -51 -65 -120 -41
-93 -47 -109 -47 -120 0 -7 -7 -33 -15 -59 -59 -188 -81 -345 -93 -685 -4
-113 -11 -181 -18 -183 -6 -2 -22 7 -36 19 -35 32 -38 80 -22 333 13 207 22
275 50 386 8 30 14 66 14 78 0 24 23 101 47 158 7 17 13 36 13 43 0 14 83 182
102 205 93 117 198 161 281 119z m268 -143 c65 -69 63 -154 -4 -220 -40 -40
-43 -41 -106 -41 -53 1 -71 5 -92 23 -42 37 -61 76 -62 128 -1 40 5 56 29 86
44 55 88 75 149 68 41 -5 56 -13 86 -44z m-361 -144 c0 -10 7 -31 15 -47 8
-16 14 -33 13 -37 -5 -14 26 -50 50 -57 12 -4 22 -14 22 -23 0 -11 7 -14 25
-11 25 5 38 -5 63 -49 15 -29 15 -33 -2 -33 -7 0 -19 -7 -26 -15 -8 -9 -29
-15 -54 -15 -22 1 -63 -2 -89 -6 -31 -4 -53 -2 -60 5 -6 6 -27 11 -46 11 -39
1 -77 23 -67 39 4 6 1 19 -6 30 -10 16 -9 23 4 38 9 10 26 38 38 63 46 97 54
110 72 116 10 3 18 15 18 27 0 20 0 20 15 1 8 -10 15 -27 15 -37z m378 -183
c4 -39 -16 -56 -60 -52 -27 2 -34 8 -36 28 -2 21 4 29 30 42 46 23 62 19 66
-18z m-933 -43 c39 -7 81 -18 95 -25 29 -13 37 -52 18 -79 -12 -16 -18 -16
-113 8 -133 33 -296 35 -355 5 -53 -27 -73 -60 -72 -118 2 -106 100 -252 297
-442 89 -87 315 -264 365 -287 8 -4 38 -23 65 -44 28 -20 78 -51 113 -69 75
-38 81 -61 22 -76 -37 -10 -43 -9 -92 22 -29 19 -62 38 -73 44 -36 19 -140 86
-159 101 -6 5 -42 33 -81 61 -38 28 -72 54 -75 57 -3 3 -34 31 -70 61 -88 75
-201 191 -268 273 -53 67 -112 169 -112 195 0 7 -7 21 -16 30 -25 25 -14 127
19 179 28 44 84 93 108 93 8 1 25 7 39 15 31 18 236 15 345 -4z m1498 2 c29
-9 57 -20 62 -25 54 -40 80 -71 95 -111 16 -41 16 -53 5 -109 -15 -69 -38
-127 -71 -173 -11 -17 -23 -37 -26 -45 -8 -22 -168 -210 -178 -210 -5 0 -20
10 -34 23 -30 25 -27 62 5 72 10 4 19 9 19 13 0 4 25 36 56 72 96 111 161 245
148 305 -10 46 -40 81 -84 99 -47 19 -221 22 -285 5 -22 -6 -62 -15 -90 -19
-27 -5 -61 -14 -75 -18 -14 -5 -52 -17 -85 -26 -33 -10 -73 -24 -88 -32 -16
-8 -35 -14 -44 -14 -8 0 -27 -6 -41 -14 -15 -8 -46 -22 -70 -32 -24 -9 -45
-21 -47 -24 -3 -4 30 -24 73 -45 42 -21 93 -51 113 -67 20 -15 45 -28 54 -28
15 0 16 6 10 48 -4 26 -11 55 -17 65 -13 26 -1 56 27 63 44 11 60 1 62 -36 13
-186 16 -203 31 -216 10 -8 62 -47 117 -87 124 -91 309 -267 387 -370 178
-234 182 -415 11 -498 -26 -12 -65 -23 -87 -23 -38 -1 -41 1 -44 27 -4 36 22
67 56 67 62 0 129 75 119 135 -7 43 -50 133 -97 204 -48 73 -207 239 -301 316
-40 33 -90 75 -110 93 -21 19 -44 32 -50 30 -11 -4 -14 -262 -3 -280 3 -5 30
14 61 42 30 27 59 50 64 50 21 0 59 -33 59 -51 0 -12 -32 -39 -95 -81 -52 -35
-97 -69 -100 -77 -3 -7 -8 -61 -11 -120 -7 -126 -15 -139 -68 -117 -40 17 -42
25 -21 86 15 42 20 100 9 100 -3 0 -20 -11 -37 -24 -18 -13 -54 -36 -82 -51
-27 -14 -66 -36 -85 -47 -39 -23 -216 -111 -270 -135 -19 -8 -46 -21 -60 -28
-14 -7 -40 -16 -57 -20 -18 -3 -35 -11 -38 -16 -4 -5 -16 -9 -28 -9 -13 0 -31
-6 -42 -14 -11 -7 -33 -16 -50 -18 -16 -3 -43 -10 -60 -16 -126 -43 -151 -47
-305 -47 -139 0 -159 2 -195 21 -49 27 -90 66 -110 107 -19 39 -20 146 0 183
8 16 15 36 15 44 0 8 9 26 19 39 17 23 19 23 43 7 35 -23 41 -54 18 -92 -14
-22 -20 -49 -20 -91 0 -52 3 -63 28 -85 35 -34 147 -62 211 -55 123 16 189 26
216 35 91 30 134 42 150 42 9 0 31 6 48 14 18 7 52 21 77 31 67 25 98 39 170
72 36 17 72 34 80 37 8 3 22 10 30 15 8 5 44 24 80 42 36 18 83 44 105 58 58
37 78 49 100 60 60 31 59 25 60 238 1 109 -2 208 -6 219 -4 12 -16 24 -26 28
-19 7 -28 12 -101 59 -23 15 -59 37 -80 48 -20 11 -55 31 -77 44 -42 25 -99
33 -110 14 -4 -5 -17 -14 -28 -20 -33 -14 -126 -68 -143 -82 -8 -6 -21 -18
-30 -25 -8 -8 -21 -11 -29 -8 -17 6 -9 73 12 97 14 17 135 79 153 79 5 0 10 6
10 13 0 15 -60 47 -88 47 -59 1 -87 92 -30 98 16 2 45 -6 65 -16 21 -11 45
-23 53 -26 8 -4 35 -17 59 -31 40 -23 46 -24 61 -10 9 8 24 15 32 15 9 0 21 7
28 15 7 8 18 15 25 15 8 0 26 7 42 15 92 48 305 119 404 135 30 5 66 14 80 19
42 17 234 13 292 -6z m-102 -156 c20 -7 44 -19 53 -26 20 -17 21 -55 2 -70 -8
-7 -17 -22 -20 -35 -3 -13 -15 -26 -26 -29 -15 -4 -20 -13 -20 -39 0 -23 -6
-37 -20 -46 -12 -7 -19 -18 -18 -25 5 -19 -38 -67 -59 -67 -10 0 -24 -5 -29
-10 -15 -15 -64 11 -64 33 0 10 -8 20 -17 24 -25 8 -53 44 -53 69 0 11 -5 25
-10 30 -7 7 -7 30 -3 64 9 59 7 57 108 102 28 12 57 21 67 19 9 -1 19 3 23 9
8 13 42 13 86 -3z m-1534 -22 c38 -7 127 -32 151 -44 17 -8 43 -79 32 -86 -4
-3 -7 -27 -7 -54 1 -50 -14 -81 -39 -81 -8 0 -14 -7 -14 -15 0 -9 -9 -15 -22
-15 -13 0 -38 -9 -56 -20 -48 -30 -82 -24 -50 8 9 9 8 12 -8 12 -11 0 -25 -5
-31 -11 -12 -12 -43 40 -43 75 0 12 -17 39 -38 61 -37 41 -62 84 -62 110 0 21
59 -12 72 -41 6 -13 15 -24 20 -24 13 0 10 28 -4 37 -19 12 -40 52 -33 63 4 6
14 10 24 10 10 0 24 7 31 15 7 9 19 14 26 11 7 -3 30 -8 51 -11z m788 -247
c44 -9 67 -20 98 -49 37 -36 39 -41 32 -76 -4 -21 -7 -47 -6 -58 0 -11 2 -93
2 -183 2 -161 2 -164 -22 -186 -39 -37 -102 -56 -187 -56 -149 0 -249 80 -200
160 10 16 10 24 0 40 -15 25 -15 52 0 85 9 19 9 28 0 37 -16 16 -15 63 0 88
10 16 10 24 0 40 -27 44 -7 100 48 131 65 37 143 46 235 27z m-587 -152 c3
-41 -1 -51 -23 -72 -33 -31 -56 -30 -85 1 l-24 25 55 50 c30 27 59 48 64 47 6
-2 11 -25 13 -51z m-284 -236 c81 -72 66 -180 -33 -232 -18 -10 -43 -18 -55
-18 -34 0 -103 54 -126 99 -18 37 -19 42 -5 82 27 75 58 97 137 98 39 1 53 -4
82 -29z m1476 -134 c0 -22 45 -47 59 -33 8 8 14 8 23 -1 10 -10 10 -15 -2 -22
-22 -14 41 -70 70 -63 15 4 20 1 20 -15 0 -11 -4 -22 -9 -24 -17 -6 0 -58 19
-58 28 0 32 -28 7 -63 -12 -18 -23 -34 -24 -35 -2 -4 -85 37 -120 59 -19 11
-27 11 -43 1 -25 -15 -53 -15 -68 0 -9 9 -13 7 -18 -5 -7 -20 -44 -23 -45 -4
0 6 -4 2 -9 -10 -5 -13 -14 -23 -19 -23 -13 0 -22 28 -10 36 6 3 8 13 5 21 -3
8 1 27 9 43 12 23 13 34 4 48 -9 15 -5 24 22 55 18 20 38 37 45 37 6 0 22 16
35 35 24 36 49 46 49 21z m-1286 -50 c9 4 32 -2 51 -12 31 -17 34 -22 39 -83
9 -92 -2 -124 -44 -132 -19 -4 -39 -14 -46 -23 -15 -22 -94 -22 -94 -1 0 20
-26 19 -34 -1 -4 -10 -13 -13 -26 -9 -14 5 -20 2 -20 -9 0 -29 -69 -17 -115
19 -16 13 -18 19 -7 35 6 10 9 25 6 33 -3 8 6 21 20 31 28 18 56 21 56 6 0
-16 27 -12 34 5 3 8 12 15 20 15 8 0 26 10 39 23 13 12 32 27 43 33 12 7 20
23 21 45 1 19 2 38 2 43 1 5 9 2 20 -8 10 -9 25 -14 35 -10z m209 -87 c46 -24
67 -52 67 -89 0 -30 -5 -39 -25 -48 -14 -7 -30 -12 -35 -12 -23 0 -57 111 -44
144 7 19 9 19 37 5z m649 -165 c35 -15 77 -33 95 -40 17 -8 42 -14 56 -14 14
0 28 -4 31 -9 3 -5 22 -12 42 -16 34 -6 36 -8 30 -37 -3 -17 -6 -37 -6 -44 0
-16 -33 -18 -58 -4 -20 11 -93 38 -137 49 -16 5 -59 20 -95 34 -36 14 -75 28
-87 32 -22 6 -25 10 -27 37 -1 10 53 35 81 37 6 1 40 -11 75 -25z m495 -71
c69 -69 40 -180 -55 -211 -38 -13 -74 0 -115 41 -46 46 -14 175 48 190 40 10
102 0 122 -20z m-697 -32 c0 -5 -6 -11 -12 -14 -7 -2 -10 -8 -5 -12 4 -5 13
-3 19 3 20 20 48 14 58 -12 5 -14 18 -30 29 -35 16 -9 19 -18 14 -49 -3 -20
-14 -56 -24 -79 -11 -23 -19 -47 -19 -53 0 -7 -9 -25 -21 -41 -11 -16 -18 -36
-15 -44 3 -8 -8 -28 -23 -44 -22 -23 -30 -27 -34 -17 -4 9 -14 12 -26 9 -26
-7 -51 13 -51 38 0 11 -4 19 -10 19 -5 0 -10 7 -10 17 0 9 -10 30 -23 47 -27
37 -67 138 -67 171 0 17 11 28 43 44 55 27 65 26 69 -1 3 -21 4 -21 23 10 13
21 27 32 42 32 13 0 23 5 23 10 0 6 5 10 10 10 6 0 10 -4 10 -9z m-315 -138
c9 -32 23 -73 31 -91 8 -18 14 -37 14 -43 0 -13 65 -144 82 -165 30 -38 74
-77 97 -86 44 -16 97 0 140 43 60 60 136 227 165 361 7 32 35 43 70 26 25 -11
27 -15 21 -51 -4 -21 -13 -51 -21 -65 -8 -15 -14 -35 -14 -44 0 -9 -4 -19 -9
-22 -5 -3 -12 -18 -16 -33 -23 -92 -112 -222 -188 -273 -45 -30 -60 -35 -113
-35 -45 0 -67 5 -81 18 -11 9 -23 17 -27 17 -3 0 -28 23 -54 50 -45 47 -142
217 -142 248 0 7 -6 23 -12 35 -7 12 -18 40 -24 62 -6 22 -14 48 -18 57 -6 12
0 21 21 32 49 27 60 21 78 -41z"/>
<path d="M1995 2936 c-44 -14 -55 -35 -29 -57 12 -10 47 -14 129 -14 115 0
149 10 143 43 -7 36 -160 53 -243 28z"/>
<path d="M1945 2780 c-10 -16 3 -28 35 -35 16 -4 32 -11 35 -16 8 -11 152 -12
159 0 3 4 19 11 36 14 22 5 30 12 30 27 0 20 -3 21 -47 13 -59 -10 -133 -10
-195 -1 -28 5 -50 4 -53 -2z"/>
<path d="M1940 2648 c0 -44 210 -67 274 -30 41 25 33 37 -22 34 -76 -4 -133
-3 -194 3 -46 6 -58 4 -58 -7z"/>
<path d="M1940 2527 c0 -7 17 -21 37 -32 54 -29 199 -26 243 5 16 12 28 26 25
31 -8 12 -52 12 -60 -1 -3 -5 -44 -10 -90 -10 -46 0 -87 5 -90 10 -9 15 -65
12 -65 -3z"/>
<path d="M2976 1841 c-3 -5 1 -11 9 -15 15 -6 29 7 18 18 -9 9 -21 8 -27 -3z"/>
<path d="M875 1222 c-16 -8 -32 -19 -34 -25 -2 -5 -14 -19 -27 -30 -30 -26
-30 -32 2 -62 25 -23 26 -28 19 -92 -3 -38 -15 -83 -25 -100 l-19 -33 25 -26
c15 -15 33 -23 41 -19 9 3 22 0 30 -6 8 -7 46 -12 91 -12 42 1 86 -4 97 -10
11 -6 79 -12 150 -13 72 -1 150 -7 175 -13 43 -9 46 -9 66 17 21 25 23 26 62
13 22 -8 44 -11 50 -7 6 3 31 -3 57 -14 60 -26 71 -25 97 5 12 14 27 25 34 25
7 0 16 9 19 20 7 23 35 27 35 6 0 -39 148 -78 215 -56 29 10 53 9 113 0 73
-12 80 -12 119 8 39 20 44 21 79 6 27 -11 50 -13 88 -8 28 5 70 7 93 5 23 -1
57 3 76 10 30 10 40 10 71 -5 20 -9 41 -14 46 -11 5 3 36 1 67 -5 32 -7 63
-11 68 -11 149 15 282 18 305 6 75 -39 151 -11 222 84 23 30 27 46 28 95 0 41
5 65 16 77 16 17 15 19 -7 28 -13 5 -45 29 -70 54 -38 37 -47 42 -55 29 -13
-19 -34 -8 -34 19 0 26 -26 24 -62 -6 -35 -30 -101 -35 -116 -9 -8 14 -12 14
-30 3 -19 -12 -23 -11 -37 6 -15 20 -15 20 -34 -2 -23 -28 -68 -46 -76 -33 -4
6 -17 10 -31 10 -14 0 -27 7 -30 15 -4 10 -14 13 -31 9 -17 -5 -28 -1 -38 12
-13 18 -14 18 -27 1 -12 -17 -16 -17 -27 -4 -10 13 -16 13 -39 1 -17 -9 -30
-10 -36 -4 -13 13 -46 13 -46 0 0 -5 -9 -14 -20 -20 -21 -11 -53 1 -77 30 -11
13 -14 12 -19 -7 -4 -16 -14 -23 -29 -23 -17 0 -25 7 -27 23 -4 28 -21 25 -28
-5 -9 -37 -84 -37 -93 0 -4 13 -5 11 -6 -5 -1 -18 -7 -23 -26 -23 -26 0 -34
15 -12 23 6 2 9 8 4 12 -4 5 -13 3 -19 -3 -14 -14 -52 -16 -76 -3 -23 13 -104
31 -136 31 -14 0 -26 3 -26 8 0 4 -4 13 -9 21 -8 12 -12 13 -26 1 -13 -11 -20
-11 -41 1 -20 10 -29 11 -42 1 -9 -7 -28 -17 -42 -22 -14 -6 -30 -20 -35 -32
-14 -31 -91 -45 -117 -22 -11 11 -28 15 -48 12 -18 -3 -35 1 -42 9 -9 11 -13
10 -25 -7 -18 -26 -43 -26 -43 0 0 14 -7 20 -24 20 -13 0 -26 -6 -29 -12 -3
-10 -9 -8 -24 5 -24 21 -73 23 -73 2 0 -16 -15 -20 -24 -7 -3 5 -18 7 -34 4
-18 -2 -33 2 -41 12 -18 21 -87 22 -95 1 -3 -9 -19 -15 -41 -15 -24 0 -35 4
-35 15 0 8 -5 15 -11 15 -6 0 -9 -7 -5 -15 6 -17 -9 -21 -19 -5 -3 6 -21 10
-39 10 -19 0 -53 9 -77 20 -51 23 -54 23 -94 2z m206 -80 c36 -37 47 -61 54
-118 5 -39 1 -58 -17 -93 -37 -72 -62 -84 -165 -82 -48 1 -98 5 -111 8 -28 7
-24 26 8 33 32 7 36 24 32 135 -3 91 -5 96 -28 105 -13 5 -24 16 -24 25 0 13
18 15 113 15 109 -1 113 -1 138 -28z m359 18 c5 0 12 -10 15 -22 4 -13 17 -31
28 -40 l22 -17 -23 -23 c-18 -20 -22 -36 -22 -90 0 -58 3 -67 21 -73 32 -11
19 -39 -19 -43 -27 -3 -35 1 -39 17 -3 12 -9 21 -14 21 -5 0 -9 33 -9 73 0 49
-5 80 -15 95 -14 19 -14 24 0 46 9 13 15 28 14 32 -4 24 2 36 17 30 9 -3 19
-6 24 -6z m608 -14 c25 -27 29 -68 8 -85 -11 -9 -18 -4 -35 24 -18 31 -25 35
-60 35 -27 0 -43 -5 -50 -17 -10 -19 2 -53 20 -53 24 0 119 -51 128 -69 18
-33 13 -81 -11 -107 -20 -20 -32 -24 -88 -23 -53 0 -70 4 -93 23 -23 18 -28
30 -25 57 4 48 32 50 54 4 16 -35 18 -36 68 -33 49 3 51 4 54 33 3 29 0 31
-60 50 -118 38 -152 98 -86 157 27 24 40 28 92 28 51 0 65 -4 84 -24z m-743
-67 c34 -30 35 -33 35 -103 0 -40 5 -77 11 -83 25 -25 2 -40 -59 -40 -33 -1
-68 -4 -79 -7 -43 -14 -78 53 -57 109 9 21 56 45 92 45 39 0 57 19 34 36 -24
19 -45 17 -75 -6 -31 -25 -44 -25 -52 -1 -8 26 1 44 33 64 41 25 77 21 117
-14z m373 5 c31 -26 32 -30 32 -102 0 -58 4 -77 17 -87 9 -7 14 -19 10 -27 -4
-12 -25 -15 -95 -16 -87 -1 -89 0 -111 28 -27 37 -26 51 2 83 16 19 36 28 75
33 40 5 52 10 52 24 0 34 -52 40 -90 10 -35 -27 -50 -25 -50 8 0 19 10 34 33
50 43 30 86 28 125 -4z m574 3 c36 -30 46 -72 20 -86 -21 -11 -33 -3 -45 32
-7 18 -33 22 -55 9 -22 -15 -33 -73 -20 -109 10 -28 17 -33 43 -33 19 0 35 7
43 20 7 11 21 20 31 20 14 0 17 -6 13 -27 -8 -48 -29 -63 -88 -63 -52 0 -54 1
-79 43 -42 72 -31 147 30 199 28 24 75 22 107 -5z m137 5 c5 -10 8 -56 5 -102
-5 -78 -4 -85 17 -101 12 -9 19 -21 15 -28 -9 -14 -95 -14 -116 -1 -13 9 -12
13 7 29 19 16 21 27 19 87 -2 38 -8 80 -15 92 -7 12 -9 27 -6 32 11 17 64 11
74 -8z m204 -8 c35 -32 50 -69 42 -106 -6 -27 -8 -28 -76 -28 -50 0 -69 -4
-69 -13 0 -25 25 -37 78 -37 50 0 53 -2 50 -22 -3 -21 -9 -23 -68 -26 -64 -2
-65 -2 -87 31 -18 26 -23 47 -23 96 0 60 2 65 37 97 45 41 78 43 116 8z m130
9 c18 -17 19 -17 28 0 15 27 71 22 100 -9 20 -21 24 -38 27 -102 3 -50 9 -83
19 -94 22 -25 7 -38 -43 -38 -49 0 -72 24 -41 42 13 7 17 24 17 72 0 56 -3 64
-24 75 -30 16 -64 1 -70 -32 -10 -46 -1 -102 18 -118 28 -23 11 -39 -44 -39
-51 0 -67 14 -45 40 20 24 25 134 9 166 -26 49 7 74 49 37z m368 -12 c16 -16
29 -39 29 -51 0 -32 -27 -36 -55 -6 -29 31 -44 33 -73 6 -15 -14 -22 -33 -22
-57 0 -65 56 -96 95 -53 10 11 24 20 30 20 16 0 27 -28 18 -43 -24 -39 -39
-47 -87 -47 -43 0 -53 4 -78 33 -28 30 -29 36 -26 101 4 64 6 70 38 97 47 39
92 39 131 0z m193 14 c8 -8 19 -15 25 -15 13 0 41 -57 41 -85 0 -35 -20 -45
-88 -45 -60 0 -63 -1 -60 -22 2 -19 10 -24 41 -26 21 -2 45 2 53 9 13 10 17
10 25 -2 5 -8 8 -23 7 -34 -3 -17 -12 -20 -64 -23 -61 -3 -62 -2 -93 35 -51
62 -41 150 24 205 25 21 69 23 89 3z"/>
<path d="M955 1010 l0 -110 37 0 c57 0 78 34 73 117 -5 79 -22 103 -74 103
l-36 0 0 -110z m45 15 c0 -8 -4 -15 -9 -15 -13 0 -22 16 -14 24 11 11 23 6 23
-9z m30 -60 c0 -8 -6 -15 -14 -15 -17 0 -28 14 -19 24 12 12 33 6 33 -9z"/>
<path d="M1223 943 c-15 -3 -23 -12 -23 -24 0 -27 60 -27 77 0 18 29 5 35 -54
24z"/>
<path d="M1583 943 c-7 -2 -13 -13 -13 -24 0 -15 7 -19 33 -19 34 0 57 15 57
37 0 13 -51 17 -77 6z"/>
<path d="M2508 1039 c-35 -20 -21 -39 27 -39 46 0 58 13 33 38 -15 15 -37 15
-60 1z"/>
<path d="M3210 1035 c-20 -24 -5 -43 34 -43 31 0 36 3 36 23 0 34 -47 48 -70
20z"/>
<path d="M2340 1220 c0 -5 12 -10 28 -9 24 0 25 1 7 9 -27 12 -35 12 -35 0z"/>
<path d="M2546 1194 c-10 -25 -7 -34 9 -34 8 0 15 9 15 19 0 26 -16 35 -24 15z"/>
<path d="M3125 1170 c3 -5 13 -10 21 -10 8 0 14 5 14 10 0 6 -9 10 -21 10 -11
0 -17 -4 -14 -10z"/>
<path d="M3010 370 c0 -5 24 -10 53 -10 37 0 48 3 37 10 -20 13 -90 13 -90 0z"/>
<path d="M3210 183 c1 -60 16 -58 20 2 3 44 1 55 -10 55 -6 0 -10 -26 -10 -57z"/>
<path d="M2868 225 c-8 -9 1 -66 13 -79 10 -11 10 13 0 57 -3 16 -9 26 -13 22z"/>
<path d="M2904 54 c3 -9 6 -24 6 -35 0 -18 9 -19 166 -19 147 0 165 2 154 15
-7 8 -21 15 -31 15 -12 0 -19 7 -19 20 0 22 -20 26 -38 8 -17 -17 -197 -17
-214 0 -17 17 -31 15 -24 -4z"/>
</g>
</svg>
