<?xml version="1.0" standalone="no"?>
<!DOCTYPE svg PUBLIC "-//W3C//DTD SVG 20010904//EN"
 "http://www.w3.org/TR/2001/REC-SVG-20010904/DTD/svg10.dtd">
<svg version="1.0" xmlns="http://www.w3.org/2000/svg"
 width="300.000000pt" height="165.000000pt" viewBox="0 0 300.000000 165.000000"
 preserveAspectRatio="xMidYMid meet">
<metadata>
Created by potrace 1.10, written by Peter Selinger 2001-2011
</metadata>
<g transform="translate(0.000000,165.000000) scale(0.100000,-0.100000)"
fill="#3a6799" stroke="none">
<path d="M1363 1414 c-51 -19 -135 -102 -165 -164 -31 -62 -31 -176 -2 -241
46 -99 138 -165 246 -176 67 -7 117 14 156 65 37 49 38 131 2 182 l-25 35 30
-19 c51 -32 86 -69 112 -120 108 -213 -81 -446 -323 -398 -221 45 -374 260
-337 475 19 115 101 239 193 294 33 19 41 36 13 26 -17 -6 -86 -56 -108 -78
-123 -122 -159 -322 -88 -477 76 -163 217 -259 388 -264 68 -2 88 2 135 23 30
14 66 26 80 26 24 1 32 6 96 60 93 79 144 195 144 327 0 180 -94 326 -260 403
-54 25 -80 31 -155 33 -63 3 -102 -1 -132 -12z m189 -15 c207 -44 352 -234
335 -439 -10 -125 -70 -232 -172 -309 -68 -51 -80 -53 -30 -4 57 57 80 114 80
203 0 62 -5 85 -28 132 -47 97 -136 156 -246 165 -74 5 -126 -23 -158 -87 -29
-57 -29 -94 2 -149 l25 -43 -27 17 c-92 58 -137 138 -138 241 0 125 70 225
187 265 62 21 98 23 170 8z m-14 -285 c43 -9 72 -70 66 -139 -4 -41 -11 -56
-38 -82 -38 -35 -87 -49 -141 -39 -67 13 -107 128 -70 203 26 52 97 74 183 57z"/>
<path d="M1074 496 c-11 -9 -19 -26 -19 -43 0 -24 -3 -28 -26 -25 -14 2 -47
-4 -72 -13 -43 -14 -49 -14 -69 0 -32 21 -81 19 -113 -6 -16 -13 -30 -18 -33
-12 -34 51 -143 38 -170 -21 -8 -19 -19 -26 -40 -26 -36 0 -67 -31 -50 -48 9
-9 8 -12 -5 -12 -29 0 -57 37 -57 74 0 61 45 84 92 46 23 -17 27 -18 47 -4 49
35 5 84 -75 84 -64 0 -111 -24 -134 -70 -25 -49 -25 -73 1 -126 16 -33 29 -46
62 -59 47 -18 127 -15 152 5 12 10 23 9 56 -4 38 -16 43 -15 86 4 42 19 48 19
64 4 20 -18 95 -28 104 -14 3 6 11 10 17 10 7 0 7 -4 1 -12 -28 -37 42 -111
94 -102 42 8 80 35 99 69 9 17 23 33 30 34 31 4 61 3 90 -4 25 -5 36 -2 60 18
24 21 26 27 15 40 -7 9 -25 17 -39 19 -27 4 -27 4 10 23 50 25 54 42 21 77
-28 30 -59 34 -105 13 -16 -6 -18 -1 -18 34 0 35 -4 43 -26 51 -31 12 -27 13
-50 -4z m48 -121 c-3 -92 -1 -105 13 -105 9 0 13 -4 10 -10 -3 -5 -18 -10 -33
-10 l-27 0 3 106 c3 81 1 109 -10 115 -9 6 -3 9 17 9 l30 0 -3 -105z m-593 84
c35 -12 38 -21 16 -39 -12 -10 -15 -10 -15 3 0 18 -21 27 -65 27 -63 0 -95
-77 -58 -140 19 -33 51 -50 93 -50 25 0 30 4 30 25 0 19 -5 25 -22 25 -19 0
-20 2 -8 10 8 5 27 10 41 10 24 0 27 -4 25 -32 -1 -40 -14 -46 -89 -47 -52 -1
-62 2 -88 28 -23 23 -29 38 -29 71 0 52 13 76 53 100 36 23 70 25 116 9z m170
-64 c47 -24 56 -83 19 -122 -38 -41 -105 -28 -128 26 -15 37 2 79 40 98 32 16
35 16 69 -2z m194 -17 c41 -49 5 -128 -60 -128 -43 0 -73 30 -73 73 0 76 85
112 133 55z m365 10 c6 -6 12 -14 12 -18 0 -9 -79 -45 -85 -38 -3 3 8 11 25
18 32 13 35 33 6 38 -45 9 -60 -47 -24 -93 18 -23 26 -26 57 -22 33 6 35 5 17
-8 -38 -29 -89 -17 -111 26 -21 41 -19 57 15 90 30 31 55 32 88 7z m-208 3
c-17 -5 -21 -9 -12 -15 17 -10 15 -51 -3 -66 -21 -17 -19 -31 10 -59 30 -28
30 -31 5 -63 -24 -32 -65 -40 -107 -23 -52 22 -38 71 25 89 26 9 30 36 4 36
-26 0 -42 20 -42 51 0 39 33 59 95 58 37 -1 43 -3 25 -8z"/>
<path d="M633 383 c-20 -7 -16 -78 6 -104 16 -21 22 -22 45 -11 20 9 26 19 26
45 0 56 -34 88 -77 70z m45 -61 c2 -17 -1 -32 -7 -32 -13 0 -24 18 -27 47 -2
18 2 23 14 21 11 -2 18 -15 20 -36z"/>
<path d="M803 383 c-20 -7 -16 -78 6 -104 16 -21 22 -22 45 -11 20 9 26 19 26
45 0 56 -34 88 -77 70z m45 -62 c3 -24 0 -32 -10 -29 -7 3 -14 19 -16 37 -3
24 0 32 10 29 7 -3 14 -19 16 -37z"/>
<path d="M972 381 c-18 -11 -11 -61 10 -75 14 -8 21 -7 34 6 14 14 14 19 3 44
-16 31 -28 38 -47 25z"/>
<path d="M972 240 c-32 -13 -39 -40 -16 -57 45 -33 105 7 70 46 -21 23 -22 23
-54 11z m33 -30 c3 -5 1 -10 -4 -10 -6 0 -11 5 -11 10 0 6 2 10 4 10 3 0 8 -4
11 -10z"/>
<path d="M2533 458 c-11 -13 -38 -33 -61 -46 l-43 -23 -26 21 c-30 23 -44 24
-95 6 -37 -13 -38 -13 -32 8 3 13 -1 27 -9 34 -15 13 -47 6 -47 -10 0 -5 -7
-2 -16 7 -26 26 -47 14 -75 -45 l-26 -55 -24 49 c-13 28 -31 54 -41 60 -23 14
-48 -9 -48 -45 0 -29 0 -29 -26 -12 -32 21 -101 19 -126 -4 -10 -9 -18 -11
-18 -5 0 13 -38 27 -65 23 -11 -1 -31 -9 -43 -18 -21 -13 -26 -13 -41 1 -22
20 -86 21 -103 2 -11 -11 -18 -8 -43 21 -26 30 -39 36 -83 41 -76 7 -82 -1
-82 -118 0 -86 2 -99 21 -116 12 -10 24 -17 28 -15 3 2 24 8 46 13 22 5 49 18
61 29 20 19 21 19 44 -6 27 -29 89 -34 114 -10 14 14 18 14 39 0 27 -17 73
-22 100 -11 14 7 17 3 17 -17 0 -48 55 -60 62 -14 2 15 10 22 26 23 12 1 31 9
42 19 19 17 21 17 40 0 16 -15 22 -15 35 -5 8 7 15 20 15 29 0 11 8 7 24 -14
l25 -30 22 22 22 22 18 -22 c16 -21 18 -21 36 -5 18 16 20 16 36 1 13 -13 19
-14 31 -3 12 9 20 9 29 2 23 -19 41 5 47 60 6 61 25 67 25 9 1 -21 8 -49 17
-62 16 -24 16 -24 37 -4 17 15 24 16 30 6 10 -16 79 -32 87 -20 3 5 10 7 15 3
5 -3 16 0 24 6 19 16 21 210 3 228 -17 17 -24 15 -45 -10z m37 -104 c0 -91 -2
-105 -14 -95 -10 8 -16 9 -21 1 -10 -17 -51 -11 -69 9 -39 43 -12 131 40 131
13 0 26 -5 30 -12 5 -8 0 -9 -15 -5 -27 7 -61 -23 -61 -54 0 -33 19 -59 44
-59 33 0 48 23 46 67 -5 69 0 123 10 123 6 0 10 -42 10 -106z m-1076 72 c34
-21 44 -77 23 -122 -16 -33 -60 -54 -114 -54 -22 0 -23 3 -23 101 l0 102 45
-5 c25 -3 56 -13 69 -22z m576 -62 c19 -47 36 -80 38 -73 15 48 65 159 73 159
5 0 9 -45 9 -101 0 -57 -4 -98 -9 -95 -5 4 -7 42 -4 86 2 44 3 80 0 80 -2 0
-19 -38 -37 -85 -18 -47 -36 -82 -40 -78 -5 4 -21 41 -36 82 l-29 75 -3 -82
c-2 -45 -7 -82 -12 -82 -11 0 -14 183 -3 193 13 14 19 5 53 -79z m185 77 c3
-5 1 -12 -5 -16 -5 -3 -10 1 -10 9 0 18 6 21 15 7z m-601 -57 c9 -8 16 -26 16
-40 0 -22 -4 -24 -50 -24 -53 0 -58 -5 -37 -34 10 -14 23 -17 50 -14 38 4 50
-5 21 -16 -49 -19 -94 13 -94 67 0 64 55 100 94 61z m150 -6 c30 -43 21 -58
-34 -58 -36 0 -50 -4 -50 -14 0 -23 28 -39 60 -34 19 3 29 1 27 -6 -2 -6 -17
-12 -34 -14 -24 -2 -36 3 -52 24 -24 30 -26 55 -10 87 23 43 68 50 93 15z m67
10 c1 -7 1 -30 -1 -51 -2 -44 13 -67 46 -67 44 0 61 77 23 103 -11 8 -30 12
-41 9 -14 -3 -19 -1 -14 6 8 13 45 16 63 4 18 -12 34 -62 27 -86 -15 -49 -64
-72 -92 -44 -9 9 -12 3 -12 -30 0 -23 -4 -42 -10 -42 -6 0 -10 42 -10 105 0
63 4 105 10 105 6 0 11 -6 11 -12z m380 -61 c1 -37 -1 -70 -4 -74 -4 -3 -7 29
-7 72 0 95 7 96 11 2z m73 62 c9 15 59 14 74 -1 14 -14 17 -142 3 -134 -4 3
-6 27 -3 54 5 55 -13 84 -48 75 -28 -7 -34 -19 -41 -83 -6 -52 -6 -51 -7 25
-1 48 2 75 7 66 6 -9 11 -10 15 -2z m-396 -62 c2 -19 -1 -27 -12 -27 -11 0
-16 10 -16 31 0 38 24 35 28 -4z m592 3 c0 -20 -5 -30 -15 -30 -15 0 -21 40
-8 53 14 15 23 6 23 -23z m-690 -40 c0 -5 -2 -10 -4 -10 -3 0 -8 5 -11 10 -3
6 -1 10 4 10 6 0 11 -4 11 -10z"/>
<path d="M1400 350 l0 -80 35 0 c46 0 75 32 75 82 0 49 -28 78 -75 78 l-35 0
0 -80z m66 42 c6 -4 13 -20 16 -35 4 -21 0 -32 -20 -47 -13 -11 -28 -18 -32
-15 -4 2 -7 27 -7 55 -1 40 2 50 16 50 9 0 21 -4 27 -8z"/>
<path d="M1602 383 c-7 -2 -17 -13 -22 -24 -10 -17 -7 -19 35 -19 48 0 55 9
29 34 -16 17 -21 18 -42 9z"/>
<path d="M1750 382 c-16 -5 -30 -21 -30 -34 0 -5 18 -8 40 -8 28 0 40 4 40 15
0 18 -30 34 -50 27z"/>
</g>
</svg>
