<?xml version="1.0" standalone="no"?>
<!DOCTYPE svg PUBLIC "-//W3C//DTD SVG 20010904//EN"
 "http://www.w3.org/TR/2001/REC-SVG-20010904/DTD/svg10.dtd">
<svg version="1.0" xmlns="http://www.w3.org/2000/svg"
 width="300.000000pt" height="300.000000pt" viewBox="0 0 300.000000 300.000000"
 preserveAspectRatio="xMidYMid meet">
<metadata>
Created by potrace 1.10, written by Peter Selinger 2001-2011
</metadata>
<g transform="translate(0.000000,300.000000) scale(0.050000,-0.050000)"
fill="#e62e2d" stroke="none">
<path d="M2745 5958 c-6 -84 -62 -118 -191 -118 -97 0 -115 -5 -97 -27 13 -15
17 -32 10 -40 -7 -7 -25 3 -40 22 -15 19 -25 26 -22 15 6 -23 -23 -30 -62 -15
-15 6 -34 -1 -43 -15 -8 -14 -24 -20 -34 -13 -53 32 -346 -94 -346 -148 0 -11
-10 -19 -22 -19 -12 0 -17 14 -11 30 17 45 -22 36 -47 -10 -12 -22 -28 -39
-36 -37 -58 8 -92 -5 -64 -25 25 -18 23 -20 -10 -14 -22 5 -89 -17 -150 -49
-60 -31 -96 -52 -78 -48 17 5 44 1 60 -9 19 -12 7 -17 -42 -18 -67 0 -128 -36
-231 -139 -22 -23 -54 -41 -72 -41 -39 0 -102 -68 -82 -88 8 -9 6 -12 -5 -9
-35 11 -109 -54 -116 -103 -4 -27 -23 -49 -44 -52 -36 -5 -146 -108 -116 -108
9 0 -6 -12 -33 -25 -27 -14 -54 -44 -60 -66 -6 -22 -27 -58 -47 -80 -100 -110
-134 -169 -134 -232 -1 -49 -6 -59 -19 -38 -10 17 -22 26 -27 20 -25 -29 -74
-151 -74 -183 0 -21 -9 -33 -20 -26 -11 7 -20 3 -20 -9 0 -43 -4 -52 -35 -86
-19 -22 -22 -35 -8 -35 13 0 23 -9 23 -20 0 -11 -13 -20 -30 -20 -29 0 -33 -8
-38 -65 -1 -14 -12 -35 -23 -48 -12 -12 -33 -75 -47 -140 -14 -64 -34 -132
-43 -151 -10 -19 -13 -47 -7 -63 6 -16 1 -35 -11 -42 -11 -7 -21 -24 -21 -37
0 -14 8 -12 20 6 11 17 20 23 20 14 0 -8 -16 -39 -35 -69 -49 -75 -54 -955 -5
-985 17 -10 32 -35 35 -54 2 -20 10 -81 17 -136 16 -125 79 -289 130 -336 21
-20 32 -47 25 -60 -9 -14 -1 -13 19 3 24 20 34 21 34 4 0 -13 9 -18 20 -11 11
7 20 -2 20 -19 0 -17 -12 -31 -28 -31 -15 0 -32 -19 -38 -43 -8 -28 -22 -38
-43 -30 -17 6 -31 3 -31 -8 0 -10 9 -19 21 -19 11 0 -1 -24 -28 -53 -88 -94
-87 -183 1 -302 l48 -65 184 0 c126 -1 175 -7 154 -20 -24 -15 -20 -20 20 -20
40 0 44 -5 20 -20 -26 -17 -25 -19 3 -20 19 0 37 7 42 15 5 8 6 4 3 -9 -4 -14
3 -30 13 -37 11 -6 14 -20 8 -31 -6 -10 -22 -12 -35 -4 -13 8 6 -24 43 -70 72
-91 129 -131 152 -108 8 8 13 5 11 -6 -8 -39 25 -110 51 -110 15 0 33 -10 41
-23 9 -15 5 -18 -14 -8 -15 8 -2 -6 29 -32 31 -26 89 -76 130 -112 40 -36 89
-65 109 -65 20 0 31 -9 24 -20 -11 -18 16 -28 38 -15 5 3 28 -20 52 -51 24
-31 126 -95 230 -145 173 -83 260 -115 190 -69 -22 14 -23 19 -4 20 34 0 86
-51 70 -68 -7 -6 2 -12 21 -12 18 0 33 10 33 23 0 13 17 3 38 -21 24 -27 43
-36 51 -23 20 32 47 25 60 -16 13 -42 199 -93 263 -72 28 9 31 8 11 -7 -36
-25 160 -60 439 -77 296 -17 866 50 796 95 -21 13 -16 17 17 18 25 0 45 9 45
20 0 11 16 20 35 20 29 -1 30 -4 6 -19 -45 -28 -19 -37 53 -18 45 13 61 27 53
47 -6 17 -2 30 9 30 11 0 25 -11 30 -25 6 -17 23 -9 51 23 24 26 43 38 43 25
0 -39 57 -25 70 17 7 22 28 40 46 40 29 -1 30 -3 4 -20 -71 -46 17 -14 187 68
101 49 218 121 261 160 42 40 86 72 96 72 32 0 116 73 101 88 -7 8 7 19 32 25
26 7 41 23 36 38 -6 15 3 23 23 20 45 -6 121 68 130 129 5 28 18 51 31 53 13
1 30 4 38 7 8 3 22 4 30 2 8 -1 15 11 15 26 0 15 14 33 30 39 17 7 29 19 28
27 -7 40 4 67 21 57 10 -6 24 -2 31 9 7 12 6 19 -4 15 -9 -3 -18 2 -21 10 -12
36 -3 55 26 55 17 0 26 9 19 20 -7 11 12 21 44 23 55 2 56 3 6 15 -28 6 39 16
149 22 197 10 200 11 242 72 63 94 35 359 -33 317 -10 -6 -18 6 -18 28 0 22
-11 45 -25 51 -20 9 -20 15 -1 23 19 9 16 25 -10 65 -18 29 -24 46 -12 39 13
-8 39 4 58 25 32 36 33 40 3 52 -18 7 -33 22 -33 34 0 15 8 14 24 -2 35 -35
56 -29 56 16 0 22 9 40 19 40 11 0 15 13 9 28 -6 15 -1 34 11 41 11 7 21 36
21 64 0 27 14 64 31 81 20 20 24 37 12 44 -12 8 -14 25 -4 40 9 14 11 45 5 68
-8 31 -3 38 21 29 95 -37 63 986 -33 1050 -15 10 -15 14 2 15 30 0 17 126 -13
136 -12 4 -21 29 -21 55 0 44 -18 99 -64 200 -10 23 -17 50 -15 60 8 42 -2 71
-21 59 -11 -7 -20 8 -20 32 0 79 -164 392 -182 347 -11 -29 -16 -19 -17 37 0
42 -8 72 -16 67 -9 -5 -32 24 -52 66 -20 41 -58 100 -85 131 -26 31 -48 63
-48 72 0 8 -18 21 -40 28 -22 7 -36 20 -31 29 6 8 -21 44 -59 78 -70 64 -104
81 -78 40 9 -15 5 -18 -9 -9 -13 8 -18 23 -12 33 6 11 3 19 -8 19 -10 0 -17
16 -16 35 2 23 -9 33 -32 29 -23 -4 -49 17 -70 55 -31 53 -60 70 -108 64 -7
-1 -18 12 -25 29 -7 20 -3 26 13 18 14 -7 8 1 -13 18 -21 17 -46 26 -55 20 -9
-6 -17 -1 -17 11 0 11 -14 21 -31 21 -17 0 -26 8 -20 18 18 30 -78 78 -140 70
-55 -7 -55 -6 -9 9 60 19 -114 117 -190 107 -29 -4 -33 -1 -13 12 35 24 -22
49 -70 30 -26 -10 -31 -5 -21 21 14 36 -16 46 -37 12 -8 -14 -22 -13 -42 3
-20 17 -22 29 -7 38 26 16 -260 104 -360 111 -38 3 -113 10 -165 17 -52 7 -95
5 -95 -3 0 -8 -34 -14 -75 -13 -63 2 -75 10 -73 45 0 24 -6 43 -14 43 -9 0
-27 32 -41 70 -24 68 -28 70 -131 70 -135 0 -178 101 344 -800 86 -148 216
-373 288 -499 l132 -228 270 -157 c149 -86 335 -193 415 -238 l145 -82 0 -480
0 -481 153 -263 c84 -144 173 -298 198 -342 159 -282 478 -827 512 -874 l40
-56 -889 0 -889 0 -227 -133 c-126 -73 -316 -181 -424 -240 l-195 -107 -275
153 c-151 85 -340 193 -421 240 l-146 87 -890 0 -890 0 41 57 c39 55 522 880
522 892 0 3 48 86 106 183 59 98 135 230 170 294 l64 116 0 477 0 477 145 82
c80 45 267 152 415 238 l270 157 138 238 c75 132 184 320 242 419 287 496 490
852 490 861 0 38 -232 5 -235 -33z m-50 -163 c-10 -31 -150 -28 -181 3 -16 16
7 22 84 22 75 0 103 -7 97 -25z m-75 -126 c0 -7 -21 -40 -47 -75 -27 -35 -77
-118 -113 -184 -36 -66 -68 -123 -70 -126 -3 -3 -78 -31 -167 -63 -1134 -401
-1801 -1621 -1512 -2766 11 -44 -4 -84 -69 -193 -45 -76 -91 -162 -102 -192
-44 -117 -77 -45 -173 380 -283 1259 445 2593 1673 3065 209 81 580 179 580
154z m973 -40 c1583 -407 2444 -1930 1966 -3476 -44 -143 -69 -163 -100 -81
-11 28 -56 114 -101 190 -65 109 -80 149 -69 193 226 895 -147 1901 -909 2453
-154 111 -530 300 -665 333 -90 22 -100 32 -169 156 -40 73 -93 162 -119 197
-76 103 -87 100 166 35z m420 -728 c89 -45 179 -81 200 -81 31 -1 32 -4 7 -20
-32 -20 -8 -30 55 -21 14 1 34 -20 45 -48 10 -28 24 -51 31 -51 6 0 5 11 -2
25 -8 14 16 -10 52 -52 63 -74 67 -76 95 -40 25 31 28 32 18 3 -13 -37 58
-103 89 -84 9 6 17 1 17 -11 0 -11 -9 -21 -20 -21 -11 0 -20 -9 -20 -20 0 -11
14 -20 31 -20 17 0 26 -8 20 -18 -12 -21 37 -67 54 -50 10 10 59 -59 66 -92 8
-41 85 -175 112 -195 40 -30 27 -108 -15 -91 -15 5 -28 23 -28 39 0 15 -20 36
-45 46 -40 15 -41 19 -10 31 19 8 35 24 35 35 0 12 -5 16 -12 10 -6 -7 -56 14
-110 46 -56 33 -113 53 -133 47 -29 -10 -30 -8 -5 10 24 17 13 21 -47 22 -56
0 -74 7 -67 27 6 15 2 39 -8 55 -13 21 -17 22 -18 2 0 -15 -9 -21 -20 -14 -12
7 -15 21 -9 31 11 18 -15 27 -63 21 -13 -1 -34 11 -48 28 -14 16 -40 30 -57
30 -26 1 -27 4 -6 18 21 13 20 19 -5 29 -21 7 -32 1 -32 -19 0 -27 -3 -28 -30
-1 -16 17 -30 38 -30 47 0 20 -84 76 -105 70 -8 -2 -20 19 -27 46 -7 30 -22
44 -35 37 -13 -8 -17 -6 -9 2 13 15 -53 167 -82 191 -6 6 -15 37 -18 70 -3 35
2 50 11 36 9 -13 89 -60 178 -105z m-1853 48 c0 -17 -22 -74 -49 -127 -27 -54
-43 -104 -35 -113 8 -8 4 -10 -9 -2 -13 7 -28 -7 -35 -35 -6 -26 -31 -52 -54
-58 -25 -7 -36 -21 -28 -34 8 -13 3 -20 -13 -17 -59 14 -172 -50 -116 -65 l49
-14 -53 -2 c-28 -1 -63 -16 -77 -32 -14 -17 -35 -29 -48 -28 -48 6 -74 -3 -63
-21 6 -10 3 -24 -9 -31 -11 -7 -20 -1 -21 14 0 16 -12 11 -30 -13 -23 -30 -24
-42 -4 -55 15 -9 -8 -16 -55 -16 -63 0 -73 -5 -50 -22 25 -18 24 -20 -7 -10
-43 14 -156 -47 -139 -75 7 -10 3 -14 -8 -7 -33 21 -102 -41 -69 -63 20 -13
17 -20 -15 -28 -23 -6 -42 -26 -42 -44 0 -18 -9 -28 -20 -21 -13 8 -20 -34
-20 -112 0 -69 -4 -121 -9 -116 -19 19 -28 378 -9 367 10 -6 13 -20 7 -30 -6
-11 3 -19 20 -19 20 0 31 18 31 50 0 28 9 50 20 50 11 0 20 14 20 31 0 39 58
129 84 129 26 0 77 53 64 66 -6 6 8 16 30 24 23 7 42 29 42 48 0 20 23 46 50
58 28 13 50 32 50 44 0 11 12 20 28 20 15 0 42 23 61 51 18 28 43 44 55 37 13
-8 17 -5 9 8 -8 11 -5 27 7 34 11 7 20 3 20 -9 0 -14 13 -13 39 3 21 13 34 31
29 39 -5 8 12 17 37 21 32 4 43 17 39 46 -4 29 -1 33 12 13 15 -21 42 -14 136
34 137 71 148 73 148 32z m-1062 -1589 c2 -238 -4 -340 -18 -320 -16 26 -19
25 -20 -6 0 -20 -32 -86 -71 -147 -39 -61 -62 -105 -51 -98 38 23 39 -23 1
-55 -37 -32 -39 -31 -41 11 -2 43 -3 43 -18 -5 -9 -27 -17 -41 -18 -30 -2 11
-11 7 -22 -10 -13 -20 -19 84 -20 314 0 208 8 349 20 356 11 7 20 51 20 99 0
47 13 111 28 141 16 30 25 66 19 80 -5 14 4 30 20 36 16 6 40 46 54 88 88 268
112 173 117 -454z m3894 505 c28 -63 64 -140 80 -170 17 -30 24 -55 16 -55 -8
0 1 -17 21 -38 19 -22 32 -60 28 -85 -3 -26 1 -57 9 -70 27 -44 43 -275 17
-259 -17 11 -23 -40 -23 -188 0 -130 7 -198 20 -190 12 7 20 -18 20 -64 -1
-56 -6 -68 -20 -46 -11 17 -20 21 -21 10 -1 -11 -11 3 -23 30 -12 30 -24 40
-30 25 -13 -35 -46 -31 -46 5 0 17 -11 30 -25 30 -19 1 -18 5 1 17 22 14 22
22 0 45 -85 91 -96 162 -96 649 0 258 5 469 11 469 6 0 34 -52 61 -115z
m-3857 -589 c-4 -91 -7 -22 -7 154 0 176 3 251 7 166 4 -85 4 -229 0 -320z
m73 -1956 c135 0 146 -4 222 -72 873 -788 2206 -800 3110 -28 l110 94 235 11
c129 7 235 5 235 -3 0 -25 -364 -370 -490 -464 -1111 -827 -2553 -719 -3565
269 -213 207 -220 223 -92 206 51 -7 157 -13 235 -13z m960 -29 c20 -31 44
-45 62 -38 20 7 30 -1 30 -26 1 -31 4 -32 20 -7 18 27 23 23 18 -13 -2 -18
321 -204 382 -220 28 -7 57 -23 67 -35 11 -16 19 -15 26 2 13 33 107 -10 107
-50 0 -25 -5 -25 -34 -1 -29 24 -32 23 -20 -8 7 -19 3 -35 -8 -35 -11 0 -15
-9 -8 -20 23 -38 -181 -23 -232 17 -55 42 -138 68 -138 43 0 -10 20 -21 45
-26 38 -7 37 -9 -11 -11 -33 -2 -60 9 -67 27 -6 16 -19 25 -29 19 -10 -6 -34
-2 -53 9 -28 16 -29 21 -5 22 17 1 -51 32 -149 69 -98 38 -188 63 -198 57 -11
-7 -13 -2 -5 11 8 13 2 23 -15 23 -16 0 -35 11 -41 25 -10 20 -14 20 -24 0
-19 -41 -54 -28 -42 15 6 22 2 41 -8 43 -37 5 -49 9 -94 34 -25 14 -40 33 -34
43 6 9 -10 21 -35 26 -29 5 -17 11 35 14 l80 6 -90 14 c-62 10 -9 15 173 17
258 3 263 2 295 -46z m2122 29 l-100 -14 100 -6 c72 -4 84 -8 42 -15 -43 -6
-51 -13 -31 -26 26 -15 -38 -55 -111 -69 -11 -2 -27 -5 -36 -7 -8 -2 -6 -21 6
-43 17 -31 15 -40 -8 -40 -16 0 -33 11 -39 25 -6 16 -16 18 -26 5 -16 -19
-156 -91 -197 -102 -73 -18 -235 -85 -210 -87 24 -2 23 -6 -5 -23 -19 -11 -44
-15 -54 -9 -10 7 -24 2 -32 -11 -8 -13 -19 -15 -26 -3 -17 25 -148 -10 -133
-36 7 -10 -5 -19 -26 -19 -21 0 -82 -6 -134 -13 -71 -10 -92 -7 -82 10 8 13 6
23 -4 23 -11 0 -19 22 -19 49 0 55 55 90 56 35 0 -31 3 -31 25 -2 13 17 48 37
78 45 29 7 67 27 84 44 17 17 38 31 46 31 38 2 243 128 240 147 -2 12 7 19 21
16 14 -3 25 4 25 16 0 11 11 19 25 18 51 -7 77 2 65 21 -7 11 4 20 24 20 30 1
31 4 6 20 -20 13 63 18 250 17 195 -2 250 -7 180 -17z"/>
<path d="M848 3020 c0 -137 3 -194 7 -125 4 69 4 181 0 250 -4 69 -7 13 -7
-125z"/>
<path d="M2882 5545 c-60 -107 -206 -361 -326 -563 -119 -203 -213 -372 -209
-376 4 -4 79 36 165 89 87 53 232 139 323 191 l165 95 195 -113 c107 -62 227
-131 265 -153 39 -22 95 -58 126 -80 95 -67 81 -33 -142 347 -120 202 -266
456 -326 563 -59 107 -112 194 -118 194 -5 0 -59 -87 -118 -194z m196 -272
c64 -104 57 -155 -18 -133 -34 10 -86 10 -120 0 -38 -11 -60 -10 -60 3 0 10
-11 13 -25 4 -18 -10 -17 -5 2 18 14 18 20 44 12 57 -9 14 -7 19 4 12 11 -6
35 15 54 47 46 78 100 75 151 -8z"/>
<path d="M2540 4569 c-236 -137 -585 -337 -774 -444 l-344 -195 -1 -935 c-1
-514 6 -935 14 -935 19 0 864 -483 1412 -808 102 -60 166 -86 180 -75 13 10
113 70 223 134 110 63 335 193 500 289 165 95 411 238 547 317 136 79 255 143
265 143 10 0 18 400 18 937 l0 937 -52 23 c-28 13 -378 212 -777 443 -399 231
-738 420 -754 419 -15 0 -220 -112 -457 -250z m1146 -291 c365 -211 685 -397
710 -415 l46 -33 0 -830 0 -830 -46 -32 c-90 -64 -1375 -798 -1396 -798 -11 0
-280 150 -596 334 -315 183 -630 364 -698 401 -69 37 -130 75 -136 85 -25 41
-11 1667 15 1690 14 13 192 118 395 235 204 116 510 293 680 392 171 100 321
181 336 182 14 1 324 -171 690 -381z"/>
<path d="M1880 3771 c0 -4 52 -37 115 -73 63 -35 315 -181 559 -323 l445 -258
245 145 c135 79 384 223 553 320 169 97 313 181 319 187 6 6 -495 11 -1113 11
-618 0 -1123 -4 -1123 -9z m1449 -209 c13 -22 -71 -84 -164 -121 -36 -14 -72
-36 -79 -47 -8 -13 0 -16 21 -8 37 14 38 11 21 -34 -7 -18 -25 -32 -41 -32
-16 0 -24 8 -18 19 6 10 4 23 -6 29 -10 7 -23 -7 -29 -30 -15 -55 -82 -42 -90
17 -4 25 -15 46 -25 48 -41 5 -53 10 -154 66 -179 98 -152 111 237 111 174 0
321 -8 327 -18z"/>
<path d="M1760 3590 c0 -7 17 -38 38 -67 20 -29 138 -228 262 -443 124 -214
241 -417 260 -450 19 -33 153 -266 297 -518 145 -252 267 -463 272 -468 6 -5
8 285 6 645 l-5 654 -350 201 c-339 193 -642 371 -735 432 -25 16 -45 22 -45
14z m701 -622 c99 -58 127 -67 141 -45 12 18 17 19 18 3 0 -13 23 -47 51 -75
28 -28 41 -51 30 -51 -13 0 -21 -74 -21 -198 0 -186 -2 -198 -39 -188 -21 5
-34 21 -28 35 5 14 -19 54 -53 88 -35 34 -57 72 -50 83 7 11 4 20 -7 20 -11 0
-26 26 -33 59 -9 43 -21 55 -45 46 -24 -9 -29 -3 -19 22 9 22 2 34 -22 35 -32
2 -32 3 1 12 32 8 30 15 -12 72 -115 155 -84 183 88 82z"/>
<path d="M4060 3496 c-93 -56 -341 -200 -550 -320 -209 -120 -387 -225 -395
-233 -9 -9 -13 -307 -10 -664 l5 -649 57 110 c76 144 880 1541 963 1671 70
109 115 190 106 188 -3 0 -82 -47 -176 -103z m-380 -482 c0 -14 -15 -47 -33
-73 -19 -26 -23 -41 -10 -33 12 8 23 5 23 -5 0 -11 -18 -26 -40 -33 -49 -16
-53 -50 -5 -51 33 0 33 -1 0 -21 -19 -11 -35 -33 -35 -48 0 -17 -12 -24 -28
-18 -20 8 -42 -18 -69 -80 -22 -50 -70 -134 -107 -186 l-66 -96 -10 220 c-10
211 -3 348 15 295 5 -14 17 -25 28 -25 11 0 14 9 7 20 -7 11 8 20 34 20 26 0
69 16 97 35 131 93 199 120 199 79z"/>
<path d="M1091 2445 c-98 -173 -244 -427 -325 -563 -81 -136 -144 -251 -140
-255 5 -4 304 -5 666 -2 l658 5 -337 190 -336 190 6 375 c4 206 3 375 -3 375
-5 0 -90 -142 -189 -315z m49 -391 c0 -24 -7 -35 -15 -24 -8 11 -26 20 -40 20
-14 0 -23 9 -20 20 3 11 12 18 20 15 8 -3 15 5 15 16 0 12 9 16 20 9 11 -7 20
-32 20 -56z m-7 -61 c43 -14 78 -98 56 -134 -6 -10 3 -19 20 -19 17 0 31 -8
31 -19 0 -10 16 -22 35 -27 19 -5 -50 -10 -155 -11 -110 -2 -179 5 -163 15 21
13 20 19 -7 29 -18 7 -26 23 -19 35 10 16 19 14 31 -5 13 -20 17 -17 18 14 0
22 13 59 29 82 16 23 25 46 20 51 -13 13 52 6 104 -11z"/>
<path d="M4717 2385 l7 -375 -336 -190 -336 -190 657 -5 c361 -3 660 -2 665 2
4 4 -59 119 -140 255 -81 136 -227 390 -325 563 -99 173 -184 315 -189 315 -6
0 -7 -169 -3 -375z m268 -421 c17 -14 29 -48 26 -75 -3 -31 5 -49 22 -49 15 0
27 -13 27 -30 0 -25 -32 -30 -175 -28 -96 2 -159 7 -140 12 20 5 30 17 24 28
-6 10 7 18 30 18 22 0 41 9 41 19 0 11 -13 15 -28 9 -15 -6 -35 0 -43 14 -10
15 -7 19 8 10 15 -10 28 6 35 43 13 64 111 80 173 29z"/>
</g>
</svg>
