<?xml version="1.0" standalone="no"?>
<!DOCTYPE svg PUBLIC "-//W3C//DTD SVG 20010904//EN"
 "http://www.w3.org/TR/2001/REC-SVG-20010904/DTD/svg10.dtd">
<svg version="1.0" xmlns="http://www.w3.org/2000/svg"
 width="672.000000pt" height="705.000000pt" viewBox="0 0 672.000000 705.000000"
 preserveAspectRatio="xMidYMid meet">
<metadata>
Created by potrace 1.10, written by Peter Selinger 2001-2011
</metadata>
<g transform="translate(0.000000,705.000000) scale(0.100000,-0.100000)"
fill="#499697" stroke="none">
<path d="M1823 4684 c-7 -3 -13 -14 -13 -24 0 -19 25 -34 42 -24 18 11 78 -7
88 -26 16 -29 23 -547 11 -746 -11 -188 -24 -237 -75 -292 -66 -72 -68 -72
-428 -72 -285 0 -330 2 -373 18 -194 69 -288 270 -224 477 29 95 90 155 180
176 61 15 64 17 67 47 3 31 2 32 -33 32 -36 0 -137 -30 -178 -53 -84 -46 -135
-100 -176 -184 -29 -58 -31 -71 -31 -168 0 -98 2 -110 32 -171 21 -42 51 -83
85 -114 58 -53 88 -70 178 -103 58 -21 74 -22 440 -22 l380 0 55 35 c124 78
207 172 250 279 19 48 20 75 21 379 1 180 4 374 8 430 3 57 3 106 0 108 -4 2
-58 6 -120 8 -63 2 -127 6 -144 9 -16 4 -36 4 -42 1z"/>
<path d="M2273 4670 c-18 -19 -4 -40 29 -40 16 0 42 -7 58 -15 l30 -16 0 -549
c0 -618 5 -580 -76 -580 -44 0 -45 -1 -42 -27 3 -32 -10 -30 196 -15 l104 7
-2 610 c0 335 -3 611 -6 614 -2 3 -48 5 -102 6 -53 1 -115 5 -137 9 -27 5 -44
4 -52 -4z"/>
<path d="M4280 4671 c-23 -16 1 -46 37 -46 16 0 41 -8 56 -18 l27 -17 0 -544
c0 -613 5 -576 -78 -576 -40 0 -42 -1 -42 -30 0 -36 9 -37 106 -14 47 10 87
13 131 8 l63 -6 -2 618 -3 619 -100 1 c-55 0 -118 4 -140 8 -23 4 -46 2 -55
-3z"/>
<path d="M1375 4251 c-64 -11 -111 -45 -139 -100 -22 -41 -20 -77 5 -117 24
-40 19 -54 -22 -54 -22 0 -29 -5 -29 -19 0 -10 6 -21 13 -23 6 -2 84 -1 172 2
l160 5 0 50 c0 44 -3 50 -22 53 -15 2 -23 -2 -23 -12 0 -23 -40 -46 -81 -46
-56 0 -99 40 -99 91 0 25 8 51 22 70 38 51 135 62 159 18 11 -21 26 -24 48
-10 13 8 12 15 -4 50 -10 23 -25 41 -34 41 -9 0 -32 2 -51 4 -19 3 -53 1 -75
-3z"/>
<path d="M3505 4234 c-38 -7 -89 -13 -112 -13 -23 -1 -45 -6 -49 -13 -12 -18
-4 -201 9 -216 9 -11 13 -11 24 4 7 10 13 28 13 40 0 37 32 80 74 102 107 55
294 54 403 -3 82 -42 143 -163 143 -285 0 -149 -81 -277 -219 -343 -58 -28
-78 -32 -170 -35 -151 -6 -216 26 -240 116 -5 20 -15 28 -34 30 -24 3 -27 0
-27 -27 0 -16 4 -33 10 -36 5 -3 12 -28 16 -55 4 -33 14 -56 31 -72 24 -22 29
-23 226 -23 219 1 259 8 374 71 49 27 153 121 153 138 0 5 6 17 13 25 31 38
49 120 45 204 -3 69 -9 93 -37 150 -61 122 -178 204 -341 238 -99 21 -206 22
-305 3z"/>
<path d="M2782 4231 c-8 -5 -12 -17 -10 -27 3 -16 12 -19 55 -19 29 0 58 -6
64 -12 7 -7 16 -34 20 -60 11 -65 10 -365 -1 -599 -8 -184 -10 -193 -40 -257
-32 -67 -90 -127 -137 -141 -23 -7 -33 -49 -14 -60 8 -5 70 20 81 33 3 3 25
19 48 35 83 56 202 194 202 234 0 7 8 27 17 45 15 28 17 77 18 402 1 204 4
379 6 390 4 19 -3 20 -114 26 -64 4 -132 9 -150 13 -17 3 -38 2 -45 -3z"/>
<path d="M4960 3827 c-16 -4 -46 -23 -65 -43 -66 -66 -66 -65 -68 -518 -2
-313 1 -416 10 -434 7 -13 13 -29 13 -35 0 -6 23 -33 51 -59 l52 -48 82 0 c61
0 86 4 95 15 7 8 18 15 24 15 12 0 56 43 56 56 0 4 7 15 15 24 13 14 15 60 14
296 0 153 -1 290 -1 303 0 14 10 32 22 41 l21 16 -20 19 c-19 16 -21 30 -21
131 0 69 -4 115 -11 119 -11 8 -27 44 -26 60 1 11 21 9 52 -5 51 -22 91 -27
250 -28 238 -3 284 -9 318 -38 16 -14 33 -40 38 -60 8 -29 7 -41 -11 -68 -29
-48 -58 -63 -131 -69 -35 -3 -86 -10 -114 -16 -27 -6 -64 -13 -82 -17 -24 -4
-39 -1 -61 14 -42 30 -76 36 -92 17 -7 -9 -28 -22 -47 -30 -36 -15 -41 -26
-20 -44 19 -15 213 -27 229 -13 9 7 46 8 123 1 133 -11 187 -1 239 47 20 18
36 37 36 42 0 5 7 15 15 22 11 9 15 33 15 88 0 87 -16 122 -83 174 l-41 33
-423 0 c-233 0 -436 -3 -453 -8z m187 -119 c39 -18 56 -75 50 -160 -3 -36 -11
-75 -18 -86 -10 -16 -10 -24 2 -44 14 -21 13 -28 -2 -68 -15 -41 -20 -45 -48
-44 -37 2 -38 -5 -10 -37 11 -13 32 -43 46 -67 24 -40 25 -46 13 -85 -7 -23
-14 -60 -15 -82 -8 -131 -17 -164 -54 -201 -59 -57 -107 -58 -150 -3 -34 43
-40 89 -41 289 0 136 -4 193 -19 255 -11 44 -17 83 -15 87 3 4 27 -6 55 -23
40 -23 54 -27 65 -18 21 18 17 36 -15 58 -29 21 -45 52 -55 109 -6 35 7 64 53
115 24 27 30 29 78 24 29 -3 65 -11 80 -19z"/>
<path d="M5562 3334 c6 -13 15 -24 20 -24 4 0 8 -4 8 -10 0 -5 22 -33 50 -62
27 -29 52 -61 56 -70 3 -10 10 -18 15 -18 12 0 61 -50 121 -124 72 -88 76
-152 12 -213 -82 -77 -150 -54 -313 106 -112 110 -185 171 -203 171 -34 0 27
-75 208 -255 84 -84 120 -113 152 -122 54 -17 69 -16 125 3 109 37 168 151
131 254 -15 42 -44 76 -184 214 -159 157 -223 205 -198 150z"/>
<path d="M4395 3331 c-96 -34 -141 -129 -96 -203 24 -38 20 -48 -20 -48 -27 0
-30 -3 -27 -27 3 -25 6 -28 38 -25 19 2 90 3 158 2 139 -2 152 3 152 60 0 49
-26 74 -46 45 -26 -38 -35 -45 -62 -47 -87 -5 -122 22 -122 93 0 41 4 51 35
78 44 39 116 44 137 11 14 -22 38 -26 55 -9 15 15 -8 63 -36 79 -29 15 -109
11 -166 -9z"/>
<path d="M867 3293 l-58 -4 7 -32 c4 -18 7 -69 6 -114 l-2 -81 61 -7 c52 -6
62 -5 74 11 21 27 13 39 -25 39 -36 0 -57 22 -47 49 5 14 14 16 37 11 26 -6
30 -4 30 14 0 17 -6 21 -30 21 -34 0 -49 22 -30 45 9 11 17 12 32 4 21 -11 37
1 38 27 0 10 -28 28 -33 22 -1 -1 -28 -3 -60 -5z"/>
<path d="M2473 3293 c-7 -2 -23 -22 -35 -44 -30 -54 -53 -41 -37 21 3 11 -6
16 -35 18 l-39 3 9 -33 c10 -40 10 -133 -1 -170 -7 -27 -6 -28 33 -28 l40 0
-9 35 c-17 59 0 61 52 6 37 -39 55 -51 79 -51 38 0 40 22 4 47 -15 10 -45 35
-68 56 l-41 37 26 23 c14 12 39 32 55 44 24 19 27 24 14 32 -16 11 -28 12 -47
4z"/>
<path d="M1085 3176 l0 -115 64 -7 c52 -5 70 -3 94 11 59 35 72 56 72 114 0
49 -3 56 -35 82 -31 27 -41 29 -115 29 l-80 0 0 -114z m146 55 c45 -45 35
-108 -21 -131 -48 -20 -64 2 -61 81 1 35 4 66 7 71 11 17 47 7 75 -21z"/>
<path d="M1430 3276 c0 -8 5 -18 11 -22 8 -5 10 -36 6 -100 l-5 -94 34 0 c37
0 39 5 24 46 -20 51 5 48 59 -5 51 -51 91 -66 91 -35 0 9 -18 33 -40 53 -43
39 -45 55 -12 94 14 16 14 20 -5 45 -18 24 -27 27 -92 30 -57 2 -71 0 -71 -12z
m115 -50 c8 -23 6 -30 -10 -42 -26 -20 -32 -18 -38 12 -12 62 27 88 48 30z"/>
<path d="M1797 3284 c-4 -4 -7 -16 -7 -27 0 -10 -7 -31 -15 -45 -8 -15 -20
-38 -25 -52 -6 -14 -19 -41 -30 -60 -21 -40 -13 -55 24 -46 19 5 26 13 26 29
0 13 11 34 24 46 22 20 25 21 40 6 9 -9 16 -22 16 -29 0 -20 44 -56 68 -56 27
0 27 15 1 55 -10 17 -22 37 -25 45 -35 79 -42 98 -46 115 -3 20 -37 32 -51 19z
m18 -102 c0 -18 -20 -15 -23 4 -3 10 1 15 10 12 7 -3 13 -10 13 -16z"/>
<path d="M2082 3252 c-7 -21 -28 -69 -47 -106 -39 -76 -43 -96 -17 -96 27 0
40 13 48 45 14 57 64 65 80 13 10 -35 34 -58 60 -58 32 0 34 10 13 45 -24 39
-48 89 -68 145 -23 61 -53 67 -69 12z m33 -70 c0 -18 -20 -15 -23 4 -3 10 1
15 10 12 7 -3 13 -10 13 -16z"/>
</g>
</svg>
