 <svg  version="1.0" xmlns="http://www.w3.org/2000/svg"  width="900.000000pt" height="675.000000pt" viewBox="0 0 900.000000 675.000000"  preserveAspectRatio="xMidYMid meet">  <g transform="translate(0.000000,675.000000) scale(0.100000,-0.100000)" fill="#ebe0e0" stroke="none"> <path d="M2952 4828 c-6 -6 -30 -15 -54 -19 -62 -11 -128 -29 -166 -45 -18 -8 -47 -14 -65 -14 -18 0 -41 -7 -51 -15 -11 -8 -34 -15 -50 -15 -17 -1 -42 -7 -56 -15 -14 -8 -38 -14 -53 -15 -16 0 -37 -5 -48 -11 -11 -6 -41 -14 -67 -19 -26 -5 -78 -18 -117 -30 -38 -12 -86 -25 -105 -30 -168 -43 -168 -43 -230 -119 -14 -17 -32 -38 -40 -48 -16 -17 -27 -37 -55 -90 -33 -63 -44 -68 -195 -73 l-137 -5 -61 -48 c-68 -53 -682 -664 -723 -718 -40 -54 -79 -126 -79 -146 1 -24 37 -91 75 -138 37 -46 399 -406 420 -417 8 -5 15 -13 15 -17 0 -11 176 -187 237 -237 107 -88 126 -96 258 -105 66 -5 130 -11 141 -14 14 -3 38 -32 65 -77 54 -90 136 -172 198 -198 25 -11 58 -27 74 -35 15 -8 34 -12 42 -9 15 6 79 -11 186 -47 31 -10 64 -19 74 -19 9 0 38 -7 64 -15 25 -7 66 -19 91 -25 66 -16 165 -43 325 -88 136 -39 179 -45 217 -33 55 18 123 96 143 166 10 33 26 83 36 110 9 28 23 77 29 110 7 33 18 80 25 105 8 25 23 81 35 125 12 44 24 87 27 95 4 8 12 38 18 65 7 28 20 77 30 110 9 33 22 81 29 107 6 26 17 53 24 60 6 6 12 33 12 59 0 26 5 51 10 54 6 3 10 14 10 24 0 19 -42 105 -64 131 -7 8 -16 22 -20 30 -3 8 -17 35 -31 59 -33 58 -32 89 6 153 18 29 45 78 62 108 16 30 33 58 38 61 11 7 -12 154 -29 186 -7 12 -12 37 -12 57 0 19 -4 37 -9 40 -5 4 -12 25 -16 49 -3 23 -10 51 -15 62 -5 11 -13 40 -19 65 -5 25 -17 70 -26 100 -22 72 -44 153 -59 215 -7 28 -18 63 -24 78 -7 16 -12 38 -12 50 -1 12 -7 33 -15 47 -8 14 -15 41 -15 60 0 19 -7 44 -15 54 -8 11 -15 30 -15 43 0 17 -8 27 -29 34 -16 6 -43 28 -60 50 -32 38 -33 39 -99 39 -38 0 -73 -5 -80 -12z m159 -139 c4 -26 12 -56 18 -67 6 -11 11 -31 11 -43 0 -11 6 -42 14 -68 8 -25 21 -71 29 -101 8 -30 22 -81 31 -113 8 -31 23 -83 31 -115 9 -31 23 -78 31 -103 7 -26 14 -57 14 -70 1 -13 7 -35 15 -49 8 -14 14 -36 15 -49 0 -21 12 -67 42 -156 35 -105 34 -121 -12 -190 -11 -16 -24 -39 -30 -50 -6 -11 -19 -33 -30 -50 -11 -16 -24 -40 -29 -52 -5 -11 -15 -24 -20 -28 -16 -9 -13 -51 3 -64 8 -7 17 -23 20 -36 4 -14 11 -25 16 -25 6 0 10 -4 10 -9 0 -14 71 -135 84 -143 16 -11 11 -100 -8 -136 -9 -17 -16 -44 -16 -59 -1 -15 -7 -39 -15 -53 -8 -14 -14 -36 -15 -49 0 -13 -7 -44 -14 -70 -8 -25 -22 -73 -31 -106 -9 -33 -23 -80 -31 -105 -8 -25 -14 -55 -14 -66 0 -12 -7 -35 -15 -50 -8 -16 -15 -40 -15 -53 0 -13 -7 -44 -14 -70 -8 -25 -22 -71 -30 -101 -8 -30 -22 -79 -30 -109 -9 -29 -16 -66 -16 -82 0 -26 -3 -29 -34 -29 -18 0 -47 7 -62 15 -16 8 -40 15 -54 15 -14 1 -36 7 -50 15 -14 8 -36 14 -49 15 -13 0 -46 7 -75 16 -28 9 -71 22 -96 30 -25 8 -55 14 -66 14 -12 0 -35 7 -50 15 -16 8 -40 15 -53 15 -13 0 -44 7 -70 14 -44 14 -91 27 -218 62 -32 8 -79 22 -104 30 -26 8 -59 14 -74 14 -36 0 -85 30 -85 52 0 9 -5 20 -11 23 -5 4 -14 17 -19 28 -6 12 -26 49 -45 82 -19 33 -39 70 -44 82 -6 11 -15 24 -22 28 -6 4 -82 7 -169 6 l-158 -2 -364 363 c-200 200 -385 383 -411 406 -26 24 -47 48 -47 53 0 4 10 14 23 20 12 6 195 184 407 395 l386 384 159 0 c88 0 165 4 172 8 6 4 17 19 23 32 5 14 19 39 30 55 11 17 31 53 45 80 49 93 61 110 91 118 16 5 50 15 75 23 26 8 55 14 65 14 11 0 39 6 64 14 25 8 72 22 105 31 33 9 81 23 106 31 26 7 57 14 70 14 13 1 35 7 49 15 14 8 37 14 52 15 15 0 45 6 65 14 44 15 111 34 168 46 40 8 51 11 160 48 33 12 71 20 85 19 22 -2 26 -8 31 -48z"/> <path d="M2650 4325 c-48 -26 -135 -53 -235 -75 -60 -13 -126 -30 -160 -42 -16 -5 -51 -14 -77 -18 -27 -5 -53 -12 -59 -16 -11 -6 -97 -28 -174 -43 -22 -4 -53 -15 -70 -23 -39 -21 -625 -607 -625 -626 0 -10 7 -12 22 -8 63 19 258 27 578 24 195 -2 360 0 367 5 6 4 23 31 38 60 14 28 34 66 45 82 11 17 24 39 30 50 5 11 26 47 45 80 19 33 39 69 45 80 6 11 19 34 30 50 11 17 24 39 30 50 6 11 24 43 41 70 16 28 35 61 42 75 6 14 17 31 24 38 7 7 13 18 13 23 0 9 47 77 80 116 12 14 14 63 3 62 -5 0 -19 -7 -33 -14z m-230 -225 c0 -10 -12 -41 -27 -67 -14 -26 -31 -57 -36 -68 -17 -33 -43 -77 -99 -165 -21 -33 -38 -62 -38 -65 0 -12 -82 -114 -96 -119 -21 -8 -528 -8 -548 0 -9 3 -16 12 -16 19 0 17 307 333 352 361 21 13 45 24 54 24 9 0 30 7 47 14 18 8 55 19 82 24 28 6 86 19 130 31 80 20 117 27 168 30 21 1 27 -4 27 -19z"/> <path d="M2923 4172 c-7 -4 -35 -52 -63 -107 -28 -55 -57 -107 -65 -116 -8 -8 -15 -21 -15 -27 0 -6 -12 -30 -27 -54 -45 -69 -52 -82 -63 -103 -6 -11 -24 -42 -41 -70 -16 -27 -37 -63 -45 -80 -8 -16 -23 -43 -34 -60 -11 -16 -24 -39 -30 -50 -6 -11 -19 -33 -30 -50 -11 -16 -24 -40 -30 -52 -5 -13 -14 -23 -20 -23 -19 0 -10 -42 18 -79 33 -44 47 -66 66 -106 8 -16 29 -52 45 -80 17 -27 35 -59 41 -70 6 -11 19 -33 30 -50 11 -16 24 -39 30 -50 5 -11 26 -47 45 -80 19 -33 39 -69 45 -80 6 -11 24 -42 40 -70 32 -53 75 -138 84 -167 7 -22 42 -23 50 -2 3 9 6 29 6 46 0 17 7 56 16 87 9 31 23 81 31 111 8 30 19 69 25 85 6 17 13 48 17 70 4 22 13 50 19 62 7 12 12 33 12 46 0 14 7 38 15 53 8 16 15 39 15 52 0 13 5 32 10 43 6 10 15 38 20 61 5 24 12 56 16 71 4 16 1 47 -5 70 -7 23 -19 67 -27 97 -9 30 -20 69 -26 85 -5 17 -13 46 -17 65 -4 19 -12 51 -18 70 -6 19 -18 60 -26 90 -30 110 -48 176 -63 221 -7 26 -14 63 -14 82 0 58 -11 76 -37 59z m-15 -347 c2 -11 10 -33 17 -50 7 -16 22 -64 34 -105 12 -41 26 -89 31 -106 6 -17 10 -41 10 -55 1 -13 7 -35 15 -49 18 -32 19 -152 1 -193 -13 -32 -31 -93 -45 -157 -4 -19 -13 -45 -19 -57 -7 -12 -12 -34 -13 -50 -1 -44 -34 -128 -51 -131 -10 -2 -28 18 -49 55 -19 32 -39 67 -46 78 -7 11 -17 29 -23 40 -6 11 -19 34 -30 50 -11 17 -24 40 -30 53 -5 12 -14 22 -20 22 -5 0 -10 6 -10 14 0 8 -6 21 -12 28 -26 28 -78 127 -78 147 0 12 56 118 74 141 7 8 21 33 31 55 11 22 32 57 48 79 15 21 27 43 27 48 0 5 24 45 52 89 52 79 79 96 86 54z"/> <path d="M1250 3213 c0 -6 14 -24 32 -40 18 -15 154 -150 303 -299 257 -257 273 -272 325 -287 116 -33 166 -46 190 -51 39 -8 110 -26 160 -42 25 -8 55 -14 68 -14 13 0 33 -5 45 -12 12 -6 40 -15 62 -19 64 -12 128 -30 160 -45 77 -35 127 -24 88 19 -21 23 -74 102 -86 127 -4 8 -16 29 -26 45 -11 17 -31 50 -44 75 -14 25 -34 61 -46 80 -11 19 -25 44 -31 55 -6 11 -19 34 -30 50 -11 17 -24 39 -30 50 -6 11 -19 34 -30 50 -10 17 -31 53 -45 80 -39 75 -52 96 -64 108 -6 6 -11 18 -11 27 0 9 -8 24 -18 33 -15 14 -76 16 -495 19 -358 2 -477 0 -477 -9z m898 -138 c28 -24 107 -150 185 -295 19 -36 46 -87 61 -114 15 -27 25 -55 22 -62 -6 -16 -96 -20 -111 -5 -10 10 -48 21 -159 46 -32 8 -63 18 -69 24 -6 6 -28 11 -48 11 -56 0 -120 34 -194 102 -86 80 -88 82 -158 159 -32 35 -72 79 -89 96 -55 58 -43 61 261 62 l269 2 30 -26z"/> <path d="M6197 4396 c-22 -8 -62 -39 -92 -70 -52 -56 -53 -58 -60 -134 -7 -84 3 -127 36 -152 11 -9 22 -32 26 -53 5 -31 1 -42 -17 -62 -33 -35 -69 -32 -110 10 -19 19 -40 35 -47 35 -6 0 -13 3 -15 8 -6 14 -94 50 -153 62 -105 21 -186 23 -245 6 -29 -9 -66 -16 -81 -16 -16 0 -37 -9 -48 -21 -19 -21 -69 -24 -63 -4 2 6 -14 13 -35 17 -49 9 -250 8 -283 -1 l-25 -7 25 -7 25 -7 -24 -14 c-30 -16 -67 -4 -74 25 -5 17 -16 19 -129 18 -126 0 -153 -5 -153 -26 0 -6 -21 -34 -47 -61 -26 -27 -51 -60 -56 -73 -5 -13 -10 -132 -10 -264 -1 -132 -5 -279 -8 -327 -6 -78 -9 -89 -35 -114 -41 -40 -124 -46 -163 -13 -38 34 -45 102 -46 450 l0 287 -46 37 c-26 21 -53 53 -60 72 l-15 34 -137 -3 c-128 -3 -137 -4 -140 -23 -4 -23 -71 -95 -88 -95 -7 0 -15 -7 -18 -16 -3 -9 -6 -189 -6 -401 0 -407 2 -433 49 -533 56 -119 179 -242 277 -277 16 -5 45 -16 64 -22 19 -7 85 -15 146 -18 102 -5 117 -4 195 22 46 15 88 31 94 36 15 14 37 11 80 -12 35 -19 50 -21 131 -16 68 5 101 12 128 28 l36 21 50 -21 c58 -25 149 -36 212 -27 37 6 56 18 109 68 l64 60 1 312 c0 358 4 381 67 427 57 42 97 39 149 -10 l42 -38 -2 -324 c-1 -240 1 -331 11 -351 6 -15 36 -52 65 -82 l52 -55 88 -7 c74 -5 97 -3 149 15 76 26 101 26 126 4 16 -15 38 -18 131 -18 l111 1 68 63 c56 54 67 69 67 97 0 18 5 36 10 39 6 3 8 23 5 43 -6 44 9 214 17 192 3 -8 11 -79 16 -158 7 -84 17 -150 24 -161 7 -10 37 -40 67 -67 53 -48 53 -48 136 -52 102 -5 140 7 191 59 21 22 48 44 60 49 21 8 21 13 23 382 l2 373 25 23 c37 32 84 24 84 -15 0 -7 14 -41 30 -75 17 -34 30 -66 30 -71 0 -5 6 -23 13 -40 36 -85 77 -195 77 -208 0 -8 7 -24 15 -35 8 -10 15 -25 15 -32 0 -15 21 -67 46 -115 8 -16 14 -38 14 -50 0 -12 7 -31 15 -41 8 -11 15 -29 15 -41 0 -12 -7 -30 -15 -41 -8 -10 -15 -29 -15 -40 0 -12 -7 -27 -15 -34 -8 -7 -15 -20 -15 -29 0 -9 -7 -25 -15 -35 -8 -11 -15 -32 -15 -48 0 -15 -4 -28 -9 -28 -13 0 -28 -54 -34 -120 l-5 -55 57 -56 c63 -61 85 -69 201 -69 51 0 74 6 108 25 59 34 131 97 132 115 0 8 9 32 20 53 11 20 20 43 20 51 0 8 7 16 15 20 9 3 15 19 15 41 0 19 4 43 9 53 10 18 45 95 66 147 7 17 20 47 29 68 9 21 16 46 16 55 0 10 4 22 9 27 4 6 13 24 19 40 6 17 20 55 32 85 11 30 28 75 37 100 8 25 23 63 33 85 9 22 32 78 49 125 18 47 36 94 41 105 5 11 19 45 30 75 12 30 26 64 30 75 32 75 63 187 64 227 1 45 -2 50 -59 108 l-59 60 -113 0 -114 0 -36 -32 c-61 -55 -113 -111 -113 -122 0 -6 -9 -28 -20 -49 -11 -20 -20 -45 -20 -55 0 -10 -6 -26 -14 -37 -7 -11 -16 -31 -19 -45 -8 -38 -32 -99 -43 -110 -19 -18 -54 26 -80 100 -14 41 -30 79 -35 84 -5 6 -9 19 -9 31 0 11 -6 29 -14 40 -7 11 -16 31 -19 45 -4 14 -37 53 -74 85 l-67 60 -116 3 c-96 3 -118 1 -129 -12 -8 -9 -29 -16 -51 -16 -57 0 -68 24 -72 162 -3 109 -5 118 -28 140 -14 12 -40 41 -57 63 l-33 39 -105 4 c-57 3 -115 2 -129 -2 -13 -3 -48 -35 -79 -70 -58 -69 -62 -80 -72 -231 -2 -40 -8 -53 -31 -72 -30 -24 -54 -30 -54 -14 0 5 11 29 25 52 27 49 31 87 14 157 -12 49 -77 143 -115 169 -32 21 -180 27 -227 9z m243 -231 l0 -125 -140 0 -140 0 0 125 0 125 140 0 140 0 0 -125z m539 -72 l-3 -198 59 0 59 0 7 -38 c3 -21 11 -43 18 -50 6 -6 11 -19 11 -28 0 -10 8 -31 17 -48 27 -47 11 -56 -79 -44 -40 6 -77 7 -81 3 -5 -4 -8 -210 -7 -458 l1 -451 -131 -3 c-72 -2 -134 -2 -138 -1 -4 2 -6 210 -4 463 l3 460 -58 -7 c-32 -4 -74 -8 -93 -8 l-35 0 0 110 0 110 60 -4 c33 -3 74 -5 90 -5 l30 -1 1 190 c1 105 2 193 3 198 0 4 62 7 137 7 l136 0 -3 -197z m-1266 -164 c70 -11 171 -53 211 -88 29 -25 96 -119 96 -134 0 -8 7 -29 17 -47 17 -35 19 -70 27 -623 l3 -258 -141 3 -141 3 2 25 c1 14 6 139 9 278 10 360 -9 490 -81 542 -54 40 -86 50 -160 50 -120 0 -198 -53 -231 -157 -17 -52 -19 -95 -19 -401 l0 -342 -138 0 -137 0 2 562 3 561 123 1 c82 1 127 -3 133 -10 6 -8 4 -27 -6 -55 -27 -79 -11 -106 30 -52 65 87 119 120 220 138 92 17 94 17 178 4z m2587 -21 c0 -7 -13 -40 -29 -73 -15 -33 -36 -80 -46 -105 -9 -25 -23 -57 -31 -72 -8 -14 -14 -34 -14 -45 0 -10 -7 -27 -15 -37 -8 -11 -15 -28 -15 -37 0 -10 -7 -31 -15 -48 -8 -17 -22 -45 -30 -62 -8 -17 -15 -38 -15 -47 0 -9 -7 -26 -15 -36 -8 -11 -15 -28 -15 -37 0 -10 -6 -30 -14 -46 -8 -15 -22 -48 -31 -73 -10 -25 -23 -57 -31 -72 -8 -14 -14 -33 -14 -41 0 -9 -7 -29 -15 -46 -8 -17 -22 -45 -30 -62 -8 -17 -15 -38 -15 -48 0 -9 -7 -26 -15 -37 -8 -10 -15 -27 -15 -36 0 -9 -6 -29 -14 -45 -8 -15 -22 -48 -31 -73 -9 -25 -23 -58 -31 -73 -8 -16 -14 -36 -14 -45 0 -9 -7 -26 -15 -36 -8 -11 -15 -29 -15 -40 0 -12 -7 -30 -15 -40 -8 -11 -15 -29 -15 -40 0 -12 -8 -31 -18 -43 -16 -20 -27 -22 -154 -24 -76 -2 -141 0 -144 4 -4 4 11 45 34 91 23 46 42 91 42 99 0 8 7 20 15 27 8 7 15 23 15 35 0 12 7 28 15 35 8 7 15 20 15 30 0 9 11 38 25 64 30 57 30 59 0 121 -14 28 -25 55 -25 62 0 6 -7 25 -15 42 -8 17 -22 45 -30 62 -8 17 -15 38 -15 48 0 9 -7 26 -15 37 -8 10 -15 27 -15 36 0 9 -6 29 -14 45 -8 15 -22 48 -31 73 -9 25 -23 58 -31 73 -8 16 -14 35 -14 42 0 7 -7 27 -15 44 -8 17 -22 45 -30 62 -8 17 -15 38 -15 48 0 9 -7 26 -15 37 -8 10 -15 27 -15 36 0 9 -6 29 -14 45 -8 15 -22 48 -31 73 -9 25 -21 52 -26 60 -18 30 -30 64 -26 74 6 16 272 13 291 -3 8 -6 16 -26 19 -44 2 -18 15 -57 27 -87 12 -30 24 -66 27 -80 3 -14 12 -34 19 -45 8 -11 14 -29 14 -40 0 -12 7 -30 15 -41 8 -10 15 -27 15 -37 0 -11 6 -31 14 -45 16 -31 35 -84 45 -127 4 -17 13 -40 19 -52 7 -12 12 -31 12 -43 0 -30 28 -80 45 -80 8 0 15 8 15 19 0 20 25 109 42 151 6 14 14 39 18 55 5 17 18 55 30 85 12 30 24 66 27 80 3 14 10 30 15 37 6 7 14 27 18 45 11 45 30 98 46 130 8 14 14 34 14 45 1 10 9 34 18 53 l17 35 110 -3 c63 -2 116 2 125 7 21 15 60 14 60 -1z m-4133 -11 c3 -4 5 -151 4 -328 -3 -394 7 -454 89 -519 55 -43 124 -56 211 -40 64 12 77 19 118 60 77 77 83 114 81 496 -1 175 -1 324 -1 329 1 6 53 10 136 10 l135 0 0 -562 0 -563 -129 0 c-72 0 -132 4 -135 9 -3 5 1 31 9 57 17 57 19 84 5 84 -13 0 -50 -37 -50 -49 0 -18 -91 -89 -138 -107 -36 -14 -76 -18 -167 -18 -119 -1 -141 4 -223 43 -83 40 -173 164 -195 271 -11 53 -26 823 -16 830 10 7 258 4 266 -3z m2271 -555 l3 -562 -138 0 -138 0 2 558 c1 306 2 559 2 562 1 3 61 5 133 4 l133 -1 3 -561z m144 116 c4 -115 0 -249 -6 -255 -12 -12 -15 4 -20 107 -5 115 2 220 15 220 5 0 10 -33 11 -72z"/> </g> </svg> 