<?xml version="1.0" standalone="no"?>
<!DOCTYPE svg PUBLIC "-//W3C//DTD SVG 20010904//EN"
 "http://www.w3.org/TR/2001/REC-SVG-20010904/DTD/svg10.dtd">
<svg version="1.0" xmlns="http://www.w3.org/2000/svg"
 width="900.000000pt" height="900.000000pt" viewBox="0 0 900.000000 900.000000"
 preserveAspectRatio="xMidYMid meet">
<metadata>
Created by potrace 1.10, written by Peter Selinger 2001-2011
</metadata>
<g transform="translate(0.000000,900.000000) scale(0.100000,-0.100000)"
fill="#c72729" stroke="none">
<path d="M4955 8918 c-18 -45 -24 -49 -49 -36 -11 7 -52 16 -91 20 -38 4 -79
8 -90 10 -14 2 -21 -3 -23 -20 -3 -22 31 -127 49 -148 18 -22 -10 -27 -147
-26 -118 1 -138 -1 -169 -19 -19 -12 -35 -23 -35 -27 0 -9 51 -75 89 -115 30
-31 33 -39 21 -47 -17 -11 -79 -30 -97 -30 -58 0 76 -120 208 -186 41 -21 94
-54 119 -73 75 -60 174 -101 241 -101 47 0 54 -11 33 -52 -16 -30 -16 -35 1
-85 10 -29 16 -56 13 -59 -3 -3 -215 -5 -469 -5 -446 0 -464 0 -467 18 -2 11
6 27 18 38 34 30 26 65 -25 108 -50 43 -57 64 -22 71 137 29 232 32 284 11 51
-22 67 -19 107 19 32 30 49 76 28 76 -5 0 -33 18 -63 41 -73 54 -135 85 -192
93 -60 9 -66 38 -12 56 34 11 108 85 128 127 15 34 -5 50 -71 56 -31 3 -91 15
-132 27 -154 44 -224 54 -355 55 l-130 1 -3 46 c-3 42 -6 47 -32 53 -40 9 -55
3 -196 -67 -76 -37 -140 -78 -171 -107 -54 -50 -113 -122 -113 -139 0 -20 -73
-71 -129 -90 -110 -38 -156 -52 -171 -52 -9 0 -49 -20 -90 -44 -74 -43 -105
-50 -77 -18 49 59 41 139 -18 191 -30 26 -44 31 -85 31 -39 0 -56 -6 -92 -33
-49 -37 -69 -72 -76 -132 -4 -36 0 -45 28 -74 18 -17 46 -35 61 -38 62 -12 51
-31 -64 -118 -48 -36 -103 -83 -121 -103 l-34 -36 24 -29 c13 -16 24 -33 24
-38 0 -5 -51 -9 -115 -9 -68 0 -115 4 -115 10 0 5 9 24 20 42 38 62 43 103 25
187 -26 114 -40 156 -56 158 -8 2 -29 -22 -48 -55 -19 -31 -41 -64 -48 -72
-27 -29 -163 -220 -163 -229 0 -5 7 -11 15 -15 8 -3 15 -10 15 -16 0 -6 -35
-10 -91 -10 l-91 0 4 -72 3 -73 -38 -3 c-29 -3 -47 -13 -76 -42 -71 -73 -74
-150 -10 -231 35 -45 36 -59 4 -89 -33 -31 -125 -165 -125 -182 0 -7 -6 -22
-13 -33 -21 -30 -37 -81 -57 -173 -22 -104 -32 -115 -56 -65 -30 59 -86 92
-160 93 -60 0 -62 -1 -112 -51 -57 -57 -69 -94 -57 -184 5 -43 13 -60 43 -89
41 -42 67 -51 123 -43 68 9 63 -25 -18 -132 -18 -25 -48 -73 -65 -109 l-32
-64 -37 39 c-20 21 -44 44 -53 51 -11 8 -14 21 -9 42 12 60 -68 140 -154 153
-60 10 -98 -1 -138 -40 -72 -70 -91 -142 -56 -218 46 -102 147 -142 225 -89
28 19 44 7 61 -49 27 -92 17 -163 -54 -362 -6 -16 -13 -42 -16 -57 -7 -36 -24
-35 -60 2 -16 17 -34 30 -41 30 -28 0 -38 29 -24 71 12 35 11 52 -5 132 -10
51 -29 115 -41 142 -30 67 -135 165 -177 165 -8 0 -20 7 -27 15 -15 19 -70 20
-70 2 0 -7 4 -17 10 -23 5 -5 14 -32 20 -59 5 -28 15 -75 21 -105 15 -73 5
-300 -15 -364 -9 -27 -13 -59 -10 -71 7 -28 -9 -40 -26 -20 -17 20 -49 19 -56
-2 -3 -10 -16 -39 -29 -64 -19 -39 -21 -54 -14 -103 12 -90 8 -526 -5 -526
-20 1 -115 36 -130 49 -12 11 -21 8 -50 -14 -36 -28 -66 -66 -66 -86 0 -7 17
-35 38 -63 40 -53 132 -201 132 -212 0 -18 102 -157 150 -205 62 -61 122 -95
188 -105 24 -4 47 -14 52 -23 5 -9 16 -62 24 -116 9 -55 21 -118 28 -141 6
-23 8 -49 5 -58 -6 -15 -11 -14 -43 10 -21 16 -60 33 -92 39 -51 10 -57 14
-67 46 -7 20 -29 47 -54 66 -55 42 -117 45 -196 8 -75 -36 -88 -61 -93 -173
l-4 -94 52 -49 c57 -53 92 -65 168 -56 38 4 53 12 78 41 17 20 39 36 48 36 9
0 56 -27 105 -60 90 -61 129 -106 175 -205 10 -22 32 -66 48 -98 22 -43 27
-62 19 -70 -8 -8 -31 10 -86 66 -43 43 -103 92 -139 112 -54 30 -72 35 -129
35 -36 0 -68 -4 -71 -8 -3 -4 10 -39 29 -78 39 -81 64 -145 74 -194 4 -19 13
-45 20 -58 11 -21 8 -42 -7 -42 -4 0 -20 12 -37 26 -66 57 -188 113 -248 114
l-27 0 6 -72 c6 -65 25 -130 71 -238 8 -19 18 -44 23 -55 35 -84 58 -127 91
-171 22 -28 39 -55 39 -61 0 -6 -13 -13 -29 -16 -45 -9 -61 -32 -61 -86 l0
-48 57 -28 c61 -29 150 -107 190 -165 125 -184 251 -309 324 -325 33 -7 45
-32 25 -54 -35 -40 -46 -81 -46 -169 0 -133 41 -225 147 -329 l73 -73 92 0
c51 0 107 4 125 9 24 7 35 6 43 -4 16 -19 5 -32 -33 -40 -99 -21 -267 -100
-267 -126 0 -5 12 -15 27 -22 16 -6 30 -14 33 -17 3 -3 34 -19 70 -36 36 -18
94 -46 130 -63 37 -18 82 -32 105 -33 55 -1 72 -12 80 -50 4 -18 20 -54 36
-79 16 -25 29 -51 29 -57 0 -18 78 -78 119 -90 21 -7 60 -15 87 -19 40 -5 66
-19 145 -79 92 -70 315 -224 324 -224 2 0 24 -13 48 -30 25 -16 48 -30 52 -30
3 0 39 -19 78 -43 80 -48 331 -172 417 -207 30 -12 69 -28 85 -35 17 -8 42
-17 58 -21 15 -3 30 -10 33 -15 3 -5 12 -9 21 -9 8 0 29 -6 46 -13 70 -30 430
-137 460 -137 9 0 36 -6 59 -13 91 -29 330 -72 448 -82 36 -3 119 -10 185 -16
228 -21 947 5 1125 42 55 11 223 60 290 84 19 7 64 22 100 34 85 26 128 41
167 58 17 7 38 13 47 13 8 0 30 6 48 14 18 8 53 22 78 31 25 9 57 23 72 31 14
8 31 14 36 14 11 0 178 76 242 109 132 70 200 107 235 130 22 14 56 34 75 44
56 31 348 225 430 287 41 31 86 60 100 63 120 29 182 54 228 95 35 32 83 121
92 172 5 33 7 35 42 32 43 -4 129 36 210 96 29 23 65 45 81 51 25 10 27 15 27
64 0 53 -1 54 -37 70 -46 20 -164 44 -255 52 -59 6 -69 4 -87 -14 -12 -12 -24
-21 -27 -21 -3 0 -41 36 -85 81 l-79 81 29 36 c15 21 31 47 35 59 11 35 38 38
60 6 36 -51 124 -132 163 -148 219 -94 384 -34 488 175 21 41 43 87 51 102 8
14 14 37 14 50 0 28 -36 155 -48 171 -25 34 -21 47 37 106 32 33 71 79 87 103
103 153 187 246 273 306 44 31 69 61 76 94 8 34 -2 68 -19 68 -7 0 -21 9 -31
20 -17 18 -16 21 13 58 49 62 103 178 121 262 4 19 12 51 18 70 6 19 19 62 29
95 9 33 26 79 37 103 27 56 15 70 -45 54 -108 -28 -136 -38 -176 -64 -24 -15
-50 -28 -58 -28 -16 0 -19 21 -5 36 5 5 35 59 66 119 32 61 61 112 65 115 4 3
10 16 11 30 4 25 3 25 -66 25 -77 -1 -149 -29 -234 -92 -61 -46 -77 -31 -45
44 56 130 67 145 144 203 70 52 97 59 116 32 29 -41 77 -62 145 -62 89 0 117
20 164 117 26 55 33 130 16 176 -15 38 -76 92 -120 105 -101 31 -193 -4 -218
-83 -9 -27 -15 -31 -66 -37 -31 -4 -78 -19 -103 -33 -59 -33 -73 -23 -50 35 9
22 16 51 16 64 0 29 28 92 55 128 12 14 64 58 115 98 202 154 224 179 310 372
6 13 16 32 23 43 7 11 25 43 41 70 49 85 109 175 118 175 4 0 8 5 8 11 0 8
-15 9 -47 5 -27 -4 -86 -11 -133 -16 -47 -5 -99 -12 -116 -16 -39 -7 -47 4
-32 47 9 28 27 329 30 519 1 43 -31 132 -51 144 -5 4 -23 -6 -40 -20 -38 -32
-37 -35 -61 166 -5 41 -13 93 -19 115 -6 22 -11 81 -12 130 -1 50 -4 124 -8
165 -5 68 -8 75 -28 78 -17 3 -26 -3 -33 -23 -5 -14 -26 -51 -47 -83 -99 -153
-135 -247 -132 -344 l2 -67 -47 -45 c-25 -25 -46 -50 -46 -56 0 -5 -6 -10 -13
-10 -18 0 -35 58 -40 135 -4 53 -13 81 -50 162 -7 16 -7 34 1 60 6 21 14 49
18 63 11 43 31 58 67 51 84 -19 174 49 206 153 17 54 17 63 3 100 -32 85 -105
136 -196 136 -122 0 -207 -92 -191 -207 5 -41 3 -52 -14 -67 -19 -17 -21 -16
-83 76 -53 79 -87 144 -88 169 0 4 15 29 34 56 73 107 91 190 102 490 7 190
12 173 -61 188 -37 7 -89 -13 -128 -49 -15 -14 -32 -26 -36 -26 -5 0 -16 21
-25 48 -10 26 -23 63 -30 82 -30 80 -38 108 -52 170 -8 36 -14 77 -14 92 0 29
-39 58 -79 58 -21 0 -66 -47 -76 -80 -9 -27 -21 -25 -62 10 -38 34 -69 39 -77
13 -3 -10 -2 10 1 45 7 81 -11 146 -45 168 -28 18 -95 20 -163 5 -21 -5 -40
-6 -43 -4 -9 9 17 53 34 58 10 3 25 14 35 25 21 23 28 13 -100 125 -38 33 -89
78 -114 101 -73 64 -168 134 -184 134 -23 0 -42 -85 -42 -185 1 -92 8 -117 58
-184 23 -32 23 -71 -2 -71 -10 0 -39 -3 -65 -6 -55 -8 -60 4 -16 45 l31 28
-78 74 c-43 41 -105 92 -138 113 -170 111 -257 205 -269 290 -9 61 -24 71 -72
51 -51 -21 -74 -43 -74 -72 0 -19 -5 -23 -28 -23 -15 0 -32 4 -37 9 -6 5 -56
27 -111 49 -129 51 -165 74 -244 157 -36 37 -85 80 -109 96 -51 35 -136 79
-152 79 -6 0 -25 6 -42 14 -18 8 -79 28 -137 46 -58 17 -128 43 -157 56 -28
13 -55 24 -58 24 -3 0 -12 -15 -20 -32z m140 -88 c22 -9 67 -25 100 -35 121
-35 228 -80 282 -116 23 -16 79 -66 125 -111 88 -87 148 -124 281 -168 37 -13
70 -27 73 -31 3 -5 14 -9 24 -9 10 0 40 -14 66 -32 l47 -31 19 22 c20 26 22
37 8 46 -17 10 -12 75 5 75 8 0 15 -5 15 -12 0 -6 15 -41 32 -76 41 -81 98
-134 267 -245 111 -73 132 -91 129 -110 -2 -15 -11 -23 -27 -25 -37 -6 -128
27 -196 70 -33 21 -76 45 -95 54 -49 23 -164 37 -237 30 -40 -4 -64 -3 -68 4
-10 16 23 48 53 52 35 4 40 32 8 53 -59 39 -160 67 -246 68 -96 1 -85 7 -247
-118 -104 -81 -179 -115 -288 -134 -33 -6 -81 -17 -107 -25 -41 -13 -47 -13
-52 0 -3 9 -2 24 4 33 9 17 76 81 85 81 2 0 20 -7 39 -17 l35 -16 63 41 c35
23 81 48 103 58 101 41 165 76 160 84 -12 19 -80 10 -140 -19 -242 -115 -424
-123 -592 -25 -23 13 -48 30 -55 38 -8 7 -57 36 -109 64 -125 65 -139 74 -139
90 0 14 40 32 72 32 11 0 36 -16 56 -36 36 -36 100 -74 125 -74 8 0 66 -21
128 -46 l114 -47 135 1 c111 0 145 4 194 21 32 11 64 26 71 31 7 6 57 15 111
19 109 10 134 17 134 36 0 16 -49 33 -123 45 -29 5 -70 13 -92 19 -22 6 -72
11 -111 11 -88 0 -141 9 -122 21 20 13 279 11 337 -3 171 -39 -50 119 -329
237 -57 24 -68 26 -101 15 -47 -16 -71 -3 -98 53 -43 89 -28 101 74 57z m-188
-12 c34 -10 66 -45 57 -60 -3 -4 -14 -8 -24 -8 -11 0 -24 -9 -30 -20 -16 -30
-49 -24 -86 16 -32 33 -43 71 -27 87 7 8 60 1 110 -15z m-1317 -106 c0 -35 -4
-40 -44 -60 -24 -12 -47 -22 -52 -22 -5 0 -27 -16 -49 -36 -22 -19 -71 -56
-110 -81 -63 -41 -68 -46 -51 -58 22 -17 36 -12 113 42 34 24 65 43 69 43 4 0
15 6 23 14 31 27 117 69 169 82 91 24 247 15 377 -21 28 -8 84 -22 125 -31 41
-9 78 -20 83 -23 23 -21 -145 -115 -204 -114 -38 0 -88 29 -89 51 0 8 16 12
49 12 58 0 74 15 34 31 -36 15 -361 -4 -449 -26 -56 -14 -185 -62 -226 -85
-10 -6 -25 -10 -33 -10 -22 0 -118 -31 -130 -42 -20 -18 20 -26 109 -22 118 7
142 12 127 27 -6 6 -11 14 -11 18 0 20 214 68 304 69 61 0 157 -17 214 -39 52
-20 53 -45 3 -74 -221 -123 -320 -156 -422 -142 -82 11 -108 55 -33 55 110 0
328 79 308 111 -8 14 -82 11 -175 -6 -115 -22 -115 -22 -95 -44 15 -17 16 -19
1 -25 -9 -3 -68 -6 -132 -6 -83 0 -114 -3 -111 -12 6 -17 168 -105 240 -129
35 -11 68 -24 73 -29 6 -4 39 -11 75 -14 36 -4 98 -12 139 -18 65 -10 75 -9
86 5 21 29 57 20 113 -29 83 -73 72 -86 -64 -73 -49 4 -144 13 -212 19 -71 7
-136 18 -155 27 -18 9 -45 23 -62 31 -16 9 -49 32 -73 53 -60 52 -149 97 -227
113 -116 24 -364 -15 -340 -54 6 -10 54 -26 108 -35 27 -4 41 -13 46 -28 12
-32 -8 -39 -60 -20 -61 21 -197 20 -268 -3 -61 -20 -144 -69 -185 -111 -18
-17 -43 -29 -77 -34 -104 -17 -105 16 -3 91 92 67 139 111 159 150 18 35 26
37 50 10 23 -26 30 -25 62 4 41 39 111 68 248 106 145 40 194 73 260 175 56
86 116 133 279 216 92 47 96 47 96 1z m1090 -61 c221 9 435 3 511 -14 86 -19
218 -70 230 -89 19 -29 0 -32 -177 -29 -181 3 -345 20 -384 41 -28 15 -50 6
-50 -20 0 -48 197 -100 493 -130 59 -6 114 -13 123 -17 27 -10 9 -27 -47 -45
-71 -22 -295 -24 -354 -3 -22 8 -47 15 -56 15 -22 0 -107 38 -144 64 -50 35
-204 116 -222 116 -17 0 -103 89 -103 106 0 13 7 15 43 9 23 -4 85 -6 137 -4z
m-2067 -214 c10 -6 20 -28 23 -48 5 -29 1 -41 -19 -65 -20 -23 -33 -29 -67
-29 -79 0 -101 66 -42 128 28 30 75 36 105 14z m1579 -96 c111 -32 218 -94
197 -115 -2 -3 -22 -1 -44 4 -82 19 -199 12 -317 -21 -124 -33 -287 -46 -295
-22 -3 7 8 15 24 19 15 4 60 19 98 34 39 16 87 31 108 35 31 5 37 10 32 24 -7
22 9 36 55 49 51 15 68 14 142 -7z m1642 -112 c10 -9 1 -13 -46 -23 -15 -3
-43 -22 -64 -41 -37 -35 -37 -35 -31 -99 5 -50 3 -65 -8 -70 -8 -3 -83 -8
-167 -12 -126 -5 -156 -3 -172 8 -20 16 -15 38 9 38 41 0 246 117 318 180 16
14 40 28 55 31 31 8 93 0 106 -12z m1025 -56 c49 -43 111 -96 137 -119 l48
-41 -26 -17 c-41 -27 -92 -4 -146 67 -41 53 -72 73 -72 45 0 -7 15 -30 34 -52
42 -47 38 -68 -13 -64 -51 4 -74 53 -79 171 -3 75 -2 87 12 87 9 0 56 -35 105
-77z m-3509 -41 c36 -25 81 -56 100 -69 19 -14 59 -36 88 -49 87 -40 66 -50
-99 -45 -93 2 -147 7 -151 15 -4 6 -8 30 -8 54 0 47 -11 74 -43 110 -17 18
-19 25 -8 31 21 13 50 1 121 -47z m2529 22 c12 -15 21 -32 21 -39 0 -7 7 -18
15 -25 38 -32 -7 -84 -82 -96 -35 -5 -42 -3 -61 21 -33 42 -29 96 9 134 38 38
71 40 98 5z m-3805 -41 c10 -50 -9 -153 -29 -153 -8 0 -19 9 -25 20 -6 11 -17
20 -25 20 -8 0 -19 -9 -25 -20 -6 -12 -21 -20 -35 -20 -18 0 -25 5 -25 20 0
11 4 20 8 20 5 0 35 36 68 80 32 44 64 78 69 77 6 -2 14 -22 19 -44z m1116 10
c24 -31 22 -85 -3 -111 -19 -19 -89 -27 -116 -13 -26 15 -27 38 0 76 11 17 24
40 29 53 14 33 62 30 90 -5z m-218 -84 c19 -14 28 -28 26 -43 -3 -18 -12 -22
-78 -29 -109 -11 -292 -5 -297 10 -10 30 141 81 245 82 60 1 80 -3 104 -20z
m3248 3 c93 -24 88 -43 -15 -60 -114 -18 -215 -5 -215 27 0 50 106 65 230 33z
m-915 -61 c3 -11 3 -30 0 -44 -7 -25 -8 -25 -126 -26 -95 -1 -119 2 -119 13 0
22 26 38 93 57 86 25 144 25 152 0z m649 -14 c10 -7 17 -22 14 -33 -2 -15 -13
-20 -56 -22 -59 -3 -65 6 -27 43 27 28 43 31 69 12z m-2719 -32 l0 -30 -110 0
c-96 0 -110 2 -113 17 -5 24 38 33 83 18 31 -10 39 -9 68 9 46 28 72 24 72
-14z m639 20 c152 -13 193 -23 165 -41 -23 -14 -396 -13 -416 1 -16 12 -13 15
22 33 50 25 39 24 229 7z m2527 -6 c28 -28 14 -41 -48 -46 -59 -5 -83 7 -63
32 31 38 81 44 111 14z m-633 -1 c19 -19 14 -37 -14 -44 -31 -8 -48 7 -39 35
7 23 34 28 53 9z m1152 -2 c0 -2 3 -11 6 -20 5 -12 0 -16 -20 -16 -24 0 -35
18 -19 33 7 8 33 10 33 3z m269 -140 c13 -15 29 -113 37 -221 3 -49 10 -108
16 -130 14 -54 13 -1048 0 -1101 -6 -21 -16 -97 -22 -169 -6 -71 -15 -157 -20
-190 -6 -33 -10 -82 -10 -110 0 -27 -6 -86 -14 -130 -23 -129 -37 -216 -46
-280 -4 -33 -13 -80 -18 -105 -6 -25 -18 -83 -27 -130 -28 -144 -89 -397 -121
-498 -8 -23 -14 -51 -14 -61 0 -10 -7 -32 -15 -47 -8 -16 -15 -36 -15 -44 -1
-8 -19 -67 -41 -130 -22 -63 -45 -132 -50 -153 -5 -21 -13 -45 -18 -55 -5 -9
-23 -55 -41 -102 -17 -47 -38 -97 -46 -112 -8 -14 -14 -31 -14 -37 0 -6 -13
-40 -30 -74 -16 -35 -30 -68 -30 -73 0 -5 -20 -49 -45 -99 -25 -49 -45 -92
-45 -95 0 -4 -20 -44 -45 -90 -25 -46 -45 -87 -45 -92 0 -5 -12 -27 -27 -51
-32 -49 -40 -63 -78 -137 -16 -30 -39 -69 -52 -87 -12 -17 -23 -35 -23 -38 0
-4 -13 -26 -30 -50 -16 -24 -30 -48 -30 -53 0 -6 -3 -12 -8 -14 -4 -1 -30 -39
-59 -83 -29 -44 -59 -87 -67 -96 -9 -9 -16 -19 -16 -23 0 -4 -33 -51 -73 -104
-40 -53 -79 -107 -87 -118 -39 -55 -235 -282 -345 -399 -158 -167 -334 -336
-445 -427 -25 -20 -55 -44 -66 -55 -85 -73 -301 -234 -439 -327 -49 -33 -93
-65 -97 -70 -10 -14 -75 -10 -91 6 -8 7 -25 20 -37 28 -12 8 -45 32 -73 52
-29 20 -65 47 -82 58 -63 44 -259 191 -303 227 -391 325 -650 599 -1000 1058
-23 31 -222 327 -222 331 0 2 -12 20 -26 41 -14 21 -30 47 -35 58 -5 11 -18
34 -28 50 -11 17 -36 62 -56 100 -21 39 -43 77 -49 85 -6 8 -26 47 -45 85 -18
39 -37 77 -42 85 -5 8 -16 31 -24 50 -9 19 -31 66 -50 105 -65 136 -95 205
-95 218 0 7 -7 22 -15 33 -8 10 -15 25 -15 32 0 8 -6 28 -14 45 -27 61 -118
308 -136 372 -23 76 -39 132 -48 160 -32 96 -122 439 -129 490 -2 17 -10 59
-18 95 -38 175 -45 217 -45 245 0 17 -5 46 -10 65 -10 34 -41 270 -55 415 -3
39 -11 86 -16 105 -28 107 -46 862 -29 1215 6 132 13 296 16 365 6 144 9 163
28 182 11 12 436 14 2704 15 2004 1 2694 -2 2701 -11z m-5527 -196 c-3 -65 -8
-89 -21 -103 -17 -18 -19 -17 -39 18 -36 60 -37 80 -7 130 20 36 32 45 48 43
21 -3 22 -7 19 -88z m5880 -21 c9 -46 26 -109 38 -139 12 -30 24 -64 27 -75 3
-11 10 -25 14 -31 4 -5 24 -58 44 -117 32 -98 35 -117 35 -226 0 -93 -3 -121
-15 -131 -20 -16 -45 3 -45 34 0 12 -13 60 -29 106 -50 149 -87 313 -93 418
-5 72 -23 53 -26 -28 -2 -41 -7 -79 -11 -83 -5 -5 -18 9 -31 30 -18 31 -21 47
-17 98 9 101 56 240 79 233 7 -3 20 -43 30 -89z m-158 15 c18 -18 23 -168 6
-179 -5 -3 -21 5 -35 19 -21 21 -25 34 -25 85 0 90 17 113 54 75z m-5728 -225
c3 -6 1 -68 -6 -138 l-13 -126 -51 -55 c-51 -55 -146 -189 -159 -222 -9 -26
-37 -11 -37 21 0 91 101 344 186 466 44 63 65 77 80 54z m5767 -111 c18 -29
37 -62 40 -73 3 -11 17 -51 31 -90 13 -38 30 -92 37 -118 6 -27 20 -54 30 -60
22 -14 25 -47 5 -47 -8 0 -22 13 -33 29 -10 16 -49 71 -87 121 -74 97 -105
168 -106 237 0 39 8 50 37 52 6 1 27 -23 46 -51z m442 -26 c-2 -31 -7 -120
-10 -197 -6 -164 -21 -217 -92 -328 -46 -71 -46 -72 -55 -45 -9 27 12 137 42
213 6 17 16 71 21 120 5 50 12 109 15 132 5 36 3 42 -15 48 -34 11 -45 41 -24
69 27 36 85 66 105 55 15 -8 17 -20 13 -67z m-429 -259 c10 -16 32 -55 49 -88
45 -85 94 -155 110 -155 8 0 15 13 17 33 4 43 22 41 26 -3 3 -41 30 -129 45
-147 5 -7 20 -13 34 -13 14 0 26 -7 29 -17 10 -36 49 -100 102 -171 30 -40 58
-87 61 -105 5 -23 13 -33 29 -35 31 -5 50 13 62 58 11 39 39 57 59 37 15 -15
14 -35 -7 -81 -47 -103 -52 -119 -52 -150 0 -19 14 -64 30 -101 20 -46 30 -83
30 -117 0 -27 6 -62 14 -76 16 -31 36 -83 62 -160 15 -45 16 -55 5 -62 -20
-12 -40 -2 -109 52 -54 41 -63 54 -78 105 -48 166 -77 226 -139 288 -48 48
-71 63 -115 75 -38 11 -56 21 -58 34 -7 33 13 40 74 26 53 -13 57 -13 71 6 8
10 11 29 8 41 -4 19 -58 107 -75 123 -3 3 -20 24 -39 48 -39 50 -159 143 -203
158 -10 4 -18 13 -18 20 0 25 32 28 71 7 21 -11 40 -18 43 -15 10 9 6 52 -4
52 -5 0 -16 15 -25 33 -8 17 -30 61 -50 96 -19 35 -35 70 -35 77 0 7 -6 19
-13 26 -7 7 -18 29 -24 48 l-11 35 -1 -37 c-1 -20 4 -40 9 -43 6 -3 10 -15 10
-25 0 -11 9 -37 21 -59 34 -65 -3 -85 -60 -32 -30 28 -31 32 -31 110 0 70 3
82 20 91 11 6 20 17 20 25 0 23 16 18 36 -12z m-6249 -25 c43 -18 73 -49 73
-75 0 -12 -16 -40 -35 -62 -19 -21 -35 -46 -35 -54 0 -9 -9 -21 -19 -27 -35
-18 -71 -11 -102 19 -25 25 -29 37 -29 81 0 55 21 93 63 117 28 16 49 16 84 1z
m464 -98 c-3 -85 -17 -120 -47 -120 -7 0 -31 -9 -53 -21 -22 -11 -45 -18 -51
-14 -12 7 -14 35 -2 35 4 0 18 21 32 48 62 119 92 163 108 160 15 -3 17 -15
13 -88z m-101 51 c0 -11 -4 -22 -9 -25 -5 -3 -26 -39 -46 -78 -21 -40 -41 -75
-44 -78 -17 -14 -71 -100 -71 -113 0 -24 37 -30 69 -11 24 14 34 15 58 6 15
-6 46 -14 68 -18 69 -11 110 -70 67 -93 -12 -7 -25 -6 -39 2 -91 53 -104 57
-169 57 -78 0 -106 -14 -149 -73 -33 -45 -125 -224 -125 -243 0 -6 -7 -17 -15
-24 -17 -14 -21 -70 -5 -70 6 0 41 16 78 35 83 43 116 48 120 19 4 -26 -40
-64 -72 -64 -28 0 -133 -54 -166 -85 -14 -13 -32 -39 -41 -57 -31 -64 -49
-109 -49 -123 0 -25 -33 -85 -50 -90 -10 -3 -39 -21 -66 -40 -40 -29 -51 -32
-62 -21 -15 15 -9 35 51 171 87 199 88 325 3 450 -29 43 -29 59 0 62 36 5 94
-63 94 -110 0 -35 16 -67 34 -67 18 0 38 32 70 108 14 34 58 108 96 166 62 92
70 109 70 151 0 40 5 51 36 81 42 39 43 39 59 18 20 -28 58 -10 92 43 17 27
42 60 56 75 13 14 27 33 30 42 9 22 27 20 27 -3z m5874 -196 c28 -12 36 -21
36 -40 0 -28 -20 -32 -65 -15 -28 11 -40 32 -31 55 7 19 15 19 60 0z m-5774
-39 c6 -8 10 -25 8 -38 -3 -20 -8 -23 -50 -22 -26 0 -51 4 -55 8 -10 10 10 39
38 53 31 17 44 16 59 -1z m6588 -80 c84 -44 93 -136 19 -208 -57 -55 -85 -52
-138 15 -23 28 -47 56 -55 60 -28 16 -16 67 25 108 32 33 45 39 80 39 23 0 54
-6 69 -14z m-791 -25 c12 -9 23 -22 23 -28 0 -20 -46 -45 -77 -41 -24 2 -28 8
-31 36 -6 61 28 74 85 33z m-6624 -12 c44 -36 46 -57 11 -90 -14 -13 -35 -41
-45 -62 -26 -51 -57 -64 -97 -43 -105 54 -64 225 53 226 31 0 49 -7 78 -31z
m728 -106 c69 -37 91 -54 95 -73 3 -14 9 -42 15 -63 17 -66 -14 -77 -69 -24
-31 30 -38 32 -101 32 -45 0 -74 -5 -86 -15 -20 -17 -82 -40 -107 -40 -10 0
-22 8 -27 18 -22 41 112 212 166 212 14 0 65 -21 114 -47z m5792 13 c3 -7 0
-19 -6 -25 -14 -14 -38 5 -30 25 7 18 29 18 36 0z m273 -48 c27 -28 57 -63 66
-77 19 -28 24 -71 8 -71 -5 0 -37 25 -71 55 -55 49 -66 55 -106 55 -29 0 -59
-8 -87 -25 -38 -22 -45 -23 -56 -10 -37 44 60 125 151 125 42 0 50 -4 95 -52z
m-43 -121 c27 -21 28 -24 21 -89 -9 -90 -20 -103 -82 -102 -75 1 -132 54 -132
123 0 34 16 55 55 76 44 22 105 19 138 -8z m-237 -2 c4 -9 1 -28 -4 -43 -29
-71 48 -192 135 -213 24 -7 46 -15 49 -20 10 -17 25 -134 34 -259 5 -69 15
-155 21 -192 7 -37 9 -71 5 -75 -4 -4 -35 7 -68 25 -33 18 -64 30 -69 27 -14
-9 -11 -170 5 -207 29 -71 39 -104 40 -138 1 -34 0 -35 -49 -43 -36 -6 -58
-16 -77 -38 -34 -37 -47 -81 -27 -87 23 -8 121 -115 174 -192 28 -41 75 -93
105 -117 45 -35 62 -43 98 -43 37 0 49 -6 92 -46 27 -25 79 -67 116 -93 49
-33 78 -63 107 -109 53 -84 40 -98 -40 -43 -33 22 -78 44 -99 49 -34 7 -41 13
-52 47 -7 21 -28 58 -47 81 -100 122 -273 90 -340 -63 -17 -41 -17 -44 1 -109
16 -54 27 -73 62 -105 65 -57 176 -67 227 -19 26 25 49 26 73 2 10 -10 36 -29
57 -42 22 -14 49 -32 60 -42 11 -9 30 -25 43 -35 30 -25 61 -147 62 -245 0
-47 -4 -78 -10 -78 -11 0 -14 7 -24 53 -4 15 -10 27 -15 27 -12 0 -41 -86 -41
-121 0 -35 -34 -78 -50 -63 -13 13 -18 213 -7 267 11 52 -7 56 -86 18 -58 -27
-127 -89 -127 -114 0 -15 -44 -67 -57 -67 -7 0 -27 22 -43 49 -17 27 -45 60
-63 73 -50 38 -167 92 -178 81 -5 -5 0 -49 12 -108 17 -82 20 -122 15 -223 -3
-67 -10 -131 -16 -142 -10 -19 -16 -15 -80 50 -38 38 -75 70 -83 70 -8 0 -24
9 -37 20 -13 11 -34 20 -48 20 -22 0 -24 -3 -18 -27 4 -16 11 -48 16 -73 12
-63 12 -526 0 -591 -8 -39 -7 -62 2 -83 11 -27 9 -31 -34 -70 -58 -52 -77
-108 -58 -165 11 -36 56 -81 78 -81 5 0 15 -7 22 -15 7 -8 21 -15 31 -15 24 0
34 -19 14 -26 -9 -4 -24 1 -34 10 -10 9 -28 16 -40 16 -12 0 -36 7 -52 16 -17
8 -53 18 -82 21 -60 7 -77 17 -77 47 0 11 -7 30 -15 40 -19 25 -19 60 0 76 19
16 19 73 0 128 -22 63 -35 80 -92 118 -76 50 -156 44 -234 -18 -44 -36 -65
-108 -53 -186 6 -39 16 -55 60 -99 49 -47 58 -52 106 -55 l51 -3 15 -54 c15
-53 15 -54 -9 -73 -60 -46 -120 -102 -132 -123 -47 -85 -55 -105 -61 -145 -10
-73 25 -221 66 -272 16 -21 27 -42 24 -46 -3 -5 -27 -15 -53 -22 -59 -15 -102
-35 -170 -78 -48 -31 -73 -35 -73 -11 0 5 13 37 29 71 48 102 46 128 -11 164
l-41 26 -44 -21 c-25 -12 -49 -19 -54 -16 -5 4 -9 26 -9 50 0 35 -6 52 -31 80
-17 19 -37 35 -44 35 -7 0 -52 -41 -101 -90 -90 -91 -114 -106 -114 -70 0 23
-31 90 -41 90 -4 0 -23 -28 -41 -62 -34 -64 -82 -116 -259 -279 -85 -79 -111
-110 -144 -173 -22 -41 -46 -78 -55 -81 -19 -8 -40 22 -40 55 0 61 14 150 23
150 46 0 456 433 660 696 75 96 227 303 227 309 0 3 20 32 45 66 25 34 45 65
45 69 0 5 19 37 43 72 58 88 66 100 77 123 6 11 19 34 30 50 11 17 23 37 27
45 4 8 25 47 48 85 41 70 179 347 229 460 52 116 58 130 72 157 8 14 14 33 14
41 0 9 6 28 14 44 8 15 22 48 31 73 9 25 22 54 28 65 5 11 14 33 18 50 8 34
26 86 46 132 7 17 13 40 13 50 0 10 4 23 9 29 6 5 14 27 20 49 6 22 17 63 25
90 49 160 58 194 65 230 8 40 20 88 47 179 8 26 14 56 14 65 0 9 6 45 14 81
31 138 39 174 46 229 8 56 18 120 45 281 26 153 31 251 34 643 0 21 3 42 6 48
9 14 25 11 31 -6z m-6811 -39 c27 -36 65 -132 65 -166 0 -11 5 -39 11 -63 16
-57 -5 -138 -79 -312 -30 -70 -44 -83 -71 -66 -19 12 -16 148 5 196 29 71 29
319 -2 423 -5 19 -3 22 19 22 18 0 34 -11 52 -34z m7929 9 c3 -9 3 -55 0 -103
-5 -68 -3 -95 10 -126 9 -21 16 -62 16 -90 0 -28 7 -73 15 -100 23 -75 20
-145 -8 -180 -15 -18 -28 -26 -36 -22 -15 9 -61 112 -61 135 0 9 -4 21 -10 27
-5 5 -17 47 -26 94 -22 106 -9 194 42 305 35 76 47 88 58 60z m-6899 -11 c22
-9 45 -57 45 -97 0 -59 -61 -107 -134 -107 -52 0 -71 29 -70 106 1 85 18 104
90 104 29 0 60 -3 69 -6z m116 -151 c0 -5 2 -66 4 -138 2 -71 8 -154 14 -184
6 -29 11 -79 11 -110 1 -31 7 -83 15 -116 8 -33 15 -77 15 -98 0 -21 9 -73 21
-117 11 -44 17 -85 13 -91 -4 -8 -21 -9 -53 -3 -25 4 -85 8 -133 8 -71 0 -88
3 -88 15 0 19 37 97 64 136 12 16 26 37 31 46 6 10 20 31 33 48 21 28 22 31 5
39 -10 6 -50 7 -89 3 -56 -5 -79 -12 -107 -34 -65 -49 -65 -47 -37 133 5 36
10 95 10 132 0 79 25 188 48 206 9 6 33 12 54 12 57 0 120 46 141 103 6 17 26
24 28 10z m6022 -18 c19 -8 54 -36 77 -62 40 -45 102 -162 116 -218 8 -34 -14
-33 -52 3 -29 28 -127 103 -174 134 -14 9 -45 34 -70 56 l-45 40 28 11 c15 6
37 20 49 31 26 24 26 24 71 5z m-6334 -41 l24 -35 -24 -22 c-13 -13 -40 -33
-59 -47 -44 -30 -120 -93 -179 -147 -44 -41 -71 -54 -71 -34 0 20 55 139 88
189 43 66 125 131 167 131 23 1 35 -7 54 -35z m6406 -261 c164 -124 218 -225
184 -345 -18 -67 -29 -57 -112 102 -27 52 -62 116 -78 141 -16 25 -29 51 -29
57 0 7 -9 12 -20 12 -29 0 -25 -25 14 -106 39 -80 96 -237 96 -265 0 -46 -45
-30 -139 49 -34 28 -35 30 -42 133 -4 57 -14 151 -23 209 -17 127 -10 147 38
102 17 -16 67 -56 111 -89z m-6428 50 c-4 -32 -11 -121 -18 -198 -13 -165 -33
-214 -112 -277 -47 -36 -97 -50 -97 -27 0 28 28 101 71 185 26 51 52 100 57
110 39 76 50 118 33 128 -20 13 -40 -10 -125 -138 -58 -87 -94 -132 -102 -129
-19 7 -38 75 -31 106 12 44 85 124 187 201 54 42 102 81 105 86 3 6 13 10 22
10 13 0 15 -9 10 -57z m6981 5 c7 -7 12 -31 12 -55 0 -57 -64 -193 -90 -193
-27 0 -29 8 -31 98 -1 77 0 83 31 122 32 41 56 50 78 28z m-7603 -68 c14 -22
25 -46 25 -53 0 -7 7 -22 15 -33 18 -23 20 -85 3 -102 -20 -20 -48 -15 -48 9
0 30 -30 89 -45 89 -21 0 -23 -21 -14 -111 9 -86 5 -119 -12 -119 -19 0 -77
73 -88 110 -12 42 0 94 25 104 8 3 14 12 14 19 0 11 33 81 57 120 12 19 45 4
68 -33z m7915 -71 c9 -15 9 -39 1 -87 -6 -37 -13 -148 -16 -247 -7 -250 -13
-295 -69 -465 -13 -41 -58 -135 -89 -185 -24 -38 -125 -171 -141 -184 -17 -15
-22 -56 -7 -66 11 -6 228 236 345 385 l36 45 -22 16 c-18 14 -20 22 -14 63 6
36 13 49 29 55 38 14 155 33 166 27 5 -4 -13 -44 -43 -94 -29 -48 -71 -127
-95 -176 -44 -91 -103 -161 -186 -222 -133 -96 -202 -160 -227 -208 -23 -45
-58 -182 -58 -226 0 -16 -5 -40 -11 -54 -17 -35 12 -80 44 -70 12 4 24 10 27
13 6 8 56 41 95 62 102 56 189 14 95 -46 -22 -14 -41 -25 -44 -25 -15 0 -128
-86 -148 -113 -28 -36 -72 -141 -87 -207 -18 -77 -66 -188 -83 -191 -30 -6
-34 0 -45 86 -7 50 -16 108 -19 131 -5 31 -2 48 12 69 26 40 25 235 -1 317
-23 72 -55 105 -177 185 -73 47 -98 69 -98 84 0 20 4 21 41 15 52 -8 82 -24
164 -86 36 -27 69 -50 72 -50 4 0 15 7 25 17 29 26 24 99 -12 164 -29 51 -58
111 -82 169 -5 14 -16 38 -24 53 -16 32 -19 77 -5 77 16 0 97 -131 133 -215
21 -50 40 -81 51 -83 16 -3 17 5 11 95 -3 54 -10 114 -15 133 -12 46 -11 127
1 135 34 21 65 -139 54 -286 -7 -108 -3 -125 27 -109 14 8 19 22 19 53 1 68
15 112 58 177 67 99 90 171 147 440 8 41 15 89 15 106 0 31 8 65 55 217 24 79
24 107 -1 107 -13 0 -33 -37 -67 -125 -71 -188 -91 -210 -120 -132 -31 83 -31
104 -2 160 15 28 48 76 72 107 40 49 192 210 199 210 2 0 8 -9 14 -21z m-7698
-80 c4 -41 14 -103 23 -139 43 -180 42 -309 -4 -362 -14 -17 -44 -64 -66 -106
-22 -41 -44 -74 -50 -73 -13 2 -9 176 6 251 15 81 38 274 32 283 -11 19 -43 6
-48 -20 -3 -16 -10 -42 -15 -59 -6 -17 -10 -41 -10 -53 0 -13 -6 -46 -14 -74
-12 -48 -26 -124 -57 -317 -6 -41 -17 -145 -23 -230 -11 -150 -17 -180 -36
-180 -14 0 -27 29 -51 116 -31 109 -38 328 -15 423 29 115 77 273 95 309 46
93 140 242 179 285 14 15 31 26 37 24 5 -2 13 -37 17 -78z m-530 -21 c168
-179 212 -274 178 -382 -5 -17 -12 -43 -15 -58 -3 -16 -11 -28 -18 -28 -20 0
-43 65 -62 179 -21 129 -39 171 -73 171 -21 0 -24 -3 -18 -27 3 -16 11 -59 17
-98 19 -120 37 -209 50 -245 6 -19 17 -51 24 -70 21 -60 38 -132 45 -200 13
-109 -15 -113 -96 -12 -93 118 -104 167 -113 527 -4 160 -6 293 -3 298 8 17
29 3 84 -55z m7992 46 c19 -49 -12 -134 -49 -134 -31 0 -30 53 3 118 18 35 36
41 46 16z m-295 -70 c39 -35 86 -106 125 -189 10 -22 23 -48 28 -58 16 -32 40
-111 59 -190 26 -109 27 -322 1 -390 -35 -91 -72 -100 -72 -19 0 27 -7 74 -15
105 -8 32 -15 70 -15 85 0 15 -7 65 -15 112 -9 47 -23 123 -31 170 -25 136
-46 200 -69 200 -23 0 -23 -21 6 -195 22 -137 25 -239 8 -233 -10 3 -75 115
-105 178 -4 8 -19 30 -33 48 -25 34 -25 34 -9 90 9 32 26 82 39 112 15 35 24
83 27 133 4 90 11 94 71 41z m201 -83 c0 -53 -12 -70 -35 -51 -18 15 -19 40
-3 75 19 43 38 31 38 -24z m-6785 -22 c4 -5 0 -18 -8 -27 -42 -49 -131 -265
-166 -402 -9 -34 -38 -111 -60 -160 -46 -101 -220 -309 -258 -310 -7 0 -13 -4
-13 -10 0 -5 -5 -10 -10 -10 -20 0 -23 31 -6 65 16 33 27 60 59 138 61 145
137 277 240 414 65 87 75 113 41 113 -36 0 -211 -194 -321 -357 -65 -97 -153
-259 -153 -285 -1 -20 -38 -60 -50 -53 -16 10 -12 78 9 153 58 212 228 448
411 571 36 25 85 59 110 76 25 17 52 34 60 38 8 4 33 19 55 32 45 28 51 29 60
14z m-413 -16 c7 -34 -4 -63 -23 -63 -20 0 -24 17 -13 58 7 26 31 29 36 5z
m6490 -47 c42 -24 95 -57 116 -75 22 -17 45 -31 51 -31 6 0 46 -35 89 -77 83
-83 161 -191 207 -288 28 -59 65 -220 65 -282 0 -36 -17 -54 -26 -26 -3 10 -9
25 -14 33 -5 8 -18 32 -30 53 -11 21 -25 44 -31 50 -10 12 -83 121 -104 155
-5 10 -13 19 -16 22 -3 3 -36 50 -74 104 -83 122 -80 118 -138 177 -48 48 -77
62 -77 36 0 -8 22 -42 50 -76 42 -52 160 -270 160 -294 0 -8 49 -84 97 -151
12 -17 22 -39 22 -49 1 -10 8 -20 16 -23 16 -7 21 -59 6 -68 -10 -7 -115 75
-145 113 -11 13 -31 37 -46 52 -24 27 -114 196 -149 279 -8 19 -19 46 -26 60
-6 14 -20 52 -30 85 -25 85 -52 165 -66 201 -12 30 -8 64 8 64 5 0 43 -20 85
-44z m296 -36 c7 -19 7 -32 1 -36 -16 -9 -39 16 -39 42 0 34 26 30 38 -6z
m-6100 -216 c2 -47 15 -115 49 -249 8 -33 21 -87 29 -120 26 -104 70 -253 87
-295 5 -14 13 -41 17 -60 5 -19 18 -60 30 -90 42 -108 51 -135 60 -169 5 -18
13 -38 19 -44 6 -6 11 -20 11 -30 0 -10 6 -31 13 -45 8 -15 21 -42 30 -60 9
-19 17 -38 17 -43 0 -5 14 -39 31 -76 17 -38 38 -84 46 -103 9 -19 20 -42 24
-50 5 -8 13 -24 18 -35 32 -70 42 -92 50 -105 4 -8 12 -24 18 -35 57 -112 93
-181 128 -240 23 -38 45 -77 49 -85 8 -17 21 -38 59 -97 15 -24 27 -44 27 -47
0 -13 244 -367 318 -462 23 -29 42 -57 42 -60 0 -4 15 -23 33 -44 17 -20 45
-52 61 -71 93 -111 170 -195 252 -274 76 -73 92 -94 88 -112 -5 -17 9 -36 68
-95 156 -154 303 -283 388 -339 21 -14 23 -19 12 -32 -22 -26 -103 -70 -112
-61 -4 5 -16 25 -27 44 -57 107 -146 217 -227 282 -58 46 -116 116 -116 141 0
9 -19 34 -41 55 -84 76 -129 90 -129 40 0 -30 -15 -52 -28 -44 -6 4 -24 26
-40 49 -16 23 -50 73 -77 112 -58 84 -105 173 -105 198 0 30 -52 19 -61 -14
-3 -14 -19 -50 -34 -80 -22 -45 -26 -62 -21 -104 20 -172 20 -165 -2 -165 -12
0 -51 29 -94 70 -40 38 -76 70 -80 70 -3 0 -19 -26 -34 -57 -26 -57 -27 -60
-16 -139 18 -123 21 -119 -67 -77 -34 16 -76 28 -106 29 -27 1 -53 3 -57 3
-15 2 -8 27 12 44 22 19 28 95 9 114 -12 12 4 53 21 53 21 0 50 65 50 112 0
36 -8 61 -35 107 -35 60 -118 141 -144 141 -8 0 -25 10 -38 22 -19 17 -23 32
-23 78 0 31 5 61 12 68 7 7 34 12 60 12 44 0 53 4 92 45 94 96 80 222 -32 289
-36 22 -59 28 -114 29 -66 2 -69 1 -101 -33 -50 -54 -67 -101 -67 -181 0 -39
-6 -80 -12 -92 -7 -12 -15 -60 -18 -107 -5 -78 -7 -85 -25 -82 -11 1 -46 -3
-78 -9 -45 -9 -61 -9 -70 0 -9 10 -5 18 20 39 43 37 63 82 63 141 0 46 -3 52
-46 90 -45 40 -46 42 -39 83 19 115 21 165 9 208 -29 107 -22 487 10 577 15
40 13 73 -4 73 -19 0 -179 -116 -211 -153 -21 -23 -40 -39 -44 -36 -16 16 -36
122 -40 212 -4 84 -9 106 -32 148 -38 68 -58 65 -121 -13 -27 -35 -66 -91 -86
-125 -20 -35 -40 -63 -44 -63 -5 0 -17 26 -27 58 -22 66 -64 141 -100 180 -14
15 -28 37 -32 50 -4 16 -12 22 -26 20 -36 -5 -58 -82 -66 -237 -3 -66 -10
-116 -17 -118 -8 -3 -57 90 -77 150 -4 9 -18 22 -32 27 -26 10 -32 38 -26 130
3 46 11 57 130 179 l102 104 30 -29 c29 -27 35 -29 119 -29 87 0 90 1 123 33
67 65 101 174 77 247 -27 82 -116 145 -204 145 -32 0 -54 -8 -87 -32 -24 -17
-48 -37 -52 -45 -7 -12 -47 -19 -47 -8 0 3 27 33 61 68 34 34 74 81 91 105 32
46 48 47 48 1 0 -16 4 -29 9 -29 16 0 163 159 210 226 25 36 81 104 124 150
42 47 77 91 77 99 0 15 29 36 45 31 6 -1 11 -25 13 -52z m-138 31 c10 -12 0
-26 -57 -82 -37 -38 -99 -112 -137 -166 -39 -53 -75 -97 -82 -97 -50 0 -8 86
108 222 17 21 28 41 23 45 -4 5 -10 2 -12 -4 -3 -7 -16 -13 -29 -13 -19 0 -24
5 -24 24 0 36 32 68 76 76 66 13 121 11 134 -5z m6768 -102 c-3 -50 -24 -69
-33 -31 -7 28 9 78 25 78 7 0 10 -18 8 -47z m-884 1 c9 -8 16 -20 16 -25 0
-14 91 -197 123 -246 29 -45 35 -73 15 -73 -18 0 -99 88 -150 165 -26 39 -65
90 -87 113 -23 24 -41 48 -41 52 0 29 98 41 124 14z m-7332 -76 c81 -24 112
-70 66 -100 -20 -14 -21 -17 -8 -33 8 -9 24 -21 37 -26 22 -8 79 -79 105 -129
18 -36 57 -89 100 -137 36 -40 57 -87 44 -100 -13 -13 -83 19 -138 62 -61 47
-113 112 -169 210 -19 33 -39 69 -46 80 -7 11 -15 27 -19 35 -11 23 -67 94
-81 103 -7 4 -13 19 -13 34 0 23 3 25 38 20 20 -3 58 -11 84 -19z m824 -184
c-7 -28 -120 -302 -162 -392 -41 -90 -63 -167 -65 -229 -2 -73 3 -83 39 -74
19 5 39 27 67 71 50 80 169 202 189 194 22 -8 29 -40 15 -65 -6 -12 -64 -75
-129 -140 -146 -146 -151 -160 -124 -340 17 -121 13 -243 -10 -275 -16 -21
-46 -12 -46 14 0 10 -11 45 -23 78 -69 173 -110 223 -253 307 -97 56 -125 83
-104 98 22 14 87 2 123 -24 18 -12 53 -41 79 -64 70 -63 105 -56 85 17 -10 38
-14 60 -51 250 -30 154 -43 208 -58 238 -8 16 -9 25 -1 33 18 18 53 -27 69
-89 18 -68 28 -81 52 -66 14 10 16 25 14 96 -2 48 1 103 9 128 l12 45 8 -40
c4 -22 8 -66 8 -97 1 -101 34 -88 71 30 13 39 27 72 31 72 3 0 26 38 50 85 63
121 64 123 84 145 24 27 28 25 21 -6z m6901 1 c9 -24 -1 -27 -15 -5 -8 13 -8
20 -2 20 6 0 13 -7 17 -15z m-7383 -147 c13 -13 26 -35 30 -50 5 -23 4 -26
-11 -21 -25 8 -62 54 -63 76 0 23 16 21 44 -5z m805 -118 c58 -29 81 -64 81
-122 0 -100 -50 -158 -134 -158 -44 0 -56 4 -77 28 -40 45 -59 88 -59 134 0
36 6 50 28 71 76 73 98 80 161 47z m6380 -25 c22 -24 41 -52 41 -60 0 -9 -18
-49 -41 -90 l-41 -75 -42 0 c-88 0 -151 83 -130 169 12 49 81 101 134 101 32
0 44 -7 79 -45z m-6631 -56 c4 -19 -115 -121 -137 -117 -24 5 -25 45 -1 76 39
51 131 78 138 41z m-205 -175 c3 -4 2 -16 -4 -26 -13 -24 -35 -9 -26 16 7 17
19 21 30 10z m7885 -113 c27 -25 32 -37 32 -76 0 -46 -32 -118 -65 -145 -20
-17 -87 -14 -123 4 l-30 16 2 105 c1 123 2 125 91 125 53 0 65 -4 93 -29z
m-8463 7 c14 -6 25 -14 26 -17 5 -35 3 -170 -3 -183 -17 -35 -40 -48 -83 -48
-35 0 -52 6 -80 31 -34 30 -35 34 -35 98 0 57 3 71 23 88 42 38 107 52 152 31z
m7497 -353 c4 -44 15 -99 24 -123 22 -59 22 -188 -1 -233 -45 -88 -69 -89 -85
-4 -10 51 -10 82 0 147 13 88 11 134 -5 131 -5 -1 -15 -21 -21 -45 -13 -51
-39 -63 -54 -23 -15 41 -12 82 9 102 10 10 35 44 55 76 52 82 69 76 78 -28z
m-325 32 c22 -24 52 -67 66 -95 15 -29 38 -72 52 -96 38 -65 96 -294 94 -376
0 -55 -31 -124 -56 -128 -20 -3 -21 3 -28 100 -7 116 -25 202 -61 299 -30 79
-47 105 -63 94 -13 -8 -7 -98 10 -159 5 -17 14 -71 19 -121 17 -141 -5 -188
-47 -102 -80 161 -92 191 -84 206 4 9 16 60 26 113 17 95 17 208 -1 281 -10
43 26 35 73 -16z m-6315 11 c18 -14 78 -136 78 -158 0 -7 7 -21 15 -30 21 -23
25 -115 5 -115 -11 0 -16 13 -18 47 -2 36 -8 50 -28 63 -35 23 -39 4 -20 -97
21 -110 22 -238 2 -238 -16 0 -61 55 -95 118 -25 48 -24 88 5 187 12 39 23
145 24 228 0 11 14 9 32 -5z m357 -26 c6 -11 6 -33 1 -58 -9 -39 -5 -59 36
-193 19 -60 18 -179 -2 -238 -19 -58 -53 -98 -68 -83 -13 13 -14 142 -3 263 8
81 8 87 -10 87 -20 0 -33 -26 -59 -115 -33 -112 -54 -232 -54 -306 0 -43 -4
-80 -9 -83 -28 -18 -116 144 -108 197 9 59 72 235 121 337 37 77 122 210 136
210 5 0 14 -8 19 -18z m-555 -149 c2 -10 12 -67 21 -128 18 -119 29 -146 75
-197 39 -41 158 -216 194 -283 15 -27 31 -57 35 -65 39 -69 91 -250 91 -315 0
-24 -56 -95 -75 -95 -13 0 -53 49 -72 90 -7 14 -22 48 -33 75 -12 28 -32 73
-45 100 -71 154 -116 286 -142 418 -10 52 -22 87 -30 87 -26 0 -43 -44 -43
-110 0 -81 26 -277 47 -350 19 -65 81 -221 94 -235 11 -12 12 -42 0 -49 -4 -3
-18 2 -30 12 -143 114 -157 134 -183 260 -16 78 -20 136 -20 295 0 199 10 285
48 392 8 23 14 50 14 62 0 22 24 53 40 53 5 0 11 -8 14 -17z m7035 -80 c7 -43
18 -148 26 -233 8 -85 17 -164 20 -176 6 -25 -28 -256 -48 -335 -27 -102 -66
-169 -143 -246 -72 -72 -98 -85 -122 -61 -18 18 -15 34 12 62 59 64 156 336
156 438 0 18 7 60 15 93 8 33 17 97 21 143 7 79 6 82 -15 82 -15 0 -21 -6 -21
-22 0 -13 -7 -43 -15 -68 -8 -25 -24 -74 -34 -110 -39 -128 -64 -194 -108
-285 -53 -107 -87 -171 -103 -189 -17 -22 -52 -14 -98 21 -27 20 -33 31 -29
52 10 53 45 134 108 251 8 14 25 41 39 59 29 41 69 106 105 176 14 28 31 59
38 70 51 82 64 104 78 135 21 47 39 97 50 144 25 103 52 102 68 -1z m511 46
c0 -5 -15 -40 -34 -77 -43 -86 -66 -139 -66 -156 0 -8 -7 -27 -15 -42 -8 -16
-15 -36 -15 -45 0 -9 -6 -32 -14 -50 -7 -19 -16 -70 -20 -114 -3 -44 -15 -105
-27 -135 -11 -30 -23 -64 -27 -75 -11 -38 -61 -110 -95 -137 -41 -32 -105 -60
-119 -52 -15 10 -1 78 31 147 48 105 61 137 61 152 0 13 8 34 45 120 43 99 68
147 99 194 39 58 47 95 19 89 -20 -4 -108 -117 -143 -186 -58 -110 -80 -111
-80 -4 0 70 3 84 28 120 44 66 192 188 272 226 8 4 26 13 40 21 29 17 60 19
60 4z m-8024 -24 c36 -18 168 -130 246 -208 l58 -58 0 -75 c0 -55 -3 -74 -13
-74 -8 0 -19 10 -25 23 -60 117 -145 233 -164 221 -16 -10 -8 -37 36 -128 24
-50 51 -109 59 -131 28 -79 39 -110 46 -140 5 -16 24 -61 44 -100 88 -174 89
-207 4 -171 -69 28 -161 179 -206 336 -12 41 -28 98 -36 126 -8 28 -15 61 -15
73 0 45 -54 232 -77 266 -17 25 -17 55 1 55 7 0 27 -7 42 -15z m1317 -144
c-13 -111 -10 -278 6 -389 12 -77 5 -209 -10 -229 -18 -20 -60 -25 -85 -8 -23
15 -24 20 -24 128 0 90 6 135 30 232 30 120 38 195 21 195 -14 0 -63 -112 -96
-220 -10 -30 -22 -66 -28 -80 -5 -14 -14 -43 -18 -65 -4 -22 -12 -60 -18 -85
-6 -25 -16 -74 -22 -110 -14 -73 -45 -113 -82 -108 -21 3 -22 8 -25 105 -2 90
1 112 23 175 15 40 29 82 32 93 9 37 66 170 80 186 7 8 13 21 13 27 0 17 38
89 81 153 43 64 109 122 123 109 6 -6 5 -49 -1 -109z m5416 42 c86 -97 130
-176 220 -398 36 -87 45 -196 23 -272 -26 -87 -61 -43 -86 107 -19 111 -69
281 -92 315 -8 11 -14 27 -14 37 0 22 -19 33 -32 20 -8 -8 -6 -31 6 -79 16
-63 39 -338 29 -355 -6 -11 -67 -10 -96 1 -34 13 -38 30 -26 119 11 89 13 346
3 468 -8 102 3 108 65 37z m1454 -115 c2 -7 -1 -24 -8 -38 -7 -14 -20 -50 -29
-80 -9 -30 -25 -85 -36 -122 -53 -182 -170 -339 -235 -314 -23 9 -18 39 20
118 40 83 49 99 88 149 15 20 27 40 27 44 0 3 12 22 26 40 33 43 27 70 -7 34
-13 -14 -36 -40 -51 -58 -71 -84 -67 39 4 131 17 22 56 50 100 72 78 39 94 43
101 24z m-8361 -65 c105 -61 201 -180 210 -258 4 -38 -21 -45 -42 -11 -53 85
-87 126 -104 126 -15 0 -17 -5 -13 -29 8 -38 107 -179 175 -249 29 -30 51 -59
49 -66 -6 -19 -45 -19 -98 0 -43 16 -56 28 -94 84 -40 61 -115 210 -115 229 0
5 -6 22 -14 38 -24 50 -45 97 -56 126 -21 59 13 62 102 10z m7259 -134 c19
-66 2 -186 -23 -161 -25 25 -21 198 5 189 6 -2 14 -14 18 -28z m-6137 -25 c18
-48 -6 -184 -33 -184 -22 0 -24 69 -5 173 6 30 28 36 38 11z m5253 -216 c15
-7 38 -22 49 -35 23 -25 48 -100 42 -128 -1 -10 -28 -31 -58 -46 -88 -46 -143
-35 -180 34 -37 68 -18 139 44 170 38 19 67 21 103 5z m-4385 -24 c61 -23 78
-47 78 -105 0 -42 -5 -53 -35 -84 -25 -24 -45 -35 -66 -35 -47 0 -104 34 -123
74 -15 32 -15 38 0 78 34 87 66 102 146 72z m-1168 -159 c113 -235 119 -255
77 -255 -31 0 -66 62 -91 160 -5 19 -20 64 -33 100 -42 115 -9 111 47 -5z
m6148 31 c29 -13 71 -40 93 -60 22 -21 57 -52 78 -69 22 -18 51 -42 65 -55 15
-13 47 -40 72 -60 119 -97 341 -292 391 -342 37 -39 62 -76 77 -115 25 -66 29
-142 7 -171 -8 -10 -15 -26 -15 -35 0 -9 -13 -35 -30 -57 -16 -23 -30 -46 -30
-52 0 -5 -25 -29 -57 -52 -52 -40 -61 -43 -128 -46 -72 -4 -89 1 -185 53 -33
18 -146 144 -243 270 -179 234 -257 319 -355 393 -71 54 -78 57 -143 60 l-68
4 -65 -51 c-76 -61 -108 -108 -110 -161 -1 -49 34 -90 76 -90 62 0 92 -26 363
-311 307 -323 370 -393 387 -430 41 -91 8 -250 -67 -324 -38 -37 -122 -75
-167 -75 -26 0 -103 -38 -129 -63 -21 -20 -75 -59 -164 -117 -73 -48 -264
-175 -287 -191 -15 -10 -30 -19 -34 -19 -3 0 -25 -12 -48 -28 -22 -15 -75 -45
-116 -66 -41 -21 -82 -42 -90 -46 -32 -18 -207 -99 -250 -115 -25 -10 -54 -21
-65 -26 -80 -33 -104 -42 -130 -49 -16 -5 -75 -25 -130 -45 -55 -20 -113 -40
-130 -44 -36 -10 -186 -58 -235 -76 -19 -7 -71 -20 -115 -29 -44 -8 -107 -21
-140 -27 -84 -17 -1059 -25 -1152 -9 -38 6 -98 15 -134 19 -36 5 -90 14 -120
20 -30 7 -85 19 -124 27 -145 31 -337 83 -465 125 -153 51 -218 76 -305 114
-16 7 -55 23 -85 35 -53 21 -334 158 -375 183 -11 7 -39 24 -63 40 -24 15 -46
27 -50 27 -4 0 -29 15 -57 33 -27 19 -102 68 -165 110 -63 42 -141 98 -174
124 -80 65 -133 92 -184 92 -61 1 -105 25 -133 73 -13 22 -34 57 -46 77 -18
30 -22 51 -23 125 0 84 1 90 32 130 18 22 35 43 39 46 3 3 111 122 240 265
129 143 255 282 279 309 30 33 69 60 120 84 124 59 150 110 88 168 -73 68
-142 94 -251 94 -103 0 -161 -27 -239 -112 -31 -35 -90 -100 -132 -145 -41
-45 -81 -93 -88 -107 -18 -34 -104 -160 -155 -228 -96 -126 -223 -193 -320
-168 -60 15 -93 39 -139 101 -71 97 -77 114 -78 229 l0 105 41 55 c59 78 528
520 552 520 6 0 11 4 11 9 0 5 17 19 38 32 20 12 42 27 47 33 6 6 36 24 68 40
67 34 109 31 167 -9 69 -48 71 -104 6 -173 -43 -46 -82 -42 -109 12 l-21 39
30 24 c16 13 35 28 42 34 24 20 9 44 -28 47 -68 6 -140 -73 -140 -153 0 -57
18 -96 59 -131 39 -32 50 -33 216 -14 145 16 287 9 340 -16 97 -45 165 -128
165 -199 0 -52 -13 -69 -75 -105 -107 -61 -136 -105 -121 -184 5 -25 21 -47
62 -81 54 -46 55 -47 97 -37 72 18 164 -7 247 -69 19 -14 42 -29 50 -32 8 -4
29 -16 45 -27 17 -11 37 -23 45 -27 8 -4 69 -43 135 -88 130 -88 319 -185 359
-185 12 0 138 -50 179 -71 43 -23 163 -55 297 -79 25 -5 65 -13 90 -19 76 -16
219 -40 345 -57 185 -25 711 -6 877 31 37 8 95 15 128 15 48 0 77 7 127 30 35
16 69 30 75 30 5 0 22 6 36 14 29 14 80 33 127 46 17 5 75 25 130 45 55 20
111 40 125 44 14 5 51 20 81 35 31 14 59 26 62 26 10 0 195 112 270 163 38 26
70 47 72 47 2 0 24 14 48 30 25 17 48 30 53 30 4 0 15 6 23 13 27 22 162 75
237 93 59 13 78 23 108 54 48 51 54 87 27 144 -25 51 -90 100 -146 110 -49 10
-60 35 -40 96 31 94 130 202 232 254 40 20 150 21 195 2 100 -42 120 -48 177
-48 115 0 168 67 141 177 -24 93 -94 149 -164 131 -37 -9 -33 -20 19 -50 44
-26 61 -55 53 -93 -5 -27 -65 -22 -116 11 -37 23 -42 31 -42 62 0 62 66 124
132 124 21 0 61 -11 90 -24z m-6797 -26 c96 -12 183 -34 227 -56 14 -8 31 -14
38 -14 11 0 196 -89 235 -113 48 -29 70 -50 107 -99 44 -59 47 -92 8 -96 -17
-2 -55 17 -115 57 -137 90 -328 191 -360 191 -28 0 -15 -30 28 -60 203 -147
248 -183 290 -228 26 -28 47 -56 47 -62 0 -24 -21 -48 -51 -59 -25 -9 -38 -7
-72 10 -59 31 -173 147 -272 278 -84 113 -155 179 -222 208 -18 7 -33 20 -33
28 0 16 28 35 44 30 6 -2 52 -8 101 -15z m8043 -2 c2 -10 -16 -31 -50 -56 -65
-49 -187 -173 -225 -228 -72 -106 -150 -204 -171 -213 -19 -9 -27 -7 -47 14
-14 13 -25 32 -25 43 0 42 135 194 253 284 81 62 97 82 79 100 -8 8 -19 5 -41
-8 -65 -41 -279 -189 -340 -235 -35 -27 -67 -49 -71 -49 -4 0 -19 10 -34 21
-39 31 -30 56 39 112 116 94 159 117 346 194 47 19 183 42 239 40 33 -2 46 -6
48 -19z m-776 -34 c-5 -33 -66 -144 -78 -144 -21 0 -25 32 -7 59 27 40 41 64
53 89 12 27 36 24 32 -4z m-5578 -135 c-9 -86 -20 -101 -54 -79 -24 15 -17
122 10 160 20 28 24 30 37 17 13 -12 14 -30 7 -98z m4606 59 c24 -39 26 -81 5
-98 -20 -16 -32 -6 -45 38 -24 87 1 124 40 60z m177 -286 c17 -15 54 -56 82
-92 27 -36 61 -78 74 -95 14 -16 70 -87 126 -157 55 -70 105 -129 111 -133 29
-18 -15 -125 -51 -125 -11 0 -39 21 -63 48 -298 330 -364 386 -473 407 -41 7
-73 30 -73 51 0 23 52 74 99 99 65 34 126 33 168 -3z m1016 22 c9 -10 -15 -54
-30 -54 -17 0 -17 47 0 53 17 8 23 8 30 1z m-5808 -80 c11 -4 37 -18 58 -31
64 -40 42 -92 -39 -93 -30 0 -53 -9 -85 -32 -24 -17 -46 -34 -49 -38 -5 -7
-63 -71 -253 -278 -37 -40 -81 -91 -99 -113 -17 -21 -39 -39 -49 -39 -10 0
-30 21 -48 51 l-32 50 68 102 c85 129 123 176 251 308 90 94 110 109 155 121
49 14 70 13 122 -8z m796 -131 c21 -45 152 -227 191 -266 21 -21 21 -20 19
-112 -4 -162 -28 -146 -126 90 -42 100 -56 120 -78 112 -13 -5 -12 -15 5 -74
11 -37 25 -86 30 -108 6 -22 17 -55 24 -73 8 -18 14 -41 14 -52 0 -10 11 -41
25 -68 36 -71 34 -86 -11 -79 -42 7 -113 62 -144 112 -21 34 -22 43 -15 183
10 225 11 284 2 318 -6 24 -4 36 8 48 25 24 31 20 56 -31z m3126 -99 c10 -26
-24 -368 -40 -406 -8 -18 -28 -48 -46 -67 -28 -30 -34 -33 -47 -19 -13 13 -13
20 2 59 9 24 20 71 24 104 3 33 12 73 18 88 15 36 15 87 0 87 -20 0 -48 -32
-48 -56 0 -25 -24 -54 -46 -54 -20 0 -19 88 2 120 28 41 147 160 162 160 7 0
15 -7 19 -16z m548 -8 c39 -16 53 -52 35 -85 -19 -37 -55 -27 -79 23 -20 41
-20 76 0 76 5 0 25 -6 44 -14z m-4287 -80 c4 -29 -21 -66 -43 -66 -41 0 -42
74 -2 90 32 12 42 7 45 -24z m419 -46 c57 -56 75 -89 65 -118 -7 -21 -26 -13
-51 23 -13 19 -27 32 -32 29 -17 -10 -9 -43 26 -95 38 -59 43 -77 20 -85 -21
-9 -61 20 -88 64 -19 30 -25 57 -31 140 -6 95 -6 102 12 102 10 0 45 -27 79
-60z m540 -32 c3 -17 22 -41 45 -59 101 -81 218 -229 285 -364 76 -151 80
-182 23 -177 -19 1 -44 12 -56 23 -19 18 -80 133 -132 249 -9 19 -29 51 -44
71 -15 20 -28 42 -28 49 0 18 -63 110 -76 110 -21 0 -25 -31 -8 -64 16 -33 41
-103 69 -201 9 -33 23 -73 31 -88 8 -16 14 -38 14 -49 0 -18 -4 -19 -37 -13
-77 14 -113 48 -152 145 -20 48 -25 206 -11 320 14 112 25 133 53 99 10 -12
21 -35 24 -51z m2521 -9 c5 -98 -30 -273 -71 -359 -25 -53 -39 -69 -87 -98
-24 -14 -40 -18 -50 -12 -12 8 -6 27 37 112 29 57 59 120 68 142 18 47 20 106
2 106 -10 0 -63 -73 -76 -105 -5 -14 -88 -112 -133 -158 -21 -21 -57 -67 -80
-103 -32 -49 -48 -64 -63 -62 -15 2 -21 12 -23 38 -3 39 15 77 90 187 54 79
78 105 216 231 55 51 111 109 123 128 11 19 26 33 33 31 6 -2 12 -34 14 -78z
m448 67 c3 -8 -1 -25 -9 -38 -8 -13 -22 -55 -32 -94 -21 -82 -62 -149 -90
-149 -29 0 -24 51 9 103 33 53 33 80 1 92 -25 9 -25 11 -11 38 25 48 119 82
132 48z m-339 -309 c-8 -18 -23 -49 -33 -69 -18 -38 -51 -55 -69 -37 -12 12
50 134 80 155 29 21 42 -8 22 -49z m-4382 7 c30 -32 32 -63 6 -95 -16 -20 -29
-23 -115 -27 -132 -6 -146 10 -52 58 26 14 60 40 73 58 31 39 56 41 88 6z
m1607 -103 c1 -13 -3 -26 -9 -28 -9 -3 -13 7 -13 33 0 41 16 37 22 -5z m2068
13 c0 -26 -32 -67 -120 -154 -52 -51 -94 -102 -104 -126 l-18 -41 -108 -27
c-111 -27 -180 -33 -180 -17 0 17 12 41 21 41 4 0 61 36 126 80 182 124 214
147 272 198 82 71 111 83 111 46z m365 -34 c16 -26 -77 -160 -111 -160 -26 0
-15 30 38 100 53 71 62 78 73 60z m2130 -66 c44 -8 86 -17 93 -19 21 -8 -3
-40 -55 -74 -27 -17 -68 -45 -93 -61 -55 -38 -94 -37 -98 1 -4 31 12 46 53 51
22 2 30 8 30 23 0 17 -6 20 -43 17 -24 -2 -49 2 -57 8 -20 17 -19 57 3 69 18
11 35 9 167 -15z m-6257 4 c18 -18 15 -36 -10 -52 -18 -12 -32 -13 -67 -5 -31
7 -47 7 -55 -1 -17 -17 6 -44 44 -51 38 -8 50 -23 50 -61 0 -25 -3 -28 -36
-28 -20 0 -69 16 -117 39 -45 22 -94 43 -109 46 -28 7 -34 20 -20 42 9 15 77
40 172 63 90 22 132 24 148 8z m3805 -12 c23 -34 33 -139 16 -153 -28 -21 -70
-25 -90 -7 -19 17 -21 16 -58 -20 -41 -40 -66 -44 -85 -14 -9 15 4 33 89 118
55 55 103 100 106 100 4 0 14 -11 22 -24z m-1378 -32 c27 -64 35 -136 19 -161
-17 -27 -30 -28 -83 -7 -33 13 -42 23 -55 62 -9 25 -16 49 -16 54 0 11 60 72
85 86 25 13 32 8 50 -34z m156 -27 c25 -20 51 -37 58 -37 6 0 11 -3 11 -7 0
-8 61 -46 159 -98 39 -21 56 -36 56 -50 0 -27 -41 -31 -125 -11 -36 8 -89 18
-118 21 -61 8 -74 22 -98 106 -25 88 -27 98 -20 115 7 18 4 19 77 -39z m-547
-3 c9 -3 16 -15 16 -26 0 -27 -30 -20 -41 10 -9 23 -3 27 25 16z"/>
<path d="M4857 7193 c-2 -5 -8 -26 -11 -48 -4 -22 -12 -57 -18 -77 -11 -36
-13 -38 -53 -38 -53 0 -76 -21 -52 -48 14 -15 16 -34 10 -116 -8 -126 -21
-146 -98 -146 -45 0 -55 -4 -69 -25 -21 -32 -20 -41 4 -65 14 -14 33 -20 68
-20 33 0 54 -6 68 -19 19 -17 20 -33 23 -377 2 -295 0 -362 -12 -378 -9 -13
-30 -20 -68 -24 -124 -11 -137 -116 -13 -110 25 1 51 -5 68 -15 26 -17 26 -18
26 -151 0 -117 2 -135 19 -150 17 -15 54 -17 420 -14 329 2 402 5 406 17 7 19
-13 41 -39 42 -13 1 -7 5 18 13 24 8 44 22 53 39 11 22 20 27 53 27 38 0 70
20 70 43 0 8 4 7 12 -1 7 -7 39 -12 74 -12 70 0 94 -15 39 -26 -39 -7 -54 -22
-35 -34 22 -13 209 -21 295 -13 71 7 81 11 90 32 9 22 13 23 79 18 43 -4 98
-1 145 8 97 19 94 19 87 -10 -5 -18 -1 -27 14 -35 47 -25 81 21 45 60 -22 25
3 54 46 55 l34 0 2 105 c2 149 -4 197 -28 203 -19 5 -28 47 -10 47 29 0 41 34
41 111 0 53 4 78 10 74 6 -4 10 -32 9 -63 -1 -31 -1 -130 0 -219 1 -89 0 -168
-1 -175 -5 -22 50 -21 78 1 15 12 36 21 48 21 19 0 64 15 149 49 71 28 2 88
-113 98 l-70 6 -1 91 c-2 134 0 191 12 288 10 83 9 90 -11 123 -22 36 -21 83
3 113 6 7 9 37 8 66 -3 71 13 88 70 75 47 -11 76 2 105 46 18 28 13 53 -19 83
-18 17 -39 22 -90 25 -88 5 -94 11 -78 84 6 32 14 70 17 85 7 30 -33 113 -72
149 l-23 22 -9 -24 c-5 -13 -7 -41 -4 -61 6 -49 -15 -51 -24 -3 -6 33 -27 65
-81 122 -22 23 -23 23 -55 7 -49 -26 -184 -29 -353 -9 -216 26 -357 12 -407
-40 -30 -32 -40 -31 -88 4 -64 46 -265 66 -406 40 -58 -11 -337 -19 -361 -11
-7 2 -13 12 -13 22 0 38 -21 64 -33 43z m682 -139 c71 -13 92 -21 119 -47 l34
-32 -4 -702 -3 -703 -180 3 c-99 1 -258 0 -353 -2 -150 -4 -174 -3 -189 11
-14 15 -16 88 -21 742 l-5 726 24 0 c13 -1 44 -5 69 -10 42 -8 147 -1 275 19
81 13 143 12 234 -5z m569 0 c102 -21 334 -24 380 -5 24 10 36 11 41 3 5 -8 7
-1321 2 -1423 -3 -51 -160 -70 -361 -44 -86 11 -181 16 -260 13 l-125 -3 -3
706 c-2 799 -11 724 83 752 66 20 148 21 243 1z m-1273 -114 c-4 -11 -10 -20
-15 -20 -11 0 -23 57 -15 70 11 18 37 -27 30 -50z m1847 -362 c-1 -199 -6
-366 -10 -370 -14 -14 -21 119 -22 414 -1 277 4 348 23 329 8 -8 10 -126 9
-373z m-1845 159 c-4 -50 -2 -61 14 -75 22 -19 24 -31 6 -64 -9 -18 -12 -75
-11 -204 2 -212 1 -194 18 -194 19 0 26 -22 26 -82 0 -42 -3 -51 -20 -55 -24
-6 -33 -35 -28 -89 2 -31 7 -40 24 -42 21 -3 34 -27 34 -64 0 -9 -12 -23 -27
-30 l-28 -13 2 -139 c2 -76 5 -142 8 -146 3 -5 19 -1 36 8 28 16 31 16 40 0 5
-9 25 -22 44 -28 30 -10 35 -16 33 -38 l-3 -27 115 0 c114 0 114 0 120 25 5
21 15 27 60 37 68 14 190 16 190 3 0 -5 -28 -10 -62 -12 -63 -3 -63 -3 -63
-33 l0 -30 -110 -13 c-138 -16 -362 -9 -405 13 -17 9 -30 23 -31 33 -1 9 -2
35 -4 57 -14 232 -25 1014 -14 1021 12 7 11 81 -1 89 -13 8 -13 146 1 182 l11
28 15 -29 c11 -21 14 -46 10 -89z m1923 -4 c13 -9 40 -19 59 -23 48 -7 49 -34
1 -38 -19 -2 -47 -13 -63 -24 -25 -18 -28 -25 -23 -57 6 -37 -7 -72 -21 -57
-9 8 -16 183 -8 204 6 17 26 15 55 -5z m-1996 -29 c20 -51 -6 -102 -38 -75 -8
6 -33 18 -57 25 l-44 13 41 12 c23 6 47 18 54 26 16 20 36 19 44 -1z m2016
-898 c39 -18 33 -48 -13 -59 -52 -12 -67 -4 -67 36 0 51 12 55 80 23z m-2015
-4 c6 -4 11 -28 11 -54 1 -43 -1 -48 -20 -48 -12 0 -27 9 -33 20 -7 10 -31 25
-53 31 -44 13 -37 29 11 29 15 0 32 7 39 15 14 16 29 19 45 7z"/>
<path d="M5163 6569 c-41 -12 -46 -20 -28 -55 11 -23 14 -74 14 -224 0 -107
-1 -213 -2 -234 -2 -37 0 -40 31 -48 17 -5 47 -5 65 0 36 9 37 20 18 102 -24
97 -24 104 -1 128 l22 23 31 -24 c39 -30 76 -100 76 -148 1 -19 7 -43 14 -52
16 -22 111 -35 131 -18 17 15 13 31 -25 88 -15 22 -30 50 -33 61 -4 11 -13 26
-21 32 -26 21 -17 70 22 129 27 40 37 66 37 92 -1 34 -37 103 -65 125 -8 6
-60 16 -117 23 -117 13 -125 13 -169 0z m201 -60 c39 -18 61 -73 47 -118 -17
-60 -33 -73 -89 -79 -51 -4 -51 -4 -68 32 -15 31 -16 43 -5 88 19 82 53 105
115 77z"/>
<path d="M6052 6577 c-10 -11 -9 -36 2 -118 8 -57 17 -156 20 -219 6 -104 4
-118 -14 -145 -41 -62 -10 -95 77 -79 55 11 52 -5 33 174 -7 61 -9 163 -6 242
4 80 2 139 -3 142 -5 4 -29 9 -53 12 -32 5 -47 2 -56 -9z"/>
<path d="M2780 7135 c-133 -29 -225 -38 -284 -27 -35 7 -91 12 -124 12 -67 0
-47 14 -214 -147 -32 -31 -39 -75 -25 -161 12 -78 8 -82 -83 -82 -56 0 -69 -4
-93 -25 -34 -32 -34 -41 0 -92 29 -45 54 -55 120 -46 27 4 43 1 48 -8 5 -7 10
-99 11 -203 2 -105 5 -256 8 -336 7 -195 9 -190 -69 -190 -53 0 -66 -4 -90
-26 -23 -21 -27 -31 -22 -61 4 -20 17 -47 29 -61 21 -22 28 -24 85 -18 55 4
64 3 73 -14 14 -27 12 -69 -6 -123 -11 -34 -13 -51 -5 -66 6 -11 11 -42 11
-69 0 -28 6 -54 13 -59 6 -6 51 -9 100 -8 65 1 92 6 106 19 16 15 52 17 342
16 299 -1 324 0 336 16 7 10 12 23 10 29 -3 7 -134 11 -393 12 -469 2 -424
-15 -424 169 0 130 10 163 29 90 6 -24 18 -46 26 -50 8 -3 15 -12 15 -19 0 -8
8 -21 18 -29 19 -17 114 -48 145 -48 15 0 18 -3 10 -11 -6 -6 -43 -11 -82 -12
-66 -2 -71 -4 -69 -22 3 -19 13 -20 178 -26 253 -9 483 -10 497 -1 6 4 13 16
15 27 2 17 -3 20 -37 23 -22 2 -44 8 -50 14 -10 10 86 6 152 -8 18 -3 41 -3
50 1 21 9 269 17 260 9 -3 -4 -26 -7 -51 -8 -47 -2 -86 -27 -86 -54 0 -13 29
-14 231 -8 l231 6 27 29 c28 30 92 47 142 39 23 -4 23 -5 4 -13 -11 -5 -35
-19 -53 -31 l-33 -23 33 -6 c18 -3 69 -5 113 -3 73 3 80 5 83 24 3 23 -39 64
-64 64 -21 0 -17 18 7 30 11 7 26 25 33 41 l13 30 17 -25 c39 -60 41 -41 39
292 -1 174 -6 484 -9 689 -7 347 -6 373 10 379 10 4 22 2 27 -3 8 -8 25 -973
21 -1213 0 -36 -1 -109 -1 -162 0 -78 -5 -106 -21 -138 l-20 -40 -410 0 c-430
0 -450 -2 -382 -42 23 -14 78 -16 422 -17 286 0 405 3 430 12 48 17 57 53 42
173 -8 62 -9 102 -2 119 9 23 14 25 69 25 33 0 71 4 85 10 33 12 43 52 22 85
-15 22 -23 25 -80 25 -39 0 -67 5 -73 13 -19 23 -22 82 -24 416 -2 380 -6 363
82 360 65 -3 99 20 99 66 0 18 -6 37 -12 41 -7 5 -40 7 -74 6 -56 -2 -63 0
-78 23 -24 36 -32 233 -10 242 8 3 14 16 14 29 0 26 2 26 -102 26 l-67 0 -17
45 -17 44 -76 -8 c-107 -11 -316 -8 -379 5 -29 7 -106 12 -170 12 -123 -1
-115 1 -212 -59 -12 -7 -30 0 -70 27 l-55 37 -125 2 c-69 1 -132 0 -140 -2z
m218 -87 c60 -15 122 -53 122 -76 0 -9 1 -329 2 -710 l3 -692 -25 0 c-14 0
-57 7 -95 15 -57 12 -118 14 -336 9 l-267 -7 -18 29 c-18 27 -19 66 -24 714
-3 377 -3 691 -1 698 4 16 53 15 121 -3 70 -19 98 -19 185 -1 166 35 261 42
333 24z m614 -25 c134 -16 235 -12 313 12 45 14 56 -48 46 -265 -2 -47 0 -317
4 -600 5 -348 4 -524 -4 -542 -17 -45 -81 -53 -438 -51 l-311 1 -6 668 c-4
368 -9 687 -12 710 -5 36 -3 42 23 59 55 37 131 39 385 8z m-1350 -217 c-1
-27 2 -54 7 -60 14 -16 16 -195 4 -236 -6 -19 -14 -66 -17 -103 -6 -59 -4 -72
14 -97 20 -28 20 -32 6 -52 -23 -32 -23 -224 -1 -256 14 -19 14 -25 1 -50 -8
-16 -14 -49 -13 -74 2 -42 -6 -68 -18 -57 -2 3 -5 123 -6 267 -1 144 -5 264
-9 267 -3 2 -5 32 -4 67 12 274 12 330 3 358 -14 40 -4 83 19 78 14 -3 16 -13
14 -52z m1765 -128 c-2 -13 -4 -3 -4 22 0 25 2 35 4 23 2 -13 2 -33 0 -45z
m-1831 20 c5 -7 10 -29 11 -50 5 -47 -24 -68 -59 -43 -13 8 -38 15 -58 15 -19
0 -42 5 -50 10 -13 9 -12 13 9 30 13 11 35 20 50 20 15 0 36 7 47 15 24 18 40
19 50 3z m2004 -10 c17 -12 30 -28 30 -35 0 -17 -44 -37 -64 -30 -23 9 -21 87
1 87 2 0 17 -10 33 -22z m-170 -332 c-7 -7 -10 12 -9 50 l1 59 9 -50 c5 -30 4
-54 -1 -59z m2 -58 c-9 -9 -12 -7 -12 12 0 19 3 21 12 12 9 -9 9 -15 0 -24z
m-1814 -538 c3 -65 -7 -77 -51 -57 -19 10 -53 17 -76 17 -28 0 -41 4 -41 14 0
19 18 31 73 46 26 7 50 17 53 22 3 5 13 8 22 6 12 -2 18 -16 20 -48z m2026 21
c50 -6 78 -31 35 -31 -12 0 -42 -9 -66 -21 -50 -24 -63 -19 -63 25 0 38 8 49
29 40 9 -3 38 -9 65 -13z m-1410 -277 c34 -13 1 -24 -74 -24 -72 0 -108 11
-78 23 19 8 133 8 152 1z"/>
<path d="M2943 6563 c-24 -5 -40 -41 -29 -68 7 -18 -21 -146 -35 -159 -5 -6
-9 -16 -9 -23 0 -25 -51 -94 -66 -91 -19 4 -78 143 -94 223 -24 117 -18 110
-96 110 -65 0 -69 -1 -72 -24 -2 -13 0 -26 5 -30 23 -16 76 -119 129 -246 45
-111 103 -233 113 -239 13 -8 51 33 51 54 0 9 7 25 15 36 8 10 15 27 15 37 0
11 6 31 14 45 23 42 76 183 76 201 0 9 14 36 30 61 37 56 40 105 8 114 -13 3
-25 5 -28 5 -3 -1 -15 -4 -27 -6z"/>
<path d="M3350 6555 c-10 -12 -7 -20 14 -45 38 -46 50 -101 41 -195 -5 -44 -9
-105 -11 -135 -1 -30 -8 -76 -15 -102 -8 -31 -10 -51 -4 -57 6 -5 51 -15 100
-21 81 -11 97 -11 159 6 65 18 70 21 79 53 9 37 2 97 -13 106 -14 9 -50 -13
-50 -30 0 -25 -71 -85 -100 -85 -43 0 -54 23 -57 118 -5 108 3 123 49 98 57
-31 73 -21 76 50 4 77 -13 97 -58 71 -58 -34 -86 -13 -71 53 11 50 17 56 54
65 25 7 34 1 77 -46 27 -29 51 -51 53 -49 28 31 25 107 -5 135 -8 8 -65 15
-159 19 -123 5 -149 4 -159 -9z"/>
<path d="M6675 5580 c-3 -5 -3 -31 1 -57 5 -41 3 -51 -15 -67 -19 -17 -27 -18
-69 -8 -26 5 -51 7 -57 2 -11 -8 -360 -23 -485 -20 -41 1 -81 5 -90 9 -8 5
-30 11 -47 14 -26 5 -37 2 -53 -15 -22 -24 -24 -36 -10 -58 8 -13 51 -14 292
-12 156 1 300 5 320 8 28 4 41 1 56 -14 16 -16 34 -19 120 -20 66 0 104 4 110
11 23 29 31 163 12 213 -8 19 -17 24 -44 24 -19 0 -38 -4 -41 -10z"/>
<path d="M5692 5409 c-40 -26 -51 -62 -27 -89 26 -29 120 -29 135 0 15 28 5
54 -31 85 -37 30 -36 30 -77 4z m54 -34 c4 -8 4 -22 0 -30 -7 -19 -36 -8 -36
14 0 32 26 43 36 16z"/>
<path d="M3140 5387 c-19 -10 -25 -20 -25 -47 0 -30 4 -35 31 -43 67 -19 119
38 75 82 -24 24 -45 26 -81 8z"/>
<path d="M4050 4620 c-41 -4 -91 -13 -110 -19 -19 -7 -102 -14 -184 -17 -84
-2 -155 -9 -162 -15 -7 -6 -18 -26 -24 -44 -7 -20 -20 -37 -33 -41 -12 -4 -25
-11 -29 -17 -9 -15 2 -1350 12 -1360 4 -5 18 -4 30 3 18 10 25 8 44 -9 12 -11
36 -24 54 -27 50 -10 48 -24 -2 -24 -33 0 -52 -6 -66 -20 -40 -40 -22 -43 269
-38 278 6 394 -1 430 -24 23 -14 26 -12 35 19 8 24 -26 54 -79 69 l-30 8 32 4
c18 2 41 -2 52 -7 26 -14 104 -14 118 0 8 8 17 7 34 -5 14 -10 45 -16 79 -17
47 0 52 -2 33 -11 -25 -12 -31 -38 -10 -39 66 -4 747 2 773 7 41 7 46 35 10
52 -28 12 -100 5 -138 -14 -16 -9 -60 -14 -110 -14 -119 0 -130 16 -16 23 51
3 116 14 145 25 58 21 133 69 134 86 0 6 5 -2 11 -17 5 -15 15 -26 22 -24 8 3
12 181 14 678 l2 675 -46 60 c-25 32 -48 61 -50 63 -2 2 -86 3 -186 2 -149 -2
-191 1 -228 14 -34 13 -84 17 -201 18 -137 2 -159 0 -176 -15 -11 -10 -23 -18
-28 -18 -5 0 -21 -12 -36 -26 l-28 -26 -28 19 c-84 60 -186 79 -333 63z m249
-86 c70 -29 71 -33 71 -179 0 -124 1 -133 23 -153 19 -18 26 -20 47 -9 27 14
28 25 19 220 -4 87 -4 87 26 111 51 42 233 46 408 10 84 -17 288 -18 334 -2
18 6 35 10 38 7 2 -3 8 -317 11 -697 6 -670 6 -692 -12 -698 -11 -3 -37 -13
-59 -22 -34 -15 -78 -17 -344 -14 -216 2 -313 0 -333 -9 -22 -9 -31 -9 -43 1
-13 11 -15 32 -9 134 4 80 3 140 -5 179 -11 53 -15 57 -40 57 -22 0 -30 -7
-46 -42 -16 -37 -17 -49 -7 -98 17 -79 16 -205 -1 -219 -10 -8 -40 -7 -114 4
-77 12 -121 13 -199 5 -54 -5 -170 -10 -256 -10 -148 0 -159 1 -179 21 -19 19
-21 29 -15 82 3 33 6 340 6 682 l0 622 133 0 c78 -1 147 4 168 12 95 31 308
34 378 5z m-184 -1504 c-3 -5 -22 -10 -41 -10 -19 0 -34 5 -34 10 0 6 18 10
41 10 24 0 38 -4 34 -10z"/>
<path d="M3733 4108 c-28 -31 -36 -62 -28 -114 5 -33 11 -44 24 -44 24 0 41
20 41 50 0 39 27 70 59 70 16 0 31 -7 35 -15 16 -42 17 -249 2 -380 -15 -131
-15 -141 1 -152 21 -16 50 -16 92 -2 35 12 36 18 17 93 -11 40 -14 101 -11
235 2 100 7 190 10 201 8 26 48 26 73 0 11 -12 28 -36 38 -55 20 -38 38 -45
48 -19 9 24 7 107 -4 124 -10 16 -123 27 -296 29 -71 1 -83 -2 -101 -21z"/>
<path d="M4850 4114 c-51 -32 -65 -63 -65 -146 0 -88 3 -93 120 -187 130 -103
149 -138 100 -186 -28 -29 -58 -31 -108 -10 -35 14 -77 68 -77 98 0 16 -28 37
-49 37 -16 0 -24 -58 -16 -127 8 -75 14 -80 129 -90 81 -6 110 4 169 59 47 45
63 96 47 154 -10 36 -32 62 -131 155 -86 80 -119 117 -119 134 0 26 42 65 71
65 27 0 67 -39 92 -90 26 -52 46 -57 66 -15 13 26 12 35 -5 84 -17 50 -23 57
-59 68 -57 17 -135 15 -165 -3z"/>
<path d="M4391 4087 c-6 -8 -24 -51 -42 -98 -28 -77 -42 -124 -70 -233 -13
-52 -64 -160 -83 -175 -37 -31 -11 -71 45 -71 50 0 66 21 50 65 -27 76 36 115
174 106 27 -1 47 -35 56 -95 9 -55 21 -72 59 -81 18 -4 34 0 53 15 15 12 27
25 27 29 0 4 -15 28 -34 52 -36 47 -63 106 -91 204 -17 56 -24 79 -55 165 -6
19 -15 46 -18 60 -12 58 -47 85 -71 57z m48 -227 c41 -79 20 -125 -52 -118
-39 4 -45 28 -26 97 16 59 17 61 39 61 11 0 26 -15 39 -40z"/>
<path d="M5431 4467 c-7 -10 -8 -55 -3 -152 l7 -138 40 -3 c22 -2 59 -5 83 -7
57 -5 76 -24 31 -31 -119 -18 -141 -16 -150 13 -3 7 -6 -148 -6 -345 -3 -649
-8 -825 -24 -834 -20 -13 -132 -24 -224 -22 -427 9 -651 6 -667 -7 -10 -8 -18
-19 -18 -25 0 -28 44 -36 240 -41 196 -5 714 10 745 21 12 5 15 29 15 135 0
151 5 159 102 159 62 0 78 13 78 63 0 38 -23 50 -95 48 -52 -1 -66 2 -74 16
-11 22 -19 753 -7 771 5 9 28 12 71 10 56 -2 68 1 90 22 33 31 32 51 -6 79
-26 19 -40 22 -83 18 -28 -2 -62 -1 -74 4 -26 10 -26 16 -6 162 9 70 -32 123
-65 84z m141 -1207 c20 0 39 -4 42 -9 6 -10 -26 -21 -62 -21 -13 0 -35 -9 -49
-20 -45 -35 -65 -22 -56 36 9 53 9 54 50 33 20 -10 54 -19 75 -19z"/>
<path d="M3408 4448 c-7 -14 -13 -61 -13 -118 0 -92 -1 -95 -27 -107 -14 -7
-50 -18 -79 -23 -29 -6 -55 -13 -58 -15 -11 -12 -4 -77 10 -86 7 -5 38 -9 66
-9 44 0 55 -4 67 -22 18 -30 27 -191 26 -494 0 -269 1 -264 -75 -269 -58 -4
-95 -27 -95 -60 0 -36 35 -55 85 -48 35 4 46 2 62 -16 18 -19 21 -39 25 -151
2 -84 8 -133 17 -143 11 -14 67 -16 469 -14 l457 2 3 26 c4 38 -15 50 -67 38
-26 -6 -119 -8 -220 -4 -97 3 -258 7 -358 10 -100 3 -189 8 -197 11 -35 14
-39 66 -38 603 0 289 1 609 2 710 2 146 -1 185 -11 192 -23 14 -38 10 -51 -13z
m40 -310 c-2 -32 -7 -61 -11 -64 -3 -4 -20 7 -36 25 -19 20 -39 31 -58 31 -30
0 -60 14 -47 22 5 3 26 8 46 12 20 4 47 17 60 31 35 36 51 16 46 -57z m-4
-864 c9 -23 7 -57 -4 -74 -8 -12 -12 -11 -30 8 -11 12 -29 22 -40 22 -10 0
-26 3 -36 7 -13 5 -6 12 32 29 60 27 70 28 78 8z"/>
<path d="M4402 2905 c-37 -16 -47 -34 -38 -70 13 -50 106 -57 128 -10 13 30 3
71 -19 79 -10 3 -22 8 -28 11 -5 2 -25 -2 -43 -10z m58 -50 c0 -10 -10 -15
-30 -15 -20 0 -30 5 -30 15 0 10 10 15 30 15 20 0 30 -5 30 -15z"/>
<path d="M2377 1783 c-15 -14 -6 -52 18 -74 13 -13 25 -27 25 -31 0 -8 -237
-328 -255 -343 -8 -8 -118 -151 -132 -174 -1 -2 -23 -7 -49 -12 -96 -18 -96
-40 1 -113 111 -84 174 -118 202 -111 26 6 31 39 9 64 -23 28 -27 65 -8 99 23
42 121 160 139 166 8 3 37 -13 66 -36 29 -22 67 -47 85 -55 35 -15 44 -51 17
-73 -8 -7 -15 -16 -15 -21 0 -9 -85 -136 -105 -158 -7 -7 -28 -16 -46 -20 -25
-5 -35 -13 -37 -29 -3 -17 9 -29 52 -57 30 -19 58 -35 62 -35 3 0 23 -13 43
-29 48 -37 75 -45 91 -26 14 17 6 62 -17 87 -13 15 -12 21 11 60 14 23 51 93
82 153 90 176 107 208 137 250 15 22 27 44 27 50 1 22 40 55 72 61 37 7 78 40
78 62 0 16 -22 36 -55 52 -22 11 -50 29 -120 77 -40 27 -50 30 -71 21 -28 -13
-33 -58 -9 -78 24 -20 18 -63 -20 -131 -20 -35 -43 -79 -52 -96 -26 -51 -50
-46 -180 41 -24 15 -33 29 -33 49 0 15 4 27 9 27 4 0 26 28 49 63 52 81 69 95
128 110 42 10 49 16 52 38 3 22 -11 37 -93 103 -92 72 -136 91 -158 69z"/>
<path d="M6325 1584 c-46 -7 -149 -45 -205 -75 -8 -5 -35 -18 -58 -31 -53 -27
-92 -62 -92 -82 0 -26 51 -57 81 -51 25 6 31 1 56 -37 44 -69 104 -183 157
-303 49 -109 87 -180 105 -198 16 -16 14 -44 -6 -77 -14 -24 -14 -31 -4 -44 8
-9 22 -16 33 -16 23 0 100 43 120 67 7 9 38 28 68 42 116 55 168 103 226 207
26 46 28 57 28 170 l0 120 -38 57 c-54 81 -167 191 -226 221 -39 20 -71 27
-133 30 -45 2 -95 2 -112 0z m125 -118 c76 -38 90 -48 125 -97 21 -27 53 -82
73 -122 35 -70 36 -75 36 -187 1 -107 -1 -118 -24 -150 -29 -41 -48 -60 -80
-83 -38 -26 -59 -21 -75 17 -8 19 -19 37 -25 41 -5 3 -10 13 -10 20 0 8 -20
48 -45 88 -25 41 -45 77 -45 80 0 4 -14 30 -31 59 -59 99 -161 307 -157 320
13 38 189 48 258 14z"/>
<path d="M5685 1290 c-38 -10 -95 -28 -125 -40 -30 -12 -82 -27 -115 -34 -75
-15 -85 -21 -85 -52 0 -21 9 -29 54 -49 54 -24 66 -38 66 -78 0 -20 14 -70 45
-157 7 -19 20 -62 29 -95 10 -33 22 -73 28 -90 5 -16 14 -49 19 -73 5 -23 12
-50 17 -60 21 -40 21 -80 2 -105 -11 -14 -20 -35 -20 -46 0 -41 38 -39 145 9
22 9 61 25 87 34 26 10 50 22 53 26 9 15 -33 50 -60 50 -13 0 -35 12 -48 26
-27 29 -72 156 -63 179 6 17 52 20 62 4 3 -6 21 -17 38 -25 31 -14 38 -18 111
-64 78 -50 180 -94 215 -93 38 0 108 31 129 57 22 26 6 46 -36 46 -39 0 -99
18 -124 35 -8 6 -30 19 -49 29 -19 11 -37 22 -40 25 -11 13 -70 51 -78 51 -11
0 -42 34 -42 46 0 6 27 27 60 48 49 32 61 44 66 73 10 51 -4 174 -21 193 -8 9
-15 21 -15 27 0 22 -80 89 -126 106 -59 21 -88 20 -179 -3z m133 -116 c40 -37
73 -159 59 -216 -4 -13 -37 -47 -76 -76 -56 -43 -76 -53 -101 -50 -30 3 -34 7
-51 63 -10 33 -24 87 -33 120 -8 33 -20 80 -27 105 -19 64 -18 64 26 72 76 12
180 3 203 -18z"/>
<path d="M3207 1261 c-15 -10 -38 -32 -50 -48 -12 -17 -59 -70 -103 -119 -45
-49 -130 -145 -188 -214 -59 -69 -118 -133 -131 -143 -14 -10 -49 -21 -80 -24
-48 -5 -55 -9 -55 -27 0 -22 33 -42 137 -85 62 -25 58 -25 77 -5 14 14 14 19
1 51 -17 41 -11 59 38 96 l34 26 61 -30 c34 -16 70 -29 79 -29 10 -1 41 -7 68
-14 46 -12 50 -16 53 -47 2 -18 1 -53 -3 -76 -6 -39 -9 -43 -34 -43 -16 0 -34
-7 -41 -15 -21 -25 -7 -48 40 -63 25 -8 53 -19 64 -24 31 -16 110 -38 137 -38
41 0 45 28 8 66 l-31 32 2 383 c1 211 2 390 1 397 -1 18 -51 14 -84 -7z m-43
-268 c-13 -220 -12 -219 -82 -194 -82 30 -122 53 -122 69 0 15 60 91 129 165
20 21 45 37 57 37 22 0 22 -3 18 -77z"/>
<path d="M3551 1174 c-14 -31 -5 -46 40 -65 38 -15 38 -11 -16 -214 -7 -27
-21 -86 -30 -130 -9 -44 -22 -102 -30 -130 -8 -27 -16 -61 -19 -75 -19 -99
-29 -123 -57 -139 -30 -17 -37 -42 -16 -58 40 -32 215 -63 247 -43 11 7 7 16
-18 45 -37 41 -40 72 -16 149 22 67 40 100 56 104 12 2 47 -55 139 -223 77
-143 103 -165 197 -165 72 0 102 12 102 40 0 14 -11 23 -40 31 -40 12 -43 16
-118 134 -6 11 -16 30 -22 42 -5 12 -27 49 -50 81 -59 87 -53 102 36 102 25 0
54 5 65 10 27 15 62 75 83 142 17 55 17 60 0 110 -30 93 -72 143 -152 185 -28
15 -184 53 -217 53 -12 0 -42 9 -66 20 -60 27 -83 25 -98 -6z m320 -127 c82
-55 105 -175 50 -264 -39 -62 -55 -71 -136 -74 -99 -3 -105 8 -77 141 5 25 19
72 30 105 11 33 23 72 26 88 5 23 12 27 40 27 18 0 48 -10 67 -23z"/>
<path d="M4775 1084 c-98 -16 -116 -25 -97 -52 38 -54 43 -111 15 -173 -20
-44 -38 -101 -69 -214 -9 -33 -22 -75 -30 -93 -8 -18 -14 -39 -14 -47 0 -28
-32 -95 -46 -95 -17 0 -44 51 -44 84 0 14 -6 43 -14 63 -7 21 -21 67 -30 103
-10 36 -23 88 -31 115 -8 28 -16 61 -19 75 -2 14 -12 45 -21 69 -16 43 -16 44
11 82 38 55 29 65 -63 73 -43 3 -99 9 -126 12 -49 6 -77 -5 -77 -32 0 -8 20
-34 46 -57 28 -26 48 -56 54 -77 4 -19 18 -60 30 -90 12 -30 25 -69 29 -85 4
-17 13 -40 19 -52 7 -12 12 -31 12 -42 0 -11 6 -35 14 -53 8 -18 27 -76 44
-128 78 -253 71 -236 108 -253 41 -20 53 -16 79 26 69 112 132 268 175 437 24
92 34 128 45 160 7 19 20 56 29 81 12 34 29 55 61 78 50 36 60 72 26 91 -11 5
-21 9 -23 9 -2 -1 -43 -8 -93 -15z"/>
<path d="M5071 1072 c-18 -15 -36 -42 -41 -62 -5 -19 -18 -66 -30 -105 -22
-74 -47 -173 -60 -240 -18 -92 -64 -263 -81 -302 -12 -28 -33 -51 -59 -68 -50
-31 -53 -60 -8 -69 46 -9 127 4 165 27 l34 19 -26 45 c-23 39 -25 48 -15 78
14 43 52 70 110 79 24 4 71 16 104 26 33 11 61 20 62 20 2 0 13 -19 24 -42 24
-50 25 -86 4 -116 -30 -43 -12 -56 66 -49 38 3 79 11 91 18 13 6 45 14 73 18
46 5 51 9 54 34 3 25 1 27 -32 27 -40 0 -91 38 -113 85 -8 16 -25 50 -38 75
-13 25 -24 51 -24 58 -1 7 -21 55 -46 106 -25 52 -45 100 -45 108 0 8 -7 23
-15 34 -8 10 -15 27 -15 37 0 26 -60 143 -84 166 l-22 21 -33 -28z m32 -244
c22 -42 68 -165 74 -199 6 -32 -7 -38 -99 -46 -81 -7 -87 0 -64 81 9 30 16 70
16 90 0 45 24 106 42 106 7 0 21 -15 31 -32z"/>
</g>
</svg>
