 <svg  version="1.0" xmlns="http://www.w3.org/2000/svg"  width="900.000000pt" height="900.000000pt" viewBox="0 0 900.000000 900.000000"  preserveAspectRatio="xMidYMid meet">  <g transform="translate(0.000000,900.000000) scale(0.100000,-0.100000)" fill="#326799" stroke="none"> <path d="M1190 8986 c0 -15 -17 -20 -105 -31 -162 -21 -392 -125 -560 -254 -260 -198 -449 -506 -507 -828 -18 -100 -18 -6666 0 -6766 58 -321 251 -637 507 -829 180 -136 380 -224 590 -260 102 -18 6648 -18 6750 0 328 57 635 243 836 507 133 174 232 397 258 579 10 71 17 89 32 81 5 -4 9 1260 9 3296 0 2939 -2 3303 -15 3313 -9 6 -20 39 -25 76 -47 311 -241 630 -505 831 -169 129 -398 233 -560 254 -88 11 -105 16 -105 31 0 12 -455 14 -3300 14 -2845 0 -3300 -2 -3300 -14z m3655 -402 c77 -4 142 -8 144 -10 2 -2 -29 -5 -70 -5 -41 -1 -83 -3 -94 -4 -11 -1 -40 -5 -65 -8 -25 -3 -58 -11 -75 -18 -16 -7 -37 -14 -45 -15 -8 -1 -28 -8 -45 -15 -16 -7 -38 -13 -47 -14 -10 -1 -29 -10 -42 -19 -14 -9 -38 -16 -53 -16 -15 0 -41 -9 -58 -20 -16 -11 -43 -20 -58 -20 -16 0 -35 -7 -43 -15 -9 -8 -29 -15 -46 -15 -16 0 -42 -6 -56 -14 -52 -27 -103 -46 -121 -46 -10 0 -24 -7 -32 -16 -8 -10 -23 -14 -43 -11 -18 3 -37 -1 -47 -9 -8 -8 -37 -18 -63 -23 -26 -5 -53 -14 -59 -20 -6 -6 -19 -11 -28 -11 -9 0 -36 -11 -59 -24 -24 -13 -49 -22 -57 -19 -7 3 -28 -2 -46 -10 -17 -8 -51 -21 -74 -28 -24 -7 -43 -16 -43 -22 0 -5 -12 -7 -27 -4 -15 3 -41 -2 -57 -10 -34 -18 -131 -52 -166 -59 -14 -3 -34 -10 -45 -14 -11 -5 -67 -25 -124 -45 -96 -32 -106 -34 -127 -20 -43 28 -77 9 -37 -20 15 -11 13 -13 -18 -20 -19 -4 -55 -18 -81 -31 -26 -13 -51 -23 -55 -22 -19 4 -92 -17 -132 -39 -24 -12 -54 -23 -66 -23 -11 0 -30 -7 -41 -15 -10 -8 -31 -15 -45 -15 -14 0 -34 -7 -45 -15 -10 -8 -30 -15 -45 -15 -14 0 -30 -5 -36 -11 -7 -7 -22 -13 -35 -14 -13 -2 -36 -9 -53 -16 -16 -7 -37 -13 -45 -14 -8 -1 -29 -9 -45 -17 -17 -8 -38 -13 -47 -11 -10 3 -31 -5 -47 -16 -16 -12 -37 -21 -46 -21 -9 0 -26 -5 -38 -12 -12 -6 -31 -12 -42 -14 -11 -1 -33 -8 -50 -15 -16 -7 -37 -14 -45 -15 -70 -13 -130 -38 -130 -54 0 -6 -25 -8 -57 -6 -49 3 -62 -1 -86 -20 -19 -16 -41 -24 -67 -24 -21 0 -43 -6 -50 -15 -7 -8 -20 -15 -29 -15 -9 0 -34 -9 -56 -20 -22 -11 -45 -20 -53 -20 -7 0 -27 -7 -45 -17 -18 -9 -45 -18 -61 -20 -16 -1 -40 -10 -54 -19 -13 -9 -33 -13 -44 -11 -10 3 -31 -1 -46 -8 -76 -40 -136 -65 -152 -65 -10 0 -31 -7 -46 -15 -16 -8 -38 -15 -49 -15 -11 0 -29 -7 -39 -15 -22 -17 -82 -20 -91 -5 -3 6 -11 10 -18 10 -6 0 -2 -7 9 -15 16 -13 17 -16 4 -25 -8 -6 -23 -8 -33 -6 -10 3 -27 -4 -38 -15 -12 -12 -33 -19 -55 -19 -19 0 -45 -5 -57 -12 -12 -6 -35 -12 -52 -12 -26 0 -30 4 -33 31 -2 18 3 37 12 46 9 9 16 28 16 44 0 15 7 37 15 47 8 11 15 28 15 37 0 10 6 30 14 46 8 15 30 60 48 98 113 238 303 480 518 660 71 59 187 143 220 158 8 4 38 21 65 37 49 29 123 67 195 98 19 8 47 21 62 29 14 7 35 13 46 13 12 0 23 4 27 9 3 5 20 12 38 16 17 4 50 12 72 20 49 16 166 41 265 56 41 6 82 12 90 14 24 6 2521 -5 2675 -11z m-2547 -1075 c13 -5 47 -9 75 -9 30 0 60 -7 71 -15 11 -8 32 -15 47 -15 14 0 32 -7 39 -15 7 -8 21 -15 31 -15 26 0 144 -82 200 -139 55 -56 108 -131 132 -186 10 -22 22 -48 27 -57 16 -28 31 -98 42 -186 10 -85 2 -190 -21 -281 -12 -43 -64 -164 -82 -185 -5 -6 -27 -34 -48 -62 -83 -108 -249 -209 -406 -245 -86 -21 -339 -23 -415 -3 -121 30 -188 59 -270 118 -136 96 -213 200 -272 363 -28 81 -38 330 -14 387 9 21 16 47 16 58 0 18 14 51 42 98 4 8 13 27 19 43 6 15 15 27 20 27 5 0 9 5 9 11 0 21 132 154 185 186 11 7 30 17 42 22 11 5 24 15 28 20 3 6 15 11 25 11 10 0 25 7 34 15 8 8 28 15 44 15 16 0 35 7 42 15 8 10 31 15 69 15 31 1 81 7 111 15 55 14 132 11 178 -6z m4212 -1902 c131 -24 232 -50 295 -77 11 -5 41 -18 67 -29 26 -12 50 -21 53 -21 13 0 194 -116 251 -160 86 -67 204 -188 244 -249 8 -13 20 -29 25 -35 38 -40 142 -239 185 -351 12 -33 26 -69 31 -80 19 -47 55 -189 75 -300 40 -217 44 -381 41 -1650 l-2 -1220 -681 -3 -681 -2 -6 29 c-4 17 -7 551 -7 1188 0 701 -4 1180 -10 1213 -28 160 -46 238 -59 255 -5 5 -11 22 -15 37 -10 43 -90 169 -138 217 -41 41 -138 111 -155 111 -4 0 -21 7 -36 15 -69 36 -288 56 -387 36 -91 -19 -180 -52 -244 -90 -71 -42 -191 -156 -231 -221 -45 -70 -95 -172 -95 -191 0 -10 -4 -20 -9 -23 -5 -3 -12 -23 -16 -43 -4 -21 -10 -598 -14 -1283 l-6 -1245 -681 -3 -682 -2 -3 22 c-2 13 -2 936 1 2053 l5 2030 669 3 c486 1 673 -1 682 -9 11 -9 14 -63 14 -265 0 -213 2 -254 14 -254 8 0 25 17 37 38 35 55 62 86 179 202 157 156 309 250 500 308 107 33 141 41 220 52 41 6 77 13 79 16 12 11 409 -4 491 -19z m-3640 -86 c11 -21 15 -4046 4 -4075 -6 -14 -75 -16 -684 -16 -609 0 -678 2 -684 16 -11 29 -7 4054 4 4075 10 18 29 19 680 19 651 0 670 -1 680 -19z"/> <path d="M4521 8519 c18 -11 39 -11 39 0 0 5 -12 9 -26 9 -18 0 -22 -3 -13 -9z"/> </g> </svg> 