 <svg  version="1.0" xmlns="http://www.w3.org/2000/svg"  width="900.000000pt" height="450.000000pt" viewBox="0 0 900.000000 450.000000"  preserveAspectRatio="xMidYMid meet">  <g transform="translate(0.000000,450.000000) scale(0.100000,-0.100000)" fill="#00c8ff" stroke="none"> <path d="M6865 4269 c-38 -4 -110 -12 -160 -17 -49 -6 -103 -15 -118 -21 -16 -6 -43 -11 -60 -11 -18 -1 -43 -7 -57 -15 -14 -8 -36 -14 -50 -15 -14 0 -38 -7 -54 -15 -15 -8 -38 -15 -50 -15 -11 0 -30 -7 -40 -15 -11 -8 -28 -15 -39 -15 -10 0 -31 -6 -45 -13 -27 -14 -78 -37 -142 -65 -19 -8 -42 -19 -50 -23 -8 -5 -37 -20 -65 -34 -54 -28 -52 -27 -170 -98 -107 -63 -115 -68 -155 -98 -19 -14 -43 -29 -52 -32 -10 -4 -18 -11 -18 -17 0 -5 -6 -10 -14 -10 -8 0 -16 -4 -18 -8 -1 -4 -21 -21 -44 -38 -112 -80 -342 -273 -464 -389 -151 -145 -480 -477 -480 -486 0 -5 -13 -9 -30 -9 -16 0 -30 4 -30 8 0 5 -85 94 -189 198 -275 276 -380 375 -521 494 -29 25 -60 52 -68 60 -9 8 -39 33 -67 55 -29 22 -76 59 -106 83 -90 71 -111 87 -123 91 -6 2 -27 17 -47 32 -20 16 -40 29 -44 29 -4 0 -24 12 -44 28 -20 15 -52 36 -71 47 -99 55 -121 67 -190 101 -41 20 -91 44 -110 52 -19 8 -47 21 -62 29 -14 7 -34 13 -45 13 -10 0 -27 7 -37 15 -11 8 -32 15 -46 15 -14 0 -30 4 -36 10 -5 5 -30 14 -54 19 -25 6 -63 14 -85 20 -301 74 -654 75 -950 0 -22 -6 -60 -14 -85 -20 -24 -5 -49 -14 -54 -19 -6 -6 -22 -10 -36 -10 -14 0 -35 -7 -46 -15 -10 -8 -27 -15 -36 -15 -9 0 -29 -6 -45 -14 -15 -8 -75 -38 -133 -66 -58 -28 -118 -60 -135 -70 -16 -11 -37 -23 -45 -27 -8 -3 -31 -19 -51 -35 -20 -15 -40 -28 -44 -28 -5 0 -49 -33 -99 -74 -108 -87 -259 -239 -317 -316 -22 -30 -45 -56 -50 -58 -5 -2 -9 -10 -9 -17 0 -7 -3 -15 -7 -17 -16 -6 -90 -119 -128 -193 -32 -63 -39 -75 -53 -100 -7 -11 -15 -27 -18 -35 -5 -15 -16 -40 -48 -113 -9 -21 -16 -46 -16 -55 0 -10 -5 -23 -11 -29 -6 -6 -15 -29 -20 -50 -4 -21 -12 -56 -18 -78 -31 -125 -35 -158 -33 -280 3 -127 6 -150 20 -128 15 24 71 191 92 273 148 576 467 1007 936 1264 189 104 313 154 500 200 164 40 265 51 479 50 237 0 341 -15 565 -81 63 -18 66 -19 175 -63 177 -70 476 -246 653 -384 158 -123 427 -362 653 -583 272 -265 331 -313 386 -313 58 0 130 58 400 321 246 241 295 286 464 425 248 206 550 399 774 497 110 47 210 86 250 97 254 68 322 80 490 91 154 9 238 7 405 -13 92 -10 315 -61 402 -92 139 -48 195 -73 301 -131 436 -239 705 -620 847 -1200 47 -191 102 -355 121 -355 11 0 18 233 8 285 -5 28 -13 76 -18 107 -5 32 -13 63 -17 70 -4 7 -11 30 -15 53 -6 38 -11 53 -45 148 -36 98 -69 178 -86 207 -4 8 -11 22 -14 30 -3 8 -10 22 -15 30 -5 8 -15 29 -23 45 -7 17 -30 54 -50 84 -20 29 -36 55 -36 58 0 2 -26 39 -59 81 -75 100 -209 236 -291 297 -36 27 -67 52 -70 55 -13 14 -70 50 -80 50 -5 0 -10 4 -10 8 0 4 -24 20 -52 35 -57 30 -78 41 -105 57 -10 6 -25 13 -33 16 -26 10 -84 36 -112 51 -14 7 -35 13 -45 13 -10 0 -24 5 -30 11 -6 6 -29 15 -50 19 -21 5 -51 13 -68 18 -90 31 -133 42 -157 42 -15 0 -39 5 -55 11 -15 6 -66 15 -113 20 -47 5 -121 13 -165 18 -92 11 -171 11 -270 0z"/> <path d="M1919 3560 c-167 -19 -323 -68 -476 -150 -128 -68 -223 -141 -328 -252 -174 -181 -278 -369 -347 -619 -20 -75 -23 -106 -23 -299 1 -241 12 -313 81 -499 62 -165 113 -254 220 -381 225 -268 505 -413 854 -441 321 -26 634 51 952 233 290 167 519 353 893 724 188 187 225 229 254 286 42 84 38 105 -39 206 -105 137 -710 707 -840 790 -14 9 -43 31 -65 48 -117 93 -374 228 -544 284 -186 63 -419 90 -592 70z m371 -135 c23 -8 57 -15 74 -15 17 -1 42 -7 56 -15 14 -8 36 -15 50 -15 14 0 34 -7 44 -15 11 -8 28 -15 37 -15 10 0 30 -7 46 -14 15 -8 35 -17 43 -20 8 -3 23 -10 33 -16 29 -17 50 -28 102 -55 52 -26 86 -46 95 -55 11 -11 70 -50 75 -50 3 0 11 -5 18 -10 7 -6 53 -41 102 -78 85 -64 115 -89 169 -137 13 -11 58 -51 101 -90 84 -74 125 -114 385 -368 91 -89 178 -172 193 -184 32 -27 33 -37 9 -60 -10 -10 -126 -124 -258 -253 -235 -231 -345 -333 -434 -404 -116 -93 -199 -156 -205 -156 -4 0 -24 -14 -45 -30 -21 -17 -40 -30 -43 -30 -3 0 -25 -13 -49 -29 -24 -16 -61 -39 -83 -50 -22 -12 -47 -26 -55 -31 -8 -5 -22 -11 -30 -14 -8 -3 -22 -10 -30 -14 -8 -5 -33 -17 -55 -26 -22 -10 -53 -24 -68 -32 -16 -8 -36 -14 -46 -14 -9 0 -25 -6 -36 -14 -11 -7 -33 -16 -50 -19 -32 -6 -89 -20 -157 -39 -24 -6 -131 -13 -238 -15 -157 -3 -208 -1 -265 12 -126 30 -259 75 -277 93 -7 7 -20 12 -29 12 -10 0 -21 5 -24 11 -4 5 -17 15 -28 20 -127 58 -349 288 -407 422 -6 12 -14 29 -19 37 -8 14 -15 29 -55 123 -9 21 -16 45 -16 55 0 9 -7 30 -15 46 -8 15 -15 40 -15 55 0 15 -7 52 -16 82 -20 66 -23 395 -4 444 6 17 15 50 20 75 10 58 29 110 74 213 8 17 17 39 20 47 3 8 15 29 26 45 11 17 23 37 27 45 14 31 98 137 157 198 56 59 191 169 226 185 8 4 29 16 45 27 17 11 37 22 45 26 8 3 22 10 30 15 16 10 24 13 80 33 89 33 108 39 150 46 25 5 56 13 70 19 42 17 400 14 450 -4z"/> <path d="M6830 3560 c-277 -24 -572 -137 -858 -326 -227 -151 -368 -268 -661 -552 -386 -375 -408 -415 -308 -554 78 -109 560 -569 777 -742 384 -306 679 -439 1031 -468 468 -39 900 167 1185 565 100 141 165 286 215 482 20 77 23 115 24 270 0 180 -2 199 -47 385 -47 197 -155 397 -299 554 -165 180 -417 320 -669 369 -95 19 -280 27 -390 17z m357 -131 c15 -6 48 -14 73 -19 42 -7 61 -13 150 -46 56 -20 64 -23 80 -33 8 -5 22 -12 30 -15 8 -4 29 -15 45 -26 17 -11 37 -23 47 -27 29 -14 112 -85 183 -159 71 -72 175 -214 175 -239 0 -7 7 -18 15 -25 8 -7 15 -18 15 -25 0 -8 6 -26 14 -42 28 -58 45 -99 49 -123 3 -14 10 -38 15 -55 29 -83 37 -160 37 -350 0 -193 -5 -236 -37 -330 -5 -16 -12 -41 -15 -55 -8 -45 -92 -217 -129 -267 -13 -17 -24 -35 -24 -38 0 -39 -274 -304 -350 -338 -8 -4 -28 -16 -45 -27 -16 -11 -37 -23 -45 -26 -8 -3 -30 -12 -47 -20 -100 -43 -158 -64 -193 -71 -14 -2 -52 -11 -85 -19 -74 -19 -423 -15 -495 5 -25 7 -70 20 -100 28 -57 16 -114 36 -165 59 -16 7 -37 15 -45 18 -8 3 -22 10 -30 15 -8 5 -22 12 -30 15 -25 10 -120 65 -182 107 -33 21 -62 39 -64 39 -3 0 -10 5 -17 10 -7 6 -43 34 -82 62 -38 28 -86 65 -106 82 -19 17 -64 56 -99 86 -140 120 -221 197 -554 526 -45 45 -94 89 -109 99 -15 9 -27 23 -27 31 0 20 348 366 591 589 24 22 64 56 89 75 25 18 50 39 55 45 13 14 213 165 219 165 3 0 33 19 68 43 35 23 73 47 84 54 34 21 218 109 264 127 25 10 60 24 78 32 18 8 43 14 55 14 12 1 33 7 47 15 14 8 41 15 60 15 19 1 53 7 75 15 51 17 421 20 462 4z"/> <path d="M8907 2088 c-24 -61 -65 -193 -102 -328 -58 -212 -142 -396 -274 -595 -77 -117 -326 -374 -431 -445 -36 -24 -87 -59 -115 -78 -71 -47 -316 -166 -405 -196 -291 -97 -573 -126 -872 -91 -392 46 -761 207 -1158 504 -185 138 -491 414 -816 736 -134 132 -211 182 -263 170 -57 -12 -121 -66 -411 -345 -397 -381 -592 -541 -870 -713 -311 -193 -617 -305 -959 -352 -97 -14 -167 -16 -330 -12 -242 6 -369 25 -541 81 -405 131 -700 354 -946 716 -40 59 -126 229 -160 316 -57 149 -65 171 -80 234 -8 36 -17 74 -20 85 -46 195 -98 355 -116 355 -8 0 -14 -124 -11 -235 1 -58 12 -125 34 -210 6 -22 14 -58 19 -80 9 -47 27 -99 46 -138 8 -16 14 -35 14 -42 0 -7 7 -26 15 -42 8 -15 32 -66 54 -113 23 -47 54 -107 71 -135 16 -27 35 -60 41 -72 7 -13 16 -23 21 -23 4 0 8 -5 8 -11 0 -40 280 -335 417 -437 45 -34 85 -62 89 -62 4 0 15 -7 24 -15 36 -33 248 -139 355 -178 89 -32 111 -39 145 -47 19 -5 53 -13 75 -19 171 -43 287 -56 495 -56 200 0 404 24 521 61 26 8 57 14 68 14 12 0 32 5 44 12 12 6 38 15 57 19 43 9 96 27 133 45 16 8 35 14 42 14 7 0 26 6 42 14 15 8 75 38 133 65 58 28 132 67 165 86 33 19 67 38 75 42 8 5 48 31 88 58 40 28 84 56 98 63 13 7 24 17 24 23 0 5 6 9 13 9 6 1 37 21 67 46 30 24 82 65 115 91 33 26 67 54 76 62 9 9 40 36 69 61 151 127 488 452 643 619 32 35 56 51 72 51 14 0 25 -4 25 -8 0 -9 336 -348 491 -497 97 -92 283 -255 349 -305 25 -18 50 -39 55 -45 11 -11 159 -123 187 -140 9 -5 49 -32 90 -60 40 -27 80 -54 88 -58 8 -4 42 -23 75 -42 61 -34 182 -95 245 -122 19 -9 48 -22 63 -29 16 -8 35 -14 42 -14 8 0 29 -6 47 -14 56 -23 101 -38 143 -46 22 -5 58 -13 80 -19 170 -43 195 -45 480 -44 229 0 289 3 330 17 28 8 64 16 80 16 27 0 65 10 160 42 17 5 44 13 60 18 90 25 319 128 400 180 17 11 37 23 45 27 8 3 31 19 51 35 20 15 40 28 44 28 4 0 38 25 76 55 67 54 78 64 155 136 65 60 157 161 193 212 19 26 38 47 43 47 4 0 8 6 8 14 0 8 4 16 8 18 28 12 232 377 232 417 0 9 7 25 15 35 8 11 15 27 15 37 0 9 7 30 15 45 8 16 15 37 15 47 0 10 5 27 11 39 6 11 15 45 20 77 5 31 13 79 19 106 10 54 2 275 -10 275 -4 0 -19 -28 -33 -62z"/> </g> </svg> 