<?xml version="1.0" standalone="no"?>
<!DOCTYPE svg PUBLIC "-//W3C//DTD SVG 20010904//EN"
 "http://www.w3.org/TR/2001/REC-SVG-20010904/DTD/svg10.dtd">
<svg version="1.0" xmlns="http://www.w3.org/2000/svg"
 width="768.000000pt" height="768.000000pt" viewBox="0 0 768.000000 768.000000"
 preserveAspectRatio="xMidYMid meet">
<metadata>
Created by potrace 1.10, written by Peter Selinger 2001-2011
</metadata>
<g transform="translate(0.000000,768.000000) scale(0.100000,-0.100000)"
fill="#ff00dd" stroke="none">
<path d="M3240 7260 c-321 -5 -369 -7 -399 -23 -19 -9 -40 -17 -48 -17 -19 0
-117 -53 -166 -91 -53 -41 -136 -127 -148 -154 -5 -11 -18 -33 -29 -50 -11
-16 -22 -37 -26 -45 -3 -8 -10 -26 -16 -40 -6 -14 -14 -41 -19 -60 -4 -19 -13
-55 -19 -80 -7 -25 -10 -78 -7 -121 3 -42 2 -80 -2 -85 -3 -5 -98 -9 -211 -9
-274 0 -343 -13 -510 -94 -84 -41 -143 -83 -216 -155 -55 -56 -144 -169 -144
-184 0 -5 -7 -15 -15 -22 -8 -7 -15 -20 -15 -30 0 -10 -7 -23 -15 -30 -8 -7
-15 -22 -15 -34 0 -11 -7 -30 -15 -40 -8 -11 -15 -33 -15 -49 0 -15 -5 -37
-11 -48 -6 -11 -13 -48 -17 -82 -6 -51 -10 -62 -27 -64 -85 -12 -149 -32 -205
-64 -8 -5 -22 -12 -30 -16 -66 -29 -184 -153 -219 -230 -5 -11 -15 -24 -20
-28 -6 -3 -11 -15 -11 -26 0 -11 -6 -30 -14 -42 -29 -47 -38 -185 -34 -520 l3
-328 -25 -5 c-54 -11 -130 -36 -136 -45 -3 -5 -12 -9 -21 -9 -39 0 -223 -180
-223 -218 0 -6 -6 -23 -14 -39 -45 -91 -46 -103 -46 -618 1 -406 3 -494 15
-515 8 -14 14 -34 15 -45 1 -61 139 -247 204 -276 12 -5 37 -19 56 -30 19 -12
62 -28 95 -36 33 -9 64 -19 68 -23 5 -4 10 -95 12 -201 2 -199 12 -290 33
-311 7 -7 12 -22 12 -34 0 -12 7 -27 15 -34 8 -7 15 -17 15 -22 0 -13 80 -119
115 -151 36 -35 130 -98 165 -112 8 -4 30 -13 48 -21 18 -8 54 -14 80 -14 61
0 68 -6 75 -60 9 -63 31 -138 45 -152 7 -7 12 -20 12 -29 0 -9 7 -22 15 -29 8
-7 15 -17 15 -22 0 -12 53 -81 95 -123 46 -45 130 -107 165 -121 8 -3 29 -12
45 -19 103 -43 120 -45 473 -45 l340 0 11 -31 c6 -18 11 -42 11 -54 0 -11 7
-30 15 -41 8 -10 15 -25 15 -33 0 -22 96 -140 114 -141 5 0 17 -7 26 -15 9 -8
43 -30 76 -47 l59 -32 459 -5 c295 -4 470 -2 490 4 l31 10 3 2229 c2 2009 1
2231 -14 2247 -25 27 -60 29 -84 4 -20 -22 -21 -30 -20 -384 1 -200 0 -364 -2
-367 -7 -7 -122 18 -150 32 -14 8 -31 14 -37 14 -22 0 -118 65 -169 114 -95
91 -141 189 -151 320 -6 76 -10 91 -30 107 -30 25 -56 24 -81 -1 -19 -19 -20
-29 -15 -98 6 -73 27 -159 46 -192 5 -8 12 -22 15 -30 3 -8 10 -22 15 -30 5
-8 12 -22 16 -30 3 -8 20 -33 37 -55 71 -90 153 -157 251 -203 80 -37 111 -46
182 -50 l73 -4 2 -681 c2 -375 1 -688 -1 -694 -2 -8 -20 -13 -45 -13 -66 -1
-213 -43 -238 -68 -7 -7 -15 -12 -19 -12 -12 0 -91 -56 -130 -92 -49 -46 -120
-139 -135 -178 -3 -8 -12 -28 -19 -45 -28 -67 -38 -104 -46 -180 -12 -106 -1
-135 50 -135 52 0 71 35 71 130 0 41 6 83 13 98 8 15 22 45 33 67 58 125 179
228 334 284 57 21 119 29 128 17 4 -6 6 -463 4 -1016 l-2 -1005 -368 2 c-414
2 -460 5 -519 34 -52 25 -124 96 -148 147 -9 20 -24 50 -31 65 -20 41 -18 187
3 251 70 215 208 348 415 400 36 9 84 16 105 16 47 0 63 14 63 56 0 23 -7 36
-27 50 -25 16 -34 16 -93 5 -36 -7 -83 -16 -105 -20 -22 -4 -49 -12 -60 -18
-11 -6 -42 -21 -68 -34 -64 -32 -77 -39 -111 -69 -83 -73 -138 -138 -165 -197
-5 -11 -15 -24 -20 -28 -6 -3 -11 -16 -11 -29 0 -12 -5 -27 -12 -34 -10 -10
-20 -52 -36 -151 l-7 -44 -339 2 c-272 2 -345 5 -367 17 -16 8 -34 14 -41 14
-20 0 -80 32 -137 74 -54 40 -126 127 -153 186 -54 117 -51 93 -49 434 1 303
2 322 22 363 48 100 156 173 257 173 63 1 185 29 204 48 7 7 17 12 23 12 6 0
26 12 45 27 84 70 126 125 150 201 12 37 17 42 42 42 57 0 196 40 248 71 8 5
22 12 30 16 31 14 137 99 166 133 66 79 134 196 134 231 0 9 7 33 15 52 22 54
20 179 -3 200 -26 24 -60 21 -83 -5 -13 -17 -19 -40 -19 -88 -1 -60 -16 -120
-50 -195 -33 -72 -143 -187 -213 -224 -23 -12 -49 -25 -57 -30 -35 -20 -89
-34 -138 -38 l-52 -5 2 162 3 162 -27 21 -28 21 -27 -21 -28 -20 -5 -219 -6
-219 -33 -55 c-18 -30 -48 -66 -67 -80 -20 -14 -41 -29 -47 -35 -26 -22 -86
-38 -167 -45 -79 -7 -133 -20 -170 -41 -8 -5 -26 -14 -39 -19 -33 -15 -133
-120 -152 -161 -50 -107 -49 -98 -49 -343 0 -128 -2 -235 -5 -238 -6 -6 -89
19 -115 34 -8 4 -19 10 -25 12 -55 22 -80 38 -123 78 -62 59 -101 107 -117
148 -4 8 -11 24 -17 35 -24 43 -36 159 -39 370 -4 253 8 329 62 425 5 8 13 25
18 37 6 11 41 53 80 91 50 51 90 80 143 105 65 31 101 40 250 62 30 5 38 11
43 35 8 37 -9 68 -41 76 -30 8 -177 -13 -219 -31 -123 -52 -204 -102 -261
-159 -38 -39 -114 -144 -114 -159 0 -8 -7 -20 -15 -27 -8 -7 -15 -22 -15 -34
0 -12 -5 -27 -11 -33 -7 -7 -15 -40 -18 -75 -5 -51 -10 -63 -25 -66 -16 -3
-59 13 -106 40 -8 4 -22 11 -30 15 -36 15 -100 77 -132 125 -69 108 -69 107
-66 648 4 547 1 525 83 635 42 56 143 135 172 135 7 0 13 5 13 10 0 6 11 10
25 10 31 0 31 -3 1 -65 -40 -85 -56 -147 -56 -217 0 -73 11 -88 63 -88 40 0
55 28 59 110 6 99 34 175 100 266 38 53 119 130 153 145 11 5 27 13 35 18 42
24 93 39 175 51 50 7 100 19 112 27 33 20 31 66 -4 88 -24 16 -35 17 -112 5
-135 -19 -236 -63 -319 -137 -50 -45 -50 -45 -45 275 4 362 13 433 64 522 5 8
12 22 16 30 4 8 13 21 20 28 7 7 18 21 25 30 26 34 111 101 151 120 102 46
119 52 142 52 25 0 27 -4 39 -75 12 -76 28 -124 58 -175 4 -8 11 -22 15 -30
26 -60 151 -186 218 -219 49 -24 69 -51 60 -80 -3 -10 -1 -38 5 -62 6 -24 15
-60 20 -79 11 -46 34 -108 44 -117 4 -5 13 -22 20 -38 20 -46 108 -147 167
-191 60 -44 175 -104 200 -104 9 0 33 -7 52 -15 44 -18 178 -20 195 -3 18 18
14 73 -6 91 -13 12 -37 17 -81 17 -79 0 -156 25 -260 85 -54 31 -181 177 -181
207 0 8 -4 18 -9 24 -15 15 -51 131 -51 164 0 33 12 37 50 15 38 -22 153 -20
173 3 23 26 21 55 -5 79 -18 17 -39 22 -103 25 -44 3 -96 10 -115 18 -19 7
-39 15 -45 17 -5 2 -23 12 -40 23 -16 11 -37 23 -45 27 -19 9 -134 124 -143
143 -4 8 -16 29 -27 45 -11 17 -21 35 -23 40 -2 6 -10 26 -17 45 -31 86 -30
285 3 396 13 45 56 140 92 203 44 78 223 239 295 267 8 3 22 10 30 15 8 5 20
11 25 13 6 1 26 9 45 16 75 27 253 49 398 50 90 0 99 -7 59 -50 -29 -33 -79
-108 -92 -140 -31 -73 -65 -205 -65 -250 0 -53 48 -88 95 -70 22 8 25 16 25
56 0 47 26 167 41 194 5 8 12 22 15 30 3 8 10 22 15 30 5 8 14 26 19 39 20 45
143 155 210 187 77 37 181 64 244 64 40 0 48 3 56 25 11 28 1 64 -24 84 -12
10 -30 12 -64 7 -80 -11 -158 -30 -173 -43 -24 -19 -69 -27 -70 -12 -9 102 14
212 65 319 37 78 151 197 217 227 24 11 60 27 80 35 50 23 147 29 452 31 l267
2 0 -416 c0 -400 1 -417 20 -434 20 -18 61 -15 87 7 17 14 19 933 3 943 -28
17 -92 20 -430 15z"/>
<path d="M3946 7257 c-13 -4 -27 -15 -30 -24 -12 -29 -7 -1742 4 -1763 9 -17
22 -20 73 -21 34 0 85 -5 112 -10 28 -5 82 -13 121 -18 39 -4 77 -12 85 -16 7
-5 31 -12 54 -16 58 -10 114 -31 235 -88 36 -17 68 -31 72 -31 4 0 55 -33 115
-72 68 -46 149 -113 219 -183 107 -106 234 -263 234 -290 0 -7 6 -17 13 -23 6
-6 27 -41 46 -79 18 -37 39 -80 47 -95 8 -14 14 -33 14 -41 0 -9 6 -28 14 -44
15 -30 34 -96 62 -211 24 -105 24 -459 0 -564 -28 -115 -47 -181 -62 -211 -8
-16 -14 -36 -14 -46 0 -9 -7 -26 -15 -37 -8 -10 -15 -26 -15 -35 0 -9 -7 -22
-15 -29 -8 -7 -15 -19 -15 -27 0 -8 -13 -35 -30 -60 -16 -24 -30 -48 -30 -53
0 -5 -33 -53 -74 -107 -142 -190 -346 -360 -544 -454 -139 -66 -196 -87 -257
-98 -22 -4 -50 -13 -62 -19 -12 -7 -41 -12 -65 -12 -24 0 -59 -4 -77 -10 -19
-5 -81 -13 -137 -16 -97 -7 -103 -8 -109 -31 -3 -13 -5 -414 -5 -891 0 -816 1
-868 17 -880 14 -11 68 -13 244 -10 199 3 229 5 246 20 11 10 22 18 26 18 13
0 72 67 89 101 16 29 18 69 20 279 l3 245 47 6 c26 4 53 11 60 15 7 4 30 11
53 15 22 4 56 12 75 19 120 43 187 68 228 86 80 35 108 48 122 56 8 4 21 10
28 13 6 3 18 7 25 10 22 9 121 67 165 96 42 28 92 39 92 20 0 -13 284 -301
297 -301 6 0 16 -6 22 -13 6 -8 35 -20 65 -27 69 -16 145 0 199 43 78 61 546
538 566 577 27 53 29 163 4 212 -10 18 -91 106 -180 195 -90 89 -163 168 -163
174 0 6 12 28 28 48 15 20 32 45 39 56 15 25 110 217 131 265 8 19 21 47 29
62 7 14 13 33 13 41 0 9 6 28 14 44 21 43 43 108 66 203 7 25 17 65 24 90 l12
45 226 1 c142 1 233 6 246 13 11 6 29 11 40 11 28 0 107 82 131 136 20 44 21
64 21 434 0 373 -1 389 -21 435 -24 55 -102 135 -131 135 -10 0 -29 5 -41 12
-15 8 -94 12 -246 12 l-225 1 -12 45 c-23 87 -35 135 -41 165 -3 17 -12 39
-19 50 -8 11 -14 27 -14 37 0 9 -7 34 -16 55 -39 92 -47 110 -59 138 -14 35
-111 231 -128 260 -7 11 -24 36 -39 56 -16 20 -28 42 -28 48 0 6 71 82 158
169 89 88 168 176 180 200 32 62 31 168 -2 220 -25 40 -551 572 -565 572 -5 0
-14 6 -20 13 -6 8 -36 19 -66 26 -71 16 -142 0 -200 -43 -50 -38 -295 -284
-295 -296 0 -17 -58 -11 -76 7 -19 19 -34 29 -109 68 -46 24 -66 34 -105 57
-8 4 -22 11 -30 14 -8 3 -31 13 -50 22 -19 8 -48 21 -65 27 -16 7 -46 19 -65
27 -45 19 -97 38 -135 48 -16 5 -43 13 -60 19 -45 15 -146 40 -175 43 l-25 3
-2 245 c-2 215 -4 249 -20 280 -18 33 -77 100 -90 100 -4 0 -15 8 -26 17 -16
15 -48 19 -233 23 -118 3 -225 1 -238 -3z m396 -120 c20 -5 50 -23 65 -39 l28
-29 1 -263 c1 -157 6 -271 12 -282 10 -20 116 -54 164 -54 13 0 28 -4 34 -10
5 -5 30 -14 54 -19 52 -11 103 -27 143 -47 16 -8 35 -14 42 -14 7 0 26 -6 42
-14 15 -7 44 -20 63 -29 61 -26 244 -118 275 -138 17 -10 37 -22 45 -26 8 -3
31 -19 51 -35 71 -55 79 -50 280 151 116 117 191 184 213 192 70 25 91 10 380
-281 l266 -267 0 -58 0 -58 -187 -189 c-104 -103 -189 -196 -191 -206 -2 -10
8 -33 21 -52 12 -19 26 -42 30 -50 4 -8 16 -28 27 -45 10 -16 31 -52 45 -80
14 -27 30 -57 35 -65 5 -8 11 -22 14 -30 3 -8 10 -22 15 -30 5 -8 16 -31 24
-50 8 -19 23 -53 32 -75 10 -22 24 -53 31 -68 8 -16 14 -35 14 -42 0 -8 6 -29
14 -47 7 -18 21 -60 30 -93 10 -33 24 -80 32 -105 8 -25 14 -58 14 -73 0 -43
27 -87 53 -87 12 -1 127 0 254 0 214 1 236 -1 272 -19 22 -12 49 -34 60 -50
20 -28 21 -40 21 -411 0 -371 -1 -383 -21 -411 -11 -16 -39 -39 -60 -50 -37
-18 -58 -20 -272 -19 -128 1 -242 1 -254 1 -26 -1 -53 -46 -53 -88 0 -15 -6
-48 -14 -73 -8 -25 -22 -72 -32 -105 -9 -33 -23 -75 -30 -93 -8 -18 -14 -40
-14 -50 0 -9 -7 -26 -15 -36 -8 -11 -15 -26 -15 -33 0 -7 -13 -41 -29 -75 -16
-35 -31 -70 -35 -78 -3 -8 -10 -22 -15 -30 -5 -8 -12 -22 -15 -30 -4 -8 -22
-42 -41 -75 -19 -33 -39 -69 -45 -80 -6 -11 -19 -33 -30 -50 -41 -63 -53 -92
-43 -109 5 -10 91 -100 191 -200 l182 -183 0 -58 0 -58 -267 -269 c-212 -213
-276 -271 -306 -280 -68 -20 -95 -2 -288 193 -198 201 -206 206 -278 151 -20
-16 -43 -32 -51 -35 -8 -4 -28 -16 -45 -26 -31 -20 -213 -111 -275 -138 -19
-9 -48 -22 -63 -29 -16 -8 -35 -14 -44 -14 -8 0 -27 -6 -41 -14 -38 -19 -90
-36 -140 -47 -23 -5 -51 -13 -61 -19 -11 -5 -30 -10 -43 -10 -42 0 -140 -37
-151 -56 -7 -11 -11 -118 -11 -281 l-1 -262 -28 -29 c-39 -41 -90 -51 -247
-49 l-135 2 3 725 c2 421 -1 748 -7 780 -5 32 -5 60 0 66 5 6 62 16 126 23
113 12 175 25 274 56 26 8 56 15 67 15 11 0 25 7 32 15 7 8 21 15 32 15 11 0
32 6 46 14 15 8 34 17 42 20 8 3 23 10 33 16 9 5 25 15 35 20 9 6 28 15 42 21
14 6 39 21 57 35 17 13 34 24 38 24 3 0 43 28 88 62 160 120 340 318 412 454
15 27 35 63 46 79 10 17 22 37 25 45 12 29 37 85 51 112 7 14 13 35 13 45 0
11 7 28 15 39 8 10 15 29 15 41 0 13 6 40 14 60 34 95 48 215 48 414 0 198
-14 318 -48 412 -8 20 -14 47 -14 60 0 12 -7 31 -15 41 -8 11 -15 28 -15 39 0
10 -6 31 -13 45 -14 27 -39 83 -51 112 -3 8 -15 29 -25 45 -11 17 -30 50 -42
73 -78 156 -334 421 -497 517 -10 6 -31 20 -48 32 -17 12 -42 27 -55 33 -13 5
-31 14 -39 19 -8 5 -22 12 -30 15 -8 3 -22 10 -30 15 -45 26 -80 41 -93 41 -9
0 -28 6 -44 14 -40 20 -91 37 -138 46 -22 5 -56 13 -75 18 -19 6 -88 16 -153
23 -64 7 -121 17 -126 23 -5 6 -5 34 0 66 6 31 9 361 7 770 -1 394 1 721 5
727 9 15 256 15 309 0z"/>
<path d="M4152 5710 c-19 -4 -39 -13 -44 -18 -13 -13 7 -19 107 -32 105 -13
246 -48 318 -78 16 -7 34 -12 41 -12 7 0 38 -13 69 -30 31 -16 63 -30 72 -30
8 0 15 -4 15 -9 0 -5 14 -12 30 -16 17 -4 30 -10 30 -15 0 -4 12 -13 28 -19
30 -12 59 -29 80 -48 7 -7 20 -13 28 -13 8 0 14 -4 14 -8 0 -5 26 -26 58 -48
112 -76 422 -408 422 -453 0 -5 7 -16 15 -25 20 -20 135 -247 135 -266 0 -9 6
-24 14 -35 7 -11 17 -36 21 -55 4 -19 11 -39 15 -45 4 -5 10 -30 14 -55 4 -24
11 -49 15 -55 5 -5 11 -41 15 -80 4 -38 11 -74 17 -81 13 -16 5 -439 -11 -534
-7 -41 -19 -89 -26 -107 -8 -17 -14 -45 -14 -61 0 -17 -4 -33 -9 -36 -5 -3
-12 -22 -16 -43 -4 -20 -13 -46 -21 -57 -8 -11 -14 -27 -14 -35 0 -23 -111
-239 -137 -269 -7 -7 -13 -18 -13 -23 0 -21 -128 -179 -227 -279 -57 -58 -137
-130 -178 -160 -41 -30 -75 -58 -75 -62 0 -4 -6 -8 -14 -8 -8 0 -21 -6 -28
-13 -21 -19 -50 -36 -80 -48 -16 -6 -28 -15 -28 -20 0 -5 -6 -9 -14 -9 -8 0
-43 -14 -78 -31 -91 -45 -120 -57 -151 -65 -15 -3 -30 -10 -33 -15 -3 -5 -17
-9 -31 -9 -14 0 -39 -6 -56 -14 -42 -18 -123 -35 -227 -47 -96 -12 -117 -23
-74 -40 34 -13 164 -7 239 11 175 42 402 130 497 192 29 20 73 48 97 64 24 16
53 34 64 41 72 42 201 164 323 308 158 185 289 448 345 695 11 47 27 113 36
148 12 49 15 110 14 275 -1 200 -7 258 -41 432 -14 74 -59 213 -71 221 -5 3
-9 14 -9 25 0 26 -84 201 -131 272 -22 32 -39 60 -39 62 0 10 -66 99 -132 177
-65 78 -164 169 -290 266 -138 107 -333 205 -523 265 -71 22 -106 31 -180 44
-11 2 -44 8 -74 13 -30 6 -57 10 -60 9 -3 -1 -21 -5 -39 -9z"/>
<path d="M4730 6895 c0 -8 5 -15 10 -15 6 0 10 7 10 15 0 8 -4 15 -10 15 -5 0
-10 -7 -10 -15z"/>
<path d="M4760 6826 c0 -14 5 -28 10 -31 6 -4 10 7 10 24 0 17 -4 31 -10 31
-5 0 -10 -11 -10 -24z"/>
<path d="M3581 6126 c-20 -22 -21 -32 -21 -407 0 -369 1 -386 20 -406 21 -23
52 -21 83 5 16 14 17 46 17 402 0 356 -1 388 -17 402 -31 26 -60 28 -82 4z"/>
<path d="M6827 5638 c-6 -64 -2 -82 14 -73 11 8 12 122 0 129 -4 3 -11 -22
-14 -56z"/>
<path d="M6803 5530 c-6 -15 -7 -26 -1 -29 15 -5 20 5 16 31 l-5 23 -10 -25z"/>
<path d="M6732 5440 c-50 -49 -63 -70 -42 -70 6 0 10 5 10 10 0 6 9 19 20 30
11 11 25 20 30 20 6 0 10 5 10 11 0 7 8 18 17 25 10 7 15 15 12 18 -3 3 -29
-17 -57 -44z"/>
<path d="M6593 5300 c-33 -30 -42 -50 -23 -50 6 0 10 5 10 11 0 5 15 23 32 40
18 16 28 29 23 29 -6 0 -25 -14 -42 -30z"/>
<path d="M3890 3959 c0 -891 3 -1338 10 -1334 14 9 14 2675 0 2675 -7 0 -10
-454 -10 -1341z"/>
<path d="M4170 5245 c0 -23 3 -25 51 -25 31 0 48 4 44 10 -3 6 -17 10 -30 10
-13 0 -30 7 -39 15 -20 21 -26 19 -26 -10z"/>
<path d="M7460 4156 c0 -14 5 -28 10 -31 6 -4 10 7 10 24 0 17 -4 31 -10 31
-5 0 -10 -11 -10 -24z"/>
<path d="M7488 3968 c-1 -68 -2 -161 -1 -208 0 -47 1 -165 2 -263 1 -116 4
-176 11 -172 6 4 10 142 10 380 0 238 -4 376 -10 380 -6 4 -11 -38 -12 -117z"/>
<path d="M7467 3293 c-4 -3 -7 -13 -7 -21 0 -20 -67 -81 -102 -94 -35 -12 -36
-28 -4 -28 35 0 126 90 126 124 0 27 -2 30 -13 19z"/>
<path d="M6800 3010 c0 -11 5 -20 10 -20 6 0 10 9 10 20 0 11 -4 20 -10 20 -5
0 -10 -9 -10 -20z"/>
<path d="M6778 2924 c-5 -4 -8 -16 -8 -28 0 -14 3 -17 11 -9 6 6 9 19 7 28 -1
9 -6 13 -10 9z"/>
<path d="M6747 2834 c-4 -4 -7 -14 -7 -23 0 -11 3 -12 11 -4 6 6 10 16 7 23
-2 6 -7 8 -11 4z"/>
<path d="M6710 2740 c0 -11 5 -20 10 -20 6 0 10 9 10 20 0 11 -4 20 -10 20 -5
0 -10 -9 -10 -20z"/>
<path d="M6680 2667 c-14 -29 -7 -48 11 -30 6 6 9 21 7 34 l-4 24 -14 -28z"/>
<path d="M6658 2614 c-5 -4 -8 -16 -8 -28 0 -14 3 -17 11 -9 6 6 9 19 7 28 -1
9 -6 13 -10 9z"/>
<path d="M6620 2529 c0 -11 5 -17 10 -14 6 3 10 13 10 21 0 8 -4 14 -10 14 -5
0 -10 -9 -10 -21z"/>
<path d="M6590 2469 c0 -11 5 -17 10 -14 6 3 10 13 10 21 0 8 -4 14 -10 14 -5
0 -10 -9 -10 -21z"/>
<path d="M6797 1900 c8 -31 23 -34 23 -6 0 16 -6 26 -14 26 -9 0 -12 -7 -9
-20z"/>
<path d="M6830 1848 c0 -2 -3 -32 -5 -67 -2 -36 -9 -69 -15 -75 -13 -13 -13
-56 0 -56 6 0 10 13 10 29 0 16 6 31 15 35 11 4 15 22 15 71 0 37 -4 65 -10
65 -5 0 -10 -1 -10 -2z"/>
<path d="M6757 1623 c-9 -10 -38 -39 -63 -66 -26 -26 -44 -50 -41 -53 5 -6
137 120 137 131 0 11 -17 4 -33 -12z"/>
<path d="M6606 1469 c-11 -10 -17 -22 -14 -25 6 -5 48 31 48 41 0 10 -16 3
-34 -16z"/>
<path d="M6480 1344 c-13 -13 -19 -24 -12 -24 12 0 52 35 52 45 0 11 -16 3
-40 -21z"/>
<path d="M5395 1300 c-3 -5 1 -10 9 -10 8 0 18 5 21 10 3 6 -1 10 -9 10 -8 0
-18 -4 -21 -10z"/>
<path d="M5325 1270 c-4 -6 5 -10 19 -10 14 0 26 5 26 10 0 6 -9 10 -19 10
-11 0 -23 -4 -26 -10z"/>
<path d="M5265 1240 c-3 -5 3 -10 14 -10 12 0 21 5 21 10 0 6 -6 10 -14 10 -8
0 -18 -4 -21 -10z"/>
<path d="M6367 1228 c-10 -11 -16 -22 -14 -25 5 -5 47 33 47 42 0 10 -16 3
-33 -17z"/>
<path d="M5195 1210 c-3 -5 3 -10 14 -10 11 0 23 5 26 10 3 6 -3 10 -14 10
-11 0 -23 -4 -26 -10z"/>
<path d="M5126 1193 c-11 -11 -6 -23 8 -23 8 0 17 4 20 9 7 10 -19 23 -28 14z"/>
<path d="M5025 1150 c-3 -5 3 -10 14 -10 11 0 23 5 26 10 3 6 -3 10 -14 10
-11 0 -23 -4 -26 -10z"/>
<path d="M6265 1137 c-66 -50 -167 -59 -239 -22 -40 21 -43 19 -12 -10 25 -23
35 -25 122 -25 75 0 96 3 100 15 4 8 12 15 20 15 8 0 23 9 34 20 37 37 20 41
-25 7z"/>
<path d="M4935 1120 c-3 -5 3 -10 14 -10 12 0 21 5 21 10 0 6 -6 10 -14 10 -8
0 -18 -4 -21 -10z"/>
<path d="M4848 1088 c9 -9 15 -9 24 0 9 9 7 12 -12 12 -19 0 -21 -3 -12 -12z"/>
<path d="M1820 850 c0 -5 9 -10 20 -10 11 0 20 5 20 10 0 6 -9 10 -20 10 -11
0 -20 -4 -20 -10z"/>
<path d="M1960 820 c0 -5 14 -10 30 -10 17 0 30 5 30 10 0 6 -13 10 -30 10
-16 0 -30 -4 -30 -10z"/>
<path d="M2075 820 c-13 -6 18 -9 88 -9 70 -1 106 3 102 9 -7 12 -162 12 -190
0z"/>
<path d="M4768 690 c-4 -14 -10 -47 -13 -74 -8 -56 -25 -87 -75 -133 -31 -29
-32 -33 -14 -33 24 0 84 61 84 86 0 9 7 22 16 28 12 9 14 27 12 81 -2 48 -5
62 -10 45z"/>
<path d="M3884 487 c-12 -38 -43 -56 -104 -58 -37 -2 -32 -3 25 -9 88 -9 105
-1 105 50 0 49 -14 59 -26 17z"/>
<path d="M4165 449 c-10 -31 6 -41 51 -31 38 9 38 9 12 16 -15 5 -29 14 -32
22 -8 21 -24 17 -31 -7z"/>
<path d="M4583 443 c-49 -6 -40 -23 12 -23 33 0 45 4 45 15 0 8 -6 14 -12 13
-7 0 -28 -3 -45 -5z"/>
<path d="M2945 430 c3 -5 22 -10 41 -10 21 0 33 4 29 10 -3 6 -22 10 -41 10
-21 0 -33 -4 -29 -10z"/>
</g>
</svg>
