<?xml version="1.0" standalone="no"?>
<!DOCTYPE svg PUBLIC "-//W3C//DTD SVG 20010904//EN"
 "http://www.w3.org/TR/2001/REC-SVG-20010904/DTD/svg10.dtd">
<svg version="1.0" xmlns="http://www.w3.org/2000/svg"
 width="900.000000pt" height="900.000000pt" viewBox="0 0 900.000000 900.000000"
 preserveAspectRatio="xMidYMid meet">
<metadata>
Created by potrace 1.10, written by Peter Selinger 2001-2011
</metadata>
<g transform="translate(0.000000,900.000000) scale(0.100000,-0.100000)"
fill="#a11431" stroke="none">
<path d="M530 4490 l0 -2045 432 0 c238 0 435 3 438 7 3 3 4 923 2 2045 l-2
2038 -435 0 -435 0 0 -2045z m305 1942 c33 1 107 1 165 0 58 -1 134 -2 169 -2
70 0 95 -14 112 -58 10 -27 13 -2429 3 -2456 -3 -9 -1 -23 6 -31 7 -8 9 -22 6
-31 -3 -9 -6 -199 -5 -423 1 -760 1 -790 -24 -836 -19 -34 -28 -41 -65 -47
-24 -4 -53 -3 -66 2 -12 4 -28 5 -34 2 -5 -4 -82 -6 -169 -5 -87 1 -175 2
-196 3 -30 0 -45 7 -68 31 l-28 30 -1 367 c-1 427 -1 492 0 2110 0 672 -2
1227 -6 1233 -10 17 27 89 55 105 15 8 39 12 56 9 17 -3 57 -4 90 -3z"/>
<path d="M1942 5137 l3 -1398 430 0 430 0 3 1398 2 1398 -435 0 -435 0 2
-1398z m705 1288 c18 -4 37 -13 43 -20 7 -8 10 -366 10 -1086 -1 -945 0 -1154
3 -1259 3 -110 -3 -150 -30 -180 l-28 -31 -190 -5 c-104 -2 -194 -5 -200 -5
-88 -2 -148 6 -153 20 -3 9 -16 27 -29 41 -20 22 -22 34 -22 125 0 55 0 550 0
1100 0 1346 -2 1251 32 1281 23 20 37 23 92 22 36 0 67 1 69 3 8 7 370 2 403
-6z"/>
<path d="M3350 4490 l0 -2045 435 0 435 0 0 2045 0 2045 -435 0 -435 0 0
-2045z m600 1935 c4 -3 22 0 40 6 40 14 72 -1 100 -47 21 -33 21 0 18 -1154 0
-19 0 -444 0 -945 0 -500 0 -919 0 -930 -1 -11 0 -94 0 -185 0 -91 0 -176 0
-190 0 -14 1 -103 2 -198 l3 -174 -31 -30 -30 -31 -114 2 c-62 1 -117 1 -123
1 -22 -1 -111 -2 -135 -1 -14 0 -38 0 -55 0 -63 -3 -136 14 -150 34 -12 16
-14 295 -16 1776 -3 2078 -3 1987 12 2022 19 48 74 58 288 53 101 -2 187 -6
191 -9z"/>
<path d="M4760 6530 c-3 -41 0 -804 3 -807 3 -2 197 -4 433 -4 l429 0 3 408 2
408 -435 0 c-239 0 -435 -2 -435 -5z m722 -111 c15 -6 30 -19 32 -28 3 -9 6
-124 8 -256 l3 -240 -24 -32 c-14 -18 -25 -33 -25 -34 -1 0 -123 -3 -273 -6
l-271 -4 -34 29 -33 30 -2 237 c-3 274 1 292 62 310 56 17 520 12 557 -6z"/>
<path d="M6170 6533 c-1 -2 -1 -185 -1 -408 l0 -406 1138 1 1138 0 3 407 2
408 -1140 0 c-627 0 -1140 -1 -1140 -2z m405 -103 c6 0 393 1 860 3 l850 2 27
-25 28 -25 2 -240 c1 -209 0 -244 -15 -272 -10 -18 -25 -37 -35 -42 -17 -9
-616 -12 -1682 -10 l-285 1 -28 31 -27 30 3 253 c3 284 2 280 74 294 21 4 79
6 128 3 50 -2 95 -4 100 -3z"/>
<path d="M4765 5249 c-3 -8 -4 -641 -3 -1407 l3 -1393 430 0 430 0 0 1403 0
1403 -25 -2 c-65 -5 -783 -3 -805 3 -16 4 -27 1 -30 -7z m751 -105 c23 -22 24
-29 24 -176 0 -84 0 -648 1 -1253 0 -605 -4 -1113 -9 -1130 -15 -54 -29 -56
-354 -53 -270 3 -299 5 -315 21 -17 17 -18 82 -18 1291 0 1227 1 1275 19 1294
24 28 39 29 355 30 l274 0 23 -24z"/>
<path d="M6174 5241 c-2 -2 -4 -632 -4 -1400 l0 -1396 435 0 435 0 -2 1398 -3
1398 -428 2 c-236 1 -431 0 -433 -2z m713 -122 c18 -6 23 -14 18 -28 -3 -10 1
-24 10 -31 14 -12 18 -421 17 -1790 -1 -19 -1 -141 -1 -270 0 -129 0 -244 1
-255 1 -11 1 -46 0 -78 -2 -50 -6 -63 -32 -88 -28 -29 -35 -30 -107 -30 -43 0
-143 -2 -223 -4 -80 -2 -170 1 -200 7 -97 18 -89 -41 -91 642 0 330 0 666 1
746 1 80 2 371 3 647 2 452 4 504 18 519 12 11 43 18 95 23 106 9 461 2 491
-10z"/>
</g>
</svg>
