<?xml version="1.0" standalone="no"?>
<!DOCTYPE svg PUBLIC "-//W3C//DTD SVG 20010904//EN"
 "http://www.w3.org/TR/2001/REC-SVG-20010904/DTD/svg10.dtd">
<svg version="1.0" xmlns="http://www.w3.org/2000/svg"
 width="900.000000pt" height="900.000000pt" viewBox="0 0 900.000000 900.000000"
 preserveAspectRatio="xMidYMid meet">
<metadata>
Created by potrace 1.10, written by Peter Selinger 2001-2011
</metadata>
<g transform="translate(0.000000,900.000000) scale(0.100000,-0.100000)"
fill="#e86029" stroke="none">
<path d="M4179 8166 c-26 -7 -78 -13 -117 -14 -38 -1 -91 -7 -118 -13 -27 -6
-78 -14 -114 -19 -36 -5 -78 -13 -93 -19 -16 -6 -45 -11 -66 -11 -20 0 -42 -5
-47 -10 -6 -6 -33 -15 -60 -19 -27 -5 -62 -13 -79 -19 -16 -6 -46 -15 -65 -22
-19 -7 -52 -15 -73 -20 -21 -4 -44 -13 -50 -19 -6 -6 -19 -11 -29 -11 -17 0
-65 -18 -121 -46 -16 -8 -35 -14 -44 -14 -8 0 -27 -6 -41 -14 -15 -8 -58 -28
-97 -46 -38 -17 -77 -36 -85 -41 -8 -5 -22 -12 -30 -15 -38 -15 -196 -100
-239 -130 -20 -13 -39 -24 -42 -24 -11 0 -230 -149 -309 -210 -243 -186 -526
-469 -710 -710 -59 -77 -210 -298 -210 -307 0 -3 -17 -33 -39 -67 -21 -34 -50
-87 -65 -118 -15 -32 -31 -60 -37 -63 -5 -4 -9 -14 -9 -24 0 -10 -7 -24 -15
-31 -8 -7 -15 -23 -15 -36 0 -13 -8 -27 -17 -32 -10 -4 -191 -6 -403 -2 -212
3 -391 3 -398 0 -10 -5 -12 -310 -13 -1551 l0 -1544 399 -1 c218 0 405 -3 415
-7 9 -3 17 -17 17 -30 0 -14 7 -30 15 -37 8 -7 15 -18 15 -26 0 -7 13 -36 30
-64 16 -28 30 -54 30 -57 0 -4 20 -38 44 -77 24 -39 45 -75 47 -81 2 -5 27
-43 54 -83 28 -41 55 -81 60 -90 8 -14 111 -153 137 -187 77 -98 133 -160 294
-320 194 -194 232 -228 409 -361 75 -57 248 -174 270 -183 6 -2 37 -21 70 -41
52 -31 100 -57 189 -103 12 -5 28 -14 36 -19 8 -4 22 -11 30 -14 18 -8 135
-61 173 -80 16 -8 35 -14 42 -14 7 0 26 -6 42 -14 56 -28 104 -46 121 -46 10
0 23 -5 29 -11 6 -6 29 -15 50 -19 36 -8 52 -13 136 -41 17 -6 53 -14 80 -18
26 -4 53 -13 59 -19 7 -7 28 -12 48 -12 19 0 57 -7 84 -15 27 -8 65 -15 83
-15 19 0 44 -5 55 -11 12 -6 75 -15 142 -19 67 -4 139 -13 161 -19 53 -14 537
-14 590 0 22 6 94 15 161 19 67 4 130 13 142 19 11 6 36 11 54 11 18 0 55 7
82 15 27 8 66 15 86 15 20 0 41 5 48 12 6 6 33 15 59 19 27 4 63 12 81 18 83
28 99 33 135 41 21 4 44 13 50 19 6 6 19 11 29 11 17 0 65 18 121 46 16 8 35
14 44 14 8 0 27 6 41 14 15 7 59 28 97 46 39 17 77 36 85 41 8 5 22 12 30 15
8 3 22 9 31 14 8 4 40 21 70 36 30 15 82 45 117 66 34 21 64 38 67 38 2 0 34
21 72 47 37 26 88 60 113 77 25 16 72 50 105 75 33 25 65 49 70 53 132 96 513
477 613 613 4 6 35 46 67 90 33 44 65 88 70 97 6 9 32 49 60 90 57 83 70 105
84 133 5 11 21 37 35 58 14 21 26 41 26 44 0 12 42 93 51 99 5 3 9 13 9 23 0
10 7 24 15 31 8 7 15 23 15 36 0 13 8 27 18 32 9 4 189 6 400 3 211 -4 390 -4
398 -1 13 5 15 196 15 1550 0 1242 -3 1545 -13 1550 -7 3 -186 3 -398 0 -212
-4 -393 -2 -402 2 -10 5 -18 19 -18 32 0 13 -7 29 -15 36 -8 7 -15 21 -15 31
0 10 -4 20 -9 24 -6 3 -22 31 -36 62 -15 30 -44 83 -64 117 -21 33 -40 66 -42
71 -10 24 -162 245 -206 299 -26 32 -52 66 -58 75 -59 95 -461 496 -600 599
-5 4 -37 28 -70 53 -73 56 -284 199 -293 199 -4 0 -38 20 -75 45 -38 25 -73
45 -77 45 -5 0 -32 14 -60 30 -28 17 -57 30 -64 30 -8 0 -19 7 -26 15 -7 8
-17 15 -24 15 -10 0 -108 44 -168 76 -14 8 -33 14 -41 14 -9 0 -28 6 -44 14
-54 27 -104 46 -121 46 -9 0 -26 7 -36 15 -11 8 -30 15 -42 15 -12 0 -35 7
-50 15 -16 8 -40 15 -54 15 -14 1 -36 7 -50 15 -14 8 -38 14 -55 15 -16 0 -43
7 -59 15 -15 8 -43 15 -61 15 -19 0 -46 5 -61 11 -16 5 -58 14 -94 19 -36 5
-87 14 -115 19 -27 5 -86 12 -130 15 -44 3 -98 10 -120 15 -59 15 -549 13
-606 -3z m609 -90 c57 -4 116 -12 130 -18 15 -6 43 -12 62 -13 64 -5 198 -25
222 -34 13 -5 48 -12 78 -16 30 -4 70 -13 88 -21 18 -7 74 -23 125 -34 50 -12
116 -32 145 -46 29 -13 60 -24 69 -24 9 0 37 -9 62 -21 25 -12 69 -32 96 -44
28 -13 61 -26 75 -30 14 -4 69 -30 122 -56 53 -27 99 -49 102 -49 3 0 38 -20
78 -45 40 -25 76 -45 79 -45 8 0 141 -86 204 -131 22 -16 65 -46 95 -67 165
-114 500 -427 629 -588 152 -191 224 -292 250 -349 5 -12 16 -27 25 -34 15
-13 128 -207 142 -246 18 -48 111 -169 148 -194 l39 -26 330 -5 329 -5 19 -24
c19 -23 19 -55 17 -1427 -3 -1332 -4 -1404 -21 -1421 -16 -16 -45 -18 -337
-20 -362 -2 -352 0 -429 -85 -43 -48 -57 -70 -111 -178 -15 -30 -44 -80 -64
-110 -20 -30 -36 -58 -36 -63 0 -5 -9 -21 -21 -35 -11 -15 -40 -56 -64 -92
-92 -135 -129 -185 -209 -284 -66 -83 -297 -320 -371 -383 -28 -24 -81 -70
-120 -103 -38 -34 -100 -81 -136 -106 -37 -25 -75 -54 -84 -64 -10 -11 -22
-20 -27 -20 -8 0 -119 -68 -180 -111 -15 -10 -29 -19 -32 -19 -2 0 -42 -23
-89 -50 -47 -28 -88 -50 -92 -50 -8 0 -164 -73 -226 -106 -26 -13 -52 -24 -59
-24 -7 0 -26 -6 -43 -14 -18 -8 -41 -16 -52 -19 -11 -3 -61 -21 -111 -40 -50
-19 -115 -38 -145 -42 -30 -4 -65 -14 -79 -23 -25 -16 -52 -23 -170 -42 -36
-6 -79 -16 -96 -21 -18 -5 -119 -21 -225 -35 -163 -22 -232 -26 -429 -26 -230
1 -319 8 -560 47 -52 8 -124 19 -160 24 -36 5 -78 14 -93 20 -16 6 -40 11 -54
11 -14 0 -37 6 -51 14 -25 12 -59 23 -152 46 -45 11 -122 39 -135 49 -5 5 -21
11 -35 14 -44 10 -131 44 -143 56 -6 6 -18 11 -27 11 -15 0 -325 152 -390 192
-196 119 -287 179 -333 217 -31 25 -79 63 -109 84 -70 51 -130 105 -290 262
-275 270 -448 506 -668 911 -19 36 -54 85 -76 109 -74 77 -65 75 -424 78 -291
2 -321 4 -337 20 -17 17 -18 89 -21 1405 -1 763 0 1397 3 1410 3 12 19 31 36
41 27 16 57 18 327 19 254 1 304 3 340 17 51 21 109 88 159 182 19 37 41 75
48 83 7 8 25 40 39 70 32 66 43 84 79 131 15 20 27 40 27 46 0 6 12 26 28 46
15 20 45 62 67 93 89 127 306 372 435 491 19 18 46 44 60 59 14 14 48 43 75
65 28 22 75 60 105 85 63 52 150 115 221 160 27 17 57 38 66 47 10 8 51 32 91
52 39 20 74 40 77 44 9 15 411 211 432 211 12 0 20 3 74 31 33 16 129 49 174
59 22 5 60 16 85 26 50 18 79 25 195 49 44 9 109 22 145 30 126 27 316 54 413
59 55 3 101 6 103 8 6 6 337 1 452 -6z"/>
<path d="M4230 7104 c-72 -9 -226 -34 -265 -43 -70 -16 -198 -51 -262 -71 -34
-11 -70 -20 -80 -20 -10 0 -29 -7 -41 -16 -12 -8 -46 -23 -75 -33 -29 -10 -84
-34 -122 -54 -39 -20 -88 -43 -110 -53 -69 -29 -303 -184 -426 -281 -46 -37
-141 -124 -211 -195 -101 -100 -134 -141 -158 -191 -40 -84 -39 -110 5 -152
68 -63 -43 -60 2010 -57 2000 2 1943 1 1991 50 40 39 -25 41 -1992 41 -1219 1
-1890 -3 -1924 -9 -30 -6 -62 -8 -72 -4 -16 5 -17 8 -3 32 15 29 219 240 321
334 34 30 106 89 161 129 110 82 106 80 218 146 44 27 89 53 100 60 11 7 27
15 35 19 8 3 56 26 105 50 50 24 96 44 104 44 7 0 25 7 39 15 30 16 169 63
222 75 19 4 49 13 65 18 35 12 146 35 260 54 53 9 176 13 365 13 275 0 366 -7
490 -37 25 -6 61 -13 80 -15 19 -3 49 -11 67 -19 17 -8 39 -14 50 -14 10 0 50
-12 88 -26 39 -14 81 -28 95 -31 14 -3 34 -12 45 -19 11 -8 27 -14 35 -14 9 0
56 -20 106 -44 49 -24 96 -46 104 -50 8 -4 24 -12 35 -19 11 -7 56 -33 100
-60 44 -26 89 -53 100 -60 50 -31 187 -137 255 -196 96 -83 326 -317 348 -353
19 -33 28 -35 42 -8 7 14 8 26 0 39 -5 11 -10 28 -10 38 0 56 -254 317 -461
473 -66 50 -121 90 -123 90 -3 0 -46 25 -97 56 -50 31 -105 60 -120 66 -16 5
-29 13 -29 18 0 8 -110 60 -128 60 -5 0 -15 6 -21 14 -6 7 -32 19 -57 26 -25
7 -62 21 -82 32 -20 10 -44 18 -54 18 -9 0 -41 8 -70 19 -79 28 -257 72 -398
97 -83 16 -564 28 -650 18z"/>
<path d="M2015 5529 c-200 -25 -328 -68 -450 -152 -91 -62 -197 -180 -243
-268 -19 -35 -42 -80 -52 -99 -10 -19 -26 -62 -35 -95 -10 -33 -21 -64 -26
-69 -5 -6 -9 -28 -9 -50 0 -23 -5 -68 -11 -101 -6 -33 -11 -123 -12 -200 -2
-404 107 -680 344 -869 82 -65 124 -92 179 -114 195 -76 391 -102 604 -77 118
14 223 39 243 58 3 4 16 7 28 7 12 0 48 14 79 30 153 82 294 228 370 385 79
162 105 274 112 483 15 429 -86 718 -324 925 -118 103 -209 146 -407 191 -78
18 -298 26 -390 15z m296 -98 c28 -6 67 -11 87 -11 20 -1 48 -7 62 -15 14 -8
34 -14 45 -15 11 0 61 -20 111 -45 136 -68 247 -180 314 -315 17 -36 38 -78
46 -93 8 -16 14 -37 14 -48 0 -11 6 -32 14 -47 20 -41 41 -222 41 -367 -1
-181 -29 -354 -71 -437 -8 -14 -14 -33 -14 -42 0 -8 -17 -43 -37 -77 -21 -33
-43 -71 -50 -83 -15 -26 -133 -144 -161 -159 -11 -7 -48 -29 -81 -49 -34 -21
-69 -38 -77 -38 -9 0 -28 -6 -42 -14 -120 -62 -454 -74 -642 -23 -112 31 -151
48 -240 106 -54 35 -200 175 -200 192 0 4 -13 27 -28 51 -41 63 -80 163 -106
275 -44 182 -25 609 30 715 8 14 14 33 14 41 0 38 114 223 174 282 107 106
264 182 421 205 33 5 77 13 98 17 50 11 216 7 278 -6z"/>
<path d="M2050 5091 c-119 -21 -228 -107 -284 -225 -59 -125 -68 -185 -63
-411 2 -119 9 -218 17 -245 18 -67 70 -168 108 -214 148 -178 488 -182 655 -8
53 55 107 184 123 292 12 77 9 342 -3 420 -25 156 -109 292 -210 344 -18 9
-46 23 -62 31 -34 18 -213 28 -281 16z m167 -105 c104 -6 164 -41 223 -131 61
-94 74 -163 74 -385 -1 -184 -1 -185 -33 -267 -43 -110 -66 -141 -135 -187
-56 -37 -63 -39 -155 -43 -188 -9 -284 43 -339 184 -53 140 -56 157 -56 327 1
173 11 228 59 329 28 60 121 154 158 161 12 3 42 9 67 13 25 5 48 8 51 6 4 -1
42 -5 86 -7z"/>
<path d="M3825 5527 c-284 -33 -481 -182 -565 -427 -36 -106 -29 -296 16 -409
80 -202 222 -327 529 -468 125 -57 206 -129 205 -182 -1 -24 -31 -56 -65 -69
-55 -21 -209 -7 -320 28 -218 69 -259 77 -300 63 -50 -17 -62 -28 -90 -82 -20
-41 -23 -60 -23 -184 0 -75 4 -140 9 -143 5 -3 18 -23 29 -45 17 -33 57 -67
114 -100 42 -24 103 -43 176 -56 47 -7 99 -16 115 -19 17 -3 86 -7 155 -9 129
-3 264 14 328 41 18 8 40 14 48 14 34 0 165 72 222 122 107 94 183 220 205
343 19 111 4 345 -24 345 -3 0 -18 26 -32 58 -30 70 -141 188 -232 246 -33 21
-71 46 -85 55 -14 10 -79 44 -145 77 -203 102 -245 134 -245 187 0 37 17 57
66 76 44 17 193 -1 292 -35 132 -46 193 -39 258 28 63 66 124 212 124 299 0
151 -419 286 -765 246z m295 -97 c107 -16 112 -17 145 -28 17 -6 57 -19 90
-28 33 -10 65 -21 70 -25 6 -4 27 -10 48 -14 46 -9 66 -38 44 -63 -8 -9 -25
-42 -37 -72 -12 -30 -28 -68 -36 -85 -7 -16 -21 -51 -30 -77 -19 -55 -34 -59
-92 -29 -62 32 -112 51 -133 51 -11 0 -34 7 -52 16 -24 13 -62 17 -162 18
-115 1 -134 -1 -162 -20 -100 -64 -119 -196 -38 -275 29 -29 131 -92 195 -121
158 -72 262 -130 346 -193 69 -52 144 -131 144 -152 0 -6 7 -16 15 -23 8 -7
15 -20 15 -29 0 -9 6 -28 13 -42 19 -34 28 -168 18 -254 -15 -126 -46 -190
-137 -281 -65 -65 -92 -82 -199 -128 -49 -21 -115 -37 -200 -48 -93 -11 -362
-3 -402 13 -16 6 -48 14 -73 19 -45 8 -87 21 -147 47 -17 7 -36 13 -41 13 -16
0 -19 26 -14 141 3 59 -1 136 -7 174 -10 55 -10 70 1 76 19 12 35 11 50 -4 22
-22 169 -87 196 -87 10 0 27 -7 38 -15 10 -8 30 -15 44 -15 14 0 47 -7 74 -15
76 -23 252 -20 311 5 83 36 115 81 115 166 0 58 -2 62 -47 112 -52 57 -64 64
-288 178 -177 89 -174 87 -246 141 -117 88 -187 197 -214 336 -10 48 -15 102
-12 120 24 160 42 209 105 292 55 73 183 164 230 165 9 0 26 7 36 15 11 8 36
15 55 16 20 0 56 6 81 12 53 14 185 13 290 -3z"/>
<path d="M5515 5529 c-104 -8 -166 -20 -215 -41 -86 -38 -111 -48 -120 -48
-11 0 -75 -43 -158 -106 -60 -46 -123 -114 -170 -184 -20 -30 -42 -61 -49 -68
-7 -7 -13 -19 -13 -27 0 -7 -14 -44 -31 -82 -18 -37 -36 -86 -41 -108 -30
-128 -39 -196 -42 -336 -2 -86 -6 -161 -10 -167 -3 -6 -2 -13 2 -16 5 -3 9
-49 10 -102 1 -75 6 -104 21 -129 10 -18 24 -56 30 -85 13 -61 78 -195 126
-260 71 -96 231 -228 315 -260 19 -8 44 -20 55 -27 11 -7 31 -13 45 -13 14 0
30 -4 35 -9 17 -16 300 -44 353 -35 44 8 97 13 151 14 109 1 263 56 330 116
66 59 81 110 75 243 -3 60 -11 115 -19 131 -18 35 -79 88 -110 96 -29 7 -207
-21 -280 -44 -43 -13 -122 -18 -239 -14 -16 1 -38 8 -50 15 -11 8 -32 17 -46
20 -26 7 -70 45 -108 96 -76 101 -107 354 -68 563 56 301 258 398 589 283 144
-49 191 -44 256 30 35 40 83 141 107 223 25 85 14 126 -51 188 -29 28 -64 54
-77 57 -13 3 -67 21 -122 40 -126 45 -282 60 -481 46z m268 -100 c26 -5 64 -9
83 -9 19 0 45 -5 57 -12 12 -6 38 -15 57 -19 43 -9 96 -27 132 -45 14 -8 35
-14 46 -14 43 0 34 -51 -34 -182 -8 -14 -14 -35 -14 -45 0 -10 -5 -24 -10 -29
-6 -6 -14 -30 -18 -55 -6 -38 -11 -44 -35 -47 -15 -2 -27 0 -27 5 0 9 -65 44
-125 66 -22 8 -60 23 -84 33 -34 14 -71 18 -170 19 -125 0 -127 0 -195 -35
-42 -21 -86 -55 -115 -86 -52 -57 -111 -167 -123 -231 -4 -24 -12 -64 -17 -90
-13 -64 -13 -317 0 -373 6 -25 14 -63 18 -85 15 -71 68 -170 121 -225 31 -32
103 -72 167 -91 54 -17 85 -20 167 -16 98 4 190 18 251 39 17 5 46 14 65 18
19 5 50 16 67 25 18 9 43 15 55 13 22 -3 22 -5 19 -168 -3 -179 -9 -200 -59
-200 -13 0 -45 -7 -71 -15 -109 -34 -175 -45 -311 -51 -322 -13 -505 47 -680
225 -98 99 -128 151 -189 331 -32 93 -45 207 -45 390 0 241 15 318 99 515 23
53 95 161 142 211 43 45 135 117 173 134 14 6 45 22 70 35 25 13 54 24 65 25
11 0 31 7 45 15 14 8 43 15 65 15 22 1 60 7 85 13 49 13 198 11 273 -4z"/>
<path d="M6555 5494 c-65 -13 -118 -57 -136 -112 -8 -24 -13 -216 -15 -611 -8
-1065 -7 -1132 5 -1144 6 -6 11 -20 11 -31 0 -36 37 -83 87 -113 46 -27 53
-28 195 -30 117 -1 149 1 159 13 6 8 17 14 24 14 25 0 77 54 97 99 17 41 20
72 21 262 2 228 4 236 51 261 11 6 53 13 94 15 131 6 289 39 345 73 18 11 55
31 82 45 93 49 214 189 249 290 10 28 24 61 31 75 19 38 27 113 26 250 0 98
-5 140 -22 190 -30 95 -85 199 -127 243 -31 33 -125 105 -166 128 -43 25 -138
59 -162 59 -13 0 -41 7 -61 15 -49 19 -701 26 -788 9z m680 -85 c28 -5 75 -13
105 -17 79 -12 186 -58 253 -109 55 -43 137 -138 137 -161 0 -6 7 -23 15 -39
36 -70 46 -135 42 -268 -4 -124 -18 -205 -45 -252 -6 -12 -12 -27 -12 -33 0
-19 -86 -125 -138 -169 -44 -38 -68 -52 -167 -96 -88 -39 -249 -58 -411 -49
-89 5 -112 4 -115 -7 -4 -13 8 -557 13 -624 l3 -30 -208 0 -208 0 0 925 c0
509 1 928 1 933 0 10 676 8 735 -4z"/>
<path d="M6900 5084 c-4 -176 1 -529 7 -535 14 -14 261 6 315 26 50 18 103 62
133 110 16 25 20 49 20 135 -1 98 -2 108 -28 148 -34 52 -83 83 -157 99 -73
16 -290 29 -290 17z m302 -136 c21 -12 44 -31 52 -43 55 -83 4 -209 -97 -236
-23 -6 -50 -15 -59 -20 -20 -10 -58 2 -77 25 -18 21 -27 211 -12 249 23 58
113 70 193 25z"/>
<path d="M2640 3040 c-63 -4 -94 -11 -121 -27 -62 -39 -73 -56 -66 -113 7 -54
34 -98 127 -204 69 -78 320 -301 385 -341 17 -11 75 -48 130 -84 55 -37 126
-78 159 -92 32 -15 61 -31 65 -36 3 -5 33 -20 66 -33 33 -13 65 -26 70 -30 6
-4 37 -17 70 -29 33 -13 69 -27 80 -31 30 -13 229 -70 320 -92 127 -31 321
-49 540 -51 99 -1 191 0 205 1 14 1 34 2 45 2 62 0 320 37 343 48 9 5 35 13
57 16 22 4 72 18 110 31 39 13 88 27 110 31 22 4 69 20 105 36 36 16 74 33 85
37 59 24 247 121 295 152 30 20 67 43 81 50 72 38 256 182 369 289 36 33 77
72 92 86 15 13 56 62 91 107 53 68 66 91 71 133 7 47 5 53 -21 81 -15 16 -40
37 -56 47 -26 16 -143 17 -1875 19 -1016 1 -1885 0 -1932 -3z m1810 -87 c1290
-3 1915 0 1956 7 121 20 118 6 -30 -153 -178 -192 -385 -362 -581 -480 -81
-48 -337 -177 -352 -177 -8 0 -27 -7 -41 -14 -15 -8 -72 -29 -127 -46 -55 -17
-113 -36 -130 -42 -16 -6 -50 -14 -75 -18 -25 -4 -65 -12 -90 -18 -130 -32
-252 -42 -490 -42 -238 0 -360 10 -490 42 -25 6 -65 14 -90 18 -25 4 -58 12
-75 18 -16 6 -75 25 -130 42 -55 17 -112 38 -127 46 -14 7 -33 14 -40 14 -15
0 -269 126 -343 170 -100 60 -267 180 -356 257 -76 65 -330 327 -345 355 -16
31 -4 41 36 31 14 -4 878 -8 1920 -10z"/>
</g>
</svg>
