 <svg  version="1.0" xmlns="http://www.w3.org/2000/svg"  width="900.000000pt" height="540.000000pt" viewBox="0 0 900.000000 540.000000"  preserveAspectRatio="xMidYMid meet">  <g transform="translate(0.000000,540.000000) scale(0.100000,-0.100000)" fill="#ffff00" stroke="none"> <path d="M4541 4525 c-55 -40 -74 -66 -81 -110 -11 -75 8 -90 29 -21 7 24 27 58 46 76 29 28 42 33 97 37 62 5 66 4 101 -27 23 -20 42 -48 49 -75 17 -58 33 -60 34 -5 2 51 -26 96 -81 130 -49 30 -150 28 -194 -5z"/> <path d="M2601 4483 c-49 -10 -99 -51 -125 -103 -17 -35 -22 -120 -7 -120 12 0 21 25 21 56 0 34 45 91 91 115 46 23 102 25 119 4 7 -8 18 -15 25 -15 25 0 73 -71 80 -116 9 -66 25 -64 25 3 -1 47 -6 66 -28 97 -15 21 -36 44 -47 50 -11 6 -23 15 -26 20 -8 10 -93 17 -128 9z"/> <path d="M4523 4325 c-3 -9 -1 -33 5 -53 6 -20 14 -58 17 -85 5 -37 3 -48 -9 -53 -21 -8 -20 -30 2 -39 16 -6 16 -7 -2 -20 -40 -30 -13 -40 105 -40 98 1 114 3 117 17 3 15 -8 18 -75 20 -101 4 -102 22 0 26 77 3 94 13 62 36 -13 9 -13 22 -5 81 6 39 12 81 13 95 l2 25 -113 3 c-96 2 -113 0 -119 -13z m169 -84 c-2 -19 -9 -51 -15 -70 -10 -31 -17 -36 -42 -36 -29 0 -31 3 -42 60 -17 82 -14 87 49 83 l53 -3 -3 -34z"/> <path d="M5590 4292 c-76 -50 -119 -118 -127 -197 -5 -53 -2 -70 22 -123 15 -34 31 -62 36 -62 4 0 11 -9 14 -20 3 -11 11 -20 16 -20 15 0 10 40 -6 46 -8 4 -15 19 -15 34 0 16 -4 32 -10 35 -5 3 -10 33 -10 66 0 52 5 68 34 112 47 71 90 92 181 91 75 0 80 -2 139 -61 43 -44 74 -133 58 -168 -7 -14 -12 -32 -12 -40 0 -8 -12 -39 -26 -70 -15 -31 -24 -58 -22 -61 10 -10 69 58 89 104 30 65 34 108 15 173 -19 65 -71 131 -125 158 -37 19 -136 42 -175 40 -12 0 -46 -17 -76 -37z"/> <path d="M2537 4259 c-7 -28 3 -118 14 -125 14 -8 11 -62 -3 -67 -10 -3 -10 -9 -1 -25 8 -13 9 -23 3 -27 -16 -10 -12 -55 4 -55 9 0 16 -12 18 -32 l3 -33 70 0 c69 0 70 0 73 28 2 15 12 32 23 37 20 11 26 45 9 55 -8 5 -7 11 1 21 9 11 8 19 -7 35 -14 16 -16 24 -7 38 16 25 26 143 14 161 -8 12 -14 13 -29 3 -13 -8 -23 -8 -30 -1 -7 7 -16 7 -29 0 -11 -6 -25 -7 -33 -2 -8 5 -21 5 -31 -1 -11 -6 -20 -5 -24 1 -11 17 -32 11 -38 -11z m162 -48 c7 -5 10 -14 6 -21 -4 -7 -10 -35 -14 -64 -6 -50 -6 -51 -43 -54 -32 -3 -38 0 -42 20 -10 49 -15 116 -9 122 9 9 86 7 102 -3z m0 -177 c17 -4 28 -10 25 -15 -7 -12 -101 -12 -108 0 -13 20 23 27 83 15z m1 -64 c10 -7 -6 -10 -55 -9 -48 0 -64 3 -50 9 27 12 87 12 105 0z"/> <path d="M5263 4256 c-32 -33 -28 -57 12 -85 l34 -23 31 30 c36 36 36 39 5 75 -29 33 -53 34 -82 3z"/> <path d="M7167 4264 c-4 -4 -7 -24 -7 -45 0 -34 3 -37 34 -43 19 -4 46 -4 59 -1 14 4 28 2 31 -4 4 -6 2 -11 -3 -11 -6 0 -11 -4 -11 -10 0 -5 10 -10 23 -10 13 0 34 -8 46 -17 51 -38 131 -126 131 -144 0 -11 5 -19 10 -19 6 0 10 7 10 15 0 8 13 21 29 30 32 16 49 51 33 67 -18 18 -62 0 -73 -30 -11 -25 -12 -26 -19 -7 -13 30 -12 32 16 58 19 18 24 30 19 46 -3 11 -11 21 -16 21 -18 0 -59 -32 -59 -46 0 -8 -7 -14 -15 -14 -17 0 -21 35 -5 45 6 3 10 22 10 41 0 27 -4 34 -20 34 -11 0 -29 -13 -42 -30 -12 -16 -28 -30 -35 -30 -16 0 -17 12 -2 27 6 6 9 23 7 39 -4 41 -38 39 -59 -4 -22 -43 -33 -41 -39 5 -4 29 -10 39 -25 41 -12 2 -24 0 -28 -4z"/> <path d="M3335 4240 c-10 -11 -24 -20 -32 -20 -24 0 -14 -35 18 -63 31 -27 59 -35 59 -17 0 5 12 20 26 34 26 24 26 46 -1 46 -7 0 -17 9 -20 20 -3 11 -12 20 -19 20 -7 0 -21 -9 -31 -20z"/> <path d="M7064 4245 c-4 -8 -3 -26 0 -40 5 -20 13 -25 36 -25 35 0 40 21 14 58 -17 25 -42 29 -50 7z"/> <path d="M6983 4223 c-22 -8 -15 -58 12 -87 29 -31 35 -32 35 -6 0 11 5 20 10 20 18 0 11 19 -17 49 -16 16 -34 27 -40 24z"/> <path d="M4046 4188 c-3 -13 -7 -32 -8 -43 -4 -28 -74 -34 -92 -9 -8 10 -20 15 -30 11 -27 -11 -30 -36 -7 -61 11 -12 21 -25 21 -29 0 -18 -50 -57 -74 -57 -22 0 -26 -4 -26 -30 0 -25 4 -30 24 -30 16 0 32 -11 45 -29 26 -36 26 -43 1 -66 -24 -21 -25 -38 -5 -55 11 -9 19 -8 37 4 12 9 39 16 60 16 21 0 38 5 38 10 0 6 9 10 20 10 11 0 20 -4 20 -10 0 -5 -9 -10 -20 -10 -21 0 -24 -9 -14 -59 5 -24 12 -31 30 -31 19 0 24 7 30 38 4 20 12 40 18 44 19 13 66 9 72 -7 8 -19 25 -19 50 -1 19 14 19 15 -3 38 -13 14 -23 31 -23 39 0 25 44 60 71 57 21 -3 24 1 24 27 0 24 -4 30 -21 30 -23 1 -74 42 -74 61 0 6 9 19 20 29 25 22 23 58 -3 63 -10 2 -26 -3 -35 -11 -18 -17 -65 -13 -81 7 -5 6 -11 25 -13 41 -4 39 -45 49 -52 13z m34 -93 c-13 -16 -40 -20 -40 -7 0 14 12 22 33 22 16 0 17 -3 7 -15z m60 -15 c0 -13 -11 -13 -30 0 -12 8 -11 10 8 10 12 0 22 -4 22 -10z m6 -72 c26 -41 26 -43 10 -71 -19 -34 -20 -54 -3 -60 10 -4 10 -7 0 -18 -11 -11 -13 -10 -13 4 0 14 -11 17 -70 17 -53 0 -70 3 -70 14 0 8 -7 16 -15 20 -24 9 -19 79 8 110 18 21 31 26 74 26 51 0 54 -1 79 -42z m-202 -55 c4 -9 2 -21 -4 -27 -7 -7 -10 -7 -10 1 0 6 -3 18 -6 27 -3 9 -2 16 4 16 5 0 13 -8 16 -17z m276 -2 c0 -23 -16 -36 -25 -21 -9 14 1 40 15 40 5 0 10 -9 10 -19z"/> <path d="M6884 4138 c-5 -17 1 -28 27 -49 44 -37 49 -36 49 5 0 25 -6 38 -25 50 -32 21 -42 20 -51 -6z"/> <path d="M7125 4083 c-40 -14 -99 -54 -123 -83 -42 -51 -66 -140 -41 -155 16 -11 49 25 49 55 0 51 80 130 133 130 13 0 31 6 41 13 15 11 17 17 7 35 -13 25 -12 25 -66 5z"/> <path d="M6825 4070 c-13 -20 7 -51 46 -69 l40 -19 -7 36 c-3 20 -13 43 -22 50 -19 15 -48 16 -57 2z"/> <path d="M2047 4033 c-2 -5 -7 -20 -10 -34 -4 -14 -18 -32 -33 -39 -23 -13 -27 -12 -35 3 -14 23 -59 23 -59 -1 0 -10 6 -27 14 -37 12 -16 12 -22 -1 -41 -8 -13 -27 -24 -41 -26 -21 -2 -27 -8 -27 -28 0 -20 6 -26 28 -28 40 -5 56 -42 32 -78 -24 -37 -7 -52 40 -35 46 16 75 1 75 -39 0 -25 4 -30 25 -30 24 0 29 9 26 37 -1 7 9 19 23 28 23 15 27 15 56 0 44 -23 61 -6 37 35 -17 27 -17 31 -2 54 9 14 28 26 43 28 19 2 27 9 27 23 0 14 -8 21 -27 23 -15 2 -34 14 -43 28 -15 23 -15 27 -1 43 32 35 11 77 -23 47 -33 -30 -81 -8 -81 37 0 13 -7 28 -16 31 -20 8 -22 8 -27 -1z m67 -149 c17 -16 22 -90 8 -110 -15 -23 -66 -32 -99 -16 -36 17 -47 52 -32 106 10 35 11 36 59 36 31 0 54 -6 64 -16z"/> <path d="M5603 4013 c-3 -8 -1 -30 6 -49 6 -18 14 -55 18 -83 5 -41 3 -52 -11 -57 -12 -5 -16 -19 -16 -56 0 -41 3 -51 19 -55 12 -3 21 -15 23 -32 3 -25 5 -26 73 -26 68 0 70 1 73 27 2 18 11 28 28 32 21 6 24 12 24 56 0 45 -2 50 -26 56 -21 5 -24 11 -19 28 19 61 32 152 24 162 -6 7 -49 12 -110 12 -83 1 -101 -1 -106 -15z m170 -45 c2 -7 -3 -42 -12 -78 -13 -54 -20 -66 -39 -68 -13 -2 -29 2 -37 8 -14 12 -31 123 -20 139 9 16 102 14 108 -1z"/> <path d="M4562 3993 c3 -15 15 -18 78 -18 63 0 75 3 78 18 3 15 -6 17 -78 17 -72 0 -81 -2 -78 -17z"/> <path d="M5102 3998 c-6 -6 -12 -27 -12 -44 0 -64 -65 -87 -110 -39 -13 14 -27 25 -31 25 -12 0 -99 -84 -99 -96 0 -6 11 -23 25 -38 29 -32 30 -39 9 -71 -10 -15 -26 -25 -41 -25 -50 0 -63 -16 -63 -78 0 -66 11 -82 55 -82 26 0 34 -6 46 -32 14 -32 13 -35 -15 -76 l-30 -42 44 -45 c50 -51 61 -54 89 -24 39 42 111 15 111 -42 0 -53 8 -59 70 -59 64 0 74 7 84 62 12 64 63 76 110 27 l30 -30 53 53 c51 50 52 53 35 72 -9 12 -23 25 -29 29 -17 11 -16 38 3 65 11 16 25 22 55 22 34 0 41 4 50 27 11 30 2 114 -15 125 -6 4 -25 8 -42 8 -25 0 -33 6 -46 34 -16 33 -16 34 13 65 16 18 29 39 29 47 0 14 -55 68 -87 87 -10 6 -22 2 -36 -11 -34 -30 -43 -32 -76 -21 -31 11 -38 24 -43 84 -3 29 -4 30 -63 33 -38 2 -65 -2 -73 -10z m102 -92 c9 -33 17 -41 43 -48 18 -5 35 -13 38 -18 9 -15 44 -12 61 5 20 20 60 19 68 -1 8 -21 9 -18 -15 -45 -22 -26 -21 -48 5 -111 13 -29 22 -38 40 -38 39 0 56 -11 56 -35 0 -18 -7 -25 -32 -30 -43 -9 -65 -29 -89 -84 l-19 -44 25 -27 c29 -30 30 -36 11 -56 -20 -19 -29 -18 -56 11 -27 28 -46 31 -74 10 -11 -8 -28 -15 -37 -15 -22 0 -49 -37 -49 -66 0 -26 -27 -39 -46 -23 -8 6 -14 24 -14 39 0 30 -12 44 -50 55 -13 4 -30 13 -37 20 -15 15 -52 8 -60 -11 -3 -8 -18 -14 -34 -14 -36 0 -39 27 -7 70 l22 30 -22 44 c-12 24 -22 48 -22 54 0 6 -19 12 -42 14 -38 3 -43 6 -43 28 0 20 7 26 37 33 29 7 43 18 63 52 30 52 32 85 5 108 -25 21 -25 29 0 52 20 18 21 18 48 -8 33 -32 40 -32 84 -10 18 9 40 19 48 23 8 4 16 18 18 31 5 43 11 50 39 47 21 -2 28 -11 37 -42z"/> <path d="M5160 3795 c0 -22 4 -25 35 -25 36 0 105 -49 105 -74 0 -24 31 -76 46 -76 8 0 14 10 14 24 0 57 -75 145 -140 165 -53 16 -60 14 -60 -14z"/> <path d="M5085 3731 c-34 -23 -65 -75 -65 -108 0 -81 82 -152 160 -138 50 9 77 29 100 75 24 47 26 83 5 100 -8 7 -15 17 -15 23 0 5 -11 20 -25 33 -38 35 -120 42 -160 15z m131 -44 c21 -19 27 -32 27 -67 0 -96 -114 -125 -158 -40 -22 42 -19 58 19 96 40 40 74 44 112 11z"/> <path d="M6802 3981 c-25 -16 -10 -55 26 -65 47 -13 39 -40 -13 -40 -36 -1 -40 -4 -40 -26 0 -22 4 -25 40 -26 29 0 41 -5 43 -17 3 -12 -5 -19 -27 -23 -41 -8 -54 -26 -38 -48 18 -25 65 -11 79 23 5 14 8 64 6 110 -4 73 -8 87 -27 103 -26 20 -30 21 -49 9z"/> <path d="M7540 3983 c-32 -12 -40 -37 -40 -128 0 -58 5 -97 13 -108 18 -24 61 -31 76 -13 18 21 1 42 -40 50 -22 4 -30 11 -27 23 2 14 11 17 36 15 42 -5 65 13 51 39 -7 14 -21 19 -49 19 -49 0 -54 22 -7 35 27 8 32 15 32 40 0 30 -15 39 -45 28z"/> <path d="M6470 3881 c0 -10 7 -22 16 -25 9 -3 14 -11 12 -17 -2 -7 -75 -11 -223 -12 l-220 -2 0 -25 0 -25 220 -2 c148 -1 221 -5 223 -12 2 -6 -3 -14 -12 -17 -24 -9 -20 -44 4 -44 20 0 110 81 110 98 0 5 -20 30 -44 55 -46 49 -86 62 -86 28z"/> <path d="M3415 3863 c-50 -18 -112 -84 -120 -126 -3 -18 -2 -52 3 -77 l8 -45 8 45 c10 61 41 121 74 145 39 28 140 28 178 -1 29 -22 31 -24 64 -97 35 -76 54 -43 24 43 -19 55 -61 93 -124 114 -56 19 -62 18 -115 -1z"/> <path d="M7042 3801 c-13 -8 -8 -57 22 -202 20 -98 19 -92 17 -106 -1 -16 -33 -17 -48 -2 -15 15 -43 4 -43 -17 0 -10 7 -25 15 -34 14 -15 14 -19 1 -29 -12 -10 -13 -17 -3 -32 9 -14 9 -26 0 -48 -6 -17 -8 -32 -5 -35 3 -3 92 -6 199 -6 186 0 193 1 193 20 0 24 11 22 -170 24 -138 1 -145 2 -145 21 0 19 7 20 150 20 83 0 156 4 163 8 31 20 -10 27 -159 27 -135 0 -159 2 -159 15 0 13 24 15 159 15 97 0 162 4 166 10 10 16 -5 50 -21 50 -8 0 -23 -6 -34 -12 -36 -23 -43 1 -25 93 33 174 37 211 23 220 -7 5 -22 2 -35 -6 -17 -12 -28 -12 -46 -4 -18 8 -30 8 -46 0 -15 -9 -25 -8 -40 1 -15 9 -25 9 -46 0 -21 -10 -30 -9 -48 3 -12 8 -28 11 -35 6z m236 -70 c9 -6 -5 -122 -26 -211 -8 -35 -8 -35 -62 -35 l-55 0 -7 40 c-29 147 -35 200 -26 206 5 4 45 6 88 6 43 0 82 -2 88 -6z"/> <path d="M2860 3786 c0 -7 -11 -21 -25 -30 -27 -18 -34 -46 -10 -46 8 0 25 -12 39 -27 l25 -27 12 27 c7 15 20 27 31 27 22 0 24 28 2 37 -8 3 -20 16 -25 29 -9 26 -49 34 -49 10z"/> <path d="M4346 3743 c-62 -17 -149 -94 -180 -158 -10 -22 -23 -48 -27 -57 -5 -10 -9 -44 -9 -75 0 -84 33 -175 100 -274 27 -40 36 -63 33 -81 -3 -14 0 -35 6 -47 10 -17 9 -22 -4 -27 -20 -8 -19 -30 1 -38 16 -6 16 -8 0 -24 -9 -10 -16 -27 -16 -36 0 -15 5 -17 33 -11 43 9 291 5 297 -5 3 -4 16 -10 30 -11 26 -4 37 -33 22 -57 -11 -17 -39 -6 -45 19 -5 18 -13 19 -144 17 -122 -3 -138 -5 -141 -20 -3 -17 9 -18 143 -18 136 0 147 -1 140 -17 -5 -10 -8 -25 -8 -33 5 -381 5 -393 -11 -402 -23 -13 -20 -44 5 -62 l21 -15 -23 -38 c-67 -111 -86 -119 -290 -124 l-154 -4 -3 93 c-2 76 0 92 12 92 9 0 21 10 27 22 l11 21 18 -22 c15 -21 19 -22 38 -10 18 11 26 11 42 1 11 -6 24 -12 30 -12 13 0 13 57 -1 65 -6 4 -8 13 -5 20 2 7 6 100 7 206 l2 194 -34 7 c-55 11 -84 -33 -34 -52 l25 -9 -20 -54 c-15 -40 -20 -79 -21 -158 0 -57 1 -113 3 -124 3 -18 -3 -20 -49 -23 -31 -2 -53 1 -53 7 0 6 11 27 25 47 14 20 26 46 26 58 8 121 6 133 -41 203 -32 47 -30 50 30 55 27 2 35 7 35 23 0 17 -8 21 -51 25 -51 5 -84 22 -84 44 0 26 -48 97 -87 131 -139 119 -407 138 -598 43 -44 -22 -96 -54 -115 -72 -19 -18 -47 -40 -61 -49 -25 -15 -28 -15 -49 8 -13 14 -43 34 -66 46 -24 11 -46 29 -49 40 -9 29 -50 46 -70 29 -8 -7 -15 -18 -15 -25 0 -14 42 -45 62 -45 16 0 59 -46 80 -85 25 -47 46 -116 51 -168 5 -56 4 -57 -103 -77 -129 -23 -219 -88 -271 -198 -18 -37 -39 -75 -47 -84 -12 -15 -13 -28 -4 -75 20 -107 22 -98 -29 -101 -44 -3 -47 -1 -57 27 -8 24 -17 31 -36 31 -14 0 -43 6 -63 14 -21 8 -55 17 -75 21 -43 7 -63 34 -53 72 7 29 -9 53 -36 53 -29 0 -31 16 -4 48 35 41 33 84 -6 133 -24 31 -28 42 -20 58 14 26 14 246 0 312 -14 65 -9 68 91 62 52 -4 84 -2 100 7 l24 13 -30 15 c-54 30 -193 15 -195 -21 0 -7 -14 -23 -31 -36 -37 -30 -54 -22 -83 37 -15 30 -24 39 -32 31 -5 -5 -36 -13 -67 -16 -44 -5 -56 -9 -54 -22 2 -8 19 -20 38 -25 19 -5 58 -25 87 -43 73 -48 102 -112 112 -240 7 -94 6 -95 -17 -104 -13 -5 -27 -9 -31 -9 -5 0 -47 51 -94 114 -48 62 -102 131 -121 152 -57 64 -60 73 -37 127 15 34 26 47 41 47 11 0 20 4 20 9 0 7 114 81 125 81 2 0 27 16 56 35 30 19 59 35 65 35 6 0 17 7 24 15 7 8 23 15 35 15 13 0 25 -7 29 -15 7 -20 74 -20 97 1 24 21 49 11 49 -20 0 -14 4 -27 9 -30 5 -4 12 -24 16 -46 4 -22 11 -42 16 -46 5 -3 9 -16 9 -29 0 -13 7 -30 15 -39 8 -8 18 -29 21 -45 4 -17 10 -31 14 -31 4 0 36 27 70 60 l63 59 56 -5 c46 -5 60 -3 76 12 47 43 71 113 45 129 -22 13 -7 40 56 102 36 35 64 69 61 76 -2 6 -19 15 -38 20 -19 5 -38 13 -44 18 -5 5 -16 9 -25 9 -8 0 -28 7 -43 15 -15 8 -43 17 -63 21 -19 3 -36 10 -39 14 -3 5 -24 11 -47 15 -34 6 -55 20 -111 76 -38 38 -73 69 -78 69 -4 0 -16 -11 -27 -25 -25 -32 -42 -32 -42 0 0 29 -24 34 -35 8 -6 -15 -9 -14 -22 11 l-15 28 -44 -43 c-49 -48 -54 -64 -23 -74 19 -6 20 -8 3 -26 -15 -17 -15 -19 0 -24 55 -17 53 -15 32 -30 -12 -9 -17 -22 -13 -34 3 -12 -3 -27 -14 -37 -11 -10 -24 -36 -30 -59 -9 -37 -17 -45 -70 -73 -33 -18 -64 -32 -69 -32 -5 0 -28 -13 -52 -29 -24 -16 -75 -46 -115 -67 -68 -36 -74 -37 -110 -25 -41 14 -82 4 -115 -26 -13 -11 -28 -14 -62 -9 -24 4 -87 9 -140 12 -114 5 -142 -5 -183 -69 -25 -39 -27 -50 -28 -152 0 -88 -4 -116 -17 -137 -20 -30 -18 -33 29 -42 17 -4 37 -14 44 -22 23 -28 29 8 29 188 l0 177 113 -2 c61 -1 126 2 144 6 30 8 33 6 53 -35 30 -59 56 -78 110 -78 l46 0 79 -107 c43 -60 101 -135 128 -167 36 -45 47 -65 42 -80 -14 -45 -5 -86 27 -116 l31 -30 -39 3 c-39 2 -39 2 -42 -38 -5 -80 -7 -83 -67 -90 -30 -4 -58 -11 -60 -16 -3 -4 -26 -11 -51 -15 -38 -5 -48 -11 -56 -34 l-9 -28 -470 -1 c-518 -1 -490 2 -551 -65 -45 -48 -49 -135 -10 -181 49 -57 69 -65 173 -65 l99 0 0 -130 c0 -118 2 -130 19 -140 13 -6 169 -10 438 -10 340 0 423 3 438 14 17 12 19 28 18 201 -1 146 -4 190 -15 196 -7 5 -207 9 -445 9 -422 0 -433 0 -443 -20 -6 -11 -9 -32 -8 -48 l3 -27 -78 -3 c-54 -2 -87 2 -110 13 -33 16 -67 63 -67 95 0 26 37 87 58 95 9 3 567 6 1240 6 l1222 0 0 23 c0 12 5 27 12 34 18 18 15 164 -4 204 -9 18 -24 50 -35 72 -40 85 -134 160 -225 180 -31 7 -36 30 -13 60 8 11 15 29 15 40 0 12 7 30 15 40 8 11 15 27 15 36 0 32 114 143 181 177 87 43 212 58 324 39 93 -15 122 -27 190 -77 47 -35 125 -111 125 -122 0 -3 -10 -7 -22 -9 -15 -2 -23 -10 -23 -23 0 -28 35 -33 42 -6 5 21 6 21 18 -2 21 -42 28 -89 28 -202 0 -133 -9 -182 -34 -196 -11 -6 -19 -20 -19 -36 0 -50 -114 -165 -195 -196 -5 -2 -26 -10 -45 -17 -19 -8 -96 -16 -172 -19 -75 -3 -140 -10 -144 -14 -4 -4 2 -18 14 -30 21 -20 32 -22 136 -21 63 0 133 6 157 13 43 13 149 61 159 72 3 3 24 16 47 29 l42 23 49 -50 c47 -48 51 -50 131 -63 73 -11 93 -11 169 5 48 10 102 26 120 36 18 11 40 19 48 19 8 0 14 4 14 9 0 5 11 11 24 13 18 4 30 -2 45 -22 32 -44 81 -50 399 -50 345 0 343 0 419 98 17 22 22 23 70 14 59 -10 60 -4 13 58 -40 54 -60 88 -60 104 0 8 -8 22 -17 32 -16 15 -18 39 -18 180 0 150 2 164 21 186 11 13 27 38 34 57 15 38 106 133 168 174 23 16 42 35 42 43 0 35 -97 -2 -185 -71 -54 -42 -65 -55 -65 -81 0 -39 -20 -67 -43 -58 -19 7 -23 39 -6 50 17 10 5 101 -18 132 -48 64 -41 63 -354 63 -205 0 -292 -3 -312 -12 -74 -33 -6 -50 223 -56 116 -3 237 -1 299 6 63 7 107 8 110 2 3 -5 6 -51 6 -103 l0 -93 -30 -1 c-16 -1 -34 -2 -40 -4 -5 -1 -12 -1 -15 0 -3 1 -80 3 -172 4 l-168 2 0 -22 c0 -13 4 -25 9 -29 5 -3 7 -21 4 -41 l-6 -36 194 3 193 4 1 -94 c0 -51 -2 -96 -5 -100 -3 -4 -86 -5 -185 -1 -99 4 -183 5 -187 3 -5 -2 -8 -42 -8 -88 l0 -84 198 0 c108 1 210 1 225 0 l28 -1 -3 -91 -3 -91 -365 0 -365 0 2 23 c7 115 11 477 4 527 -7 56 -5 64 11 73 23 12 23 35 1 48 -11 6 -18 22 -19 43 -1 18 -2 48 -2 66 l-2 32 -161 -4 c-171 -5 -189 -3 -189 21 0 12 24 14 148 13 190 -2 182 -2 182 15 0 22 -60 29 -191 22 -79 -5 -120 -3 -124 4 -13 20 8 24 148 24 l142 0 1 40 c1 28 12 56 39 95 142 208 116 410 -68 527 -36 23 -54 27 -132 29 -49 2 -99 0 -109 -3z m198 -68 c57 -27 102 -71 129 -124 19 -38 24 -175 7 -186 -5 -3 -10 -13 -10 -22 0 -15 -39 -103 -51 -113 -9 -8 -38 -63 -48 -92 -10 -27 -10 -27 -126 -30 -113 -3 -135 2 -135 29 0 7 -17 41 -39 76 -21 35 -42 74 -46 88 -4 13 -12 29 -17 36 -5 6 -10 53 -11 105 -2 86 0 96 25 134 73 113 207 154 322 99z m-2034 -121 c0 -8 -76 -84 -84 -84 -3 0 -6 7 -6 15 0 8 7 15 15 15 8 0 15 7 15 15 0 8 7 15 15 15 8 0 15 7 15 15 0 8 7 15 15 15 8 0 15 -3 15 -6z m150 -76 c0 -5 -121 -128 -126 -128 -9 0 -80 53 -86 64 -5 9 17 37 62 81 l70 67 40 -40 c22 -22 40 -42 40 -44z m104 -53 c15 -8 33 -15 40 -15 6 0 23 -6 38 -14 15 -8 42 -17 60 -21 18 -4 46 -14 62 -22 l29 -15 -158 -156 c-168 -165 -178 -171 -198 -106 -5 16 -15 43 -23 61 -8 17 -14 37 -14 45 0 8 -4 18 -9 23 -5 6 -16 30 -25 54 l-15 45 72 68 c75 71 93 78 141 53z m-274 -99 c15 -30 9 -50 -24 -71 -23 -15 -26 -15 -50 0 -47 31 -28 95 28 95 24 0 36 -6 46 -24z m420 -175 c0 -32 -33 -63 -63 -59 l-28 3 31 38 c34 40 60 48 60 18z m-970 -130 c16 -31 12 -49 -15 -67 -22 -14 -30 -15 -50 -4 -44 24 -25 90 25 90 19 0 33 -7 40 -19z m3480 -264 c0 -8 -8 -25 -19 -38 l-18 -22 -38 23 c-20 12 -53 24 -74 25 -89 5 -48 17 82 23 53 3 67 0 67 -11z m-2344 -244 l-1 -87 -64 -2 c-36 -2 -68 -1 -73 2 -10 6 47 110 80 147 14 15 33 27 43 27 15 0 17 -11 15 -87z m110 50 c32 -29 74 -103 74 -129 0 -12 -11 -15 -52 -13 -91 3 -88 0 -88 90 0 70 2 79 18 79 10 0 32 -12 48 -27z m-233 0 c4 -3 1 -13 -6 -21 -6 -8 -22 -38 -34 -66 -20 -48 -23 -51 -59 -51 -20 0 -39 5 -41 11 -4 11 111 134 126 134 4 0 11 -3 14 -7z m-632 -27 c26 -56 -22 -105 -62 -65 -23 23 -24 38 -3 67 20 29 52 28 65 -2z m1002 -18 c47 -46 70 -81 60 -92 -11 -11 -68 -7 -81 6 -7 7 -12 20 -12 30 0 10 -11 36 -25 58 -24 37 -24 40 -6 40 10 0 39 -19 64 -42z m2071 -80 c9 -12 15 -41 15 -63 -1 -37 -2 -38 -8 -10 -6 29 -8 30 -66 33 -45 2 -62 -1 -71 -13 -11 -14 -12 -14 -18 0 -3 9 -16 16 -28 15 -60 -5 -168 1 -168 9 0 16 34 22 154 25 72 2 121 7 128 14 19 19 45 14 62 -10z m-2319 -131 c4 -40 5 -85 3 -101 -3 -29 -3 -29 -73 -29 l-70 0 -3 98 c-1 54 1 101 7 104 5 3 36 4 69 3 l60 -4 7 -71z m195 68 c19 -23 16 -168 -5 -185 -8 -6 -41 -10 -82 -8 -55 2 -67 6 -63 18 3 8 5 51 5 95 l0 80 55 6 c30 3 60 6 66 7 6 1 17 -5 24 -13z m131 6 c3 -1 12 -19 19 -41 12 -37 9 -127 -5 -150 -9 -14 -69 -12 -83 2 -16 16 -17 185 -1 190 9 3 44 2 70 -1z m-527 -65 c-4 -38 -2 -77 4 -95 13 -37 -1 -49 -52 -43 -32 4 -34 6 -40 55 -8 68 -8 132 1 140 3 4 26 7 50 7 l44 0 -7 -64z m-519 14 c0 -22 -5 -25 -44 -28 -60 -4 -91 5 -91 27 0 28 10 32 75 29 57 -3 60 -4 60 -28z m90 -95 c33 -10 78 -20 99 -24 22 -3 41 -12 44 -19 3 -10 -56 -12 -287 -10 -184 2 -292 7 -292 13 -1 6 13 13 32 16 49 9 131 30 154 40 32 14 185 4 250 -16z m-407 -273 c9 -7 12 -46 10 -163 l-3 -154 -407 -3 c-225 -1 -408 1 -408 5 0 5 -3 73 -6 151 -3 102 -1 148 7 158 9 12 79 14 403 14 215 0 397 -4 404 -8z"/> <path d="M4355 3627 c-21 -16 -13 -37 15 -37 23 0 32 13 24 34 -7 20 -15 20 -39 3z"/> <path d="M4495 3620 c-9 -15 3 -30 24 -30 25 0 33 11 20 27 -13 15 -35 17 -44 3z"/> <path d="M4255 3536 c-3 -9 -7 -23 -10 -31 -7 -24 16 -29 36 -8 19 19 19 19 0 37 -19 17 -21 17 -26 2z"/> <path d="M4394 3512 c-71 -60 -39 -162 50 -162 49 0 90 50 82 99 -10 66 -86 101 -132 63z m83 -58 c9 -24 -10 -49 -37 -49 -27 0 -46 25 -37 49 4 10 18 16 37 16 19 0 33 -6 37 -16z"/> <path d="M4592 3508 c2 -15 11 -24 26 -26 25 -4 27 1 12 29 -15 27 -42 25 -38 -3z"/> <path d="M4240 3391 c0 -5 5 -22 10 -37 11 -27 11 -27 25 -6 8 11 12 27 9 36 -7 17 -44 22 -44 7z"/> <path d="M4590 3355 c0 -28 24 -34 34 -9 10 26 7 34 -14 34 -15 0 -20 -7 -20 -25z"/> <path d="M4337 3284 c-15 -16 -6 -41 19 -53 32 -14 32 -14 36 24 3 26 -1 30 -22 33 -14 2 -29 0 -33 -4z"/> <path d="M4494 3282 c-7 -4 -14 -18 -15 -32 -3 -21 -10 -26 -42 -28 -39 -3 -42 -22 -3 -22 25 0 101 34 111 50 8 13 -12 40 -29 40 -6 0 -16 -4 -22 -8z"/> <path d="M1286 1907 c-16 -12 -16 -14 -2 -26 21 -18 51 -10 51 14 0 24 -24 30 -49 12z"/> <path d="M1391 1911 c-19 -12 -6 -41 18 -41 50 0 71 32 29 44 -29 7 -30 7 -47 -3z"/> <path d="M1501 1911 c-8 -5 -11 -16 -8 -25 8 -20 50 -21 66 -2 10 12 8 17 -8 25 -24 13 -32 13 -50 2z"/> <path d="M1610 1905 c-17 -21 -1 -38 31 -33 16 2 24 10 24 23 0 25 -37 32 -55 10z"/> <path d="M1728 1913 c-24 -6 -23 -30 2 -38 27 -9 60 3 60 21 0 8 -4 14 -9 14 -5 0 -15 2 -23 4 -7 2 -21 2 -30 -1z"/> <path d="M1831 1911 c-8 -5 -11 -16 -8 -25 8 -20 50 -21 66 -2 10 12 8 17 -8 25 -24 13 -32 13 -50 2z"/> <path d="M1941 1911 c-21 -14 -5 -41 24 -41 29 0 45 27 24 41 -8 5 -18 9 -24 9 -5 0 -16 -4 -24 -9z"/> <path d="M1288 1819 c-25 -14 -11 -39 23 -39 22 0 29 5 29 19 0 10 -7 22 -16 25 -19 7 -15 8 -36 -5z"/> <path d="M1397 1822 c-11 -2 -17 -11 -15 -20 5 -23 71 -24 76 -1 3 17 -28 28 -61 21z"/> <path d="M1501 1821 c-21 -14 -5 -41 24 -41 29 0 45 27 24 41 -8 5 -18 9 -24 9 -5 0 -16 -4 -24 -9z"/> <path d="M1615 1817 c-23 -17 -12 -37 21 -37 28 0 44 28 23 41 -19 12 -22 11 -44 -4z"/> <path d="M1728 1822 c-27 -5 -22 -31 7 -38 25 -6 59 11 50 26 -6 10 -36 17 -57 12z"/> <path d="M1831 1821 c-21 -14 -5 -41 24 -41 29 0 45 27 24 41 -8 5 -18 9 -24 9 -5 0 -16 -4 -24 -9z"/> <path d="M1947 1823 c-28 -7 -16 -38 16 -41 18 -2 29 2 34 13 5 15 -12 37 -27 34 -3 -1 -13 -3 -23 -6z"/> <path d="M1276 1722 c-2 -4 -1 -14 3 -21 12 -18 55 -10 59 12 3 13 -3 17 -27 17 -16 0 -32 -4 -35 -8z"/> <path d="M1382 1713 c2 -13 12 -18 38 -18 51 0 48 29 -3 33 -33 3 -38 1 -35 -15z"/> <path d="M1492 1713 c3 -16 20 -18 198 -18 178 0 195 2 198 18 3 16 -12 17 -198 17 -186 0 -201 -1 -198 -17z"/> <path d="M1934 1719 c-3 -6 -2 -15 4 -21 15 -15 56 -5 60 15 3 13 -3 17 -27 17 -16 0 -33 -5 -37 -11z"/> <path d="M6857 3700 c-29 -29 -37 -44 -32 -60 3 -11 11 -20 16 -20 13 0 52 23 61 35 10 13 10 85 1 84 -5 0 -25 -18 -46 -39z"/> <path d="M7470 3703 c0 -44 5 -53 43 -73 25 -12 29 -12 37 0 16 25 11 48 -10 55 -11 4 -28 17 -36 31 -23 34 -34 30 -34 -13z"/> <path d="M3376 3652 c-18 -4 -18 2 5 -131 10 -62 10 -65 -13 -82 l-23 -18 30 -11 30 -12 -28 -14 c-15 -8 -25 -19 -22 -24 8 -13 232 -13 240 -1 10 18 -20 25 -87 22 -57 -2 -68 0 -68 13 0 13 13 16 75 16 75 0 92 9 64 37 -12 12 -8 65 9 143 6 25 7 49 3 53 -8 8 -182 15 -215 9z m148 -98 c0 -67 -11 -102 -33 -109 -34 -10 -46 4 -59 71 -15 81 -8 93 51 90 l42 -3 -1 -49z"/> <path d="M6900 3608 c-29 -39 -18 -65 26 -59 39 4 44 8 44 35 0 20 -27 56 -41 56 -3 0 -16 -14 -29 -32z"/> <path d="M7427 3622 c-17 -19 -23 -57 -9 -65 4 -3 20 -7 36 -8 44 -6 55 20 26 59 -28 37 -31 38 -53 14z"/> <path d="M3920 3545 c0 -8 -9 -23 -20 -32 -11 -10 -20 -23 -20 -30 0 -6 9 -15 20 -18 11 -3 20 -13 20 -20 0 -25 22 -28 44 -6 11 12 29 27 39 34 16 11 15 15 -16 50 -36 38 -67 49 -67 22z"/> <path d="M6980 3545 c0 -8 5 -15 10 -15 6 0 10 7 10 15 0 8 -4 15 -10 15 -5 0 -10 -7 -10 -15z"/> <path d="M7385 3549 c-10 -15 3 -25 16 -12 7 7 7 13 1 17 -6 3 -14 1 -17 -5z"/> <path d="M6595 3458 c-3 -7 -6 -58 -7 -113 l-3 -100 -305 4 c-275 3 -307 1 -319 -13 -30 -36 -3 -40 316 -40 l308 -1 3 -425 c1 -234 4 -431 7 -437 3 -8 23 -13 53 -13 104 0 156 -78 95 -142 l-28 -30 -148 6 c-175 7 -215 -4 -171 -48 22 -23 271 -23 329 0 58 23 88 72 93 157 4 57 7 67 23 67 26 0 27 57 2 62 -17 3 -18 19 -14 206 2 146 0 206 -9 217 -8 9 -10 42 -6 102 8 138 6 404 -4 443 -17 64 -84 110 -160 110 -31 0 -52 -5 -55 -12z m146 -74 l24 -26 3 -500 c2 -276 0 -508 -3 -516 -5 -13 -8 -12 -23 2 -10 9 -32 16 -48 16 -56 0 -55 -11 -49 341 3 178 5 329 5 334 1 6 -2 85 -6 177 -4 91 -4 173 -1 182 10 26 69 20 98 -10z"/> <path d="M1429 3383 c-501 -3 -537 -4 -552 -21 -15 -16 -17 -66 -17 -461 -1 -450 0 -457 35 -483 6 -4 108 -8 228 -8 242 0 236 2 220 -67 -7 -31 -13 -39 -36 -41 -24 -3 -28 -7 -25 -30 3 -26 5 -27 68 -28 36 0 80 -4 97 -8 30 -7 34 -5 43 19 7 17 7 33 0 45 -8 16 -14 17 -45 7 -45 -13 -53 -4 -47 56 3 40 7 47 26 47 33 0 44 -12 49 -50 4 -35 4 -35 5 5 1 23 8 47 14 53 10 10 10 17 0 32 -15 25 -16 81 0 115 23 50 10 52 -281 42 -145 -5 -274 -6 -287 -3 l-24 6 0 350 c0 340 1 350 20 360 14 8 185 10 547 9 493 -1 527 0 536 17 7 13 5 21 -9 31 -10 7 -20 12 -23 11 -3 -2 -247 -4 -542 -5z m32 -868 c4 -22 5 -43 2 -47 -2 -5 -125 -8 -273 -8 -256 0 -270 1 -280 19 -11 22 -13 64 -3 74 4 4 128 6 277 5 l271 -3 6 -40z"/> <path d="M3416 3322 c-24 -5 -19 -31 7 -36 19 -4 84 -3 125 2 6 1 12 8 12 16 0 11 -17 15 -64 18 -35 1 -71 2 -80 0z"/> <path d="M5864 3296 c-3 -15 -3 -42 0 -62 9 -47 0 -71 -34 -89 -15 -8 -43 -33 -61 -56 -27 -34 -30 -44 -21 -58 7 -9 18 -27 25 -41 6 -14 25 -37 41 -52 27 -25 28 -28 14 -50 -8 -13 -18 -39 -22 -59 -3 -21 -13 -42 -21 -49 -7 -6 -17 -25 -21 -43 -3 -17 -12 -37 -20 -44 -8 -8 -11 -25 -8 -41 3 -15 1 -38 -4 -52 -8 -21 -16 -25 -53 -25 -33 0 -44 -4 -47 -17 -2 -12 6 -19 33 -24 44 -8 58 -30 40 -64 -16 -32 -55 -160 -55 -182 0 -9 -4 -20 -10 -23 -5 -3 -10 -16 -10 -28 0 -13 -6 -32 -14 -43 -23 -33 -36 -122 -20 -135 19 -15 44 -4 44 19 0 11 7 25 15 32 9 8 15 30 15 56 0 25 4 52 9 62 12 22 37 107 45 155 4 21 14 41 22 44 8 3 14 19 14 40 l0 36 38 -9 c35 -7 103 -8 182 -2 32 3 35 1 38 -27 2 -16 10 -38 18 -49 8 -11 14 -35 14 -53 0 -17 4 -34 9 -37 5 -4 12 -25 16 -49 4 -23 12 -48 18 -55 5 -7 10 -29 9 -49 -1 -20 5 -48 12 -62 8 -14 17 -34 20 -44 4 -12 14 -17 28 -15 21 3 23 8 20 48 -2 25 -12 63 -22 85 -22 48 -50 141 -50 164 0 9 -4 21 -9 26 -13 16 -43 116 -37 130 2 7 21 18 40 25 26 8 36 17 36 32 0 19 -4 20 -43 15 -60 -8 -68 0 -70 71 -1 34 -6 60 -12 59 -5 -1 -10 12 -11 30 -1 17 -11 43 -22 58 -12 15 -22 38 -22 52 0 13 -7 34 -15 47 -15 22 -14 24 11 40 14 10 32 32 40 49 8 18 20 39 26 48 9 14 5 24 -21 58 -18 23 -46 48 -62 57 -16 8 -29 22 -30 32 -1 9 -2 44 -3 77 -1 48 -4 60 -18 63 -12 2 -19 -5 -24 -22z m62 -194 c34 -22 45 -100 18 -123 -14 -11 -18 -10 -30 6 -8 10 -14 25 -14 32 0 24 -21 13 -31 -17 -18 -50 -59 -32 -59 26 0 45 34 84 73 84 18 0 37 -4 43 -8z m-17 -231 c6 -19 11 -48 11 -65 0 -17 6 -43 14 -57 7 -14 16 -42 20 -61 4 -20 13 -50 22 -67 8 -17 14 -41 12 -53 -3 -22 -8 -23 -101 -26 -79 -2 -98 0 -103 12 -6 14 22 110 53 183 7 17 13 47 13 67 0 19 4 45 9 58 5 13 12 32 16 42 7 24 18 13 34 -33z"/> <path d="M957 3273 c-4 -3 -7 -143 -7 -310 0 -255 2 -303 14 -303 41 0 41 -2 39 301 -1 160 -4 298 -7 305 -6 15 -28 19 -39 7z"/> <path d="M3031 3261 c-23 -15 -5 -43 26 -39 20 2 28 9 28 23 0 22 -31 31 -54 16z"/> <path d="M7044 3249 c-14 -24 18 -29 152 -27 123 3 139 5 142 21 3 16 -9 17 -142 17 -93 0 -147 -4 -152 -11z"/> <path d="M5494 3240 c-37 -8 -77 -43 -98 -84 -18 -35 -13 -46 20 -46 19 0 28 7 35 29 17 48 56 59 214 60 77 1 144 6 149 11 6 6 4 15 -4 25 -10 12 -37 15 -149 14 -75 -1 -150 -4 -167 -9z"/> <path d="M1687 3228 c-9 -5 -7 -12 5 -24 14 -14 22 -15 40 -7 13 6 32 7 43 2 11 -4 52 -8 91 -8 57 -1 73 2 78 15 3 9 3 20 0 25 -7 11 -239 8 -257 -3z"/> <path d="M1550 3165 c-10 -12 -10 -21 -2 -40 7 -14 16 -25 21 -25 26 0 41 15 41 40 0 38 -36 53 -60 25z"/> <path d="M1640 3140 l0 -30 75 0 75 0 0 30 0 30 -75 0 -75 0 0 -30z"/> <path d="M3023 3135 c-6 -18 23 -55 43 -55 15 0 29 43 19 59 -10 17 -55 13 -62 -4z"/> <path d="M7464 3111 c-8 -8 -4 -76 5 -90 8 -12 13 -11 28 8 25 30 57 21 80 -22 l18 -32 6 60 c3 33 4 65 2 70 -3 9 -130 15 -139 6z"/> <path d="M6330 3059 c-19 -6 -45 -22 -57 -37 l-23 -27 -64 23 c-129 44 -170 20 -66 -41 54 -31 91 -65 144 -131 38 -46 39 -49 21 -62 -10 -8 -25 -14 -32 -14 -7 0 -13 -4 -13 -10 0 -5 -9 -10 -19 -10 -11 0 -23 -5 -26 -10 -4 -6 -21 -17 -38 -26 -95 -45 -99 -54 -27 -54 33 0 67 8 98 24 59 29 123 39 171 26 45 -12 61 -47 61 -141 0 -42 7 -79 20 -108 21 -45 19 -61 -6 -61 -8 0 -14 -4 -14 -9 0 -5 -18 -7 -39 -4 -33 5 -40 2 -46 -16 -10 -33 3 -44 46 -38 22 3 39 1 39 -4 0 -5 7 -9 15 -9 18 0 19 -14 3 -39 -9 -14 -8 -26 2 -50 24 -60 35 -30 36 100 0 68 2 196 4 284 l3 160 -104 5 -104 5 -7 87 c-3 48 -9 92 -13 97 -3 6 -1 19 5 30 9 18 18 19 99 14 98 -6 141 0 141 21 0 32 -129 47 -210 25z"/> <path d="M6885 3046 c-18 -13 -18 -14 4 -26 16 -8 42 -10 78 -5 l54 7 -4 -104 c-2 -57 -7 -114 -12 -126 -7 -21 -5 -23 16 -20 23 3 24 5 27 116 l3 113 -30 29 c-24 24 -38 30 -73 30 -24 0 -53 -6 -63 -14z"/> <path d="M7148 2974 c-52 -49 -58 -68 -29 -84 29 -15 35 -13 55 21 17 29 22 31 57 25 24 -4 39 -2 39 4 0 5 -3 10 -7 10 -5 0 -19 16 -32 35 -13 19 -26 35 -30 35 -3 0 -27 -21 -53 -46z"/> <path d="M7820 2970 c-39 -38 -38 -50 5 -50 45 0 58 -23 39 -69 -8 -19 -12 -36 -10 -38 6 -6 75 57 87 79 7 14 0 28 -33 63 -23 25 -46 45 -50 45 -4 0 -21 -13 -38 -30z"/> <path d="M2870 2971 c-15 -30 1 -74 25 -65 19 8 20 44 1 69 -13 18 -14 18 -26 -4z"/> <path d="M2752 2968 c-16 -16 -15 -43 2 -57 19 -16 40 12 32 44 -7 28 -16 31 -34 13z"/> <path d="M7345 2940 c-4 -6 6 -10 24 -10 16 0 33 5 36 10 4 6 -6 10 -24 10 -16 0 -33 -4 -36 -10z"/> <path d="M7640 2941 c0 -10 24 -21 46 -21 8 0 14 7 14 15 0 10 -10 15 -30 15 -16 0 -30 -4 -30 -9z"/> <path d="M1764 2807 c-2 -7 -3 -56 -2 -108 l3 -94 95 3 c87 3 98 6 130 32 31 24 35 33 33 69 -1 22 -10 52 -20 65 -19 27 -37 32 -156 41 -60 5 -78 3 -83 -8z"/> <path d="M2626 2813 c-10 -11 -7 -181 4 -185 5 -1 49 -1 96 2 81 5 87 7 110 35 30 38 31 82 1 116 -20 25 -30 27 -114 32 -50 3 -94 3 -97 0z"/> <path d="M3602 2813 c-25 -3 -45 -10 -49 -19 -3 -8 -14 -14 -24 -14 -11 0 -23 -10 -28 -23 -5 -13 -16 -29 -25 -36 -9 -7 -16 -19 -16 -26 0 -6 -7 -26 -16 -44 -13 -25 -13 -35 -4 -46 19 -23 40 -18 40 9 0 13 7 29 15 36 8 7 15 21 15 31 0 11 10 23 23 28 13 5 29 16 36 25 7 9 22 16 32 16 10 0 21 5 24 10 7 11 48 13 80 4 11 -3 31 -28 45 -56 24 -49 24 -50 5 -64 -25 -18 -38 -13 -45 17 -4 17 -14 25 -32 27 -23 3 -27 -1 -30 -25 -3 -25 -7 -28 -40 -28 -47 0 -59 -13 -30 -32 28 -19 28 -49 1 -64 -28 -15 -10 -33 34 -34 28 0 32 -4 35 -28 3 -24 7 -28 30 -25 18 2 28 10 32 27 7 30 19 35 43 16 18 -13 18 -15 2 -49 -22 -46 -21 -46 -94 -50 -46 -2 -61 0 -66 12 -3 10 -13 12 -30 8 -21 -5 -25 -3 -25 15 0 13 -8 23 -21 26 -14 4 -19 12 -16 24 6 23 -15 41 -37 33 -20 -8 -21 -28 -1 -44 8 -7 15 -18 15 -25 0 -21 77 -95 99 -95 11 0 22 -4 26 -9 4 -7 77 -9 117 -2 4 0 15 18 24 39 10 20 24 45 32 54 8 10 16 38 18 62 3 37 1 47 -16 56 -27 14 -25 28 4 42 23 10 24 15 19 62 -4 32 -15 61 -30 79 -28 34 -21 51 17 43 33 -6 54 12 40 34 -8 12 -15 13 -41 3 -23 -9 -35 -9 -49 -1 -14 9 -22 9 -33 -1 -10 -8 -17 -9 -22 -1 -3 5 -14 9 -23 8 -9 -1 -36 -3 -60 -5z m103 -243 c0 -20 -6 -26 -27 -28 -25 -3 -28 0 -28 28 0 28 3 31 28 28 21 -2 27 -8 27 -28z"/> <path d="M3854 2805 c-4 -9 -2 -21 4 -27 15 -15 44 -1 40 19 -4 23 -36 29 -44 8z"/> <path d="M3914 2805 c-8 -21 4 -35 30 -35 31 0 50 22 34 38 -17 17 -58 15 -64 -3z"/> <path d="M4724 2805 c-4 -9 -2 -21 4 -27 15 -15 44 -1 40 19 -4 23 -36 29 -44 8z"/> <path d="M4787 2806 c-9 -24 8 -32 66 -33 52 0 57 2 57 22 0 20 -5 22 -59 22 -39 1 -61 -3 -64 -11z"/> <path d="M6867 2814 c-16 -16 -7 -44 14 -44 15 0 20 5 17 22 -3 22 -19 33 -31 22z"/> <path d="M7066 2811 c-4 -5 -3 -17 0 -26 5 -12 13 -15 33 -9 31 8 39 8 68 -1 16 -5 25 -3 29 10 10 26 -12 42 -36 27 -15 -9 -26 -10 -40 -2 -23 12 -47 13 -54 1z"/> <path d="M7216 2805 c-8 -22 9 -31 59 -30 56 0 77 9 69 29 -7 18 -121 18 -128 1z"/> <path d="M7364 2805 c-4 -9 -2 -21 4 -27 15 -15 44 -1 40 19 -4 23 -36 29 -44 8z"/> <path d="M7426 2803 c-11 -26 7 -34 70 -31 51 3 59 6 59 23 0 18 -7 20 -62 22 -49 2 -62 -1 -67 -14z"/> <path d="M7582 2808 c-29 -29 1 -75 32 -49 12 10 15 8 18 -11 2 -13 15 -28 31 -36 15 -7 27 -18 27 -24 0 -6 7 -19 16 -29 10 -12 16 -36 16 -68 0 -51 12 -66 43 -55 17 7 20 30 5 39 -6 4 -7 23 -4 45 5 32 3 39 -14 44 -15 5 -20 15 -19 34 2 21 -3 28 -20 30 -16 2 -22 9 -20 24 1 15 -5 23 -25 29 -15 4 -35 14 -44 23 -19 19 -26 20 -42 4z"/> <path d="M6916 2794 c-10 -26 -7 -34 13 -34 33 0 51 11 51 31 0 24 -55 27 -64 3z"/> <path d="M7876 2722 c-7 -12 5 -52 15 -52 5 0 9 14 9 30 0 28 -13 40 -24 22z"/> <path d="M7340 2669 c0 -11 5 -17 10 -14 6 3 10 13 10 21 0 8 -4 14 -10 14 -5 0 -10 -9 -10 -21z"/> <path d="M6987 2653 c-10 -9 -9 -131 1 -136 13 -8 112 5 112 15 0 5 -13 14 -30 19 -42 15 -41 53 3 76 l32 17 -25 7 c-33 9 -85 11 -93 2z"/> <path d="M7965 2641 c-33 -5 -36 -7 -18 -13 13 -3 28 -18 35 -33 10 -22 9 -31 -4 -53 -9 -15 -27 -30 -40 -33 -15 -3 0 -8 41 -12 76 -8 81 -4 81 70 0 86 -2 88 -95 74z"/> <path d="M7310 2583 c0 -21 5 -45 10 -53 7 -11 10 0 10 38 0 28 -4 52 -10 52 -5 0 -10 -17 -10 -37z"/> <path d="M3433 2564 c-3 -8 -1 -20 5 -26 16 -16 42 -2 42 22 0 24 -38 28 -47 4z"/> <path d="M7695 2510 c-17 -27 46 -58 67 -33 10 12 9 18 -7 29 -22 17 -51 18 -60 4z"/> <path d="M6130 2470 c0 -5 6 -10 13 -10 7 0 20 -9 30 -20 9 -11 26 -20 37 -20 11 0 20 -4 20 -10 0 -5 16 -10 36 -10 45 0 41 15 -12 52 -39 28 -124 40 -124 18z"/> <path d="M7868 2441 c-20 -42 -23 -71 -8 -71 6 0 10 8 10 19 0 10 7 24 15 31 15 13 21 60 8 60 -5 0 -16 -18 -25 -39z"/> <path d="M7663 2440 c-4 -14 -12 -20 -26 -18 -13 2 -25 -5 -32 -18 -8 -17 -14 -19 -27 -10 -24 15 -42 -5 -34 -38 7 -29 40 -36 50 -11 3 9 19 15 41 15 28 0 35 4 35 19 0 11 12 23 30 31 33 14 39 34 14 44 -29 11 -46 6 -51 -14z"/> <path d="M2626 2383 c4 -37 11 -79 17 -93 9 -24 10 -24 23 19 8 24 21 52 31 63 13 14 15 25 7 46 -8 22 -16 28 -47 30 l-38 3 7 -68z"/> <path d="M2105 2430 c-4 -6 -74 -10 -176 -10 l-171 0 7 -77 c8 -98 13 -113 30 -107 13 5 51 59 66 94 7 16 84 35 176 44 49 5 113 37 113 58 0 12 -38 10 -45 -2z"/> <path d="M5792 2399 c3 -25 56 -58 94 -59 33 0 92 28 103 49 10 18 7 19 -62 18 -39 -1 -87 2 -105 6 -31 8 -33 7 -30 -14z"/> <path d="M6307 2394 c-4 -4 -7 -19 -7 -32 0 -14 -7 -32 -15 -41 -83 -91 -100 -121 -68 -121 31 0 80 47 87 84 5 26 12 36 29 38 18 2 22 9 22 38 0 28 -4 36 -20 38 -12 2 -24 0 -28 -4z"/> <path d="M7193 2393 c-16 -6 -17 -45 -2 -60 17 -17 39 -4 39 22 0 26 -19 45 -37 38z"/> <path d="M7342 2388 c-16 -16 -15 -43 1 -57 18 -14 27 -4 27 30 0 32 -12 43 -28 27z"/> <path d="M7406 2392 c-3 -3 -6 -18 -6 -33 0 -26 1 -27 61 -26 l60 0 -3 31 c-3 30 -5 31 -55 33 -28 1 -54 -1 -57 -5z"/> <path d="M3762 2363 c2 -17 10 -29 21 -31 13 -3 17 3 17 27 0 25 -4 31 -21 31 -16 0 -20 -5 -17 -27z"/> <path d="M3830 2360 c0 -26 2 -27 60 -27 59 -1 60 -1 60 27 0 28 -1 28 -60 27 -58 0 -60 -1 -60 -27z"/> <path d="M3980 2360 c0 -20 5 -30 15 -30 10 0 15 10 15 30 0 20 -5 30 -15 30 -10 0 -15 -10 -15 -30z"/> <path d="M4340 2361 c0 -33 9 -44 29 -32 18 12 10 55 -11 59 -14 3 -18 -3 -18 -27z"/> <path d="M4400 2360 c0 -27 3 -30 30 -30 27 0 30 3 30 30 0 27 -3 30 -30 30 -27 0 -30 -3 -30 -30z"/> <path d="M4482 2363 c2 -17 10 -29 21 -31 13 -3 17 3 17 27 0 25 -4 31 -21 31 -16 0 -20 -5 -17 -27z"/> <path d="M6892 2363 c4 -34 36 -43 55 -17 16 23 0 44 -34 44 -21 0 -24 -4 -21 -27z"/> <path d="M6970 2360 c0 -23 4 -30 20 -30 16 0 20 7 20 30 0 23 -4 30 -20 30 -16 0 -20 -7 -20 -30z"/> <path d="M7040 2360 c0 -25 4 -31 18 -28 11 2 17 12 17 28 0 16 -6 26 -17 28 -14 3 -18 -3 -18 -28z"/> <path d="M7120 2375 c-10 -13 -10 -19 5 -35 26 -29 35 -25 35 15 0 38 -18 47 -40 20z"/> <path d="M7257 2384 c-4 -4 -7 -18 -7 -31 0 -19 5 -23 31 -23 27 0 30 3 27 28 -3 26 -34 43 -51 26z"/> <path d="M7854 2298 c4 -13 10 -30 12 -39 7 -21 -52 -47 -69 -30 -6 6 -17 11 -24 11 -11 0 -11 -5 -3 -20 15 -28 59 -70 73 -70 14 0 97 80 97 94 0 12 -70 76 -83 76 -5 0 -6 -10 -3 -22z"/> <path d="M7098 2272 c-15 -16 -13 -21 32 -70 l49 -52 30 32 c36 39 41 62 10 53 -27 -9 -77 12 -84 36 -8 23 -15 23 -37 1z"/> <path d="M7325 2232 c6 -5 21 -13 34 -17 17 -5 22 -4 19 6 -3 8 -18 15 -34 17 -19 2 -25 0 -19 -6z"/> <path d="M7666 2231 c-3 -4 -19 -11 -36 -14 -16 -4 -30 -11 -30 -17 0 -16 50 -12 56 5 4 8 14 15 23 15 9 0 23 5 31 10 12 8 9 10 -12 10 -15 0 -29 -4 -32 -9z"/> <path d="M7400 2200 c19 -13 30 -13 30 0 0 6 -10 10 -22 10 -19 0 -20 -2 -8 -10z"/> <path d="M7436 2114 c-4 -37 -5 -69 -2 -71 4 -4 85 -6 134 -4 13 1 15 58 3 100 l-7 25 -22 -28 c-29 -37 -67 -30 -77 14 -11 49 -22 35 -29 -36z"/> <path d="M5690 2132 c0 -6 15 -20 34 -31 35 -22 226 -48 269 -37 23 6 87 57 87 69 0 11 -55 8 -67 -4 -11 -11 -249 -7 -295 6 -18 4 -28 3 -28 -3z"/> <path d="M4727 1994 c-4 -4 -7 -31 -7 -60 0 -48 2 -52 27 -59 37 -9 55 17 51 75 -3 42 -5 45 -33 48 -17 2 -34 0 -38 -4z"/> <path d="M4840 1972 c0 -38 24 -60 46 -42 8 8 14 25 12 39 -2 20 -9 27 -30 29 -25 3 -28 0 -28 -26z"/> <path d="M4944 1987 c-3 -8 -4 -34 -2 -58 3 -39 6 -44 30 -47 24 -3 28 1 33 31 11 58 3 82 -28 85 -17 2 -29 -2 -33 -11z"/> <path d="M5050 1972 c0 -16 7 -36 16 -43 14 -11 18 -10 30 6 22 30 14 59 -18 63 -25 3 -28 0 -28 -26z"/> <path d="M5154 1986 c-3 -7 -4 -33 -2 -57 3 -39 6 -44 29 -47 25 -3 27 0 34 47 4 28 4 55 0 61 -9 15 -55 12 -61 -4z"/> <path d="M5267 1994 c-13 -13 -7 -51 9 -65 14 -11 18 -10 30 6 20 27 14 59 -11 63 -12 2 -24 0 -28 -4z"/> <path d="M5367 1993 c-4 -3 -7 -30 -7 -60 0 -52 1 -53 29 -53 27 0 30 3 36 50 4 27 4 54 0 60 -7 11 -48 14 -58 3z"/> <path d="M5477 1993 c-18 -18 1 -73 25 -73 13 0 28 48 22 65 -6 15 -35 20 -47 8z"/> <path d="M5577 1993 c-4 -3 -7 -30 -7 -60 0 -52 1 -53 29 -53 27 0 29 3 34 48 3 26 1 53 -5 60 -11 13 -40 16 -51 5z"/> <path d="M5684 1985 c-9 -23 5 -65 21 -65 18 0 37 43 29 65 -8 19 -43 19 -50 0z"/> <path d="M5779 1988 c-3 -45 5 -104 14 -110 7 -4 22 -8 35 -8 22 0 23 3 20 63 -3 62 -3 62 -35 65 -22 2 -33 -1 -34 -10z"/> <path d="M5908 1993 c-26 -4 -28 -8 -28 -49 l0 -45 55 38 c79 55 72 71 -27 56z"/> <path d="M2490 1968 c0 -2 -1 -95 -2 -208 l-3 -204 75 -1 75 0 3 -75 3 -75 342 3 c188 1 348 2 355 2 10 0 12 9 7 33 -11 47 -11 48 -58 22 -43 -24 -110 -31 -217 -21 -90 8 -226 9 -251 2 -36 -10 -90 22 -111 66 -20 42 -68 85 -123 109 -55 25 -75 68 -75 164 0 77 22 145 46 145 7 0 25 5 41 12 l28 11 -40 8 c-39 8 -95 11 -95 7z"/> <path d="M3085 1961 c-221 -7 -212 -20 16 -23 177 -3 189 -8 211 -80 16 -55 28 -47 30 22 0 33 1 66 2 73 1 14 -10 15 -259 8z"/> <path d="M6276 1875 c-18 -23 -35 -35 -52 -35 -33 0 -33 -42 0 -64 24 -15 25 -14 65 33 43 52 49 72 27 90 -11 9 -19 4 -40 -24z"/> <path d="M6377 1882 c-21 -4 -22 -28 -2 -36 21 -8 832 -9 845 -1 6 4 10 14 8 23 -3 15 -43 16 -419 17 -228 0 -423 -1 -432 -3z"/> <path d="M2705 1864 c-19 -7 -39 -9 -59 -3 -34 10 -52 -1 -43 -25 8 -21 66 -35 99 -24 15 6 40 6 60 0 18 -4 44 -5 58 -2 14 4 42 5 63 2 32 -4 37 -2 37 15 0 12 -13 25 -34 36 -31 15 -38 15 -65 1 -27 -13 -35 -14 -59 -2 -22 11 -33 12 -57 2z"/> <path d="M5739 1793 c-23 -21 -226 -222 -452 -448 -226 -225 -433 -429 -459 -452 -57 -50 -83 -55 -93 -16 -3 15 -7 225 -7 468 0 242 -4 449 -8 460 -5 12 -9 -64 -10 -185 -2 -465 -10 -765 -21 -840 -6 -45 -9 -83 -6 -86 3 -3 34 24 69 61 35 38 285 290 556 561 270 271 492 498 492 504 0 19 -19 10 -61 -27z"/> <path d="M3710 1776 c0 -22 31 -28 143 -26 135 2 152 1 143 -7 -4 -5 -67 -9 -139 -10 -231 -2 -540 -11 -602 -17 -126 -12 -143 -16 -173 -33 -37 -21 -41 -45 -9 -60 91 -43 81 -42 595 -45 549 -3 512 -8 512 68 0 58 -16 75 -80 82 -51 6 -55 9 -58 35 l-3 27 -165 0 c-136 0 -164 -2 -164 -14z m292 -94 c5 -5 8 -22 6 -38 l-3 -29 -120 0 -120 0 -3 28 c-2 16 1 34 6 40 13 15 219 14 234 -1z m76 -42 c-2 -14 -10 -26 -20 -28 -15 -3 -18 4 -18 36 0 21 3 42 7 46 12 12 34 -27 31 -54z m-367 23 c5 -5 7 -17 3 -26 -5 -15 -27 -17 -175 -17 -148 0 -170 2 -176 16 -4 10 0 22 9 28 19 14 325 13 339 -1z m-391 -7 c0 -20 -15 -28 -65 -32 -45 -3 -83 15 -71 34 11 18 136 16 136 -2z m800 -8 c0 -16 -3 -19 -11 -11 -6 6 -8 16 -5 22 11 17 16 13 16 -11z"/> <path d="M4950 1779 c0 -5 80 -9 190 -9 124 0 190 4 190 10 0 7 -66 10 -190 10 -109 -1 -190 -5 -190 -11z"/> <path d="M6364 1779 c-3 -6 -2 -15 3 -20 6 -6 152 -10 369 -10 355 0 359 0 362 20 3 21 1 21 -362 21 -252 0 -367 -3 -372 -11z"/> <path d="M2607 1753 c-12 -11 -8 -31 9 -47 12 -12 33 -15 95 -12 44 2 82 6 86 9 8 8 -15 35 -40 49 -14 7 -31 7 -59 -3 -29 -9 -41 -10 -50 -1 -13 13 -31 15 -41 5z"/> <path d="M4888 1687 c-11 -25 -10 -289 1 -305 5 -8 10 25 13 80 5 111 -4 251 -14 225z"/> <path d="M5362 1677 c-71 -64 -382 -380 -382 -387 0 -24 27 -3 141 108 66 64 129 121 140 126 10 5 19 12 19 16 0 7 15 26 83 102 27 31 34 48 20 48 -5 -1 -14 -6 -21 -13z"/> <path d="M6271 1643 c-19 -22 -35 -34 -45 -30 -28 11 -38 -18 -15 -47 25 -32 42 -33 62 -3 8 12 24 33 36 46 24 28 27 56 6 64 -9 4 -26 -8 -44 -30z"/> <path d="M6774 1663 c-337 -3 -394 -5 -404 -19 -8 -9 -10 -18 -4 -24 7 -7 730 -16 852 -11 15 1 16 33 0 49 -7 7 -21 11 -32 10 -12 -2 -197 -4 -412 -5z"/> <path d="M6726 1563 c-344 -3 -395 -8 -367 -36 10 -10 724 -13 741 -2 11 7 -5 47 -18 43 -4 -2 -164 -4 -356 -5z"/> <path d="M2476 1501 c-6 -9 91 -111 105 -111 21 0 5 31 -38 73 -49 48 -58 53 -67 38z"/> </g> </svg> 