<?xml version="1.0" standalone="no"?>
<!DOCTYPE svg PUBLIC "-//W3C//DTD SVG 20010904//EN"
 "http://www.w3.org/TR/2001/REC-SVG-20010904/DTD/svg10.dtd">
<svg version="1.0" xmlns="http://www.w3.org/2000/svg"
 width="300.000000pt" height="417.000000pt" viewBox="0 0 300.000000 417.000000"
 preserveAspectRatio="xMidYMid meet">
<metadata>
Created by potrace 1.10, written by Peter Selinger 2001-2011
</metadata>
<g transform="translate(0.000000,417.000000) scale(0.050000,-0.050000)"
fill="#ffffff" stroke="none">
<path d="M3920 8248 c28 -17 34 -26 13 -19 -20 6 -60 17 -88 24 -83 21 -36
-23 58 -54 186 -61 385 -330 328 -443 -37 -73 -40 -159 -8 -191 13 -13 39 -70
60 -128 20 -57 47 -111 59 -118 16 -10 16 -18 0 -28 -13 -8 -20 -68 -18 -147
3 -94 -9 -167 -38 -244 -23 -60 -57 -182 -76 -270 -33 -153 -105 -302 -163
-336 -15 -9 -41 -43 -58 -75 -16 -32 -42 -59 -57 -59 -37 0 -58 59 -33 89 12
14 15 31 7 38 -25 25 -122 13 -133 -17 -18 -46 -53 -36 -53 16 0 53 -122 54
-182 1 -41 -36 -193 24 -268 105 -62 67 -64 49 -6 -40 43 -65 161 -124 199
-100 9 6 17 1 17 -11 0 -11 -14 -21 -31 -21 -88 0 -102 -77 -20 -106 10 -4 0
-64 -23 -135 -38 -115 -42 -168 -37 -489 4 -250 2 -299 -7 -160 l-13 200 -9
-222 -10 -221 80 0 80 0 -13 371 c-7 205 -18 395 -26 422 -7 28 -5 73 6 100
18 48 19 46 35 -30 l16 -80 13 60 c10 52 14 45 28 -56 9 -65 25 -113 37 -109
25 9 91 205 93 278 1 41 9 51 36 44 19 -5 74 5 123 22 89 32 180 42 155 18 -7
-8 -33 -16 -58 -19 -25 -2 -52 -5 -60 -6 -8 -1 -15 -15 -15 -32 0 -16 -22 -35
-50 -42 -27 -7 -50 -21 -50 -31 0 -11 -8 -14 -18 -8 -27 16 -54 -29 -79 -133
-27 -112 -28 -193 -1 -116 22 64 2 -363 -22 -460 -12 -48 -15 2 -10 160 8 246
-10 194 -45 -125 -18 -173 -26 -167 127 -103 48 20 68 44 78 93 7 36 24 101
37 145 l23 80 10 -70 c10 -63 14 -56 43 80 59 272 89 371 132 431 23 32 47 95
55 138 7 45 40 109 73 148 77 87 91 126 139 392 53 294 54 301 57 301 4 0 25
167 28 215 1 19 9 35 17 35 9 0 16 34 16 75 -1 59 -5 69 -22 45 -17 -24 -19
-22 -6 10 27 69 33 265 8 230 -18 -23 -21 -12 -14 50 6 62 -7 110 -59 212 -37
73 -67 144 -67 158 0 13 -37 61 -83 105 -46 44 -76 68 -68 53 9 -15 -6 -5 -32
23 -26 28 -38 38 -27 22 17 -25 13 -26 -26 -5 -25 13 -41 31 -35 40 5 9 -13
26 -41 39 -71 33 -87 27 -28 -9z m-290 -2168 c-7 -11 -3 -20 9 -20 31 0 24
-64 -12 -110 -30 -39 -31 -39 -17 10 22 77 22 84 -5 94 -15 6 -25 -8 -25 -36
0 -35 -6 -40 -23 -23 -18 18 -18 30 0 51 12 15 17 34 9 41 -7 7 7 13 32 13 24
0 39 -9 32 -20z m207 -313 c5 -107 -1 -179 -15 -193 -16 -16 -22 -7 -22 32 0
30 -9 54 -20 54 -25 0 -25 -15 2 -140 30 -140 9 -149 -30 -13 -31 106 -27 173
10 173 10 0 18 18 18 40 0 22 -7 40 -17 40 -15 0 -12 78 9 178 21 99 58 1 65
-171z"/>
<path d="M3238 8221 c-29 -9 -96 -41 -149 -73 -84 -49 -95 -51 -82 -18 13 33
8 32 -36 -9 -28 -26 -51 -57 -51 -68 0 -11 13 -3 30 18 21 29 34 33 45 15 12
-18 31 -14 76 15 32 22 97 57 144 78 62 29 125 75 80 59 -3 -1 -28 -9 -57 -17z"/>
<path d="M3327 8029 c-10 -25 -16 -27 -29 -6 -12 20 -24 17 -57 -12 -53 -48
-53 -79 0 -65 30 8 46 -1 59 -33 l17 -43 2 45 c0 25 9 45 20 45 10 0 17 -24
15 -54 -3 -41 6 -56 36 -60 40 -6 40 -6 0 13 -40 18 -40 18 0 21 22 2 29 8 15
13 -17 7 -19 21 -6 46 11 20 13 43 5 52 -8 8 -3 9 11 1 14 -8 20 -25 12 -36
-8 -13 -4 -16 10 -8 13 8 23 34 23 59 0 56 -113 74 -133 22z"/>
<path d="M3480 8020 c0 -22 9 -40 20 -40 11 0 20 -13 20 -30 0 -17 18 -30 39
-30 27 0 36 10 28 30 -6 16 -19 25 -29 19 -10 -6 -27 12 -38 40 -23 61 -40 66
-40 11z"/>
<path d="M2907 7774 c16 -219 -21 -1009 -42 -910 -4 19 -20 29 -34 24 -15 -6
-34 0 -42 14 -9 15 -7 19 7 11 55 -34 55 256 2 692 -30 242 -66 260 -48 25 11
-144 8 -172 -19 -182 -17 -7 -31 -22 -31 -34 0 -15 8 -14 24 2 35 35 56 29 56
-14 0 -28 -11 -36 -37 -28 -47 12 -70 -63 -52 -170 39 -246 88 -384 136 -384
18 0 23 -20 17 -60 -8 -56 21 -120 55 -120 7 0 15 97 17 215 2 118 14 323 26
455 13 132 18 303 12 380 l-12 140 49 -80 c27 -44 49 -91 49 -105 0 -13 23
-30 50 -37 28 -7 50 -21 50 -33 0 -11 13 -9 30 5 58 48 39 86 -135 266 -52 54
-95 114 -95 133 0 19 -11 34 -25 34 -20 0 -21 -52 -8 -239z"/>
<path d="M3298 7461 c-98 -13 -187 -60 -243 -129 -40 -49 -46 -131 -10 -135
14 -1 57 -6 95 -9 39 -4 113 -12 167 -19 93 -13 95 -12 71 27 -28 45 -118 70
-173 50 -32 -13 -32 -11 1 23 26 26 30 41 14 51 -16 10 -13 18 9 27 18 7 28 4
22 -6 -7 -10 13 -18 44 -17 96 2 110 -3 98 -34 -8 -20 1 -30 27 -30 26 0 35
-10 27 -30 -8 -22 -2 -27 21 -18 18 7 32 2 32 -10 0 -13 24 -32 53 -43 47 -18
51 -28 40 -94 -10 -69 -9 -72 18 -36 37 49 40 220 4 198 -17 -10 -17 -4 2 19
17 20 22 53 15 85 -17 65 30 114 101 105 53 -6 53 -6 49 -168 l-4 -163 53 10
c48 9 52 17 42 78 -13 80 -9 81 55 17 34 -34 72 -50 120 -50 77 0 122 39 48
42 -40 1 -38 4 13 19 39 12 64 10 73 -4 31 -50 88 -7 82 63 -7 87 -50 135
-146 160 -85 23 -681 38 -820 21z m145 -126 c21 -41 20 -42 -10 -17 -18 15
-62 34 -98 43 l-65 15 74 2 c58 2 80 -8 99 -43z m568 -34 c-6 -10 -2 -24 9
-31 12 -7 19 -4 15 7 -3 10 0 21 5 24 20 10 100 -24 100 -42 0 -29 -40 -23
-42 6 -1 20 -3 20 -11 0 -12 -29 -84 -33 -125 -7 -32 21 -12 62 30 62 17 0 25
-8 19 -19z"/>
<path d="M4193 7055 c-7 -25 -13 -77 -13 -117 0 -83 -36 -198 -61 -198 -26 0
-83 -118 -68 -141 6 -11 5 -19 -5 -17 -61 11 -71 -4 -58 -86 8 -47 24 -91 36
-99 16 -9 13 -29 -11 -65 -23 -36 -25 -48 -7 -41 42 16 109 173 135 312 12 70
36 158 52 196 37 90 60 301 32 301 -11 0 -26 -20 -32 -45z"/>
<path d="M3100 7041 c0 -10 36 -102 80 -203 44 -102 80 -204 80 -228 0 -64 88
-219 129 -227 58 -11 82 29 52 85 -67 125 100 174 437 128 26 -3 52 5 57 19 5
16 -10 25 -42 25 -28 0 -57 10 -64 22 -7 12 -31 17 -53 11 -22 -6 -60 -1 -85
10 -35 16 -61 13 -113 -15 -38 -20 -80 -34 -95 -31 -15 3 -48 -14 -73 -37 -55
-52 -77 -28 -59 66 10 57 1 80 -70 165 -44 54 -81 112 -82 129 -1 61 -99 141
-99 81z"/>
<path d="M4044 6989 c-24 -17 -44 -42 -44 -55 0 -15 8 -12 20 6 17 27 19 27
20 0 1 -21 8 -18 24 10 12 22 32 47 44 55 14 9 15 14 1 15 -11 0 -40 -14 -65
-31z"/>
<path d="M2997 6918 c-1 -37 -1 -162 1 -278 l4 -210 78 -75 c91 -87 171 -102
154 -30 -13 57 -61 182 -75 195 -6 6 -10 24 -9 40 1 17 -6 55 -16 85 -12 36
-11 65 3 81 26 31 -31 166 -94 222 -43 38 -43 38 -46 -30z"/>
<path d="M3535 6881 c-46 -55 -27 -98 39 -85 34 6 57 -1 69 -22 14 -26 29 -28
78 -11 33 12 81 16 108 9 62 -16 92 56 43 104 -52 53 -293 57 -337 5z"/>
<path d="M3567 6544 c-12 -8 -28 -33 -35 -57 -15 -47 169 -82 222 -42 13 10
44 15 70 11 35 -4 48 5 52 39 4 27 -4 45 -20 46 -14 0 -80 4 -147 9 -66 4
-130 2 -142 -6z"/>
<path d="M3033 5922 c2 -401 1 -415 -47 -514 -75 -154 -205 -281 -311 -302
-89 -18 -12 -46 87 -32 61 9 78 2 114 -43 l42 -53 42 146 c23 80 55 174 71
209 16 35 29 100 29 145 0 97 38 112 44 17 2 -36 6 -87 8 -115 2 -27 6 -86 9
-130 3 -49 8 -63 13 -35 17 86 50 48 36 -40 -18 -104 -48 -166 -51 -105 -2 32
-6 30 -22 -14 -11 -31 -37 -56 -62 -60 -51 -7 -72 -56 -23 -56 19 0 29 6 21
14 -14 14 102 63 190 80 63 12 70 76 84 750 l8 374 -56 12 c-31 7 -95 47 -143
89 l-86 76 3 -413z"/>
<path d="M4072 5955 c-6 -36 -15 -114 -22 -175 -6 -60 -26 -180 -43 -266 -17
-85 -25 -170 -18 -188 21 -55 48 -3 55 104 l6 100 48 -77 c55 -89 99 -90 262
-7 131 68 98 227 -60 284 -16 6 -70 74 -119 150 -103 163 -96 158 -109 75z"/>
<path d="M3552 5704 c-33 -7 -35 -19 -20 -111 9 -57 15 -169 13 -251 -2 -81 1
-143 6 -138 9 10 51 503 43 507 -2 1 -21 -2 -42 -7z"/>
<path d="M4922 5557 c-59 -9 -185 -45 -280 -80 -95 -34 -271 -96 -392 -138
-121 -42 -295 -108 -387 -147 -92 -40 -202 -78 -245 -85 -70 -11 -78 -19 -90
-84 -8 -40 -23 -79 -35 -87 -37 -23 5 -45 113 -58 l104 -12 -124 -3 c-68 -2
-129 6 -137 18 -17 28 -69 -15 -69 -56 0 -24 18 -28 96 -17 84 11 107 5 188
-46 77 -49 122 -61 275 -73 158 -12 181 -19 170 -47 -7 -17 -28 -85 -46 -151
-30 -109 -38 -120 -103 -136 -83 -20 -164 -103 -158 -162 2 -24 -1 -56 -8 -73
-20 -50 -79 -288 -81 -324 -1 -18 -9 -29 -17 -23 -9 5 -16 0 -16 -12 0 -11
-14 -21 -32 -21 -21 0 -28 11 -20 31 7 19 3 26 -9 18 -11 -7 -41 0 -65 15 -26
17 -105 30 -192 31 -81 2 -153 9 -160 16 -20 20 -14 198 8 214 12 9 11 15 -4
15 -15 0 -20 14 -12 33 9 24 6 29 -14 17 -19 -12 -21 -9 -9 12 29 45 32 115 8
160 -19 35 -18 40 4 27 22 -14 23 -11 1 16 -15 17 -24 44 -20 59 3 15 -3 30
-13 33 -47 14 -110 -334 -111 -602 0 -200 -117 -124 -122 80 -6 274 198 741
423 966 31 31 37 49 21 65 -16 16 -28 16 -45 -1 -17 -17 -30 -15 -51 6 -41 41
-57 37 -131 -31 -48 -44 -58 -64 -39 -76 14 -10 20 -32 13 -51 -23 -58 19 -34
86 50 36 45 65 74 65 64 0 -9 -41 -67 -91 -127 -49 -61 -123 -166 -164 -235
-40 -69 -78 -125 -84 -125 -6 0 -13 -25 -15 -56 -2 -31 -49 -148 -105 -260
-56 -112 -101 -212 -101 -222 0 -11 -8 -24 -17 -30 -28 -17 18 148 81 293 140
320 82 415 -63 105 -327 -695 -320 -686 -416 -545 -42 62 -70 84 -101 80 -24
-2 -44 5 -44 16 0 12 8 16 19 10 10 -6 24 -3 31 9 18 30 -42 24 -67 -6 -16
-20 -16 -33 2 -51 19 -19 15 -27 -20 -36 -25 -6 -45 -21 -45 -33 0 -11 -4 -16
-10 -11 -23 23 -167 -132 -146 -158 24 -28 -6 -35 -35 -7 -11 11 -62 -14 -127
-63 -106 -79 -107 -81 -62 -105 33 -18 38 -27 18 -34 -15 -5 -38 4 -51 21 -20
27 -27 28 -57 3 -31 -26 -31 -30 0 -52 31 -23 30 -27 -8 -47 -36 -19 -42 -17
-42 18 0 23 -13 41 -30 41 -25 0 -26 -7 -6 -40 21 -33 19 -44 -14 -69 -49 -37
-82 -40 -54 -5 36 42 21 176 -16 147 -69 -53 -100 -217 -59 -315 29 -71 7
-104 -33 -49 -27 37 -30 37 -88 -19 -98 -93 -95 -40 9 156 119 225 126 234
204 266 34 15 88 48 120 74 31 26 75 53 97 60 31 10 28 5 -10 -21 -138 -97
-171 -148 -45 -71 68 41 122 86 120 100 -3 13 10 36 28 50 18 14 75 126 126
249 100 239 263 528 361 641 50 57 106 84 340 164 234 79 293 108 360 174 44
43 72 71 61 63 -34 -27 -57 -16 -31 15 15 18 17 30 4 30 -11 0 -24 -10 -28
-23 -5 -13 -35 19 -67 70 -48 76 -67 92 -99 81 -22 -7 -147 -20 -278 -29 -273
-18 -341 -28 -487 -73 -129 -39 -139 -68 -14 -42 135 29 151 17 117 -88 -15
-47 -45 -150 -67 -227 -48 -172 -321 -596 -321 -500 0 9 -23 0 -52 -18 -28
-19 -57 -29 -63 -23 -7 7 -30 -4 -52 -23 -38 -34 -39 -33 -25 5 17 45 18 50
14 87 -1 18 -17 11 -43 -20 l-41 -47 12 50 12 50 -50 -55 c-50 -54 -97 -79
-55 -29 12 14 16 46 10 70 -7 28 -3 44 13 44 13 0 19 -13 13 -28 -16 -42 95
24 119 70 10 20 52 94 93 165 43 75 70 143 63 161 -7 18 -3 32 9 32 40 0 86
113 56 138 -20 16 -26 11 -25 -23 2 -34 -8 -43 -37 -38 -32 5 -35 2 -14 -23
21 -25 14 -39 -41 -80 -94 -70 -166 -106 -145 -73 11 19 6 22 -19 12 -20 -7
-39 -13 -44 -13 -4 0 -8 -15 -8 -32 0 -26 -6 -28 -29 -9 -34 28 -27 40 -187
-314 -66 -145 -148 -310 -184 -369 -36 -58 -79 -128 -95 -156 -42 -72 139 129
239 265 l85 115 133 0 c72 0 163 -11 200 -24 90 -31 203 -98 189 -112 -7 -6
-22 -1 -35 12 -58 58 -165 -70 -185 -222 -5 -41 -19 -90 -31 -109 -19 -30 -21
-27 -14 18 11 72 -278 -229 -412 -430 -154 -231 -294 -307 -310 -168 -4 30 1
55 11 55 10 0 28 21 40 48 12 26 91 126 175 223 85 97 161 195 169 217 9 23
67 108 130 189 154 199 130 198 -63 -2 -458 -472 -749 -882 -604 -850 13 3 27
-6 32 -20 7 -18 -27 -25 -127 -25 -159 -1 -280 -55 -324 -147 -14 -31 -39 -61
-55 -67 -34 -13 -96 -124 -79 -141 6 -7 11 -2 11 10 0 11 12 26 28 31 19 8 24
0 17 -27 -12 -49 28 -52 44 -4 18 52 110 112 173 112 112 0 93 92 -20 95 l-72
1 60 19 c184 56 224 -122 44 -198 -30 -13 -63 -44 -73 -69 -10 -25 -19 -34
-20 -20 -2 37 -36 30 -82 -16 -35 -35 -47 -37 -72 -16 -45 37 -87 38 -87 3 0
-16 18 -34 40 -40 41 -11 56 -46 19 -46 -78 0 53 -463 148 -525 72 -46 115 30
53 95 -46 49 -35 70 38 70 67 1 111 29 93 59 -11 17 -21 17 -43 0 -42 -35
-139 -6 -107 32 29 35 -3 39 -37 5 -29 -29 -34 18 -6 61 14 22 25 20 60 -15
86 -86 115 -59 128 123 21 288 111 486 253 555 221 108 703 192 799 141 22
-12 97 -26 166 -32 214 -18 423 -54 480 -82 30 -15 72 -27 94 -27 22 0 65 -10
96 -23 31 -13 63 -22 71 -20 9 2 31 -29 49 -68 36 -73 112 -111 150 -73 15 15
30 13 50 -7 16 -16 40 -23 53 -16 15 8 14 3 -2 -14 -43 -46 -28 -54 65 -37 89
17 150 8 150 -22 0 -42 -267 -54 -320 -13 -16 12 -13 3 7 -21 20 -24 49 -38
65 -33 18 7 28 -2 28 -27 0 -21 8 -47 18 -57 35 -37 47 -110 17 -98 -39 15
-69 -26 -86 -117 l-14 -75 53 24 c34 15 52 39 52 69 0 25 9 51 20 58 37 23 44
-47 12 -112 -18 -35 -32 -85 -32 -111 0 -26 -9 -47 -20 -47 -11 0 -20 18 -20
40 0 41 -48 55 -70 20 -34 -54 -52 -12 -41 95 8 79 5 102 -7 75 -15 -31 -19
-20 -21 55 -1 67 -9 95 -29 95 -27 0 -39 -31 -71 -190 l-16 -80 -4 100 c-6
132 -37 48 -37 -100 0 -72 4 -86 14 -50 8 31 19 41 28 27 8 -13 8 -40 0 -60
-11 -31 -9 -33 17 -12 28 22 31 -50 29 -680 -2 -619 30 -1248 48 -935 l5 90
15 -80 c28 -142 -129 -200 -316 -117 -41 18 -83 34 -94 35 -10 1 -28 29 -39
62 -11 33 -26 65 -32 70 -14 11 -15 43 -21 490 -3 241 4 354 29 456 18 75 33
159 33 186 0 32 8 45 22 37 15 -10 16 -3 3 24 -11 20 -15 50 -10 65 6 17 1 22
-12 14 -66 -41 14 341 101 483 48 80 47 80 -97 -1 -145 -81 -194 -191 -193
-434 0 -174 50 -462 73 -425 8 13 6 58 -6 100 -39 142 8 473 88 621 40 73 38
37 -8 -159 -58 -252 -77 -515 -34 -480 19 17 33 19 33 7 0 -12 -8 -26 -17 -32
-9 -6 -33 -62 -53 -124 -40 -127 -44 -124 -108 66 -50 149 -56 407 -14 606 15
72 26 132 25 133 -15 17 -72 -62 -101 -138 -19 -53 -53 -105 -74 -116 -44 -24
-46 -45 -15 -252 21 -138 32 -164 105 -244 77 -85 69 -97 -16 -25 -34 29 -34
25 5 -51 23 -45 64 -99 91 -120 l49 -37 -38 -146 c-68 -263 -88 -472 -50 -530
35 -52 136 -106 166 -87 10 6 31 -8 46 -31 16 -22 65 -58 109 -78 55 -26 68
-38 40 -39 -40 -2 -40 -2 0 -19 50 -22 169 -25 136 -4 -14 9 32 26 110 41 74
14 143 35 154 47 14 15 9 18 -16 9 -32 -11 -30 -4 10 52 46 64 46 71 47 655 0
474 -4 565 -20 462 -24 -144 -62 -182 -75 -73 -8 73 14 73 28 1 4 -22 20 53
35 166 15 113 34 210 42 215 9 5 12 -7 7 -26 -5 -19 -1 -107 7 -195 l16 -160
27 190 c25 177 62 369 130 676 l27 126 -40 -36 c-40 -35 -40 -35 -18 8 18 33
17 56 0 95 -28 61 -20 71 67 89 71 15 185 -27 165 -60 -6 -10 7 -18 30 -18 23
0 48 -16 56 -35 12 -34 102 -115 126 -115 21 0 139 -126 139 -148 0 -12 11
-22 25 -22 14 0 43 -27 65 -60 22 -33 52 -56 66 -50 25 9 144 -102 144 -134 0
-9 12 -16 27 -16 65 0 193 -119 193 -180 0 -33 8 -60 19 -60 24 0 462 -445
450 -457 -5 -5 -26 6 -47 25 -21 19 -42 27 -47 18 -4 -9 -5 -4 -1 11 4 18 -5
23 -26 15 -23 -9 -29 -4 -21 17 7 18 1 25 -14 19 -14 -5 -42 9 -62 31 -21 23
-49 41 -64 41 -15 0 -27 14 -27 32 0 44 -45 24 -74 -33 -30 -60 -2 -97 44 -59
28 23 29 20 12 -25 -11 -28 -13 -57 -6 -65 8 -7 20 -96 28 -197 8 -100 17
-214 20 -252 5 -62 -1 -72 -54 -88 -33 -10 -77 -27 -99 -38 -29 -15 -44 -12
-62 13 -35 48 -69 39 -69 -18 0 -27 -10 -50 -22 -50 -22 0 -18 92 14 285 20
121 41 103 32 -26 -12 -170 43 -147 74 29 27 153 28 218 4 203 -10 -6 -14 26
-9 74 9 80 8 83 -22 46 -17 -21 -32 -62 -32 -90 -1 -28 -10 -69 -20 -91 -20
-43 -21 -50 13 180 8 55 13 107 11 116 -2 8 10 41 27 74 35 68 38 87 9 70 -13
-9 -16 4 -8 37 10 38 3 55 -29 72 -23 12 -41 29 -39 37 6 39 -7 55 -43 55 -32
0 -40 -13 -40 -65 0 -53 8 -66 40 -66 51 0 51 -1 -18 -125 -70 -126 -133 -324
-150 -475 l-12 -110 27 90 c15 50 47 126 72 170 24 44 38 62 31 40 -41 -129
-72 -275 -82 -380 -16 -179 -23 -202 -73 -225 -87 -42 12 -25 201 36 104 33
199 56 212 51 12 -5 8 -10 -8 -10 -17 -1 -73 -25 -125 -53 -92 -48 -535 -191
-676 -217 -57 -10 -52 -6 31 29 55 23 110 54 122 70 13 16 58 41 100 56 l78
27 6 132 c6 128 4 133 -46 146 -48 12 -49 15 -16 39 30 21 39 21 52 -3 28 -49
51 -30 27 22 -13 27 -35 50 -49 50 -15 0 -21 9 -14 20 8 13 25 13 51 -1 27
-14 39 -14 39 0 0 12 -8 21 -17 21 -9 0 -9 56 1 124 12 92 10 128 -9 141 -16
11 -10 14 17 6 37 -11 41 -5 32 41 -7 37 -3 50 13 40 14 -9 21 -1 18 22 -3 20
21 115 52 211 l57 175 -50 59 -50 60 -30 -46 c-84 -128 -185 -547 -226 -933
-40 -384 -43 -403 -74 -397 -13 2 -100 -21 -194 -51 -93 -30 -217 -60 -274
-66 -58 -6 -100 -20 -94 -30 6 -10 -13 -12 -45 -5 -40 9 -49 6 -29 -7 32 -23
8 -32 -135 -55 -54 -8 -80 -20 -68 -32 60 -60 1041 156 1439 316 75 30 202 73
283 96 l148 41 7 140 c11 193 48 365 89 416 34 42 -33 174 -82 160 -23 -7 -85
71 -248 313 -136 202 -267 425 -217 371 54 -59 239 -286 390 -480 94 -121 193
-239 219 -263 127 -115 247 -54 187 96 -8 21 3 44 32 64 40 28 41 33 11 45
-19 7 -61 52 -94 100 -33 48 -103 136 -155 195 -78 89 -324 478 -423 670 -28
53 -42 53 282 -1 142 -23 236 -10 174 25 -45 25 -25 107 21 87 17 -7 52 -12
77 -11 71 4 44 -118 -93 -417 -59 -129 -54 -206 16 -278 32 -33 65 -78 72
-101 37 -118 89 -31 207 349 105 338 110 403 41 472 -22 22 -54 36 -71 30 -16
-6 -24 -3 -18 7 7 10 -27 55 -74 99 -76 72 -80 81 -40 81 26 1 45 13 45 31 0
17 -18 30 -41 30 -34 0 -37 6 -20 39 12 21 16 52 9 68 -18 48 56 18 99 -39 27
-37 31 -57 15 -76 -16 -19 -12 -35 15 -59 43 -39 65 1 211 397 49 132 108 276
131 319 22 44 41 93 41 110 0 34 77 170 89 158 10 -10 -64 -418 -78 -432 -6
-7 -12 19 -13 57 l-2 68 -19 -70 c-79 -287 -122 -405 -138 -379 -13 22 -20 20
-31 -12 -8 -21 -40 -97 -71 -167 l-58 -129 45 -47 c220 -234 364 -190 316 97
-23 132 -22 138 48 313 40 98 71 191 71 206 -1 16 -10 10 -19 -12 -17 -40 -17
-40 -17 0 0 58 34 136 36 82 0 -21 6 -33 13 -27 6 6 14 117 19 246 11 361 48
365 88 9 26 -227 41 -257 139 -273 70 -11 69 -18 21 170 -10 40 -9 109 3 170
11 57 19 261 17 453 -5 395 1 480 22 320 11 -83 13 -63 8 80 -3 105 -19 233
-36 285 l-29 95 109 32 c167 48 253 272 146 376 -16 16 -19 -3 -9 -71 21 -144
3 -177 -98 -177 -115 0 -128 20 -37 62 41 19 75 47 76 62 0 14 7 37 15 49 8
13 3 36 -11 50 -39 41 -41 97 -5 97 18 0 27 -9 20 -20 -7 -11 2 -20 19 -20 38
0 38 8 2 77 -47 92 -77 106 -189 91 -75 -10 -102 -22 -102 -46 0 -22 -15 -14
-52 28 -28 33 -45 48 -37 34 7 -15 -3 -38 -24 -54 -42 -31 -75 -19 -59 22 6
15 6 28 1 28 -26 0 -149 -93 -149 -113 0 -34 -111 -73 -161 -57 -39 13 -29 22
76 72 67 32 149 90 183 129 34 39 62 62 62 52 0 -10 18 -23 40 -29 51 -13 51
7 -1 73 -51 64 -176 100 -298 85 -63 -8 -79 -6 -51 7 50 23 15 22 -128 -2z
m354 -68 c24 -17 44 -44 44 -59 0 -59 -272 -215 -299 -171 -14 23 -101 5 -101
-21 0 -9 -27 -12 -60 -5 -35 7 -60 4 -60 -8 0 -11 27 -25 60 -32 59 -12 85
-75 42 -102 -10 -6 -54 -76 -98 -156 -64 -117 -201 -312 -154 -220 34 67 -14
11 -97 -115 -51 -77 -87 -140 -79 -140 22 0 202 197 269 295 62 89 72 92 247
86 89 -3 392 -56 407 -71 5 -5 22 6 37 25 26 32 27 32 16 -9 -9 -31 0 -50 29
-65 116 -63 124 -181 28 -437 -163 -437 -365 -760 -663 -1062 -159 -161 -166
-171 -141 -217 28 -53 -14 -107 -82 -104 -22 1 -20 6 8 17 26 10 31 20 15 30
-13 8 -24 58 -24 112 0 111 -16 156 -126 344 -174 300 -374 404 -586 304 -107
-51 -103 -71 10 -56 106 14 203 -24 201 -77 -1 -40 -55 -100 -93 -104 -58 -5
-206 -74 -206 -94 0 -11 -8 -14 -18 -8 -30 18 -116 -37 -107 -69 4 -17 -4 -12
-17 10 -38 62 -66 72 -93 36 -22 -30 -25 -29 -25 13 0 53 131 236 181 251 42
14 142 235 189 416 34 132 149 334 295 519 88 112 38 244 -68 178 -26 -16 -47
-17 -72 -3 -19 12 -71 33 -115 48 l-80 28 85 15 c108 18 119 35 50 80 -78 51
-199 71 -227 36 -37 -44 -58 -31 -58 33 0 48 9 60 45 62 94 5 128 -8 215 -80
50 -41 115 -91 145 -111 30 -19 50 -43 44 -53 -6 -10 1 -13 15 -8 14 6 51 -12
81 -40 91 -85 132 -40 109 121 -14 102 -12 139 13 189 17 34 25 77 19 94 -7
18 -4 27 6 21 10 -6 19 34 20 92 1 88 8 107 50 127 58 30 77 0 32 -50 -35 -41
-63 -124 -40 -123 9 0 52 51 96 113 124 174 537 279 686 175z m449 -208 c33
-39 15 -76 -24 -52 -28 18 -123 -10 -109 -32 6 -10 1 -32 -13 -48 -19 -23 -17
-29 10 -29 31 0 -135 -171 -174 -179 -8 -1 -61 -24 -119 -51 -71 -33 -109 -41
-118 -27 -8 12 -26 15 -41 7 -15 -9 5 18 43 59 l70 76 -85 -43 c-47 -24 -86
-36 -87 -27 0 8 -4 31 -8 50 -4 23 6 35 30 35 20 0 64 26 98 58 34 32 62 50
62 40 0 -33 47 -19 99 30 51 49 273 171 312 172 11 0 35 -18 54 -39z m-1356
-26 c30 -42 30 -45 -8 -51 -23 -4 -41 -16 -41 -27 0 -10 -11 -13 -24 -4 -14 8
-6 -17 16 -55 44 -74 42 -118 -4 -118 -16 0 -34 27 -41 61 -12 60 -72 119
-123 119 -14 0 -21 -9 -14 -20 7 -11 4 -20 -7 -20 -10 0 -24 -12 -29 -28 -8
-19 1 -24 28 -17 65 17 273 -267 228 -311 -4 -4 -96 48 -204 115 -108 68 -220
129 -250 135 -91 18 -35 75 143 148 87 36 155 72 150 80 -9 14 40 29 115 35
18 2 48 -17 65 -42z m567 -331 c-14 -18 0 -13 32 12 77 59 97 36 21 -25 -50
-40 -62 -43 -76 -18 -21 37 0 94 28 76 14 -8 13 -23 -5 -45z m-2348 -1 c6 -10
-35 -62 -92 -115 -57 -54 -148 -145 -203 -203 -54 -58 -104 -101 -109 -95 -6
5 -25 -2 -42 -15 -28 -22 -29 -21 -6 8 14 19 28 64 31 100 3 37 14 85 26 107
12 22 27 65 35 95 21 89 93 122 236 109 77 -7 113 -4 95 7 -18 12 -20 19 -5
19 13 0 28 -8 34 -17z m361 -102 c-37 -37 -167 -81 -179 -61 -7 11 -1 23 14
27 14 4 53 17 86 28 81 28 102 29 79 6z m-1265 -327 c-12 -14 -60 -47 -108
-73 -104 -57 -95 -43 25 38 98 67 114 73 83 35z m-305 -179 c-1 -27 -136 -294
-138 -272 -1 6 22 63 49 125 28 62 50 126 50 143 0 16 9 29 20 29 11 0 20 -11
19 -25z m101 -73 c0 -9 -15 -29 -34 -45 -30 -24 -32 -23 -19 11 12 32 9 34
-17 12 -25 -20 -30 -19 -30 8 0 21 17 32 50 32 28 0 50 -8 50 -18z m1389 -265
c-9 -28 -6 -38 9 -28 30 18 5 -164 -32 -229 l-28 -50 11 50 c6 28 17 72 24 98
8 31 5 43 -8 35 -11 -7 -28 -46 -37 -88 l-16 -75 -11 90 -11 90 -44 -139 c-53
-169 -67 -158 125 -106 125 33 219 43 439 44 353 1 366 -3 299 -102 -135 -200
-136 -780 -1 -872 30 -20 250 -14 263 7 11 17 -18 26 -152 47 -54 9 -71 21
-74 54 -2 32 3 37 20 20 13 -13 47 -23 77 -23 29 0 64 -13 78 -30 48 -57 83
-37 69 41 -15 79 80 260 111 210 11 -18 19 -19 29 -3 7 13 45 36 82 51 85 36
86 66 8 204 -68 117 -72 120 -130 80 -21 -15 -73 -38 -114 -52 l-75 -24 33
-63 c27 -52 43 -305 21 -327 -2 -2 -60 -10 -127 -18 l-123 -14 0 73 c0 39 8
72 18 72 10 0 18 -8 18 -18 0 -10 23 -24 52 -31 58 -14 115 21 100 62 -6 14
-2 31 9 38 38 23 21 119 -25 139 -24 11 -47 34 -51 50 -7 27 -6 27 13 0 17
-24 21 -20 22 23 0 46 10 55 75 66 120 21 271 112 305 186 17 35 38 64 48 65
29 0 191 -186 204 -235 7 -25 20 -40 30 -34 44 27 -16 -100 -101 -213 -27 -36
-36 -57 -20 -48 16 10 -14 -25 -67 -76 -52 -52 -104 -94 -114 -94 -15 0 7 -78
33 -117 2 -4 59 23 126 60 121 66 146 109 63 105 -66 -2 48 86 125 97 53 8 56
5 45 -50 -10 -51 -4 -61 47 -81 60 -22 94 -89 61 -122 -11 -11 -37 -5 -66 14
-47 31 -154 -73 -154 -149 0 -10 -11 -16 -25 -14 -41 8 -135 -22 -135 -43 0
-11 17 -20 37 -20 20 0 54 -20 75 -45 21 -25 29 -38 20 -30 -10 8 -28 -5 -41
-30 -27 -54 -173 -71 -218 -25 -28 28 -101 21 -145 -13 -12 -9 -80 -22 -150
-29 -70 -6 -139 -15 -153 -19 -15 -5 36 -82 125 -193 82 -102 161 -211 175
-241 30 -68 51 -70 66 -7 9 35 -14 89 -89 209 -100 159 -125 219 -80 192 13
-8 88 -114 168 -237 187 -285 383 -538 432 -556 21 -8 38 -32 38 -53 0 -21 45
-96 100 -166 109 -139 116 -159 67 -199 -28 -24 -44 -14 -129 82 -96 109 -97
110 -47 120 49 10 49 11 -52 135 -104 129 -139 151 -140 90 0 -37 -11 -27
-120 112 -23 29 -35 40 -27 23 8 -16 -10 -8 -39 19 -29 26 -52 58 -51 70 6 50
-4 67 -37 60 -38 -8 -230 199 -395 426 -86 119 -94 125 -175 125 -106 1 -178
19 -164 42 6 10 2 18 -10 18 -11 0 -21 12 -21 28 0 29 -88 45 -340 63 -132 9
-240 41 -240 70 0 9 -43 36 -95 60 -52 25 -135 65 -185 90 -235 117 -441 193
-490 181 -38 -10 -63 -1 -102 38 -50 50 -52 50 -159 22 -60 -15 -109 -20 -109
-10 0 10 9 18 20 18 11 0 20 23 20 50 0 28 -5 50 -12 50 -7 0 -30 -22 -52 -50
-33 -42 -96 -69 -96 -42 0 5 -5 22 -12 39 -13 34 83 93 150 93 21 0 52 13 67
28 15 15 50 24 77 18 41 -7 55 3 84 68 32 71 121 179 202 245 25 20 129 36
337 50 l300 21 90 210 c90 211 120 268 100 185 -7 -29 -2 -45 15 -45 14 0 31
23 38 50 7 28 18 50 24 50 6 0 5 -19 -3 -43z m2621 -82 c12 -66 0 -372 -16
-388 -13 -12 -54 210 -54 291 1 153 48 218 70 97z m-3633 -458 c-61 -46 -98
-13 -47 42 28 32 42 36 65 17 24 -20 21 -29 -18 -59z m2059 -297 l-1 -70 -15
60 c-23 90 -23 173 0 120 9 -22 17 -71 16 -110z m-256 55 c49 -80 50 -95 4
-95 -74 0 -115 50 -89 108 31 67 37 66 85 -13z m1515 -392 c-95 -228 -125
-277 -179 -294 -71 -23 -75 18 -15 141 52 106 58 112 49 50 -6 -43 15 -5 53
96 66 173 95 207 57 64 -38 -141 -6 -112 42 38 25 78 52 132 60 119 7 -12 -23
-108 -67 -214z m-654 -144 c44 -23 56 -139 14 -138 -47 1 -122 53 -98 67 13 8
23 32 23 53 0 45 8 47 61 18z m170 -141 c17 -54 -10 -80 -68 -65 -35 10 -44
22 -35 55 6 23 12 54 12 68 0 40 75 -8 91 -58z m-211 -90 c0 -60 -27 -74 -104
-57 -57 12 -60 17 -30 39 19 13 34 43 34 67 0 38 5 40 50 19 32 -14 50 -39 50
-68z m-1280 39 c0 -8 -15 -30 -33 -50 -30 -34 -30 -37 5 -49 165 -56 251 -116
423 -290 172 -175 364 -409 365 -443 0 -38 -42 -6 -137 103 -118 137 -349 343
-388 349 -15 2 -81 55 -146 118 -65 63 -148 130 -184 149 -79 43 -80 48 -10
91 57 35 105 45 105 22z m-2837 -221 c19 -23 19 -33 -4 -47 -73 -46 -154 -3
-127 68 12 34 97 20 131 -21z m-168 -163 c-26 -10 -54 36 -55 87 0 33 7 29 37
-20 20 -33 28 -63 18 -67z m2360 -327 c-5 -48 -8 -14 -8 74 0 88 3 126 8 86 4
-41 4 -113 0 -160z m45 -200 c0 -68 -7 -115 -16 -105 -16 18 -9 229 8 229 4 0
8 -56 8 -124z m1210 -627 c-42 -142 -47 -151 -49 -80 -1 67 71 265 90 247 4
-4 -15 -79 -41 -167z m-1168 56 c18 -372 -22 -791 -58 -616 -13 62 9 517 27
559 11 27 9 34 -8 24 -15 -9 -23 0 -23 27 0 50 59 56 62 6z m1670 2 c-7 -17
-4 -42 6 -55 33 -40 -3 -414 -38 -392 -25 15 -26 26 -5 59 30 49 35 268 5 221
-16 -24 -19 -22 -20 13 0 24 -10 47 -23 51 -17 6 -16 21 3 57 37 70 95 108 72
46z m-2352 -487 c10 17 21 -15 30 -85 19 -148 9 -174 -45 -120 -23 23 -46 38
-51 33 -18 -18 -27 63 -12 112 13 45 14 43 17 -20 3 -57 7 -62 20 -30 9 22 14
67 11 100 -3 33 -1 43 4 22 7 -29 14 -32 26 -12z"/>
<path d="M4980 5487 c-144 -25 -227 -103 -197 -185 l18 -48 44 41 c50 46 197
93 278 88 57 -4 124 47 111 84 -7 23 -164 35 -254 20z"/>
<path d="M4706 5400 c-88 -36 -190 -271 -181 -421 5 -93 -6 -148 -25 -119 -15
24 -19 18 -20 -23 0 -30 11 -58 25 -62 16 -6 -8 -51 -67 -127 -106 -136 -144
-201 -134 -231 4 -12 41 33 83 100 103 168 137 180 46 16 -41 -73 -67 -133
-58 -133 26 0 172 286 261 510 121 307 119 299 71 300 -57 0 -92 76 -57 121
20 25 26 28 19 8 -6 -17 8 -48 30 -68 23 -21 41 -30 41 -21 0 8 -14 26 -31 38
-28 21 -27 29 11 78 24 30 40 53 36 53 -3 -1 -26 -10 -50 -19z m-39 -240 c-6
-5 -20 8 -33 30 -19 35 -25 25 -46 -80 -19 -100 -23 -108 -25 -48 -2 40 7 100
19 135 l22 63 36 -45 c20 -25 32 -49 27 -55z"/>
<path d="M4927 4549 c-24 -26 -39 -51 -33 -56 5 -5 -8 -15 -28 -21 -21 -7 -54
-41 -75 -77 -21 -36 -79 -106 -130 -157 -99 -100 -281 -344 -281 -377 0 -69
228 136 332 299 32 50 65 96 75 102 9 7 17 20 18 30 1 10 48 76 104 147 55 71
99 134 98 140 -9 25 -40 13 -80 -30z"/>
<path d="M5309 4579 c-7 -12 -24 -18 -37 -12 -14 5 -36 -8 -49 -29 -13 -21
-33 -38 -45 -38 -26 0 -96 -81 -97 -113 -1 -12 -14 -28 -31 -34 -16 -7 -30
-27 -30 -45 0 -18 -34 -64 -75 -102 -41 -39 -104 -97 -140 -129 -36 -33 -65
-76 -65 -95 0 -19 -27 -60 -59 -91 -32 -31 -65 -82 -72 -114 -7 -32 -19 -53
-28 -47 -31 18 -36 -64 -8 -130 15 -37 23 -82 17 -101 -25 -78 33 -55 89 35
230 372 403 620 474 679 119 100 267 387 200 387 -17 0 -37 -10 -44 -21z"/>
<path d="M4309 4033 c-7 -18 -20 -28 -29 -23 -31 19 -57 -98 -28 -126 35 -32
124 128 90 162 -14 14 -25 11 -33 -13z"/>
<path d="M5048 3813 c-120 -122 -299 -360 -250 -334 22 12 47 34 56 50 9 15
65 79 125 142 97 102 171 206 156 220 -3 2 -42 -33 -87 -78z"/>
<path d="M3760 3575 c-20 -22 -33 -51 -27 -65 5 -14 0 -32 -12 -39 -27 -17
-28 -71 -1 -71 11 0 20 12 20 28 0 47 105 100 200 102 77 2 91 9 96 46 9 63
-218 62 -276 -1z"/>
<path d="M4040 5015 c30 -34 168 -135 185 -135 35 0 -19 50 -109 99 -47 26
-81 42 -76 36z"/>
<path d="M2960 3487 c-27 -4 -79 -12 -114 -18 -36 -6 -92 -33 -124 -61 -63
-52 -187 -74 -568 -100 -248 -17 -204 -30 109 -34 221 -3 302 4 474 45 192 45
218 46 340 23 241 -47 285 -50 272 -17 -13 34 -101 81 -159 83 -30 2 -38 14
-34 47 7 47 -45 55 -196 32z"/>
<path d="M4211 3119 c-76 -66 -145 -119 -152 -119 -27 0 -40 -101 -18 -142 18
-33 14 -47 -20 -77 -32 -28 -35 -39 -15 -47 68 -26 90 43 46 147 -9 22 25 63
115 140 102 86 221 224 189 218 -3 -1 -68 -55 -145 -120z"/>
<path d="M3204 3143 l-46 -35 51 -27 c39 -22 62 -23 101 -5 46 21 71 82 35 85
-8 1 -33 5 -55 9 -22 5 -61 -8 -86 -27z"/>
<path d="M1692 3112 c7 -18 -10 -35 -46 -48 -56 -21 -56 -21 19 -22 41 -1 75
6 75 16 0 34 -24 82 -42 82 -9 0 -12 -13 -6 -28z"/>
<path d="M1788 3064 c15 -25 154 -68 170 -53 19 19 -29 46 -106 60 -55 10 -74
8 -64 -7z"/>
<path d="M3033 2924 c-6 -9 -3 -28 6 -42 11 -19 20 -20 30 -4 8 13 24 17 35 9
13 -7 16 -4 9 8 -7 12 -2 26 12 32 14 5 1 11 -29 11 -29 1 -58 -5 -63 -14z"/>
<path d="M2295 2897 c11 -11 136 -61 278 -111 l257 -90 230 10 c289 14 445 45
436 90 -12 63 -263 81 -495 34 -42 -8 -117 -2 -190 17 -67 17 -188 36 -271 42
-82 6 -176 15 -208 20 -38 5 -50 1 -37 -12z"/>
<path d="M3923 2644 c32 -36 35 -43 9 -23 -34 26 -37 25 -29 -1 5 -16 39 -39
74 -49 39 -12 60 -29 54 -45 -5 -14 3 -26 20 -26 16 0 29 -9 29 -20 0 -11 9
-20 20 -20 36 0 21 134 -19 183 -49 58 -54 16 -7 -59 l34 -54 -64 59 c-35 32
-64 68 -64 80 0 11 -23 22 -52 24 l-51 3 46 -52z"/>
<path d="M3631 2598 c15 -29 23 -57 17 -63 -5 -6 66 -9 160 -8 93 2 152 9 132
17 -21 8 -53 37 -72 66 -31 48 -44 52 -149 46 l-115 -5 27 -53z"/>
<path d="M3310 2609 c-88 -15 -214 -28 -280 -30 -113 -3 -116 -4 -50 -21 39
-11 172 -12 300 -4 127 8 241 15 255 15 13 1 25 8 25 16 0 8 0 24 0 35 0 24
-42 22 -250 -11z"/>
<path d="M3270 2480 c7 -11 97 -20 202 -20 122 0 186 7 178 20 -7 11 -97 20
-202 20 -122 0 -186 -7 -178 -20z"/>
<path d="M4531 1261 c-18 -28 4 -61 40 -61 37 0 37 28 1 59 -20 16 -33 16 -41
2z"/>
<path d="M3944 5476 c-5 -93 -40 -172 -82 -183 -22 -6 -19 -9 11 -11 66 -3 90
44 82 161 -5 77 -9 86 -11 33z"/>
<path d="M1980 4789 c-13 -32 -28 -107 -34 -166 -12 -124 -101 -292 -242 -458
-49 -59 -84 -112 -77 -118 23 -23 313 310 313 359 0 11 13 35 29 53 16 18 44
91 63 162 18 71 41 145 51 164 14 27 11 32 -15 22 -18 -7 -40 -1 -49 14 -12
21 -23 12 -39 -32z"/>
<path d="M1864 4787 c-11 -21 -27 -74 -35 -117 -8 -44 -22 -89 -30 -101 -9
-11 -35 -65 -58 -120 -41 -98 -41 -99 -1 -49 l41 50 -22 -60 c-19 -52 -18 -56
7 -30 61 64 159 279 149 328 -5 31 1 54 18 60 31 12 37 72 7 72 -11 0 -20 -11
-20 -25 -1 -18 -6 -17 -18 3 -14 22 -22 20 -38 -11z"/>
<path d="M1519 4713 c-142 -39 -299 -161 -299 -233 0 -49 82 -56 119 -11 39
47 202 131 254 131 27 0 47 12 47 28 0 16 11 32 24 37 30 10 5 75 -28 74 -14
-1 -67 -13 -117 -26z"/>
<path d="M3570 4600 c-7 -12 20 -20 69 -20 44 0 81 9 81 20 0 11 -31 20 -69
20 -38 0 -74 -9 -81 -20z"/>
<path d="M1200 4398 c0 -11 -10 -14 -23 -6 -16 10 -19 -1 -10 -36 9 -37 1 -61
-30 -88 -56 -50 -137 -223 -137 -295 0 -34 -45 -129 -110 -235 -135 -218 -145
-258 -64 -258 58 0 372 677 373 806 1 19 15 40 31 47 17 6 30 23 30 37 0 14
-13 31 -30 37 -16 7 -30 2 -30 -9z m-270 -718 c-28 -55 -59 -100 -70 -100 -10
0 10 45 44 100 34 55 65 100 69 100 4 0 -15 -45 -43 -100z"/>
<path d="M580 3375 c-38 -35 -67 -75 -64 -88 3 -14 -12 -34 -33 -45 -21 -12
-44 -35 -50 -52 -8 -20 -4 -27 9 -19 11 7 9 -6 -5 -29 -15 -23 -34 -42 -43
-42 -9 0 -11 -8 -5 -18 6 -9 -8 -41 -31 -70 -22 -28 -45 -81 -49 -115 l-8 -64
69 76 c76 83 177 239 199 307 14 46 95 135 173 189 l48 33 -70 0 c-51 1 -89
-16 -140 -63z"/>
<path d="M1120 2640 c-228 -52 -479 -147 -454 -172 5 -6 45 -1 87 10 117 31
479 83 563 80 196 -7 204 -4 180 64 -13 39 -27 53 -36 38 -10 -17 -18 -14 -27
8 -15 40 -11 40 -313 -28z"/>
<path d="M2090 2526 c-44 -4 -93 -13 -110 -20 -16 -7 -43 -15 -60 -17 -128
-19 -302 -52 -360 -69 -38 -11 -100 -20 -137 -20 -56 0 -66 -6 -58 -37 8 -29
0 -35 -43 -30 -28 4 -41 2 -27 -5 68 -32 -39 -159 -112 -133 -15 5 -34 0 -41
-12 -7 -12 -45 -26 -83 -30 -38 -5 -132 -33 -209 -63 -138 -52 -157 -58 -285
-82 -143 -27 -38 -268 116 -268 53 0 77 -8 74 -25 -17 -86 707 14 885 122 17
11 55 28 85 40 30 12 55 35 55 52 0 25 -9 25 -72 -1 -83 -35 -117 -19 -58 25
64 48 485 248 607 288 136 44 303 117 303 131 0 57 -43 85 -76 52 -20 -20 -98
-52 -175 -71 -76 -20 -206 -68 -289 -107 -374 -178 -468 -193 -155 -25 63 34
115 74 115 90 0 15 12 23 27 18 25 -10 291 60 420 109 105 41 51 72 -116 67
-101 -4 -150 1 -141 15 7 11 10 18 6 17 -3 -2 -42 -7 -86 -11z m-383 -292 c-8
-13 4 -8 26 11 22 19 57 35 78 35 61 0 -33 -58 -115 -70 -36 -6 -55 -5 -41 1
14 7 25 26 25 42 0 16 9 24 20 17 12 -7 14 -23 7 -36z m-127 -15 c0 12 8 21
18 21 24 0 14 -70 -10 -71 -10 0 -36 -10 -58 -22 -44 -23 -146 -51 -157 -42
-4 3 -21 -7 -39 -21 -49 -42 -155 -49 -140 -11 10 27 5 28 -30 9 -51 -27 -64
-28 -64 -2 0 11 19 20 41 20 23 0 37 7 32 16 -6 9 -2 29 8 45 16 24 18 24 19
-4 0 -18 15 -38 33 -45 25 -10 28 -7 10 14 -17 21 -4 27 73 31 110 5 209 39
191 67 -6 11 7 10 31 -3 28 -15 42 -15 42 -2z m-40 -187 c0 -18 -157 -99 -258
-135 -153 -53 -197 -44 -52 10 66 25 161 65 210 88 107 50 100 47 100 37z"/>
<path d="M1030 2450 c-264 -76 -327 -108 -337 -172 -2 -18 -21 -49 -41 -68
-47 -48 6 -86 75 -55 105 49 157 65 174 54 11 -6 19 -4 19 5 0 22 102 67 123
54 9 -6 17 0 17 12 0 12 9 17 20 10 11 -7 25 0 31 14 5 15 34 29 63 32 30 2
59 13 66 24 6 10 32 15 56 11 24 -5 44 -1 44 9 0 10 -16 17 -35 17 -36 0 -72
8 -125 28 -47 18 -128 31 -150 25z"/>
<path d="M3003 2189 c-13 -29 -18 -60 -12 -70 6 -11 4 -19 -5 -19 -9 0 -26
-22 -38 -49 -21 -44 -20 -46 13 -26 51 32 111 171 86 196 -13 13 -28 3 -44
-32z"/>
<path d="M3091 2115 c-20 -47 -48 -112 -62 -145 -76 -177 -87 -285 -22 -220
48 48 52 36 27 -86 -19 -88 -29 -104 -62 -100 -54 8 -87 -133 -105 -454 -23
-396 -63 -488 -66 -150 -1 178 -9 259 -21 238 -25 -44 -43 -651 -22 -738 l18
-70 3 60 c2 33 21 87 42 120 21 33 49 83 62 110 22 49 23 48 39 -38 25 -131
45 -128 32 4 -9 92 -2 142 35 240 30 83 49 188 56 314 10 162 8 177 -10 100
-26 -109 -32 -117 -56 -79 -13 21 -19 7 -21 -51 -1 -44 -13 -125 -26 -180 -42
-177 -47 -38 -9 250 19 149 36 277 36 286 1 9 11 10 23 2 15 -8 19 -49 11
-114 -16 -131 21 -100 57 49 46 190 86 324 138 467 56 149 68 224 19 113 -38
-87 -59 -68 -26 24 22 59 21 74 -6 101 -43 43 -42 44 -84 -53z"/>
<path d="M5088 2169 c6 -17 4 -26 -6 -21 -14 10 -166 -351 -179 -428 -1 -5
-20 -63 -42 -128 -47 -136 -46 -132 -23 -132 17 0 52 95 45 125 -2 8 8 15 20
15 13 0 18 6 11 13 -8 7 5 43 28 80 23 37 36 67 29 67 -7 0 1 26 18 57 16 32
24 64 17 70 -7 7 -3 13 9 13 13 0 18 21 13 50 -6 34 0 49 17 45 14 -3 24 11
22 30 -1 20 7 29 19 22 12 -8 16 -2 10 16 -7 16 1 46 16 67 37 49 35 70 -4 70
-21 0 -28 -11 -20 -31z"/>
<path d="M2324 2050 c-13 -44 -24 -92 -24 -106 0 -15 -9 -21 -20 -14 -24 15
-60 -72 -60 -144 0 -28 -13 -62 -29 -74 -29 -22 -39 -70 -31 -142 3 -35 6 -33
21 10 11 32 13 -2 6 -90 -7 -77 -21 -152 -32 -166 -34 -42 10 -814 58 -1024
11 -46 13 -47 26 -11 12 33 17 28 31 -30 l17 -69 8 63 c4 35 -1 125 -12 200
-10 76 -11 150 -1 167 11 20 17 0 18 -60 0 -49 13 -135 29 -190 l28 -100 -10
170 c-5 94 -18 233 -29 310 -27 205 -58 707 -45 741 36 93 65 -28 70 -291 l3
-170 15 130 c18 161 19 642 1 830 l-13 140 -25 -80z m-98 -1117 c-32 -51 -48
38 -34 180 l16 157 14 -160 c8 -88 9 -168 4 -177z"/>
<path d="M3273 1846 c-86 -171 -216 -608 -211 -711 1 -30 9 -20 22 31 14 50
30 73 47 66 15 -5 31 5 36 24 5 19 5 -51 -1 -156 -7 -110 -4 -183 6 -173 28
25 103 469 85 498 -23 35 -22 108 1 84 10 -10 21 -36 25 -56 13 -66 117 35
117 113 1 49 5 57 20 34 15 -23 20 -16 20 30 1 33 14 77 31 99 32 43 39 91 12
91 -28 0 -143 -231 -143 -287 0 -68 -33 -85 -48 -24 -8 31 13 118 58 242 45
126 60 185 40 169 -16 -14 -30 -34 -30 -45 0 -11 -27 -73 -60 -138 -33 -65
-60 -136 -60 -159 0 -22 -9 -35 -20 -28 -34 21 13 198 61 230 22 14 103 223
91 235 -5 5 -50 -71 -99 -169z"/>
<path d="M2931 1962 c-28 -31 -30 -46 -11 -76 21 -32 22 -32 12 -1 -6 19 -3
35 6 35 19 0 48 61 36 73 -4 4 -23 -10 -43 -31z"/>
<path d="M3205 1866 c-55 -129 -112 -306 -102 -316 5 -5 42 82 83 194 78 210
90 288 19 122z"/>
<path d="M467 1784 c-103 -65 -24 -176 108 -152 108 19 151 47 74 47 -46 1
-69 16 -96 61 -37 63 -48 69 -86 44z"/>
<path d="M3711 1621 c-13 -20 14 -38 137 -89 79 -33 79 -33 42 8 -20 22 -47
40 -61 40 -13 0 -35 14 -49 30 -29 34 -53 38 -69 11z"/>
<path d="M3900 1461 c0 -10 27 -32 60 -48 71 -36 77 -24 15 28 -50 42 -75 49
-75 20z"/>
<path d="M3352 1434 c-43 -32 -81 -187 -123 -504 -34 -257 -20 -450 31 -450
30 0 45 130 24 205 -11 39 -12 79 -3 88 10 10 30 71 46 137 16 66 49 204 73
306 24 102 40 190 35 195 -14 15 -76 -191 -89 -296 -6 -52 -19 -95 -29 -95 -9
0 -17 -16 -17 -35 0 -19 -10 -48 -22 -65 -17 -24 -19 -22 -10 10 6 22 16 108
23 190 7 83 23 168 36 190 30 49 74 150 66 150 -3 0 -21 -12 -41 -26z"/>
<path d="M3047 830 c0 -88 3 -122 8 -74 4 47 4 119 0 160 -5 40 -8 2 -8 -86z"/>
<path d="M3134 865 c-17 -29 -37 -395 -21 -379 13 13 45 394 33 394 -2 0 -8
-7 -12 -15z"/>
<path d="M3998 733 c-5 -53 -3 -100 4 -105 20 -12 32 95 17 152 -10 39 -14 29
-21 -47z"/>
<path d="M3001 564 c0 -80 6 -122 19 -114 24 15 24 144 0 200 -12 28 -18 3
-19 -86z"/>
<path d="M2836 465 c-6 -97 16 -273 23 -185 21 241 22 300 5 300 -11 0 -24
-52 -28 -115z"/>
<path d="M3223 422 c-14 -9 -23 -40 -20 -69 5 -37 14 -47 34 -35 14 9 23 40
20 69 -5 37 -14 47 -34 35z"/>
<path d="M2988 350 c-17 -68 6 -131 33 -89 24 39 24 139 -1 139 -10 0 -25 -22
-32 -50z"/>
<path d="M3070 360 c-17 -54 21 -126 40 -76 8 18 26 29 42 23 20 -8 28 4 28
43 0 47 -5 51 -30 30 -21 -17 -30 -18 -30 -2 0 37 -36 25 -50 -18z"/>
<path d="M2914 367 c-19 -19 -17 -111 3 -144 12 -18 21 -2 30 50 12 74 -5 122
-33 94z"/>
<path d="M4206 292 c-23 -74 -12 -178 16 -161 10 6 19 31 20 55 1 24 13 2 27
-49 37 -133 42 -137 157 -134 58 2 80 7 49 11 -37 6 -55 21 -55 45 0 105 -111
301 -170 301 -13 0 -33 -31 -44 -68z"/>
<path d="M1742 282 c-67 -63 -79 -87 -34 -70 19 7 31 -5 35 -35 5 -31 23 -49
53 -54 l46 -6 -40 78 c-37 73 -37 81 -7 112 58 57 12 36 -53 -25z"/>
<path d="M3861 218 c-20 -46 -42 -72 -50 -60 -7 12 -27 22 -45 22 -25 0 -26
-6 -6 -30 21 -25 17 -30 -23 -30 -32 -1 -39 -6 -21 -17 31 -20 -2 -54 -66 -67
-22 -4 63 -14 189 -22 269 -16 249 -25 208 98 -68 200 -128 235 -186 106z"/>
<path d="M3411 62 c-6 -10 -45 -15 -87 -11 -42 4 -103 0 -135 -10 -45 -13 -18
-18 111 -18 94 0 159 5 145 10 -14 6 -20 19 -14 29 6 10 7 18 1 18 -5 0 -15
-8 -21 -18z"/>
</g>
</svg>
