<?xml version="1.0" standalone="no"?>
<!DOCTYPE svg PUBLIC "-//W3C//DTD SVG 20010904//EN"
 "http://www.w3.org/TR/2001/REC-SVG-20010904/DTD/svg10.dtd">
<svg version="1.0" xmlns="http://www.w3.org/2000/svg"
 width="300.000000pt" height="324.000000pt" viewBox="0 0 300.000000 324.000000"
 preserveAspectRatio="xMidYMid meet">
<metadata>
Created by potrace 1.10, written by Peter Selinger 2001-2011
</metadata>
<g transform="translate(0.000000,324.000000) scale(0.050000,-0.050000)"
fill="#ffffff" stroke="none">
<path d="M3120 6330 c-463 -104 -881 -528 -1010 -1023 -65 -250 1 -541 187
-825 l32 -49 13 49 c13 50 -26 135 -75 164 -15 9 -27 26 -27 38 0 12 -23 69
-51 126 -245 501 242 1312 857 1427 108 21 101 -13 -15 -68 -110 -52 -199
-146 -171 -179 20 -24 18 -32 -7 -42 -17 -6 -37 -29 -44 -50 -8 -26 -26 -36
-55 -30 -65 11 -74 -126 -11 -165 37 -23 41 -23 31 3 -6 17 1 47 17 67 16 22
28 27 28 12 1 -41 32 -29 60 23 14 26 47 59 73 73 34 18 48 43 48 85 0 53 4
56 34 31 29 -24 32 -23 21 7 -9 24 -5 31 16 23 20 -8 26 -2 18 19 -7 16 -2 36
10 43 12 8 17 22 10 32 -6 10 3 13 20 7 17 -7 32 -23 32 -35 1 -13 10 -3 20
22 10 25 32 45 48 45 17 0 31 9 31 19 0 37 110 12 126 -29 17 -40 17 -40 45
-1 21 28 29 30 29 10 1 -49 39 24 40 75 0 34 -14 45 -65 52 -64 7 -64 8 10 11
54 2 75 -5 75 -26 0 -19 12 -25 32 -18 25 10 26 16 5 30 -18 11 -6 15 34 11
33 -4 72 -13 85 -21 13 -9 35 -8 49 0 57 35 261 -15 453 -112 69 -35 120 -54
113 -42 -101 164 -813 292 -1171 211z"/>
<path d="M3700 6220 c0 -11 10 -20 21 -20 12 0 15 -10 8 -22 -10 -16 -3 -16
26 -1 22 12 45 16 52 9 7 -7 13 -3 13 9 0 22 -46 45 -92 45 -15 0 -28 -9 -28
-20z"/>
<path d="M3013 5884 c-6 -9 -8 -43 -5 -75 4 -33 -7 -81 -23 -109 -25 -43 -25
-45 0 -15 16 19 36 28 45 20 9 -8 10 -4 2 10 -8 14 -5 25 7 25 11 0 20 7 19
15 -2 8 -1 20 1 25 24 61 -17 152 -46 104z"/>
<path d="M2623 5578 c-10 -26 -14 -55 -9 -63 4 -8 -1 -15 -13 -15 -11 0 -21
-13 -21 -30 0 -16 8 -30 18 -30 25 0 70 59 55 74 -7 7 -2 25 10 40 17 21 17
34 1 50 -17 17 -27 10 -41 -26z"/>
<path d="M3580 5131 c-684 -143 -986 -605 -625 -955 196 -191 628 -356 929
-356 78 0 103 -29 41 -48 -163 -49 -498 -33 -686 33 -295 103 -723 371 -812
507 -37 56 -165 65 -288 21 -40 -14 -104 -22 -143 -18 -97 12 -376 -274 -376
-386 0 -6 -22 -58 -48 -115 -77 -165 -112 -256 -112 -291 1 -18 37 44 82 137
85 178 192 360 227 384 12 8 39 26 60 40 22 14 66 51 98 82 32 31 70 52 85 46
14 -5 32 8 38 29 46 143 310 -126 310 -316 l0 -79 235 -111 c129 -61 280 -127
335 -146 55 -20 116 -53 136 -73 19 -20 45 -36 56 -36 11 0 16 -7 11 -16 -6
-9 9 -17 33 -19 24 -2 53 -17 66 -34 27 -37 208 -121 245 -114 17 4 22 -4 12
-21 -12 -20 -9 -21 11 -2 17 15 38 17 63 5 20 -11 55 -28 77 -39 22 -11 61
-20 88 -20 41 0 166 -78 127 -79 -7 -1 -4 -26 8 -56 28 -67 55 -245 38 -245
-23 0 -19 -88 4 -116 29 -34 38 -88 13 -73 -10 6 -18 25 -18 41 0 18 -10 24
-23 16 -15 -9 -18 -5 -8 10 10 17 0 20 -37 11 -41 -11 -52 -6 -52 21 0 21 -11
30 -29 23 -15 -6 -39 2 -52 18 -13 16 -33 23 -44 16 -12 -7 -15 -4 -8 9 8 11
5 26 -5 33 -22 14 -44 -38 -25 -62 7 -10 -2 -2 -20 18 -37 38 -90 30 -90 -15
0 -16 9 -23 20 -16 12 8 15 -1 7 -20 -9 -24 8 -42 62 -68 77 -37 99 -53 221
-161 40 -35 82 -65 93 -66 25 -2 244 -252 279 -319 89 -170 88 -187 -14 -306
-37 -42 -88 -119 -115 -170 -27 -52 -55 -98 -62 -104 -7 -5 -41 -65 -76 -133
-36 -68 -86 -147 -113 -176 -27 -29 -49 -66 -49 -82 0 -16 -9 -29 -21 -29 -11
0 -41 -22 -65 -49 -24 -27 -62 -52 -84 -55 -69 -10 -156 -90 -141 -130 6 -15
2 -23 -8 -17 -22 14 -161 -49 -161 -73 0 -9 -19 -16 -43 -16 -23 0 -64 -23
-91 -52 -41 -45 -58 -50 -122 -38 -114 21 -117 52 -6 58 58 3 115 32 62 32
-15 0 -21 6 -14 13 7 7 26 2 42 -12 24 -20 30 -17 29 12 0 21 5 56 13 78 10
32 1 47 -40 65 -67 31 -71 30 -57 -6 13 -33 -23 -42 -43 -10 -19 32 -50 23
-37 -10 7 -19 -1 -30 -22 -30 -18 0 -28 8 -22 18 14 24 -58 41 -90 21 -34 -20
28 -119 83 -134 56 -14 9 -65 -59 -65 -116 1 -528 304 -492 362 6 10 4 18 -5
18 -9 0 -28 19 -43 42 -14 23 -16 36 -4 29 31 -20 26 6 -15 66 -63 91 -108
205 -98 245 6 21 2 38 -7 38 -15 0 -46 78 -48 123 -1 8 -8 20 -16 29 -28 28
-15 70 20 64 25 -4 35 7 34 37 -1 26 8 39 23 34 35 -14 55 30 29 62 -15 17
-16 32 -3 40 10 6 17 34 14 61 -6 51 -32 95 -32 53 0 -12 -8 -23 -17 -23 -15
0 -18 80 -3 95 32 34 2 94 -46 91 -36 -3 -51 3 -42 18 9 14 5 17 -9 8 -13 -8
-17 -25 -9 -38 8 -13 17 -33 19 -44 3 -11 9 -40 15 -65 7 -32 1 -45 -22 -45
-29 0 -29 -4 2 -37 32 -36 31 -37 -15 -28 -34 6 -52 26 -60 65 -6 30 -17 81
-25 113 l-14 57 48 -40 c26 -22 36 -26 23 -8 -14 17 -18 38 -10 47 8 8 6 13
-5 10 -44 -8 -72 2 -67 26 11 57 -49 246 -65 205 -21 -54 -21 -74 -1 -62 9 6
18 -45 20 -114 2 -125 143 -707 176 -731 9 -7 19 -35 22 -63 13 -120 207 -459
342 -597 555 -567 1278 -131 1823 1099 l58 131 -77 149 c-132 252 -321 878
-321 1061 0 47 -8 49 -215 72 -384 43 -671 134 -650 207 3 10 -7 18 -21 18
-14 0 -38 18 -54 40 -16 22 -45 40 -65 40 -20 0 -74 24 -120 53 -47 30 -89 55
-95 55 -5 1 -8 8 -5 16 2 7 -14 19 -35 26 -22 7 -40 22 -40 33 0 12 -12 17
-27 11 -15 -6 -39 -3 -54 6 -20 13 -13 21 26 30 56 15 137 -3 157 -35 7 -10
36 -20 64 -22 28 -2 47 -7 42 -11 -27 -27 40 -59 79 -38 40 21 41 20 13 -14
-28 -34 -27 -35 10 -17 59 28 161 19 330 -31 358 -105 644 -101 680 9 43 130
162 195 268 146 217 -99 596 461 544 805 -50 337 -626 532 -1212 409z m570
-185 c53 -10 55 -13 20 -27 -34 -14 -31 -17 20 -20 210 -12 251 -21 180 -39
-53 -14 -49 -16 40 -20 89 -4 93 -6 40 -20 -60 -15 -60 -15 15 -18 52 -1 75
-11 75 -32 0 -16 8 -30 17 -30 9 0 16 -12 16 -27 0 -17 -16 -23 -46 -17 -26 5
-42 17 -36 26 6 10 -9 18 -35 18 -33 -1 -38 -5 -19 -17 30 -20 -57 -42 -174
-44 -59 -2 -65 -5 -33 -19 32 -14 25 -17 -36 -19 -50 -1 -72 -9 -63 -23 20
-33 -216 0 -243 34 -12 15 -51 34 -87 41 -37 7 -55 19 -41 27 32 20 -215 86
-271 72 -57 -15 -109 4 -109 39 0 14 -11 30 -25 35 -14 4 -10 6 9 3 18 -2 51
12 74 33 25 24 45 30 53 17 8 -14 22 -9 38 13 23 31 25 31 38 -3 9 -21 4 -42
-11 -52 -19 -12 -15 -17 14 -18 40 -2 40 -2 0 -20 -40 -19 -40 -19 0 -13 25 3
38 18 34 40 -3 19 6 34 20 34 20 1 20 5 -2 18 -35 23 157 51 222 32 37 -10 40
-8 16 10 -30 23 147 14 290 -14z m-827 -146 c11 0 14 9 7 20 -7 11 -3 20 9 20
11 0 21 -19 21 -42 0 -33 -9 -40 -40 -32 -25 6 -40 0 -40 -16 0 -35 -95 -51
-108 -18 -5 14 8 32 29 38 22 7 35 21 29 30 -6 9 5 20 25 24 19 4 38 0 42 -8
3 -9 15 -16 26 -16z m-118 -109 c6 7 18 1 26 -13 9 -15 7 -19 -7 -11 -11 8
-27 5 -34 -7 -7 -11 -37 -20 -66 -20 l-54 0 60 -52 c33 -28 49 -45 35 -38 -14
7 -26 5 -27 -4 -1 -9 -5 -40 -10 -70 -6 -37 4 -68 30 -94 21 -21 34 -43 28
-49 -5 -6 10 -5 35 2 29 7 41 4 32 -10 -7 -11 1 -26 18 -33 18 -6 26 -3 19 8
-21 34 14 22 40 -13 14 -19 52 -34 86 -34 39 0 57 -8 49 -21 -7 -12 2 -10 19
4 26 21 37 20 62 -5 17 -17 43 -31 58 -31 21 -1 21 -4 -1 -18 -20 -12 -16 -19
15 -27 23 -6 37 -3 31 7 -6 10 9 18 35 18 25 0 68 6 94 13 34 9 44 6 34 -10
-9 -15 2 -23 32 -23 33 1 39 5 19 18 -19 12 -9 19 34 26 41 6 65 -1 72 -20 7
-17 25 -23 46 -16 29 10 28 7 -4 -18 -21 -16 -29 -30 -18 -30 11 0 20 -13 20
-30 0 -16 -11 -30 -25 -30 -13 0 -28 -11 -32 -23 -10 -29 -137 -42 -251 -26
-54 7 -81 20 -72 33 9 15 -4 17 -40 9 -31 -8 -53 -5 -53 6 0 11 -14 15 -30 8
-17 -6 -44 0 -60 13 -17 14 -31 17 -31 7 -1 -9 -9 2 -19 25 -11 28 -42 48 -88
56 -82 16 -148 70 -112 92 16 10 13 18 -9 27 -19 7 -28 4 -21 -7 7 -11 3 -20
-9 -20 -28 0 -105 78 -94 96 9 15 -38 67 -50 54 -4 -3 -7 39 -7 95 0 64 9 105
25 110 14 5 20 17 14 27 -6 10 2 18 17 18 16 0 34 20 41 44 11 41 13 42 49 10
20 -19 42 -29 49 -23z m420 -125 c63 -17 109 -39 104 -48 -6 -10 28 -24 75
-31 77 -13 80 -16 36 -29 -38 -11 -41 -14 -12 -16 21 -1 33 -8 26 -15 -8 -7
-5 -24 7 -38 25 -31 6 -82 -31 -82 -16 0 -24 7 -18 16 6 10 -10 17 -36 17 -33
1 -38 5 -19 18 20 12 11 21 -30 31 -31 8 -63 25 -71 37 -8 13 -50 23 -94 23
-44 0 -71 6 -60 12 11 7 -20 12 -69 11 -49 -1 -79 -9 -66 -17 42 -26 -45 -16
-117 14 -68 28 -85 103 -18 78 15 -6 28 -2 28 10 0 12 15 16 33 9 22 -8 29 -5
20 9 -31 50 108 46 312 -9z m870 -39 c24 -6 40 -20 34 -29 -6 -10 -3 -18 7
-18 10 0 14 -22 9 -50 -5 -27 -22 -50 -37 -50 -16 0 -28 -8 -28 -18 0 -9 -39
-13 -88 -7 -90 10 -232 -24 -232 -57 0 -10 -47 -18 -105 -18 -69 1 -95 7 -77
18 22 14 20 20 -10 28 -25 6 -18 10 22 12 46 2 53 7 30 22 -24 15 -18 19 23
20 30 0 57 7 60 15 13 28 227 105 297 107 64 2 66 3 20 18 -63 20 3 27 75 7z
m-2099 -379 c26 -40 52 -67 58 -61 6 7 -3 34 -21 62 -53 80 -38 85 26 10 60
-70 78 -69 40 2 -32 60 -7 46 44 -25 36 -51 38 -61 11 -50 -19 7 -34 6 -34 -3
0 -49 -104 -6 -150 62 -29 41 -44 75 -36 75 9 0 37 -33 62 -72z"/>
<path d="M2453 4851 c-6 -17 -3 -35 8 -42 10 -6 19 3 19 20 0 60 34 30 36 -32
1 -56 42 -132 46 -86 0 10 4 34 8 52 14 76 -91 155 -117 88z"/>
<path d="M2088 4000 c-12 -12 -42 -25 -67 -30 -67 -13 -73 -26 -32 -65 20 -19
31 -25 24 -12 -7 12 1 34 18 47 25 22 28 18 22 -22 -4 -27 0 -58 10 -71 12
-14 7 -34 -11 -53 -17 -16 -25 -35 -18 -41 7 -7 -3 -30 -22 -51 -29 -32 -31
-47 -12 -83 19 -34 19 -47 0 -59 -17 -10 -14 -18 9 -27 23 -9 40 9 64 67 17
44 38 80 46 80 8 0 16 11 17 25 1 14 8 66 14 115 8 55 5 80 -6 64 -14 -21 -23
-20 -43 5 -22 26 -20 31 7 31 21 0 32 17 32 50 0 53 -19 63 -52 30z"/>
<path d="M4552 3867 c-10 -26 -30 -30 -105 -20 l-93 13 98 -105 c54 -58 126
-140 159 -182 l61 -78 64 64 c96 96 78 182 -58 280 -97 70 -109 73 -126 28z"/>
<path d="M2272 3517 c-31 -92 -114 -287 -184 -434 l-127 -266 40 -54 c52 -70
76 -274 30 -256 -25 10 -26 5 -7 -27 16 -24 32 -31 46 -20 14 12 21 4 21 -21
0 -23 -12 -37 -28 -34 -16 3 -33 -6 -37 -19 -6 -16 7 -21 34 -16 31 6 41 0 33
-19 -6 -15 3 -33 20 -39 16 -7 24 -20 18 -30 -6 -11 0 -26 14 -34 14 -8 18 -7
10 2 -8 9 -4 29 10 45 30 37 36 122 9 139 -12 7 -16 -12 -10 -49 6 -44 1 -58
-18 -51 -25 10 -30 36 -31 140 0 27 -9 40 -23 33 -14 -8 -14 -4 1 13 13 13 19
37 13 52 -6 16 -2 28 9 28 10 0 20 11 21 25 3 28 11 73 44 241 12 64 19 127
15 140 -5 13 4 36 18 50 15 15 27 52 27 83 0 31 13 67 30 81 16 13 25 33 19
42 -6 10 2 18 18 18 83 0 130 180 64 246 -15 15 -31 57 -35 93 -5 57 -13 44
-64 -102z"/>
<path d="M1920 3621 c0 -9 -16 -15 -35 -12 -19 3 -24 1 -10 -3 14 -5 25 -16
25 -25 0 -9 13 -22 29 -28 20 -8 25 -1 17 21 -9 22 -5 28 11 18 12 -8 23 -6
23 5 0 10 -13 24 -30 30 -16 7 -30 4 -30 -6z"/>
<path d="M3940 3516 c0 -67 5 -77 28 -58 45 38 51 134 8 137 -29 2 -36 -13
-36 -79z"/>
<path d="M1792 3497 c-38 -75 -39 -83 -10 -73 11 4 18 13 15 19 -4 7 9 31 29
53 22 24 29 45 17 52 -11 7 -34 -16 -51 -51z"/>
<path d="M1882 3505 c-1 -14 -17 -25 -35 -25 -19 0 -28 -6 -20 -14 7 -7 -6
-34 -30 -60 -63 -66 -33 -57 43 14 35 33 59 71 53 85 -8 20 -10 20 -11 0z"/>
<path d="M1691 3195 c-19 -59 -22 -152 -6 -142 27 17 9 -79 -20 -109 -36 -38
-31 -73 5 -37 44 45 77 141 51 149 -11 4 -21 25 -21 47 0 22 9 34 19 28 10 -7
29 6 41 28 14 28 15 41 1 41 -12 0 -21 -14 -21 -31 0 -17 -9 -26 -19 -20 -11
7 -14 25 -8 42 6 16 6 29 -1 29 -8 0 -17 -11 -21 -25z"/>
<path d="M4234 2965 c13 -82 49 -145 74 -131 12 6 11 0 -3 -15 -14 -15 -25
-36 -25 -48 0 -12 8 -10 17 4 17 28 52 2 149 -114 31 -36 59 -62 64 -58 19 19
-37 177 -62 177 -16 0 -28 10 -28 22 0 13 -18 18 -40 12 -25 -6 -40 0 -40 16
0 14 -18 30 -40 36 -31 8 -40 27 -40 82 0 40 -8 72 -17 72 -10 0 -14 -25 -9
-55z"/>
<path d="M3406 2847 c-30 -12 -10 -67 24 -67 15 0 30 -7 35 -15 5 -8 4 -1 -1
15 -5 17 -9 41 -10 55 -1 26 -8 28 -48 12z"/>
<path d="M1801 2712 c-20 -25 -33 -27 -54 -9 -15 12 -34 17 -41 10 -7 -7 -2
-13 12 -13 39 0 16 -66 -25 -72 -29 -4 -35 5 -28 40 5 27 -2 45 -17 45 -13 0
-20 -12 -14 -26 6 -15 2 -27 -9 -27 -10 0 -19 -11 -20 -25 -3 -24 -18 -95 -26
-115 -2 -5 -2 -26 0 -45 2 -19 -7 -35 -19 -35 -12 0 -17 -9 -10 -20 6 -10 3
-36 -8 -57 -14 -26 -13 -45 4 -63 19 -20 19 -23 -1 -12 -14 8 -26 5 -27 -7 -2
-11 -4 -30 -5 -42 -2 -11 -16 -29 -33 -39 -20 -13 -22 -19 -5 -20 14 0 25 -10
25 -21 0 -12 -9 -16 -19 -9 -25 15 -60 -113 -38 -142 10 -13 5 -21 -13 -21
-17 0 -30 6 -30 13 0 7 -20 12 -45 12 -36 -2 -47 11 -55 66 -5 38 -20 72 -33
76 -34 11 4 -143 59 -244 103 -187 237 -60 415 393 23 57 58 141 78 185 77
170 98 232 81 232 -10 0 -24 -11 -32 -24 -10 -16 -19 -13 -27 12 -12 33 -15
33 -40 4z"/>
<path d="M5027 2705 c43 -69 -77 -486 -130 -453 -8 5 -28 -11 -46 -36 -21 -31
-31 -36 -32 -15 -1 18 -8 15 -19 -11 -9 -22 -18 -28 -19 -14 0 15 -10 21 -22
13 -13 -8 -19 8 -15 44 5 45 -2 56 -30 54 -24 -2 -33 7 -26 25 6 15 2 28 -9
28 -10 0 -18 7 -17 15 2 8 1 20 -1 25 -15 38 -15 80 1 80 10 0 18 23 18 50 0
28 -8 50 -18 50 -32 0 -57 -49 -49 -96 6 -38 0 -45 -31 -35 -21 7 -45 2 -53
-11 -10 -15 -7 -19 8 -10 14 9 23 0 23 -22 1 -28 4 -30 18 -8 29 45 62 5 62
-75 0 -65 -58 -191 -59 -130 -1 33 -160 20 -183 -15 -43 -67 72 -178 186 -178
130 0 323 159 418 343 53 105 78 362 37 387 -16 10 -20 8 -12 -5z"/>
<path d="M2326 2200 c0 -71 4 -101 8 -65 5 36 5 94 0 130 -4 36 -8 7 -8 -65z"/>
<path d="M2218 1778 c-30 -56 -40 -98 -21 -95 38 5 45 -6 23 -33 -22 -26 -20
-29 10 -17 24 9 32 6 23 -8 -7 -12 -1 -34 13 -48 15 -15 29 -36 32 -47 3 -11
23 -59 45 -106 21 -47 32 -95 25 -108 -8 -13 -5 -17 7 -9 11 7 32 -1 46 -18
14 -17 36 -27 50 -21 16 6 21 -5 14 -34 -6 -24 -3 -37 6 -28 37 34 28 91 -15
98 -23 3 -47 20 -51 36 -7 27 -5 27 15 0 20 -27 22 -27 15 0 -5 17 -21 30 -37
30 -28 0 -32 22 -36 180 -2 90 -82 176 -82 88 0 -26 10 -39 26 -32 17 6 27
-11 30 -53 l5 -63 -42 67 c-24 40 -37 88 -32 121 4 30 -3 76 -17 102 l-25 47
-27 -49z"/>
<path d="M2160 329 c-308 -33 -385 -96 -184 -150 217 -58 1157 -35 1263 30
167 104 -522 180 -1079 120z"/>
</g>
</svg>
