 <svg  version="1.0" xmlns="http://www.w3.org/2000/svg"  width="900.000000pt" height="450.000000pt" viewBox="0 0 900.000000 450.000000"  preserveAspectRatio="xMidYMid meet">  <g transform="translate(0.000000,450.000000) scale(0.100000,-0.100000)" fill="#80c3ff" stroke="none"> <path d="M2390 4240 c-362 -35 -672 -264 -843 -623 -47 -98 -108 -167 -148 -167 -30 0 -133 -54 -188 -98 -93 -75 -186 -179 -214 -238 -16 -32 -39 -79 -52 -104 -34 -68 -48 -168 -43 -316 4 -100 10 -143 28 -193 36 -102 130 -257 178 -295 13 -11 32 -27 41 -37 9 -10 53 -42 99 -72 89 -60 193 -100 305 -117 79 -12 1040 -13 1117 -1 29 5 60 17 73 30 29 27 46 28 22 1 -22 -25 -15 -97 15 -146 23 -36 44 -112 54 -190 6 -50 5 -52 -39 -100 -78 -84 -80 -88 -79 -189 0 -72 5 -98 22 -132 28 -53 28 -62 -3 -119 -26 -50 -33 -113 -15 -158 5 -14 30 -46 54 -71 42 -41 50 -45 95 -45 28 0 62 5 76 12 18 8 35 8 60 1 30 -10 39 -8 67 10 64 44 86 100 87 223 1 43 5 53 26 64 20 10 32 11 70 0 55 -15 145 -8 177 14 30 21 57 20 93 -4 32 -21 80 -27 90 -10 16 26 22 2 23 -92 l2 -103 -109 1 c-60 1 -113 4 -119 8 -36 22 -134 -70 -152 -144 -15 -64 -6 -105 37 -158 58 -71 120 -90 185 -56 27 14 38 15 65 5 37 -14 54 -8 103 38 26 23 33 39 41 97 14 99 17 107 42 100 98 -28 120 -28 180 3 l59 30 49 -25 c38 -19 54 -22 69 -14 24 13 87 13 95 0 8 -13 90 -13 134 0 98 28 151 146 129 285 -6 33 -12 127 -13 209 -3 147 -4 149 -33 190 -40 56 -66 68 -127 61 -27 -4 -63 -7 -80 -7 -30 -1 -113 26 -129 42 -4 4 0 39 9 77 20 78 16 217 -8 274 -8 19 -35 57 -61 85 -25 29 -46 56 -46 61 0 15 35 43 52 43 9 0 40 -11 70 -25 62 -29 134 -33 179 -9 45 23 103 83 129 133 17 34 22 63 23 125 2 122 -14 165 -94 252 l-68 73 15 52 c28 94 -11 243 -95 368 -48 70 -189 211 -211 211 -10 0 -28 9 -41 21 -58 51 -164 91 -297 114 -46 7 -94 20 -106 29 -13 8 -48 65 -80 126 -66 131 -110 193 -205 288 -170 172 -364 268 -601 297 -122 16 -125 16 -240 5z m345 -127 c46 -15 96 -32 135 -47 8 -3 22 -10 30 -15 8 -5 22 -12 30 -16 54 -22 145 -89 221 -165 125 -122 201 -251 245 -413 l19 -68 135 -4 c133 -4 222 -23 253 -54 6 -6 17 -11 23 -11 24 0 129 -78 187 -138 31 -33 57 -62 57 -65 0 -3 13 -26 30 -50 17 -25 30 -50 30 -57 0 -7 6 -24 14 -38 20 -40 38 -93 43 -128 7 -44 -50 -104 -98 -104 -59 0 -109 54 -109 118 0 15 -7 37 -15 48 -8 10 -15 25 -15 32 0 15 -76 115 -114 150 -32 30 -103 67 -174 92 -96 34 -275 20 -332 -26 -8 -6 -25 -15 -37 -18 -13 -4 -23 -11 -23 -16 0 -14 -66 -31 -93 -25 -43 11 -72 51 -72 100 0 46 19 68 90 106 42 23 40 66 -10 184 -7 17 -16 37 -19 45 -3 8 -15 29 -26 45 -11 17 -23 37 -27 47 -26 57 -193 207 -264 237 -13 6 -31 15 -39 20 -26 16 -93 38 -166 56 -114 27 -300 12 -387 -31 -16 -8 -37 -14 -47 -14 -9 0 -23 -7 -30 -15 -7 -8 -18 -15 -25 -15 -19 0 -134 -86 -185 -139 -49 -51 -104 -125 -120 -162 -5 -13 -14 -31 -19 -39 -24 -44 -42 -88 -44 -114 -2 -27 1 -29 63 -46 106 -29 180 -68 215 -114 33 -43 32 -77 -3 -114 -51 -55 -79 -53 -182 9 -127 77 -281 79 -440 6 -52 -24 -169 -136 -194 -187 -76 -153 -76 -296 0 -450 23 -46 158 -180 183 -180 10 0 24 -7 31 -15 7 -8 22 -15 34 -15 11 -1 32 -7 46 -15 21 -12 118 -14 584 -15 l559 0 23 -25 c31 -34 39 -69 24 -106 -26 -61 -2 -59 -600 -58 -300 0 -567 4 -595 9 -67 10 -122 31 -233 89 -55 28 -196 183 -228 251 -69 144 -69 143 -69 305 0 163 2 172 68 302 90 177 285 321 462 342 l50 6 15 60 c31 125 68 199 157 320 150 204 380 341 613 365 106 11 305 2 365 -17z m-84 -297 c168 -46 274 -124 389 -286 57 -80 65 -141 25 -205 -45 -74 -49 -89 -47 -158 2 -30 12 -48 50 -89 77 -83 136 -97 231 -53 100 47 226 73 278 57 21 -6 57 -16 81 -22 65 -17 173 -123 202 -198 12 -31 29 -74 37 -95 9 -20 14 -39 12 -41 -2 -2 -29 -15 -59 -30 -66 -31 -119 -77 -148 -129 -23 -40 -29 -82 -12 -92 18 -11 60 -107 60 -138 1 -44 23 -100 54 -142 27 -35 27 -55 2 -55 -7 0 -25 -9 -40 -21 -45 -35 -76 -38 -125 -12 -50 26 -103 30 -121 8 -7 -8 -20 -15 -29 -15 -9 0 -29 -9 -45 -19 -29 -19 -30 -19 -67 0 -21 10 -41 24 -45 30 -3 6 18 36 49 67 74 77 99 135 100 237 1 115 -20 172 -89 234 -84 77 -170 89 -256 34 -47 -29 -52 -29 -113 3 -62 33 -100 28 -166 -20 -49 -36 -109 -118 -109 -148 0 -10 13 -44 29 -76 33 -67 48 -146 30 -158 -8 -4 -18 1 -27 14 -8 12 -20 22 -27 22 -7 0 -18 7 -25 15 -33 40 -94 45 -630 47 l-515 3 -65 31 c-284 135 -290 492 -10 634 24 12 57 26 73 31 45 13 185 -8 262 -39 101 -42 155 -48 202 -23 60 31 114 93 123 141 16 88 -29 161 -147 242 -64 42 -73 52 -73 79 0 38 12 61 64 123 87 103 207 179 340 215 72 20 219 18 297 -3z m371 -1378 c2 -121 -1 -196 -7 -205 -7 -10 -25 -13 -50 -11 l-40 3 4 143 c2 88 0 142 -6 142 -6 0 -18 -9 -28 -20 -26 -28 -57 -22 -70 14 -8 22 -7 30 3 34 7 2 38 24 70 48 39 30 67 43 89 44 l32 0 3 -192z m291 173 c57 -37 72 -75 72 -186 0 -119 -16 -156 -84 -194 -40 -22 -47 -23 -80 -11 -78 27 -110 86 -111 202 0 131 49 207 135 208 23 0 52 -8 68 -19z m639 -173 c2 -106 1 -199 -1 -205 -2 -8 -20 -13 -47 -13 -28 0 -45 5 -45 13 -1 6 -1 72 1 145 1 72 -2 132 -7 132 -5 0 -17 -9 -26 -21 -25 -28 -59 -21 -72 15 -8 22 -7 30 3 34 7 2 38 24 70 48 39 30 67 43 89 44 l32 0 3 -192z m291 173 c58 -38 72 -75 72 -193 0 -103 -1 -107 -30 -143 -16 -21 -47 -44 -67 -52 -36 -14 -41 -14 -85 8 -66 33 -92 86 -92 190 -1 130 51 209 139 209 19 0 48 -9 63 -19z m-1346 -457 c8 -20 -15 -44 -43 -44 -27 0 -28 5 -13 48 9 27 14 30 30 21 11 -6 23 -17 26 -25z m233 11 c29 -15 46 -47 35 -65 -3 -6 -20 -17 -36 -26 -27 -13 -33 -13 -52 -1 -12 8 -28 26 -36 41 -13 23 -12 28 4 46 22 24 46 25 85 5z m-115 -125 c4 -7 8 -272 5 -383 0 -15 -7 -18 -47 -15 l-48 3 4 143 c2 78 0 142 -5 142 -5 -1 -22 -12 -39 -25 l-29 -24 -23 20 c-18 18 -20 25 -11 45 6 13 16 24 21 24 6 0 29 15 51 34 51 42 107 59 121 36z m300 -1 c6 -8 10 -330 6 -386 -1 -9 -17 -13 -46 -13 -29 0 -46 5 -46 13 -1 6 -1 72 1 145 1 79 -2 132 -7 132 -6 0 -18 -9 -28 -20 -27 -30 -59 -22 -63 15 -3 26 4 35 50 70 69 52 119 68 133 44z m301 0 c3 -6 7 -97 8 -202 l1 -192 -48 -3 -49 -3 3 137 c3 138 -3 163 -31 129 -29 -34 -77 -5 -66 40 4 14 10 25 15 25 5 0 30 15 54 34 56 43 99 56 113 35z m291 1 c43 -16 70 -59 84 -134 16 -97 -2 -186 -48 -232 -29 -29 -40 -34 -82 -34 -40 0 -54 5 -84 33 -90 81 -75 327 24 366 32 13 70 13 106 1z m-447 -426 c0 -21 -28 -17 -40 7 -7 11 -9 28 -5 37 6 15 9 14 26 -7 10 -13 19 -29 19 -37z m295 -34 c17 -10 49 -21 72 -25 24 -4 45 -10 48 -15 15 -24 -4 -180 -25 -206 -7 -7 -20 -14 -29 -14 -9 0 -35 -9 -56 -20 -60 -31 -65 -24 -65 87 0 79 -4 106 -20 136 -23 43 -25 58 -8 75 14 14 39 8 83 -18z m343 -44 c56 -29 65 -48 66 -143 1 -73 -2 -93 -19 -115 -18 -26 -25 -28 -79 -25 -52 2 -62 6 -80 30 -28 38 -30 169 -3 210 14 21 54 48 85 56 2 1 15 -5 30 -13z m243 2 c1 -2 3 -64 5 -139 5 -153 -1 -168 -51 -149 l-28 11 6 83 c3 46 3 86 0 90 -3 3 -14 1 -25 -5 -19 -10 -48 3 -48 22 0 13 58 69 82 79 22 8 57 13 59 8z m-1376 -34 c44 -48 47 -194 4 -240 -32 -34 -98 -34 -136 2 -27 25 -28 30 -28 119 0 85 2 96 24 119 35 37 102 37 136 0z m205 19 c1 -5 1 -69 2 -143 l2 -135 -35 0 -34 0 0 90 -1 90 -25 -3 c-15 -1 -32 5 -40 14 -11 14 -8 21 28 55 30 28 51 39 73 39 16 0 30 -3 30 -7z m217 -1 c21 -13 53 -102 53 -146 0 -48 -31 -120 -55 -130 -22 -8 -79 -8 -100 0 -24 10 -55 88 -55 139 0 48 31 130 52 138 20 8 92 8 105 -1z m218 -2 c4 -6 7 -70 8 -143 l1 -132 -42 -3 c-29 -2 -42 1 -43 10 0 7 0 50 1 96 l1 83 -28 -3 c-44 -5 -43 29 3 68 39 33 86 44 99 24z m293 -321 c25 -35 30 -57 31 -138 1 -72 0 -74 -35 -107 -39 -38 -57 -41 -101 -19 -48 24 -66 69 -62 155 4 76 25 123 59 134 34 11 92 -3 108 -25z m203 -114 c3 -71 2 -138 -3 -147 -13 -26 -55 -23 -63 3 -4 12 -4 54 0 95 8 84 2 103 -25 79 -17 -15 -19 -15 -34 6 -8 12 -13 26 -10 31 14 22 90 69 109 66 19 -3 20 -12 26 -133z m238 98 c28 -34 31 -45 31 -104 0 -77 -17 -116 -63 -142 -36 -21 -48 -21 -85 0 -32 19 -62 85 -62 139 0 43 26 114 48 130 9 7 36 14 59 14 36 0 46 -5 72 -37z m-1438 -40 c57 -34 60 -171 4 -207 -31 -21 -41 -20 -75 4 -31 22 -44 75 -34 141 5 32 14 45 38 60 37 23 32 23 67 2z m166 -5 c6 -7 11 -54 11 -104 2 -97 -7 -119 -45 -112 -15 3 -19 16 -23 73 -5 63 -7 70 -27 73 -32 5 -29 26 8 56 33 28 61 33 76 14z m377 -239 c18 -9 28 -24 36 -60 28 -114 -44 -199 -115 -137 -22 19 -25 29 -25 92 0 76 4 86 35 104 26 15 38 15 69 1z m178 -90 c4 -112 -2 -131 -39 -127 -27 3 -28 5 -33 73 -5 63 -7 70 -27 73 -29 4 -29 11 2 45 18 19 36 27 60 27 l34 0 3 -91z"/> <path d="M3216 2528 c-24 -34 -22 -189 2 -211 10 -10 26 -17 34 -17 31 0 41 28 41 126 0 83 -2 99 -18 110 -26 20 -42 17 -59 -8z"/> <path d="M4146 2528 c-11 -16 -16 -46 -16 -103 0 -95 16 -128 58 -123 23 3 28 9 35 48 12 67 1 172 -20 188 -24 18 -40 15 -57 -10z"/> <path d="M3821 1943 c-29 -64 -22 -183 14 -213 21 -18 52 -3 64 32 15 44 14 132 -3 173 -19 45 -57 49 -75 8z"/> <path d="M4044 1459 c-11 -19 -7 -140 5 -152 8 -8 16 -9 29 -1 18 12 29 96 17 141 -6 24 -38 32 -51 12z"/> <path d="M2882 1458 c-18 -18 -16 -133 3 -148 28 -23 45 5 45 74 0 55 -11 86 -30 86 -3 0 -11 -5 -18 -12z"/> <path d="M3310 1451 c-5 -11 -10 -41 -10 -66 0 -78 34 -113 58 -60 33 72 -12 191 -48 126z"/> <path d="M3804 1147 c-3 -8 -4 -42 -2 -77 2 -47 7 -66 21 -74 27 -17 38 9 35 89 -3 64 -5 70 -26 73 -12 2 -24 -3 -28 -11z"/> <path d="M4240 1141 c-23 -43 -5 -151 25 -151 18 0 34 38 35 83 0 54 -13 87 -35 87 -8 0 -19 -9 -25 -19z"/> <path d="M2850 1040 c0 -42 3 -50 19 -50 13 0 20 9 22 28 7 47 -1 72 -22 72 -16 0 -19 -7 -19 -50z"/> <path d="M3394 836 c-10 -27 1 -81 17 -84 20 -4 32 36 23 73 -7 27 -31 34 -40 11z"/> <path d="M4760 3301 c-43 -14 -88 -46 -120 -86 -25 -31 -30 -47 -30 -92 0 -50 3 -57 47 -104 25 -27 65 -58 89 -68 23 -11 48 -30 55 -43 9 -16 15 -92 19 -253 6 -213 8 -233 28 -265 12 -19 22 -40 22 -47 0 -6 -28 -27 -62 -47 -71 -39 -111 -84 -128 -142 -8 -27 -11 -139 -8 -374 3 -323 4 -337 26 -382 27 -58 27 -64 0 -108 -22 -34 -22 -44 -26 -385 -4 -393 -1 -409 67 -472 76 -70 159 -69 233 4 50 49 70 95 72 163 l1 35 45 -3 c81 -5 125 -4 156 3 27 6 32 4 42 -22 6 -15 14 -44 18 -63 9 -49 27 -80 66 -116 46 -43 88 -58 144 -49 39 5 54 15 100 63 30 31 57 65 60 75 8 25 15 22 76 -31 85 -75 137 -101 220 -111 40 -5 84 -8 98 -7 46 4 100 18 106 27 3 5 17 9 31 9 19 0 44 18 91 65 l64 64 -6 65 c-7 59 -5 68 19 106 36 57 38 165 5 231 -82 162 -262 256 -421 219 -30 -7 -65 -19 -79 -28 -14 -9 -42 -25 -63 -35 -21 -11 -50 -35 -64 -53 -14 -19 -33 -34 -43 -34 -24 0 -32 34 -35 147 -2 77 -6 98 -29 139 -14 26 -24 49 -22 51 2 3 21 -6 43 -20 55 -35 187 -55 245 -37 24 7 84 14 133 15 50 2 93 3 98 4 4 0 34 28 66 61 64 65 82 71 108 40 10 -11 22 -20 28 -20 6 0 24 -13 40 -30 45 -47 125 -73 221 -71 93 1 148 20 224 76 26 19 54 35 61 35 8 0 28 -16 44 -36 17 -20 48 -45 71 -55 37 -17 46 -17 93 -5 29 7 64 25 79 38 53 50 69 53 114 21 72 -51 107 -65 158 -65 59 1 93 19 138 75 27 33 32 47 28 71 -7 34 -37 98 -83 176 -18 30 -33 63 -33 73 0 9 23 62 51 118 59 114 61 150 12 201 -73 77 -128 84 -236 33 -32 -15 -60 -25 -62 -23 -3 2 -9 38 -15 79 -28 198 -207 275 -314 135 -41 -54 -56 -99 -56 -165 0 -33 -4 -62 -10 -66 -5 -3 -35 7 -67 23 -109 55 -228 69 -319 38 -28 -10 -83 -42 -122 -72 -39 -30 -77 -54 -85 -54 -19 0 -78 82 -75 105 2 12 14 23 33 28 80 23 100 31 134 52 66 43 124 110 159 185 26 54 26 60 30 319 2 145 1 279 -3 299 -4 22 -24 53 -57 88 -78 82 -143 85 -229 7 -23 -21 -53 -55 -66 -75 -27 -45 -36 -47 -51 -13 -18 39 -94 117 -129 131 -46 20 -72 17 -132 -12 l-53 -27 -55 28 c-48 24 -62 27 -111 21 -32 -4 -73 -11 -92 -17 -29 -9 -47 -7 -95 9 l-60 21 -7 47 c-6 41 -16 56 -68 108 l-60 61 -253 2 c-138 1 -263 -2 -277 -6z m553 -101 c13 0 8 -150 -5 -151 -7 -1 -59 0 -116 1 l-103 2 2 -329 2 -328 -88 -3 -88 -3 6 73 c4 40 7 188 8 328 l1 255 -103 1 c-57 1 -110 2 -116 3 -9 1 -13 23 -13 74 0 41 2 76 4 78 3 3 552 2 609 -1z m178 -220 c15 -8 19 -21 19 -60 0 -59 13 -70 36 -31 33 56 126 104 190 99 l39 -3 3 -69 c3 -81 -4 -89 -65 -81 -44 6 -87 -9 -121 -43 -38 -39 -44 -72 -43 -239 l2 -163 -81 0 -80 0 0 294 c0 226 3 296 13 299 22 9 68 7 88 -3z m557 -174 c2 -144 6 -182 19 -202 36 -56 125 -71 183 -31 51 34 64 98 52 257 -12 154 -10 157 83 155 36 -1 68 -5 72 -8 11 -11 3 -538 -9 -587 -13 -52 -67 -139 -100 -160 -71 -44 -92 -50 -185 -50 -64 0 -104 5 -130 16 -144 63 -145 64 -82 125 45 43 50 45 82 25 46 -29 124 -41 174 -27 57 15 69 24 94 72 36 71 21 92 -37 51 -35 -24 -47 -27 -124 -27 -91 0 -113 8 -173 64 -56 51 -64 90 -68 297 -2 104 -1 194 3 199 3 6 37 10 75 10 l68 -1 3 -178z m-778 109 c9 -11 14 -74 15 -224 3 -228 7 -259 37 -309 11 -18 18 -38 15 -46 -3 -7 -29 -24 -59 -38 -90 -44 -121 -90 -149 -226 -11 -52 -16 -62 -32 -60 -22 3 -58 87 -50 117 3 11 -9 46 -28 81 -37 69 -35 72 36 91 43 11 122 87 130 124 19 88 26 167 25 293 -2 141 2 172 23 200 13 16 22 15 37 -3z m497 -193 c7 -4 17 -39 22 -77 7 -48 23 -96 51 -150 22 -44 40 -87 40 -95 0 -9 -9 -33 -20 -55 -30 -59 -26 -96 16 -152 20 -26 47 -58 60 -71 13 -13 24 -26 24 -30 0 -4 -39 -8 -88 -9 -105 -1 -165 -22 -257 -88 -72 -51 -94 -50 -94 3 0 115 -10 182 -35 224 -33 57 -33 68 2 68 16 0 45 12 64 28 84 64 107 118 108 250 0 81 9 106 48 139 29 24 40 27 59 15z m-826 -679 c-2 -90 1 -163 5 -163 20 -1 280 -1 290 -1 7 1 9 53 6 166 l-5 165 92 0 91 0 -2 -407 -3 -408 -89 -3 -88 -3 3 168 4 168 -154 3 -153 3 3 -168 4 -168 -65 -3 c-117 -6 -105 -52 -103 405 1 219 2 402 3 406 0 4 37 7 83 5 l82 -3 -4 -162z m2200 -18 c-3 -99 -5 -198 -5 -220 -1 -39 0 -40 37 -43 27 -2 45 2 59 15 25 22 85 112 107 158 17 39 36 46 117 43 86 -3 97 -13 62 -51 -13 -14 -30 -35 -38 -47 -37 -55 -108 -146 -123 -159 -18 -14 -23 -51 -9 -51 11 0 82 -71 82 -82 0 -11 54 -87 98 -138 19 -22 31 -44 27 -50 -3 -5 -43 -10 -90 -10 l-84 0 -55 93 c-74 122 -75 123 -124 138 -67 20 -74 7 -62 -116 5 -55 5 -104 1 -108 -4 -4 -41 -7 -81 -5 l-72 3 -2 408 -1 408 80 -3 80 -3 -4 -180z m-1226 -51 c23 -4 58 -21 83 -41 44 -36 48 -34 54 17 3 22 9 25 46 28 58 4 72 -8 61 -56 -5 -20 -9 -127 -9 -237 0 -110 4 -217 9 -237 11 -48 -3 -60 -61 -56 -37 3 -43 6 -46 28 -6 52 -10 53 -59 13 -46 -38 -46 -38 -137 -38 -107 0 -155 21 -213 91 -52 62 -67 106 -67 199 0 49 6 95 15 118 21 50 82 122 122 144 36 20 124 42 147 37 8 -1 33 -6 55 -10z m852 -39 c34 -20 64 -43 67 -52 8 -21 -63 -101 -90 -102 -11 -1 -28 7 -38 17 -9 11 -35 24 -57 31 -33 10 -48 10 -88 -4 -68 -22 -96 -63 -96 -140 0 -77 28 -118 96 -140 40 -14 55 -14 88 -4 22 7 48 20 57 31 10 10 27 18 38 17 27 -1 98 -81 90 -102 -3 -9 -33 -33 -67 -53 -61 -37 -64 -38 -162 -39 -92 0 -103 2 -142 27 -53 34 -87 69 -120 121 -24 38 -27 51 -27 137 -1 99 7 124 58 193 27 36 114 94 151 100 17 3 64 4 105 2 66 -2 83 -7 137 -40z m108 -226 c8 -23 -12 -69 -28 -69 -17 0 -47 32 -47 50 0 16 31 38 57 39 6 1 15 -9 18 -20z m-1739 -199 c9 -94 54 -170 120 -201 48 -23 44 -63 -12 -138 -64 -85 -76 -83 -176 37 -87 105 -92 121 -51 183 14 22 28 55 29 72 3 31 11 78 19 105 3 6 18 12 34 12 30 0 30 -1 37 -70z m-193 -315 c38 -49 78 -101 90 -115 34 -39 115 -149 120 -163 5 -15 57 7 57 24 0 10 47 76 77 107 7 7 34 41 60 75 26 34 53 68 60 75 7 7 13 17 13 20 0 4 13 22 29 40 25 27 37 32 75 32 30 0 46 -4 46 -12 1 -12 0 -770 0 -795 0 -17 -141 -18 -158 -1 -7 7 -10 36 -7 82 3 39 7 149 10 244 4 147 3 172 -9 172 -8 0 -22 -10 -31 -22 -8 -13 -49 -69 -90 -126 -41 -56 -75 -105 -75 -108 0 -8 -32 -33 -41 -34 -7 0 -181 234 -198 268 -6 12 -18 22 -25 22 -11 0 -12 -47 -8 -255 l5 -256 -84 3 -84 3 3 340 c2 190 -1 364 -7 395 -11 66 2 83 64 78 37 -3 44 -9 108 -93z m1188 -146 c68 -25 119 -68 148 -124 26 -52 38 -153 21 -184 -11 -21 -17 -23 -63 -17 -29 3 -115 7 -192 8 l-140 2 -3 -30 c-6 -61 73 -98 188 -87 30 3 64 12 75 19 31 22 50 17 90 -23 28 -28 35 -41 28 -52 -24 -38 -170 -91 -249 -91 -100 0 -201 61 -254 153 -27 47 -30 61 -30 142 0 78 4 97 27 144 67 131 216 190 354 140z"/> <path d="M5820 1827 c-65 -30 -100 -81 -100 -145 0 -54 50 -120 105 -139 45 -16 104 -5 139 25 26 24 56 86 56 117 0 54 -46 119 -99 141 -39 17 -67 17 -101 1z"/> <path d="M5991 923 c-51 -10 -120 -102 -78 -104 74 -3 244 4 251 11 9 9 -17 48 -50 73 -24 18 -85 28 -123 20z"/> </g> </svg> 