<?xml version="1.0" standalone="no"?>
<!DOCTYPE svg PUBLIC "-//W3C//DTD SVG 20010904//EN"
 "http://www.w3.org/TR/2001/REC-SVG-20010904/DTD/svg10.dtd">
<svg version="1.0" xmlns="http://www.w3.org/2000/svg"
 width="300.000000pt" height="225.000000pt" viewBox="0 0 300.000000 225.000000"
 preserveAspectRatio="xMidYMid meet">
<metadata>
Created by potrace 1.10, written by Peter Selinger 2001-2011
</metadata>
<g transform="translate(0.000000,225.000000) scale(0.050000,-0.050000)"
fill="#bc34f0" stroke="none">
<path d="M813 3034 l-177 -104 -7 -105 c-8 -128 -17 -127 189 -5 203 121 163
121 368 0 208 -122 197 -122 190 4 l-6 103 -180 106 c-214 127 -164 127 -377
1z"/>
<path d="M2120 2653 l0 -188 -93 48 c-380 192 -737 -300 -472 -650 102 -135
338 -185 490 -103 62 33 75 35 75 10 0 -22 24 -30 95 -30 l96 0 4 550 4 550
-100 0 -99 0 0 -187z m-121 -299 c223 -112 149 -451 -99 -458 -145 -5 -240 94
-240 249 0 181 179 291 339 209z"/>
<path d="M2624 2508 c-243 -121 -298 -498 -101 -682 156 -145 489 -139 625 12
61 67 -85 136 -173 82 -143 -88 -373 -11 -375 125 0 32 28 35 310 35 l310 0 0
85 c-2 305 -314 484 -596 343z m348 -170 c102 -95 71 -118 -162 -118 -219 0
-240 9 -182 85 77 102 253 119 344 33z"/>
<path d="M3620 2538 c-27 -11 -65 -35 -85 -52 -32 -30 -35 -29 -35 11 0 38
-11 43 -95 43 l-95 0 4 -403 3 -402 92 -3 91 -2 0 256 c0 327 29 394 171 394
107 0 129 -61 129 -364 l0 -276 100 0 100 0 0 277 c0 310 22 363 153 363 118
0 137 -49 137 -362 l0 -278 95 0 95 0 0 307 c0 286 -3 312 -45 375 -97 146
-303 176 -436 64 l-61 -51 -41 44 c-72 77 -175 99 -277 59z"/>
<path d="M640 2248 c0 -424 72 -528 362 -528 286 1 350 91 364 515 l9 305 -97
0 -98 0 0 -249 c0 -348 -59 -448 -232 -390 -112 37 -132 101 -125 391 l7 248
-95 0 -95 0 0 -292z"/>
<path d="M4518 2496 c10 -25 86 -210 168 -411 l150 -365 -43 -85 c-38 -75 -52
-86 -118 -91 -74 -6 -75 -7 -75 -95 l0 -89 93 0 c159 0 213 79 466 675 l214
505 -101 0 -102 0 -108 -275 c-59 -151 -114 -282 -121 -290 -8 -9 -64 113
-124 270 l-111 285 -103 6 c-100 6 -102 5 -85 -40z"/>
</g>
</svg>
